<?xml version="1.0" encoding="UTF-8" standalone="no"?>
<!-- Generator: Adobe Illustrator 26.3.1, SVG Export Plug-In . SVG Version: 6.00 Build 0)  -->

<svg
   version="1.1"
   id="Layer_1"
   x="0px"
   y="0px"
   viewBox="0 0 4522.1709 365.09994"
   xml:space="preserve"
   sodipodi:docname="cbm2-w.svg"
   inkscape:version="1.4 (86a8ad7, 2024-10-11)"
   width="4522.1709"
   height="365.09995"
   xmlns:inkscape="http://www.inkscape.org/namespaces/inkscape"
   xmlns:sodipodi="http://sodipodi.sourceforge.net/DTD/sodipodi-0.dtd"
   xmlns="http://www.w3.org/2000/svg"
   xmlns:svg="http://www.w3.org/2000/svg"><defs
   id="defs35">
							
							
						
							
							
						
						
						
					
					
					
				
				
				
			
			
		
		
		
	
			
			
		
			
			
		
			
			
		
			
			
		
			
			
		
			
			
		
			
			
		
			
			
		
			
			
		
			
			
		
			
			
		
			
			
		
		
		
		
		
		
		
		
		
		
		
		
		
	</defs><sodipodi:namedview
   id="namedview35"
   pagecolor="#ffffff"
   bordercolor="#000000"
   borderopacity="0.25"
   inkscape:showpageshadow="2"
   inkscape:pageopacity="0.0"
   inkscape:pagecheckerboard="true"
   inkscape:deskcolor="#d1d1d1"
   inkscape:zoom="0.35355339"
   inkscape:cx="2098.6929"
   inkscape:cy="295.57063"
   inkscape:window-width="3840"
   inkscape:window-height="2066"
   inkscape:window-x="-11"
   inkscape:window-y="-11"
   inkscape:window-maximized="1"
   inkscape:current-layer="Layer_1" />
<style
   type="text/css"
   id="style1">
	.st0{fill:#FFFFFF;}
</style>
<text
   xml:space="preserve"
   style="font-size:531.441px;line-height:0;font-family:'Swis721 Blk BT';-inkscape-font-specification:'Swis721 Blk BT';text-align:center;letter-spacing:0px;word-spacing:0px;writing-mode:lr-tb;direction:ltr;text-anchor:middle;display:none;fill:#ffffff;stroke-width:19.1319;stroke-linecap:square;stroke-miterlimit:2;paint-order:stroke fill markers"
   x="3463.8054"
   y="359.78555"
   id="text1"
   inkscape:label="CBM-II"><tspan
     sodipodi:role="line"
     id="tspan1"
     x="-39.400002"
     y="-16.000029"
     style="font-style:normal;font-variant:normal;font-weight:bold;font-stretch:normal;font-family:'Microgramma D Extended';-inkscape-font-specification:'Microgramma D Extended Bold';stroke-width:19.1319">CBM-II</tspan></text><g
   id="g37"
   style="display:none"
   inkscape:label="Outline3"
   transform="translate(-39.4,-39.300029)"><path
     class="st0"
     d="m 198.7,52.8 c 14.8,0 29.5,1.9 43.7,5.7 l 7.3,1.9 v 7.6 74.5 h 35.9 21.1 72 23.6 l -16.7,16.7 -62.6,62.6 62.6,62.6 16.7,16.7 h -23.6 -72 -21.1 -35.9 l -0.2,0.1 v 74.4 7.5 l -7.3,1.9 c -14.1,3.8 -28.8,5.7 -43.7,5.7 -22.8,0 -44.9,-4.5 -65.8,-13.3 C 112.6,368.9 94.5,356.7 79,341.2 63.5,325.7 51.3,307.6 42.8,287.5 34,266.7 29.5,244.5 29.5,221.7 c 0,-22.8 4.5,-45 13.3,-65.8 8.5,-20.1 20.7,-38.2 36.2,-53.7 15.5,-15.5 33.6,-27.7 53.8,-36.2 20.9,-8.7 43,-13.2 65.9,-13.2 m -0.1,243.7 c 10.9,0 21.6,-2.4 31.3,-6.9 v -3.9 h 0.1 v -58.1 -1.8 -8 -1.8 -61.9 c -9.9,-4.6 -20.4,-7 -31.4,-7 -41.1,0 -74.6,33.5 -74.6,74.6 -0.1,41.3 33.4,74.8 74.6,74.8 m 203.6,-154 v 0 M 198.7,23.3 c -26.8,0 -52.8,5.3 -77.3,15.6 C 97.7,48.9 76.5,63.2 58.3,81.4 40.1,99.6 25.8,120.9 15.7,144.5 5.3,169.1 0,195.1 0,221.9 c 0,26.8 5.3,52.8 15.6,77.3 10,23.6 24.3,44.9 42.5,63.1 18.2,18.2 39.5,32.5 63.1,42.5 24.5,10.4 50.5,15.6 77.3,15.6 17.4,0 34.7,-2.3 51.3,-6.7 l 7.3,-1.9 C 270,408.3 279,396.6 279,383.3 v -7.5 -45 h 6.5 21.1 72 23.6 c 11.9,0 22.7,-7.2 27.3,-18.2 4.6,-11 2,-23.7 -6.4,-32.2 L 406.4,263.7 364.7,222 406.4,180.3 423,163.7 c 5.4,-5.4 8.8,-12.8 8.8,-21 0,-16.3 -13.2,-29.5 -29.5,-29.5 0,0 0,0 0,0 0,0 0,0 0,0 v 0 h -23.6 -72 -21.1 -6.4 V 68 60.5 c 0,-13.4 -9,-25.1 -21.9,-28.5 L 250,30 c -16.6,-4.4 -33.9,-6.7 -51.3,-6.7 z m -0.1,243.6 c -24.9,0 -45.1,-20.2 -45.1,-45.1 0,-24.9 20.2,-45.1 45.1,-45.1 0.6,0 1.3,0 1.9,0 v 39.3 1.8 8 1.8 39.3 c -0.7,0 -1.3,0 -1.9,0 z"
     id="path24"
     style="display:inline"
     inkscape:label="C2" /><path
     class="st0"
     d="m 527.8,147.5 c 35.3,0 53.9,3.4 66.5,12.1 14.9,10.3 19.3,27 21.2,48.9 l 0.9,10.7 h -10.7 -44.6 -7.8 l -1.8,-7.5 c -1.1,-4.6 -1.8,-4.9 -2.6,-5.3 -3.9,-1.8 -14,-2 -21.2,-2 -14.5,0 -25.9,0 -29.9,1.9 -0.5,0.3 -0.8,0.4 -1.1,1.3 -1,2.8 -1,8.3 -1,10.1 0,9.8 1.2,15.2 3.8,17.6 3.1,2.8 10.5,4.2 22.6,4.2 14.5,0 23.9,-1.1 27.8,-3.1 1,-0.5 1.4,-0.7 1.4,-4.7 v -9.8 h 9.8 44.6 9.8 v 9.8 c 0,19.9 -2.4,39.8 -20.2,51.1 -15.2,9.7 -39.2,11.7 -73.1,11.7 -31.7,0 -55.9,-2.5 -71.2,-14.7 -7.5,-6 -12.6,-14 -15.6,-24.5 -2.5,-8.9 -3.7,-19.9 -3.7,-34.6 0,-22.8 2.5,-45.7 20.7,-59 13.8,-10.2 34.9,-14.2 75.4,-14.2 m 0,-29.5 c -22.6,0 -39.4,1.2 -53.1,3.7 -16.3,3 -29,8.1 -39.7,15.9 -13.7,10 -23.2,24 -28.2,41.7 -4.1,14.5 -4.7,29.6 -4.7,41.1 0,17.6 1.6,31.2 4.9,42.8 4.7,16.4 13.3,29.7 25.6,39.5 22,17.5 51.7,21.1 89.6,21.1 40.3,0 67.7,-2.7 89.1,-16.3 14,-8.9 23.7,-21.8 29,-38.3 4.3,-13.4 4.8,-27.2 4.8,-37.7 v -5.2 c 0.8,-3.2 1.1,-6.5 0.8,-9.9 L 645,205.7 c -2.2,-24.8 -8,-52.7 -33.9,-70.6 -9.9,-6.8 -21.7,-11.4 -36.2,-14 C 562.6,119 547.6,118 527.8,118 Z"
     id="path14"
     inkscape:label="c2" /><path
     class="st0"
     d="m 718.2,146.6 c 35,0 59.7,2.2 75.2,13.2 16.6,11.8 20,31.3 20,56.9 0,25.7 -1.3,48.2 -16.7,61.7 -13.1,11.5 -34.2,15.8 -77.7,15.8 h -0.9 c -35.7,0 -61,-2.4 -76.6,-14.2 -7.8,-5.9 -13,-14 -16,-24.7 -2.4,-8.8 -3.5,-19.6 -3.5,-34.9 0,-23.7 1.4,-46 18,-59.2 13.4,-10.7 34.6,-14.6 78.2,-14.6 m -0.6,92.8 h 1.3 c 10.3,0 22.5,-0.4 26.3,-3.3 2,-1.6 2.9,-6.5 2.9,-16.5 0,-12.3 -1.6,-14.8 -2.9,-15.5 -4.2,-2.5 -17.3,-2.5 -30,-2.5 -7.3,0 -20.9,0 -24.7,2.7 -1.8,1.3 -2.6,6.2 -2.6,15.3 0,10.2 0.8,15.2 2.8,16.7 4.2,3.1 20.1,3.1 26.9,3.1 M 718.2,117 c -24.5,0 -41.7,1.2 -55.8,3.8 -17,3.2 -29.9,8.7 -40.7,17.2 -12.8,10.2 -21.4,24.3 -25.6,42 -3,12.5 -3.6,25.1 -3.6,40.3 0,18.2 1.4,31.4 4.6,42.9 4.7,17 13.7,30.5 26.7,40.3 22.2,16.8 52.6,20.2 94.4,20.2 h 0.8 c 24.6,0 42,-1.3 56.1,-4.2 17.3,-3.5 30.3,-9.6 41.1,-19 26.7,-23.5 26.7,-59.8 26.7,-83.9 0,-28.7 -3.9,-60.7 -32.4,-81 C 788.6,120.1 758.9,117 718.2,117 Z"
     id="path12"
     inkscape:label="o2" /><path
     class="st0"
     d="m 1032.7,144.7 c 22.9,0 40.8,5.1 53.1,15 13.2,10.7 19.9,26.8 19.9,47.6 v 72.4 9.8 h -9.8 -44.6 -9.8 v -9.8 -64.9 c 0,-8 -2.3,-9.7 -3.2,-10.3 -2.8,-2 -8.4,-3.1 -16.7,-3.1 -25.5,0 -25.5,8.4 -25.5,13.4 v 64.9 9.8 h -9.8 -45.5 -9.8 v -9.8 -56.6 c 0,-9.4 -1.2,-15.2 -3.6,-17.9 -2.3,-2.6 -7.7,-3.8 -16.3,-3.8 -24.6,0 -24.6,6.4 -24.6,15.3 v 63.2 9.8 h -9.8 -44.6 -9.8 v -9.8 -122.6 -9.8 h 9.8 41.9 9.9 v 5.7 c 9.1,-5.8 21.3,-8.6 38.3,-8.6 30.3,0 46.3,8.1 56.6,18.9 3.1,-3.6 6.7,-6.6 11,-9.2 10.5,-6.3 24.9,-9.6 42.9,-9.6 m 0,-29.5 c -21.5,0 -39.7,3.9 -54.4,11.7 -15.2,-7.9 -33.8,-11.7 -56.2,-11.7 -12,0 -22.5,1.2 -31.7,3.6 -2.1,-0.5 -4.3,-0.7 -6.5,-0.7 h -9.9 -41.8 -9.8 c -16.3,0 -29.5,13.2 -29.5,29.5 v 9.8 122.5 9.8 c 0,16.3 13.2,29.5 29.5,29.5 h 9.8 44.6 9.8 c 8.9,0 16.9,-3.9 22.3,-10.1 5.4,6.2 13.3,10 22.2,10 h 9.8 45.5 9.8 c 9.1,0 17.2,-4.1 22.7,-10.6 5.4,6.5 13.6,10.6 22.7,10.6 h 9.8 44.6 9.8 c 16.3,0 29.5,-13.2 29.5,-29.5 v -9.8 -72.4 c 0,-37.6 -16.7,-59.1 -30.8,-70.5 -17.8,-14.4 -41.9,-21.7 -71.8,-21.7 z"
     id="path10"
     inkscape:label="m2" /><path
     class="st0"
     d="m 1331.8,144.7 c 23,0 40.8,5.1 53.1,15.1 13.2,10.7 19.8,26.7 19.8,47.6 v 72.4 9.8 h -9.8 -44.6 -9.8 v -9.8 -64.9 c 0,-6.3 0,-13.4 -20.9,-13.4 -24.6,0 -24.6,7.8 -24.6,13.4 v 64.9 9.8 h -9.8 -45.5 -9.8 v -9.8 -56.6 c 0,-9.7 -1.2,-15.6 -3.5,-18.1 -2.2,-2.4 -7.6,-3.6 -16.4,-3.6 -9.3,0 -15.8,1.3 -19.4,3.8 -2,1.4 -4.2,4 -4.2,11.5 v 63.2 9.8 h -9.8 -44.6 -9.8 V 280 157.3 147.5 h 9.8 41.8 9.8 v 6 c 8.9,-6 20.9,-8.8 37.5,-8.8 18.2,0 32.3,2.9 43.2,8.7 5,2.7 9.4,6 13.4,10.2 10.8,-12.8 28.3,-18.9 54.1,-18.9 m 0,-29.5 c -16.4,0 -30.2,2.1 -42.4,6.3 -4.3,1.5 -8.3,3.3 -12.1,5.3 -15.1,-7.8 -33.4,-11.6 -55.9,-11.6 -11.7,0 -21.9,1.2 -31,3.6 -2.1,-0.5 -4.3,-0.7 -6.5,-0.7 h -9.8 -41.8 -9.8 c -16.3,0 -29.5,13.2 -29.5,29.5 v 9.8 122.5 9.8 c 0,16.3 13.2,29.5 29.5,29.5 h 9.8 44.6 9.8 c 8.6,0 16.4,-3.7 21.8,-9.6 5.4,5.8 13.1,9.5 21.7,9.5 h 9.8 45.5 9.8 c 9.1,0 17.3,-4.1 22.7,-10.7 5.4,6.5 13.6,10.7 22.7,10.7 h 9.8 44.6 9.8 c 16.3,0 29.5,-13.2 29.5,-29.5 v -9.8 -72.4 c 0,-37.6 -16.7,-59.1 -30.7,-70.5 -17.9,-14.4 -42,-21.7 -71.9,-21.7 z"
     id="path8"
     inkscape:label="m2" /><path
     class="st0"
     d="m 1510.1,146.6 c 35,0 59.9,2.2 75.6,13.1 8,5.6 13.5,13.3 16.7,23.5 2.7,8.6 3.9,18.9 3.9,33.5 0,25.7 -1.3,48.1 -17.2,61.8 -15.2,13.1 -41.2,15.8 -78.1,15.8 h -0.9 c -35.7,0 -60.9,-2.3 -76.6,-14 -7.8,-5.8 -13.1,-13.8 -16.1,-24.4 -2.5,-8.7 -3.6,-19.3 -3.6,-34.5 0,-23.7 1.4,-46.1 17.9,-59.5 7.3,-6 17.1,-9.9 30.6,-12.2 11.8,-2.2 27,-3.1 47.8,-3.1 m -0.4,92.8 h 1.4 c 10.3,0 22.6,-0.4 26.3,-3.3 2,-1.6 2.9,-6.5 2.9,-16.5 0,-12.3 -1.6,-14.8 -2.9,-15.5 -4.2,-2.5 -17.3,-2.5 -30,-2.5 -7.6,0 -21.7,0 -25.6,2.7 -1.8,1.3 -2.7,6.1 -2.7,15.3 0,10.2 0.8,15.2 2.8,16.6 3.8,2.8 16.2,3.2 27.8,3.2 m 0.4,-122.4 c -22.5,0 -39.3,1.1 -52.7,3.4 -18.7,3.2 -32.8,9.1 -44.2,18.4 -12.6,10.3 -21.1,24.4 -25.2,42.1 -2.9,12.5 -3.5,25.2 -3.5,40.4 0,18 1.4,31.1 4.7,42.5 4.8,16.9 13.8,30.3 26.8,40.1 22.2,16.6 52.5,19.9 94.2,19.9 h 0.8 c 35.9,0 72.9,-1.8 97.4,-22.9 12.1,-10.4 20.2,-24.7 24.1,-42.4 3.1,-14 3.3,-28.9 3.3,-41.7 0,-17.7 -1.6,-30.8 -5.2,-42.4 -5.2,-16.5 -14.6,-29.6 -28,-38.9 -22.1,-15.4 -51.8,-18.5 -92.5,-18.5 z"
     id="path16"
     inkscape:label="o2" /><path
     class="st0"
     d="m 1807.7,95.5 v 9.8 174.5 9.8 h -9.8 -44.6 -9.8 V 283 c -10,6.1 -24.1,9.5 -45.9,9.5 -32.8,0 -52.1,-4.6 -64.7,-15.5 -12.9,-11.2 -18.5,-28.4 -18.5,-57.5 0,-24.9 2.7,-44.2 16,-57.1 12,-11.7 31.3,-16.7 64.4,-16.7 22.8,0 36.7,2.8 46.8,8.5 v -48.9 -9.8 h 9.8 46.4 9.9 m -92.5,141.2 c 7.3,0 22.4,0 25.2,-2.6 2.1,-1.9 2.1,-13.8 2.1,-20.2 0,-8.9 -2,-10.1 -2.8,-10.7 -3.8,-2.4 -13.7,-2.7 -20.8,-2.7 -16.3,0 -28.2,0.2 -33.6,3 -1.8,0.9 -4.9,2.5 -4.9,16.9 0,11.8 2.3,13 3.7,13.7 4.8,2.4 15.9,2.6 31.1,2.6 M 1807.7,66 h -9.8 -46.4 -9.8 c -16.3,0 -29.5,13.2 -29.5,29.5 v 9.8 11.4 c -5.3,-0.4 -11.1,-0.6 -17.3,-0.6 -29.3,0 -62.4,3 -85.1,25.1 -21.9,21.3 -24.9,50.2 -24.9,78.3 0,25.6 3.3,57.8 28.7,79.8 18.4,15.9 43.5,22.7 84,22.7 14.4,0 26.8,-1.3 37.6,-4 2.6,0.8 5.4,1.2 8.3,1.2 h 9.8 44.6 9.8 c 16.3,0 29.5,-13.2 29.5,-29.5 V 279.9 105.3 95.5 C 1837.2,79.2 1824,66 1807.7,66 Z"
     id="path18"
     inkscape:label="d2" /><path
     class="st0"
     d="m 1911.2,146.6 c 35,0 59.7,2.2 75.2,13.2 16.6,11.8 20,31.3 20,56.9 0,25.7 -1.3,48.2 -16.7,61.7 -13.1,11.5 -34.2,15.8 -77.7,15.8 h -0.9 c -35.3,0 -60.3,-2.4 -75.8,-14.2 -7.7,-5.9 -12.9,-14 -15.9,-24.7 -2.4,-8.8 -3.5,-19.6 -3.5,-34.9 0,-23.6 1.4,-45.9 17.8,-59.2 13.4,-10.7 34.4,-14.6 77.5,-14.6 m -0.4,92.8 h 1.4 c 10.3,0 22.6,-0.4 26.3,-3.3 2,-1.6 2.9,-6.5 2.9,-16.5 0,-12.3 -1.6,-14.8 -2.9,-15.5 -4.2,-2.5 -17.3,-2.5 -30,-2.5 -7.6,0 -21.7,0 -25.6,2.7 -1.8,1.3 -2.7,6.1 -2.7,15.3 0,10.2 0.8,15.2 2.8,16.6 3.8,2.8 16.2,3.2 27.8,3.2 m 0.4,-122.4 c -24.3,0 -41.4,1.2 -55.4,3.8 -16.9,3.2 -29.8,8.7 -40.5,17.4 -12.6,10.2 -21.1,24.3 -25.3,41.9 -2.9,12.4 -3.5,25.1 -3.5,40.2 0,18.2 1.4,31.4 4.6,42.8 4.7,16.9 13.6,30.5 26.4,40.3 22.1,16.9 52.2,20.3 93.7,20.3 h 0.8 c 24.6,0 42,-1.3 56.1,-4.2 17.3,-3.5 30.3,-9.6 41.1,-19 26.7,-23.5 26.7,-59.8 26.7,-83.9 0,-28.7 -3.9,-60.7 -32.4,-81 C 1981.6,120.1 1952,117 1911.2,117 Z"
     id="path22"
     inkscape:label="o2" /><path
     class="st0"
     d="m 2112.7,144.7 c 25.7,0 40.5,5.1 49.6,17 4.9,6.4 7.5,14.2 8.9,23.9 2.9,-9.1 7.6,-17.1 15.2,-23.2 15.4,-12.3 39.9,-14.8 72.1,-14.8 38,0 62.6,2.8 76.3,17.3 12.7,13.5 13.3,33.8 14.3,64.5 v 1 l 0.3,10.1 h -0.4 v 1.4 c 0,23.2 -9.2,38.1 -28.2,45.4 -16.9,6.5 -41,7.1 -70.7,7.1 h -0.1 -0.1 c -31.9,-0.5 -50.1,-4.9 -62.8,-15.1 -13.9,-11.1 -20.2,-28.7 -20.2,-56.9 0,-0.2 0,-0.3 0,-0.5 h -4.1 -41.8 -9.3 l -0.5,-9.2 c -0.4,-6.8 -1.5,-9.2 -2.3,-10 -0.8,-0.8 -3.5,-2.1 -12,-2.1 -16.7,0 -19,7.3 -19,15.3 v 64 9.8 h -9.8 -44.6 -9.8 v -9.8 -122.6 -9.8 h 9.8 42.7 9.8 v 5.2 c 8.9,-5.8 20.2,-8 36.7,-8 M 2271.4,246 c 9.1,0 12,-1.3 12.9,-1.8 0.3,-0.2 0.8,-0.6 1.5,-3.6 h -52.5 c 0.6,1.3 1.3,1.7 2.1,2 5.8,2.9 20.7,3.4 36,3.4 M 2112.7,115.2 c -13.1,0 -23.1,1.3 -31.1,3.4 -1.8,-0.3 -3.7,-0.5 -5.5,-0.5 h -9.8 -42.7 -9.8 c -16.3,0 -29.5,13.2 -29.5,29.5 v 9.8 122.5 9.8 c 0,16.3 13.2,29.5 29.5,29.5 h 9.8 44.6 9.8 c 16.3,0 29.5,-13.2 29.5,-29.5 v -9.8 -28.7 c 1.4,0.2 2.8,0.3 4.3,0.3 h 9.3 18.8 c 3.3,17.9 11.1,36.7 28.9,50.9 18.3,14.7 41.7,20.9 80.8,21.6 v 0 c 0.2,0 0.4,0 0.6,0 h 0.1 c 32.8,0 59.7,-0.7 81.3,-9 15.6,-6 27.6,-15.7 35.7,-28.7 7,-11.3 10.8,-24.8 11.4,-40.3 0.4,-2 0.5,-4.1 0.5,-6.2 l -0.3,-10.1 v -1 c -0.5,-16.2 -0.9,-30.3 -3.2,-42.9 -3,-17.3 -9.1,-30.3 -19.1,-40.9 -23.1,-24.6 -59.4,-26.6 -97.8,-26.6 -33.8,0 -61.2,2.8 -82.4,15.6 -6.5,-5.5 -14.1,-9.8 -22.8,-12.8 -11.5,-4.2 -24.4,-5.9 -40.9,-5.9 z"
     id="path20"
     inkscape:label="re2" /></g><g
   id="g38"
   inkscape:label="Outline2"
   style="display:none"
   transform="translate(-39.4,-39.300029)"><path
     class="st0"
     d="m 198.6,405.7 c -24.8,0 -48.9,-4.9 -71.5,-14.5 C 105.2,381.9 85.6,368.7 68.7,351.8 51.8,334.9 38.6,315.3 29.3,293.4 19.7,270.7 14.8,246.7 14.8,221.9 14.8,197.1 19.7,173 29.3,150.4 38.6,128.5 51.8,108.9 68.7,92 85.6,75.1 105.2,61.9 127.1,52.6 149.8,43 173.9,38.1 198.7,38.1 c 16.1,0 32.1,2.1 47.5,6.2 l 7.3,1.9 c 6.5,1.7 10.9,7.6 10.9,14.3 v 67.3 h 137.8 c 6,0 11.4,3.6 13.6,9.1 2.3,5.5 1,11.9 -3.2,16.1 l -68.9,68.9 68.9,68.9 c 4.2,4.2 5.5,10.6 3.2,16.1 -2.3,5.5 -7.7,9.1 -13.6,9.1 H 264.3 v 67.3 c 0,6.7 -4.5,12.5 -10.9,14.3 l -7.3,1.9 c -15.4,4.1 -31.4,6.2 -47.5,6.2 z m 0,-243.7 c -33,0 -59.8,26.8 -59.8,59.8 0,33 26.8,59.8 59.8,59.8 5.6,0 11.3,-0.8 16.7,-2.4 v -115 c -5.4,-1.4 -11,-2.2 -16.7,-2.2 z"
     id="path23"
     style="display:inline"
     inkscape:label="C" /><path
     class="st0"
     d="m 522.2,309.1 c -34.8,0 -61.8,-3 -80.4,-17.9 -9.8,-7.8 -16.8,-18.6 -20.6,-32 -2.9,-10.2 -4.3,-22.5 -4.3,-38.7 0,-25.4 3.2,-53.7 26.8,-70.9 16.6,-12.1 40.2,-16.8 84.1,-16.8 38.6,0 59.6,4.1 74.9,14.7 20.8,14.4 25.6,37.2 27.6,59.7 l 0.9,10.7 c 0.2,2.2 -0.1,4.4 -0.9,6.4 v 7.3 c 0,22.9 -3.2,48.4 -27,63.6 -18.2,11.6 -44.5,13.9 -81.1,13.9 z m -11.4,-85.2 c 2.1,0.3 5.7,0.7 11.4,0.7 6.6,0 11.2,-0.2 14.4,-0.5 v -2.3 c 0,-0.9 0.1,-1.7 0.2,-2.6 -2.2,-0.1 -5.2,-0.2 -9.1,-0.2 -5.7,0 -12.2,0 -17.2,0.2 0.1,2.1 0.2,3.6 0.3,4.7 z"
     id="path13"
     inkscape:label="c" /><path
     class="st0"
     d="m 718.1,309 c -52.3,0 -71.5,-6.6 -85.5,-17.2 -10.3,-7.8 -17.5,-18.7 -21.3,-32.5 -2.8,-10.1 -4.1,-22.1 -4.1,-38.9 0,-26.3 1.8,-53.5 23.6,-70.7 16.4,-13 40.1,-17.9 87.4,-17.9 51.1,0 69.9,6.1 83.7,15.9 23.1,16.4 26.2,42.8 26.2,69 0,28.3 -1.7,55.2 -21.7,72.8 C 790.3,303.7 766.6,309 719,309 Z m -15.4,-84.8 c 3,0.3 7.7,0.5 14.9,0.5 h 1.3 c 7,0 11.5,-0.2 14.3,-0.5 0.1,-1.2 0.1,-2.7 0.1,-4.6 0,-1.1 0,-2.1 0,-2.9 -5.4,-0.3 -12.9,-0.3 -18.1,-0.3 -5.2,0 -9.4,0.1 -12.5,0.3 0,0.9 0,1.8 0,3 0,1.7 0,3.2 0,4.5 z m -5.6,-6.9 z"
     id="path11"
     inkscape:label="o" /><path
     class="st0"
     d="m 822.4,304.4 c -8.2,0 -14.8,-6.6 -14.8,-14.8 V 147.5 c 0,-8.2 6.6,-14.8 14.8,-14.8 h 61.5 c 2.2,0 4.3,0.5 6.3,1.4 8.9,-2.9 19.4,-4.2 31.9,-4.2 23.9,0 42.2,4.5 56.3,14.1 1.2,-0.8 2.4,-1.6 3.6,-2.3 12.9,-7.8 30,-11.8 50.7,-11.8 26.4,0 47.4,6.2 62.4,18.4 16.6,13.5 25.3,33.9 25.3,59.1 v 82.2 c 0,8.2 -6.6,14.8 -14.8,14.8 h -64.1 c -8.2,0 -14.8,-6.6 -14.8,-14.8 v -73.2 c -1.3,-0.1 -3,-0.2 -5.1,-0.2 -5.4,0 -8.7,0.4 -10.7,0.8 v 72.5 c 0,8.2 -6.6,14.8 -14.8,14.8 H 931 c -8.2,0 -14.8,-6.6 -14.8,-14.8 v -66.4 c 0,-3.1 -0.2,-5.3 -0.3,-6.8 -1.1,-0.1 -2.7,-0.2 -4.8,-0.2 -4.8,0 -7.9,0.3 -9.8,0.6 v 72.9 c 0,8.2 -6.6,14.8 -14.8,14.8 z"
     id="path9"
     inkscape:label="m" /><path
     class="st0"
     d="m 1122.4,304.4 c -8.2,0 -14.8,-6.6 -14.8,-14.8 V 147.5 c 0,-8.2 6.6,-14.8 14.8,-14.8 h 61.4 c 2.3,0 4.4,0.5 6.3,1.4 8.7,-2.9 19,-4.3 31.2,-4.3 20.7,0 37.1,3.4 50.2,10.5 2.1,1.1 4,2.3 5.9,3.6 13.2,-9.4 31.2,-14.1 54.4,-14.1 26.5,0 47.5,6.2 62.4,18.4 16.5,13.5 25.3,33.9 25.3,59.1 v 82.2 c 0,8.2 -6.6,14.8 -14.8,14.8 h -64.1 c -8.2,0 -14.8,-6.6 -14.8,-14.8 v -73 c -1.4,-0.2 -3.4,-0.3 -6.1,-0.3 -4.8,0 -7.9,0.3 -9.8,0.7 v 72.7 c 0,8.2 -6.6,14.8 -14.8,14.8 H 1230 c -8.2,0 -14.8,-6.6 -14.8,-14.8 v -66.4 c 0,-3.1 -0.1,-5.2 -0.3,-6.8 -1.2,-0.1 -2.8,-0.2 -4.8,-0.2 -4.3,0 -7.1,0.3 -8.8,0.6 v 72.8 c 0,8.2 -6.6,14.8 -14.8,14.8 z"
     id="path7"
     inkscape:label="m" /><path
     class="st0"
     d="m 1510.1,309 c -52.2,0 -71.4,-6.5 -85.4,-17 -10.3,-7.7 -17.6,-18.6 -21.4,-32.3 -2.8,-10 -4.1,-21.9 -4.1,-38.5 0,-26.3 1.8,-53.4 23.3,-71 9.4,-7.6 21.3,-12.5 37.4,-15.3 12.6,-2.2 28.6,-3.2 50.2,-3.2 51.1,0 70.1,6 84,15.8 10.7,7.4 18.2,17.9 22.3,31.2 3.2,10.1 4.6,21.8 4.6,37.9 0,28.3 -1.7,55.2 -22.3,73 -18.7,16.1 -47.4,19.4 -87.8,19.4 z m -16.2,-84.9 c 3.1,0.3 8,0.5 15.8,0.5 h 1.4 c 7,0 11.5,-0.2 14.3,-0.5 0.1,-1.2 0.1,-2.7 0.1,-4.6 0,-1.1 0,-2.1 0,-2.9 -5.4,-0.3 -12.9,-0.3 -18.1,-0.3 -5.7,0 -10.2,0.1 -13.5,0.3 0,0.8 0,1.8 0,2.9 -0.1,1.9 -0.1,3.4 0,4.6 z"
     id="path15"
     inkscape:label="o" /><path
     class="st0"
     d="m 1697.6,307.2 c -36.6,0 -58.9,-5.7 -74.3,-19.1 -20.9,-18.1 -23.6,-46.2 -23.6,-68.6 0,-24.8 2.5,-50.2 20.4,-67.7 15,-14.7 37.4,-20.9 74.8,-20.9 12.7,0 23.2,0.8 32,2.6 v -38 c 0,-8.2 6.6,-14.8 14.8,-14.8 h 66 c 8.2,0 14.8,6.6 14.8,14.8 v 194.1 c 0,8.2 -6.6,14.8 -14.8,14.8 h -64.1 c -2.7,0 -5.3,-0.7 -7.5,-2 -10.5,3.3 -23.1,4.8 -38.5,4.8 z m -2.4,-85.8 c 5.9,0.5 14.9,0.5 20,0.5 5.1,0 9.3,-0.1 12.5,-0.2 0.1,-2.2 0.1,-4.4 0.1,-6.1 -2.1,-0.1 -4.9,-0.3 -8.8,-0.3 -6.1,0 -17.4,0 -23.6,0.7 -0.1,1.1 -0.1,2.5 -0.1,4.4 -0.1,0.4 -0.1,0.7 -0.1,1 z"
     id="path17"
     inkscape:label="d" /><path
     class="st0"
     d="m 1911.2,309 c -38.4,0 -66,-2.9 -84.7,-17.2 -10.2,-7.8 -17.3,-18.7 -21.1,-32.5 -2.8,-10.1 -4.1,-22.1 -4.1,-38.9 0,-26.3 1.8,-53.4 23.3,-70.7 16.3,-13.1 39.8,-17.9 86.7,-17.9 51.1,0 69.9,6.1 83.7,15.9 23.1,16.4 26.2,42.8 26.2,69 0,28.3 -1.7,55.2 -21.7,72.8 -16.2,14.2 -39.9,19.5 -87.4,19.5 -0.1,0 -0.9,0 -0.9,0 z M 1895,224.1 c 3.1,0.3 8,0.5 15.8,0.5 h 1.4 c 7,0 11.5,-0.2 14.3,-0.5 0.1,-1.2 0.1,-2.7 0.1,-4.6 0,-1.1 0,-2.1 0,-2.9 -5.4,-0.3 -12.9,-0.3 -18.1,-0.3 -5.7,0 -10.2,0.1 -13.5,0.3 0,0.8 0,1.8 0,2.9 -0.1,1.9 -0.1,3.4 0,4.6 z"
     id="path21"
     inkscape:label="o" /><path
     class="st0"
     d="m 2249.7,309.1 c -35.5,-0.6 -56.3,-5.9 -71.9,-18.3 -14.8,-11.9 -23,-29.3 -25.1,-54.1 h -41 c -7.8,0 -14.3,-6.1 -14.7,-13.9 l -0.4,-7.4 c -1.8,0 -3,0.1 -3.9,0.3 0,0.1 0,74.1 0,74.1 0,8.2 -6.6,14.8 -14.8,14.8 h -64.1 c -8.2,0 -14.8,-6.6 -14.8,-14.8 V 147.5 c 0,-8.2 6.6,-14.8 14.8,-14.8 h 62.3 c 2,0 3.8,0.4 5.6,1.1 8.4,-2.7 18.4,-3.9 31.1,-3.9 39,0 53.3,12.2 61.3,22.8 0.1,0.2 0.2,0.3 0.3,0.5 0.9,-0.8 1.9,-1.7 2.9,-2.4 18.7,-14.9 46,-18 81.3,-18 42,0 69.7,3.6 87,22 16.5,17.5 17.3,41.3 18.3,74.2 l 0.3,11.1 c 0,1.4 -0.1,2.7 -0.4,4 -0.8,35.4 -20.8,50.5 -37.6,57 -19.3,7.5 -44.8,8.1 -76,8.1 -0.1,-0.1 -0.4,-0.1 -0.5,-0.1 z"
     id="path19"
     inkscape:label="re" /></g><g
   id="g54"
   inkscape:label="Outline"
   style="display:none;fill:#ffffff;stroke:#ffffff;stroke-width:12;stroke-linecap:square;stroke-dasharray:none;stroke-opacity:1"
   transform="translate(-39.4,-39.300029)">
	
	<path
   d="m 239.8,295.5 c -12.1,6.9 -26.2,10.8 -41.2,10.8 -46.5,0 -84.4,-37.9 -84.4,-84.4 0,-46.5 37.9,-84.4 84.4,-84.4 15,0 29,3.9 41.2,10.8 V 68 c -13.1,-3.5 -26.9,-5.4 -41.1,-5.4 -88,0 -159.3,71.3 -159.3,159.2 0,87.9 71.3,159.2 159.2,159.2 14.2,0 28,-1.9 41.1,-5.4 z"
   id="path47"
   style="fill:#ffffff;fill-opacity:1;stroke:#ffffff;stroke-width:12;stroke-linecap:square;stroke-dasharray:none;stroke-opacity:1"
   inkscape:label="C" /><path
   id="path48"
   style="fill:#ffffff;fill-opacity:1;stroke:#ffffff;stroke-width:12;stroke-linecap:square;stroke-dasharray:none;stroke-opacity:1"
   d="M 239.80078,152.30078 V 216 H 285.5 v 0.0996 h 29.30078 L 378.5,152.30078 H 306.59961 285.5 Z"
   inkscape:label="BlueDash" /><path
   id="path49"
   style="fill:#ffffff;fill-opacity:1;stroke:#ffffff;stroke-width:12;stroke-linecap:square;stroke-dasharray:none;stroke-opacity:1"
   d="m 239.80078,227.59961 v 63.70117 H 285.5 v 0.0996 h 93 L 314.80078,227.59961 H 306.59961 285.5 Z"
   inkscape:label="RedDash" /><path
   id="path50"
   d="m 2066.3,157.3 h -42.7 v 122.5 h 44.6 v -64 c 0,-16.7 10.2,-25.1 28.8,-25.1 18.5,0 23.2,5.6 24.1,21.3 h 41.8 c 0,-41.8 -5.6,-57.6 -50.1,-57.6 -26.9,0 -36.2,5.6 -46.4,26 v -23.1 z m 205.1,98.4 c -42.7,0 -49.2,-3.7 -49.2,-25.1 h 117 c -1.9,-59.3 -1.9,-73.3 -80.8,-73.3 -66.9,0 -81.8,12 -81.8,65 0,49.3 19.5,61.3 73.3,62.2 60.3,0 89.1,-2.8 89.1,-42.7 h -43.7 c -1.6,9.2 -5.3,13.9 -23.9,13.9 z m -50.1,-51.1 c 1.9,-13 5.6,-17.6 35.3,-17.6 32.5,0 37.1,1.9 39,17.6 z m -1660.1,4.7 h 44.6 c -3.7,-41.8 -15.8,-52 -77.9,-52 -70.6,0 -86.4,11.2 -86.4,63.2 0,52 14.9,64 80.8,64 69.6,0 83.5,-9.3 83.5,-53 h -44.6 c 0,12 -4.6,17.6 -39,17.6 -29.7,0 -36.2,-7.4 -36.2,-31.5 0,-23.2 6.5,-23.2 41.8,-23.2 25.9,0 30.5,2.9 33.4,14.9 z m 1035.2,7.4 c 0,-50.1 -14.9,-60.3 -86.4,-60.3 -77.1,0 -86.4,13 -86.4,64.9 0,52 13,63.2 86.4,63.2 78.1,0 86.4,-13 86.4,-67.8 z m -127.2,2.8 c 0,-25.1 5.6,-27.8 38.1,-27.8 36.2,0 42.7,0.9 42.7,27.8 0,25.1 -4.6,29.7 -39,29.7 -37.2,0.1 -41.8,-3.6 -41.8,-29.7 z m 527.4,-2.8 c 0,-50.1 -13.9,-60.3 -85.4,-60.3 -76.2,0 -85.4,12 -85.4,64 0,52.9 13,64 85.4,64 77.9,0.1 85.4,-12.9 85.4,-67.7 z m -126.3,2.8 c 0,-25.1 5.6,-27.8 38.1,-27.8 36.2,0 42.7,0.9 42.7,27.8 0,25.1 -4.6,29.7 -39,29.7 -37.2,0.1 -41.8,-3.6 -41.8,-29.7 z M 803.5,216.7 c 0,-50.1 -13.9,-60.3 -85.4,-60.3 -77.1,0 -86.4,12 -86.4,64 0,52.9 13,64 86.4,64 78,0.1 85.4,-12.9 85.4,-67.7 z m -125.4,2.8 c 0,-25.1 5.6,-27.8 37.1,-27.8 36.2,0 42.7,0.9 42.7,27.8 0,25.1 -4.7,29.7 -39,29.7 -36.1,0.1 -40.8,-3.6 -40.8,-29.7 z M 1751.5,105.3 v 71.5 c -10.2,-13.9 -19.5,-21.3 -56.6,-21.3 -59.4,0 -70.6,15.8 -70.6,64 0,49.3 15.8,63.2 73.3,63.2 36.2,0 47.4,-9.3 55.7,-25.1 v 22.2 h 44.6 V 105.3 Z m -32.6,85.4 c 25.1,0 33.4,3.7 33.4,23.2 0,29.8 -1.9,32.5 -37.1,32.5 -35.3,0 -44.6,-1 -44.6,-26 0.1,-28.7 11.2,-29.7 48.3,-29.7 z M 874,157.3 h -41.8 v 122.5 h 44.6 v -63.2 c 0,-18.5 9.3,-25.1 34.4,-25.1 23.2,0 29.7,8.3 29.7,31.5 v 56.6 h 45.5 v -64.9 c 0,-17.6 13.9,-23.2 35.3,-23.2 20.5,0 29.7,5.6 29.7,23.2 v 64.9 h 44.6 v -72.4 c 0,-36.2 -22.3,-52.9 -63.2,-52.9 -35.3,0 -48.3,13 -53,26.9 -9.3,-15.8 -22.2,-26.9 -57.6,-26.9 -33.4,0 -42.7,11.2 -48.3,31.5 z m 300,0 h -41.8 v 122.5 h 44.6 v -63.2 c 0,-18.5 11.2,-25.1 33.4,-25.1 23.2,0 29.7,7.4 29.7,31.5 v 56.6 h 45.5 v -64.9 c 0,-17.6 13,-23.2 34.4,-23.2 20.5,0 30.7,6.5 30.7,23.2 v 64.9 h 44.6 v -72.4 c 0,-36.2 -22.2,-52.9 -63.2,-52.9 -35.3,0 -47.4,12 -52.9,26.9 -9.3,-15.8 -22.3,-26.9 -57.6,-26.9 -32.5,0 -40.8,11.2 -47.3,31.5 v -28.5 z"
   style="display:inline;fill:#ffffff;fill-opacity:1;stroke:#ffffff;stroke-width:12;stroke-linecap:square;stroke-dasharray:none;stroke-opacity:1"
   inkscape:label="commodore" />
</g><g
   id="g35"
   inkscape:label="C-commodorePET"
   transform="translate(-39.4,-39.300029)">
	
	<path
   d="m 239.8,295.5 c -12.1,6.9 -26.2,10.8 -41.2,10.8 -46.5,0 -84.4,-37.9 -84.4,-84.4 0,-46.5 37.9,-84.4 84.4,-84.4 15,0 29,3.9 41.2,10.8 V 68 c -13.1,-3.5 -26.9,-5.4 -41.1,-5.4 -88,0 -159.3,71.3 -159.3,159.2 0,87.9 71.3,159.2 159.2,159.2 14.2,0 28,-1.9 41.1,-5.4 z"
   id="path28"
   style="fill:#3771c8;fill-opacity:1"
   inkscape:label="C" /><path
   id="rect28"
   style="fill:#3771c8;fill-opacity:1"
   d="M 239.80078,152.30078 V 216 H 285.5 v 0.0996 h 29.30078 L 378.5,152.30078 H 306.59961 285.5 Z"
   inkscape:label="BlueDash" /><path
   id="rect29"
   style="fill:#f20029;fill-opacity:1"
   d="m 239.80078,227.59961 v 63.70117 H 285.5 v 0.0996 h 93 L 314.80078,227.59961 H 306.59961 285.5 Z"
   inkscape:label="RedDash" /><path
   id="path4595_00000015352148864051845840000009120747381251297167_"
   d="m 2066.3,157.3 h -42.7 v 122.5 h 44.6 v -64 c 0,-16.7 10.2,-25.1 28.8,-25.1 18.5,0 23.2,5.6 24.1,21.3 h 41.8 c 0,-41.8 -5.6,-57.6 -50.1,-57.6 -26.9,0 -36.2,5.6 -46.4,26 v -23.1 z m 205.1,98.4 c -42.7,0 -49.2,-3.7 -49.2,-25.1 h 117 c -1.9,-59.3 -1.9,-73.3 -80.8,-73.3 -66.9,0 -81.8,12 -81.8,65 0,49.3 19.5,61.3 73.3,62.2 60.3,0 89.1,-2.8 89.1,-42.7 h -43.7 c -1.6,9.2 -5.3,13.9 -23.9,13.9 z m -50.1,-51.1 c 1.9,-13 5.6,-17.6 35.3,-17.6 32.5,0 37.1,1.9 39,17.6 z m -1660.1,4.7 h 44.6 c -3.7,-41.8 -15.8,-52 -77.9,-52 -70.6,0 -86.4,11.2 -86.4,63.2 0,52 14.9,64 80.8,64 69.6,0 83.5,-9.3 83.5,-53 h -44.6 c 0,12 -4.6,17.6 -39,17.6 -29.7,0 -36.2,-7.4 -36.2,-31.5 0,-23.2 6.5,-23.2 41.8,-23.2 25.9,0 30.5,2.9 33.4,14.9 z m 1035.2,7.4 c 0,-50.1 -14.9,-60.3 -86.4,-60.3 -77.1,0 -86.4,13 -86.4,64.9 0,52 13,63.2 86.4,63.2 78.1,0 86.4,-13 86.4,-67.8 z m -127.2,2.8 c 0,-25.1 5.6,-27.8 38.1,-27.8 36.2,0 42.7,0.9 42.7,27.8 0,25.1 -4.6,29.7 -39,29.7 -37.2,0.1 -41.8,-3.6 -41.8,-29.7 z m 527.4,-2.8 c 0,-50.1 -13.9,-60.3 -85.4,-60.3 -76.2,0 -85.4,12 -85.4,64 0,52.9 13,64 85.4,64 77.9,0.1 85.4,-12.9 85.4,-67.7 z m -126.3,2.8 c 0,-25.1 5.6,-27.8 38.1,-27.8 36.2,0 42.7,0.9 42.7,27.8 0,25.1 -4.6,29.7 -39,29.7 -37.2,0.1 -41.8,-3.6 -41.8,-29.7 z M 803.5,216.7 c 0,-50.1 -13.9,-60.3 -85.4,-60.3 -77.1,0 -86.4,12 -86.4,64 0,52.9 13,64 86.4,64 78,0.1 85.4,-12.9 85.4,-67.7 z m -125.4,2.8 c 0,-25.1 5.6,-27.8 37.1,-27.8 36.2,0 42.7,0.9 42.7,27.8 0,25.1 -4.7,29.7 -39,29.7 -36.1,0.1 -40.8,-3.6 -40.8,-29.7 z M 1751.5,105.3 v 71.5 c -10.2,-13.9 -19.5,-21.3 -56.6,-21.3 -59.4,0 -70.6,15.8 -70.6,64 0,49.3 15.8,63.2 73.3,63.2 36.2,0 47.4,-9.3 55.7,-25.1 v 22.2 h 44.6 V 105.3 Z m -32.6,85.4 c 25.1,0 33.4,3.7 33.4,23.2 0,29.8 -1.9,32.5 -37.1,32.5 -35.3,0 -44.6,-1 -44.6,-26 0.1,-28.7 11.2,-29.7 48.3,-29.7 z M 874,157.3 h -41.8 v 122.5 h 44.6 v -63.2 c 0,-18.5 9.3,-25.1 34.4,-25.1 23.2,0 29.7,8.3 29.7,31.5 v 56.6 h 45.5 v -64.9 c 0,-17.6 13.9,-23.2 35.3,-23.2 20.5,0 29.7,5.6 29.7,23.2 v 64.9 h 44.6 v -72.4 c 0,-36.2 -22.3,-52.9 -63.2,-52.9 -35.3,0 -48.3,13 -53,26.9 -9.3,-15.8 -22.2,-26.9 -57.6,-26.9 -33.4,0 -42.7,11.2 -48.3,31.5 z m 300,0 h -41.8 v 122.5 h 44.6 v -63.2 c 0,-18.5 11.2,-25.1 33.4,-25.1 23.2,0 29.7,7.4 29.7,31.5 v 56.6 h 45.5 v -64.9 c 0,-17.6 13,-23.2 34.4,-23.2 20.5,0 30.7,6.5 30.7,23.2 v 64.9 h 44.6 v -72.4 c 0,-36.2 -22.2,-52.9 -63.2,-52.9 -35.3,0 -47.4,12 -52.9,26.9 -9.3,-15.8 -22.3,-26.9 -57.6,-26.9 -32.5,0 -40.8,11.2 -47.3,31.5 v -28.5 z"
   style="display:inline;fill:#3771c8;fill-opacity:1"
   inkscape:label="commodore" />
</g>
<path
   style="font-weight:bold;font-size:531.441px;line-height:0;font-family:'Microgramma D Extended';-inkscape-font-specification:'Microgramma D Extended Bold';text-align:center;letter-spacing:0px;word-spacing:0px;text-anchor:middle;fill:#ffffff;stroke-width:19.1319;stroke-linecap:square;stroke-miterlimit:2;paint-order:stroke fill markers"
   d="m 2741.8423,223.20521 c -0.5314,52.61266 -2.1257,53.1441 -120.6371,53.1441 -113.7283,0 -115.3227,-1.06288 -115.3227,-91.93929 0,-53.67554 4.2516,-74.40174 17.0062,-85.030559 10.6288,-8.50305 30.2921,-10.62882 97.7851,-10.62882 68.0244,0 99.3795,3.18865 107.3511,10.09738 6.3773,5.314409 7.4401,10.097379 8.503,33.480779 h 107.8825 v -17.53755 c 0,-56.864184 -10.6288,-82.904792 -40.9209,-98.31658 C 2779.0432,3.720086 2746.0939,0 2651.4974,0 2466.0245,0 2427.2293,9.034496 2408.0974,56.864184 2400.1258,76.527501 2398,105.75675 2398,184.94146 c 0,45.17248 1.0629,74.40174 2.6572,90.34497 4.2516,36.13798 14.8804,55.8013 38.2638,69.08732 28.6978,16.47467 73.3388,20.7262 212.0449,20.7262 78.6533,0 117.4485,-3.18864 146.1463,-12.22314 39.3266,-12.75458 54.207,-38.79519 54.207,-96.19082 0,-5.31441 -0.5315,-13.28602 -1.0629,-33.48078 z m 146.6779,136.58033 h 255.0917 c 119.0428,-0.53144 124.8886,-1.06288 145.0834,-7.97161 31.355,-10.62882 44.641,-36.66943 44.641,-87.15632 0,-56.86419 -14.3489,-77.59039 -61.1157,-85.562 35.6066,-10.09738 47.8297,-30.82358 47.8297,-81.310469 0,-64.30436 -19.1319,-86.624881 -77.0589,-90.876409 C 3227.0481,5.84585 3227.0481,5.84585 3143.0805,5.314409 H 2888.5202 Z M 2991.0884,145.08339 V 88.750641 h 151.9921 c 48.8925,0.53144 50.4869,0.53144 56.3327,1.59432 11.1603,2.65721 15.9432,10.628819 15.9432,25.509169 0,12.75459 -3.72,21.78908 -11.6917,24.97773 -6.9087,3.18864 -22.3205,4.25153 -60.5842,4.25153 z m 0,129.67159 v -58.98994 h 152.5235 c 62.71,0.53144 62.71,0.53144 68.0245,1.59432 12.2231,2.6572 17.0061,10.09738 17.0061,26.57205 0,14.88035 -3.7201,22.85196 -12.7546,26.57205 -7.9716,3.72008 -7.9716,3.72008 -72.276,4.25152 z M 3371.0692,5.314409 V 359.78554 h 106.2882 l -2.6572,-265.189049 h 19.1318 l 133.3917,265.189049 h 89.8135 L 3850.4289,94.596491 h 18.069 l -2.6572,265.189049 h 106.2882 V 5.314409 H 3777.6215 L 3671.8648,235.42835 3566.6394,5.314409 Z m 626.038,191.318751 -0.5314,71.74453 h 224.268 V 196.63316 Z M 4245.822,5.314409 V 359.78554 h 113.197 V 5.314409 Z m 163.1519,0 V 359.78554 h 113.1969 V 5.314409 Z"
   id="text2"
   inkscape:label="CBM-II"
   aria-label="CBM-II" /></svg>
