<?xml version="1.0" encoding="UTF-8" standalone="no"?>
<!-- Created with Inkscape (http://www.inkscape.org/) -->

<svg
   width="690.39044mm"
   height="178.88899mm"
   viewBox="0 0 690.39044 178.88899"
   version="1.1"
   id="svg1"
   inkscape:version="1.4 (86a8ad7, 2024-10-11)"
   xml:space="preserve"
   sodipodi:docname="digiblst-w.svg"
   xmlns:inkscape="http://www.inkscape.org/namespaces/inkscape"
   xmlns:sodipodi="http://sodipodi.sourceforge.net/DTD/sodipodi-0.dtd"
   xmlns:xlink="http://www.w3.org/1999/xlink"
   xmlns="http://www.w3.org/2000/svg"
   xmlns:svg="http://www.w3.org/2000/svg"><sodipodi:namedview
     id="namedview1"
     pagecolor="#ffffff"
     bordercolor="#000000"
     borderopacity="0.25"
     inkscape:showpageshadow="2"
     inkscape:pageopacity="0.0"
     inkscape:pagecheckerboard="true"
     inkscape:deskcolor="#d1d1d1"
     inkscape:document-units="mm"
     inkscape:zoom="0.58236858"
     inkscape:cx="1303.2983"
     inkscape:cy="526.299"
     inkscape:window-width="3840"
     inkscape:window-height="2066"
     inkscape:window-x="-11"
     inkscape:window-y="-11"
     inkscape:window-maximized="1"
     inkscape:current-layer="svg1" /><defs
     id="defs1"><linearGradient
       id="linearGradient135"
       inkscape:collect="always"><stop
         style="stop-color:#858585;stop-opacity:0.50251257;"
         offset="0"
         id="stop127" /><stop
         style="stop-color:#808080;stop-opacity:0.5;"
         offset="0.13521545"
         id="stop128" /><stop
         style="stop-color:#ffffff;stop-opacity:0.50251257;"
         offset="0.2793462"
         id="stop129" /><stop
         style="stop-color:#ffffff;stop-opacity:0.5;"
         offset="0.34843981"
         id="stop130" /><stop
         style="stop-color:#808080;stop-opacity:0.49832496;"
         offset="0.66939086"
         id="stop131" /><stop
         style="stop-color:#808080;stop-opacity:0.50335008;"
         offset="0.75854391"
         id="stop132" /><stop
         style="stop-color:#ffffff;stop-opacity:0.5;"
         offset="0.85215455"
         id="stop133" /><stop
         style="stop-color:#ffffff;stop-opacity:0.5;"
         offset="0.85958397"
         id="stop134" /><stop
         style="stop-color:#808080;stop-opacity:0.5;"
         offset="1"
         id="stop135" /></linearGradient><linearGradient
       id="linearGradient126"
       inkscape:collect="always"><stop
         style="stop-color:#858585;stop-opacity:0.50251257;"
         offset="0"
         id="stop118" /><stop
         style="stop-color:#808080;stop-opacity:0.5;"
         offset="0.13521545"
         id="stop119" /><stop
         style="stop-color:#ffffff;stop-opacity:1;"
         offset="0.2793462"
         id="stop120" /><stop
         style="stop-color:#ffffff;stop-opacity:1;"
         offset="0.34843981"
         id="stop121" /><stop
         style="stop-color:#808080;stop-opacity:0.49832496;"
         offset="0.66939086"
         id="stop122" /><stop
         style="stop-color:#808080;stop-opacity:0.50335008;"
         offset="0.75854391"
         id="stop123" /><stop
         style="stop-color:#ffffff;stop-opacity:1;"
         offset="0.85215455"
         id="stop124" /><stop
         style="stop-color:#ffffff;stop-opacity:1;"
         offset="0.85958397"
         id="stop125" /><stop
         style="stop-color:#808080;stop-opacity:0.50251257;"
         offset="1"
         id="stop126" /></linearGradient><linearGradient
       id="linearGradient1"
       inkscape:collect="always"><stop
         style="stop-color:#858585;stop-opacity:1;"
         offset="0"
         id="stop1" /><stop
         style="stop-color:#808080;stop-opacity:1;"
         offset="0.13521545"
         id="stop3" /><stop
         style="stop-color:#ffffff;stop-opacity:1;"
         offset="0.2793462"
         id="stop4" /><stop
         style="stop-color:#ffffff;stop-opacity:1;"
         offset="0.34843981"
         id="stop13" /><stop
         style="stop-color:#808080;stop-opacity:1;"
         offset="0.66939086"
         id="stop14" /><stop
         style="stop-color:#808080;stop-opacity:1;"
         offset="0.75854391"
         id="stop16" /><stop
         style="stop-color:#ffffff;stop-opacity:1;"
         offset="0.85215455"
         id="stop15" /><stop
         style="stop-color:#ffffff;stop-opacity:1;"
         offset="0.85958397"
         id="stop17" /><stop
         style="stop-color:#808080;stop-opacity:1;"
         offset="1"
         id="stop2" /></linearGradient><marker
       id="DistanceX"
       orient="auto"
       refX="0"
       refY="0"
       style="overflow:visible"><path
         d="M 3,-3 -3,3 M 0,-5 V 5"
         style="stroke:#000000;stroke-width:0.5"
         id="path1" /></marker><pattern
       id="Hatch"
       patternUnits="userSpaceOnUse"
       width="8"
       height="8"
       x="0"
       y="0"><path
         d="M8 4 l-4,4"
         stroke="#000000"
         stroke-width="0.25"
         linecap="square"
         id="path2" /><path
         d="M6 2 l-4,4"
         stroke="#000000"
         stroke-width="0.25"
         linecap="square"
         id="path3" /><path
         d="M4 0 l-4,4"
         stroke="#000000"
         stroke-width="0.25"
         linecap="square"
         id="path4" /></pattern><symbol
       id="*Model_Space" /><symbol
       id="*Paper_Space" /><symbol
       id="*Paper_Space0" /><marker
       id="DistanceX-0"
       orient="auto"
       refX="0"
       refY="0"
       style="overflow:visible"><path
         d="M 3,-3 -3,3 M 0,-5 V 5"
         style="stroke:#000000;stroke-width:0.5"
         id="path1-9" /></marker><pattern
       id="Hatch-4"
       patternUnits="userSpaceOnUse"
       width="8"
       height="8"
       x="0"
       y="0"><path
         d="M8 4 l-4,4"
         stroke="#000000"
         stroke-width="0.25"
         linecap="square"
         id="path2-8" /><path
         d="M6 2 l-4,4"
         stroke="#000000"
         stroke-width="0.25"
         linecap="square"
         id="path3-8" /><path
         d="M4 0 l-4,4"
         stroke="#000000"
         stroke-width="0.25"
         linecap="square"
         id="path4-2" /></pattern><symbol
       id="*Model_Space-4" /><symbol
       id="*Paper_Space-5" /><symbol
       id="*Paper_Space0-5" /><marker
       id="DistanceX-7"
       orient="auto"
       refX="0"
       refY="0"
       style="overflow:visible"><path
         d="M 3,-3 -3,3 M 0,-5 V 5"
         style="stroke:#000000;stroke-width:0.5"
         id="path1-6" /></marker><pattern
       id="Hatch-9"
       patternUnits="userSpaceOnUse"
       width="8"
       height="8"
       x="0"
       y="0"><path
         d="M8 4 l-4,4"
         stroke="#000000"
         stroke-width="0.25"
         linecap="square"
         id="path2-3" /><path
         d="M6 2 l-4,4"
         stroke="#000000"
         stroke-width="0.25"
         linecap="square"
         id="path3-5" /><path
         d="M4 0 l-4,4"
         stroke="#000000"
         stroke-width="0.25"
         linecap="square"
         id="path4-7" /></pattern><symbol
       id="*Model_Space-6" /><symbol
       id="*Paper_Space-6" /><symbol
       id="*Paper_Space0-58" /><filter
       inkscape:label="Metal Casting"
       inkscape:menu="Bevels"
       inkscape:menu-tooltip="Smooth drop-like bevel with metallic finish"
       style="color-interpolation-filters:sRGB"
       id="filter357"
       x="-0.0065223728"
       y="-0.026147211"
       width="1.0130447"
       height="1.0522944"><feColorMatrix
         values="0.37"
         type="saturate"
         in="SourceGraphic"
         result="result1"
         id="feColorMatrix357" /><feGaussianBlur
         stdDeviation="7"
         in="SourceAlpha"
         id="feGaussianBlur357" /><feSpecularLighting
         specularExponent="8"
         specularConstant="3.88000011"
         surfaceScale="10"
         id="feSpecularLighting357"><feDistantLight
           azimuth="225"
           elevation="17"
           id="feDistantLight357" /></feSpecularLighting><feComposite
         in2="result1"
         operator="atop"
         id="feComposite357" /></filter><filter
       inkscape:label="Metal Casting"
       inkscape:menu="Bevels"
       inkscape:menu-tooltip="Smooth drop-like bevel with metallic finish"
       style="color-interpolation-filters:sRGB"
       id="filter614"
       x="-0.0065223729"
       y="-0.026147211"
       width="1.0130447"
       height="1.0522944"><feColorMatrix
         values="0.37"
         type="saturate"
         in="SourceGraphic"
         result="result1"
         id="feColorMatrix614" /><feGaussianBlur
         stdDeviation="7"
         in="SourceAlpha"
         id="feGaussianBlur614" /><feSpecularLighting
         specularExponent="8"
         specularConstant="3.88000011"
         surfaceScale="10"
         id="feSpecularLighting614"><feDistantLight
           azimuth="225"
           elevation="17"
           id="feDistantLight614" /></feSpecularLighting><feComposite
         in2="result1"
         operator="atop"
         id="feComposite614" /></filter><filter
       inkscape:menu-tooltip="Smooth drop-like bevel with metallic finish"
       inkscape:menu="Bevels"
       inkscape:label="Metal Casting"
       style="color-interpolation-filters:sRGB;"
       id="filter9"
       x="0"
       y="0"
       width="1"
       height="1" /><filter
       inkscape:label="Metal Casting"
       inkscape:menu="Bevels"
       inkscape:menu-tooltip="Smooth drop-like bevel with metallic finish"
       style="color-interpolation-filters:sRGB;"
       id="filter38"
       x="-0.013976513"
       y="-0.056029738"
       width="1.027953"
       height="1.1120595"><feColorMatrix
         values="0.64000000000000001"
         type="saturate"
         in="SourceGraphic"
         result="result1"
         id="feColorMatrix38" /><feGaussianBlur
         stdDeviation="8"
         in="SourceAlpha"
         id="feGaussianBlur38" /><feSpecularLighting
         specularExponent="8.1220930232558146"
         specularConstant="5"
         surfaceScale="5"
         id="feSpecularLighting38"
         lighting-color="rgb(255,255,255)"><feDistantLight
           azimuth="180"
           elevation="9"
           id="feDistantLight38" /></feSpecularLighting><feComposite
         in2="result1"
         operator="atop"
         id="feComposite38"
         result="fbSourceGraphic" /><feColorMatrix
         result="fbSourceGraphicAlpha"
         in="fbSourceGraphic"
         values="0 0 0 -1 0 0 0 0 -1 0 0 0 0 -1 0 0 0 0 1 0"
         id="feColorMatrix39" /><feColorMatrix
         id="feColorMatrix40"
         values="0.37"
         type="saturate"
         in="fbSourceGraphic"
         result="result1" /><feGaussianBlur
         id="feGaussianBlur40"
         stdDeviation="7"
         in="fbSourceGraphicAlpha" /><feSpecularLighting
         id="feSpecularLighting40"
         specularExponent="8"
         specularConstant="4.1799999999999997"
         surfaceScale="4.4000000000000021"
         lighting-color="rgb(96,96,96)"><feDistantLight
           id="feDistantLight40"
           azimuth="45"
           elevation="40" /></feSpecularLighting><feComposite
         id="feComposite40"
         in2="result1"
         operator="atop" /></filter><filter
       inkscape:label="Combined Lighting"
       inkscape:menu="Bevels"
       inkscape:menu-tooltip="Basic specular bevel to use for building textures"
       style="color-interpolation-filters:sRGB;"
       id="filter46"
       x="-0.026224159"
       y="-0.15734467"
       width="1.0524483"
       height="1.3146893"><feGaussianBlur
         stdDeviation="6"
         in="SourceGraphic"
         result="result0"
         id="feGaussianBlur44" /><feDiffuseLighting
         lighting-color="rgb(255,255,255)"
         diffuseConstant="1"
         surfaceScale="4"
         result="result5"
         id="feDiffuseLighting44"><feDistantLight
           elevation="45"
           azimuth="235"
           id="feDistantLight44" /></feDiffuseLighting><feComposite
         k1="1.4"
         in2="SourceGraphic"
         in="result5"
         result="fbSourceGraphic"
         operator="arithmetic"
         k2="0"
         k3="0"
         k4="0"
         id="feComposite44" /><feGaussianBlur
         result="result0"
         in="fbSourceGraphic"
         stdDeviation="10"
         id="feGaussianBlur45" /><feSpecularLighting
         specularExponent="25"
         specularConstant="2.3796791443850269"
         surfaceScale="-5"
         lighting-color="rgb(255,255,255)"
         result="result1"
         in="result0"
         id="feSpecularLighting45"><feDistantLight
           azimuth="179"
           elevation="47"
           id="feDistantLight45" /></feSpecularLighting><feComposite
         k3="1"
         k2="1"
         operator="arithmetic"
         in="fbSourceGraphic"
         result="result4"
         k1="0"
         k4="0"
         id="feComposite45" /><feGaussianBlur
         stdDeviation="1"
         in="result4"
         result="result6"
         id="feGaussianBlur46" /><feComposite
         operator="in"
         result="fbSourceGraphic"
         in2="SourceGraphic"
         in="result6"
         id="feComposite46" /><feColorMatrix
         result="fbSourceGraphicAlpha"
         in="fbSourceGraphic"
         values="0"
         id="feColorMatrix46"
         type="saturate" /><feGaussianBlur
         id="feGaussianBlur47"
         stdDeviation="0"
         in="fbSourceGraphic"
         result="result0" /><feDiffuseLighting
         id="feDiffuseLighting47"
         lighting-color="rgb(255,255,255)"
         diffuseConstant="1"
         surfaceScale="4"
         result="result5"><feDistantLight
           id="feDistantLight47"
           elevation="32"
           azimuth="200" /></feDiffuseLighting><feComposite
         id="feComposite47"
         k1="1.4"
         in2="fbSourceGraphic"
         in="result5"
         result="fbSourceGraphic"
         operator="arithmetic"
         k2="0"
         k3="0"
         k4="0" /><feGaussianBlur
         id="feGaussianBlur48"
         result="result0"
         in="fbSourceGraphic"
         stdDeviation="10" /><feSpecularLighting
         id="feSpecularLighting48"
         specularExponent="25"
         specularConstant="2.3529411764705883"
         surfaceScale="1.6111111111111107"
         lighting-color="rgb(255,255,255)"
         result="result1"
         in="result0"><feDistantLight
           id="feDistantLight48"
           azimuth="179"
           elevation="49" /></feSpecularLighting><feComposite
         id="feComposite48"
         k3="1"
         k2="1"
         operator="arithmetic"
         in="fbSourceGraphic"
         in2="result1"
         result="result4"
         k1="0"
         k4="0" /><feGaussianBlur
         id="feGaussianBlur49"
         stdDeviation="1"
         in="result4"
         result="result6" /><feComposite
         id="feComposite49"
         operator="in"
         result="result2"
         in2="fbSourceGraphic"
         in="result6" /></filter><filter
       inkscape:label="Combined Lighting"
       inkscape:menu="Bevels"
       inkscape:menu-tooltip="Basic specular bevel to use for building textures"
       style="color-interpolation-filters:sRGB;"
       id="filter52"
       x="-0.066132345"
       y="-0.79770734"
       width="1.1322647"
       height="2.5954147"><feGaussianBlur
         stdDeviation="42.236024844720497"
         in="SourceGraphic"
         result="result0"
         id="feGaussianBlur50" /><feDiffuseLighting
         lighting-color="rgb(255,255,255)"
         diffuseConstant="1.4824120603015076"
         surfaceScale="0.05494505494505475"
         result="result5"
         id="feDiffuseLighting50"><feDistantLight
           elevation="32"
           azimuth="222"
           id="feDistantLight50" /></feDiffuseLighting><feComposite
         k1="1.4"
         in2="SourceGraphic"
         in="result5"
         result="fbSourceGraphic"
         operator="arithmetic"
         k2="0"
         k3="0"
         k4="0"
         id="feComposite50" /><feGaussianBlur
         result="result0"
         in="fbSourceGraphic"
         stdDeviation="8.695652173913043"
         id="feGaussianBlur51" /><feSpecularLighting
         specularExponent="20.914438502673796"
         specularConstant="5"
         surfaceScale="2.166666666666667"
         lighting-color="rgb(242,242,242)"
         result="result1"
         in="result0"
         id="feSpecularLighting51"><feDistantLight
           azimuth="360"
           elevation="36"
           id="feDistantLight51" /></feSpecularLighting><feComposite
         k3="1"
         k2="1"
         operator="arithmetic"
         in="fbSourceGraphic"
         in2="result1"
         result="result4"
         k1="0"
         k4="0"
         id="feComposite51" /><feGaussianBlur
         stdDeviation="5.5900621118012426"
         in="result4"
         result="result6"
         id="feGaussianBlur52" /><feComposite
         operator="in"
         result="fbSourceGraphic"
         in2="SourceGraphic"
         in="result6"
         id="feComposite52" /><feColorMatrix
         result="fbSourceGraphicAlpha"
         in="fbSourceGraphic"
         values="0 0 0 -1 0 0 0 0 -1 0 0 0 0 -1 0 0 0 0 1 0"
         id="feColorMatrix52" /><feGaussianBlur
         id="feGaussianBlur53"
         stdDeviation="6"
         in="fbSourceGraphic"
         result="result0" /><feDiffuseLighting
         id="feDiffuseLighting53"
         lighting-color="rgb(255,255,255)"
         diffuseConstant="0.95108695652173925"
         surfaceScale="0.44910179640718528"
         result="result5"><feDistantLight
           id="feDistantLight53"
           elevation="45"
           azimuth="235" /></feDiffuseLighting><feComposite
         id="feComposite53"
         k1="1.4"
         in2="fbSourceGraphic"
         in="result5"
         result="fbSourceGraphic"
         operator="arithmetic"
         k2="0"
         k3="0"
         k4="0" /><feGaussianBlur
         id="feGaussianBlur54"
         result="result0"
         in="fbSourceGraphic"
         stdDeviation="7.4534161490683228" /><feSpecularLighting
         id="feSpecularLighting54"
         specularExponent="19.342245989304814"
         specularConstant="2.3262032085561497"
         surfaceScale="-2.166666666666667"
         lighting-color="rgb(242,242,242)"
         result="result1"
         in="result0"><feDistantLight
           id="feDistantLight54"
           azimuth="0"
           elevation="31" /></feSpecularLighting><feComposite
         id="feComposite54"
         k3="1"
         k2="1"
         operator="arithmetic"
         in="fbSourceGraphic"
         in2="result1"
         result="result4"
         k1="0"
         k4="0" /><feGaussianBlur
         id="feGaussianBlur55"
         stdDeviation="1"
         in="result4"
         result="result6" /><feComposite
         id="feComposite55"
         operator="in"
         result="result2"
         in2="fbSourceGraphic"
         in="result6" /></filter><linearGradient
       inkscape:collect="always"
       xlink:href="#linearGradient1"
       id="linearGradient2"
       x1="1262.2595"
       y1="506.85468"
       x2="1264.6879"
       y2="1069.0842"
       gradientUnits="userSpaceOnUse"
       spreadMethod="pad" /><linearGradient
       inkscape:collect="always"
       xlink:href="#linearGradient126"
       id="linearGradient110"
       gradientUnits="userSpaceOnUse"
       x1="1303.6248"
       y1="827.8349"
       x2="1305.3932"
       y2="583.68475"
       spreadMethod="repeat"
       gradientTransform="matrix(0.26458333,0,0,0.26458333,1.4449954,-120.05478)" /><linearGradient
       inkscape:collect="always"
       xlink:href="#linearGradient135"
       id="linearGradient127"
       gradientUnits="userSpaceOnUse"
       gradientTransform="matrix(0.26458333,0,0,0.26458333,1.4449954,-120.05478)"
       x1="1270.9994"
       y1="910.2569"
       x2="1271.0507"
       y2="755.39728"
       spreadMethod="repeat" /><linearGradient
       inkscape:collect="always"
       xlink:href="#linearGradient1"
       id="linearGradient3"
       gradientUnits="userSpaceOnUse"
       x1="1262.2595"
       y1="506.85468"
       x2="1264.6879"
       y2="1069.0842"
       spreadMethod="pad" /><linearGradient
       inkscape:collect="always"
       xlink:href="#linearGradient1"
       id="linearGradient4"
       gradientUnits="userSpaceOnUse"
       x1="1262.2595"
       y1="506.85468"
       x2="1264.6879"
       y2="1069.0842"
       spreadMethod="pad" /></defs><g
     inkscape:label="digiBlastPersonalMediaCenerOutline"
     id="g404"
     transform="matrix(0.26458333,0,0,0.26458333,1.4449944,-120.05478)"
     style="display:inline;fill:#000000;stroke:none"><path
       id="path5"
       style="fill:#ffffff;stroke:none;stroke-width:3.571;stroke-linecap:round"
       inkscape:label="digiBlast"
       d="M 336.37845 457.32262 C 329.07261 457.32253 323.14974 463.24542 323.14994 470.55114 L 323.14994 810.70934 C 323.14974 818.01498 329.07261 823.93787 336.37845 823.93786 L 427.08744 823.93786 C 434.39306 823.93787 440.31593 818.01499 440.31595 810.70934 L 440.31595 470.55114 C 440.31593 463.24541 434.39306 457.32253 427.08744 457.32262 L 336.37845 457.32262 z M 776.69291 457.32262 C 769.38705 457.32253 763.46418 463.24542 763.46439 470.55114 L 763.46439 810.70934 C 763.46418 818.01498 769.38705 823.93787 776.69291 823.93786 L 867.4019 823.93786 C 874.7075 823.93787 880.63037 818.01499 880.63041 810.70934 L 880.63041 470.55114 C 880.63037 463.24541 874.7075 457.32253 867.4019 457.32262 L 776.69291 457.32262 z M 2273.3882 457.32262 C 2266.0803 457.32256 2260.1584 463.24543 2260.1597 470.55114 L 2260.1597 544.25231 C 2260.1597 551.55809 2266.0803 557.48096 2273.3882 557.48083 L 2358.4254 557.48083 C 2365.7271 557.48102 2371.65 563.40355 2371.65 570.70934 L 2371.65 810.70934 C 2371.65 818.01501 2377.5737 823.9379 2384.8785 823.93786 L 2471.8082 823.93786 C 2479.1145 823.93789 2485.0383 818.01501 2485.0386 810.70934 L 2485.0386 570.70934 C 2485.0383 563.40338 2490.9603 557.48102 2498.2672 557.48083 L 2583.3062 557.48083 C 2590.6106 557.48096 2596.5344 551.55809 2596.5367 544.25231 L 2596.5367 470.55114 C 2596.5367 463.24543 2590.6106 457.32256 2583.3062 457.32262 L 2273.3882 457.32262 z M 205.98392 457.32457 C 198.67824 457.32448 192.75536 463.24542 192.7554 470.55114 L 192.7554 529.13512 C 192.75536 536.44087 186.83444 542.36374 179.52884 542.36364 L 137.95267 542.36364 C 67.185291 542.36374 7.5023543 611.817 7.5600883 683.22106 C 7.6178213 754.62512 67.485092 823.93787 137.95267 823.93786 L 285.35501 823.93786 C 292.661 823.93787 298.58337 818.01499 298.58353 810.70934 L 298.58353 470.55114 C 298.58337 463.24541 292.661 457.32448 285.35501 457.32457 L 205.98392 457.32457 z M 927.87455 457.32457 C 920.56874 457.32448 914.64587 463.24541 914.64604 470.55114 L 914.64604 810.70934 C 914.64587 818.01499 920.56874 823.93787 927.87455 823.93786 L 1148.9781 823.93786 C 1204.9838 823.93787 1257.8841 778.38607 1258.5816 721.34801 L 1258.5816 718.71911 C 1258.2236 689.31696 1246.4929 659.07941 1224.1031 640.63122 C 1246.2735 622.3638 1258.2219 592.08801 1258.5816 562.54333 L 1258.5816 559.91442 C 1257.8884 503.22605 1205.2268 457.32448 1148.9781 457.32457 L 927.87455 457.32457 z M 1288.8199 457.32457 C 1281.5135 457.32451 1275.5917 463.24543 1275.5914 470.55114 L 1275.5914 697.32458 C 1275.5917 767.25155 1332.278 823.93783 1402.2027 823.93786 L 1624.0933 823.93786 C 1629.488 823.93787 1634.3407 820.66422 1636.3609 815.66442 L 1661.7417 752.8402 C 1663.7628 747.84033 1668.6156 744.5667 1674.0093 744.56677 L 1772.9214 744.56677 C 1778.3148 744.56674 1783.1674 747.84037 1785.189 752.8402 L 1810.5699 815.66442 C 1812.5897 820.66422 1817.4433 823.93787 1822.8335 823.93786 L 2166.5191 823.93786 C 2226.0053 816.27161 2273.2793 767.82858 2273.3863 707.2445 C 2273.28 647.05781 2226.5038 598.28173 2166.5191 590.55114 L 2031.4976 590.55114 C 2026.2772 590.55128 2022.0484 586.32252 2022.0484 581.10387 L 2022.0484 574.48864 C 2022.0484 565.09554 2029.6625 557.48098 2039.0582 557.48083 L 2243.15 557.48083 C 2250.4556 557.48102 2256.3775 551.55814 2256.3785 544.25231 L 2256.3785 470.55114 C 2256.3785 463.24548 2250.4536 457.32445 2243.148 457.32457 L 2008.8179 457.32457 C 1982.0144 457.32448 1951.7987 473.17132 1931.4859 494.00036 C 1911.1732 514.8294 1901.1647 543.66938 1901.1968 589.33825 C 1901.2288 635.00712 1949.5888 690.70917 2008.8179 690.70934 L 2142.9898 690.70934 C 2148.2092 690.70918 2152.4394 694.94036 2152.439 700.15856 L 2152.439 706.77184 C 2152.4394 716.16483 2144.824 723.77938 2135.4293 723.77966 L 1931.3375 723.77966 C 1924.031 723.7794 1918.109 729.70227 1918.1089 737.00817 L 1918.1089 759.80505 C 1918.109 763.8859 1912.5352 765.07034 1910.8765 761.34216 L 1779.0113 465.17223 C 1776.8882 460.39923 1772.1534 457.32448 1766.9293 457.32457 L 1679.9996 457.32457 C 1674.775 457.32448 1670.0402 460.39923 1667.9175 465.17223 L 1551.4976 726.6527 C 1548.9824 723.63469 1545.2595 721.89085 1541.3316 721.89098 L 1409.7632 721.89098 C 1398.2864 721.89086 1388.98 712.58461 1388.98 701.10387 L 1388.98 470.55114 C 1388.98 463.24539 1383.0563 457.32445 1375.7515 457.32457 L 1288.8199 457.32457 z M 578.26908 542.36364 C 515.69872 542.36374 462.49798 593.12968 450.74955 653.33239 C 439.00112 713.5351 466.94956 780.56343 520.59134 809.26598 C 524.05877 811.12031 522.74228 816.37924 518.81009 816.37927 L 491.33939 816.37927 C 484.03337 816.37924 478.11088 822.30197 478.11088 829.60778 L 478.11088 897.63903 C 478.111 904.94473 484.03337 910.86762 491.33939 910.86755 L 646.30033 910.86755 C 698.48482 910.86762 740.78686 868.56363 740.78666 816.37927 L 740.78666 555.59215 C 740.78686 548.28611 734.86593 542.36374 727.5601 542.36364 L 578.26908 542.36364 z M 1039.3706 557.48083 L 1126.2984 557.48083 C 1127.1242 557.48103 1127.9191 557.76045 1128.6304 558.16247 C 1129.3417 558.56449 1129.99 559.0852 1130.564 559.66051 C 1131.138 560.23581 1131.6491 560.87547 1132.1109 561.54918 C 1132.5726 562.2229 1132.9803 562.92482 1133.3433 563.65075 C 1134.0694 565.1026 1134.6103 566.65917 1134.9976 568.22887 C 1135.3849 569.79858 1135.6186 571.40025 1135.7046 573.03161 C 1135.8016 574.84489 1135.7146 576.64041 1135.4214 578.41637 C 1135.2749 579.30435 1135.0779 580.19242 1134.8296 581.06286 C 1134.5813 581.9333 1134.2822 582.78208 1133.9234 583.60583 C 1133.5647 584.42957 1133.145 585.22701 1132.6578 585.99645 C 1132.1705 586.76588 1131.6274 587.49075 1131.0015 588.14294 C 1130.3757 588.79514 1129.6579 589.37841 1128.8687 589.82458 C 1128.4741 590.04767 1128.0507 590.23876 1127.6148 590.36559 C 1127.1788 590.49242 1126.7309 590.55124 1126.271 590.55114 L 1039.3706 590.55114 C 1032.0649 590.55126 1026.1421 584.63033 1026.1421 577.32458 L 1026.1421 570.70934 C 1026.1421 563.40334 1032.0649 557.48096 1039.3706 557.48083 z M 1723.4585 606.38317 C 1724.8923 606.38317 1726.3258 607.17073 1726.9625 608.74645 L 1738.5132 637.32458 C 1739.517 639.8091 1737.6869 642.51972 1735.0074 642.51989 L 1711.9175 642.51989 C 1709.238 642.51979 1707.4091 639.80914 1708.4078 637.32458 L 1719.9546 608.74645 C 1720.5914 607.17073 1722.0246 606.38317 1723.4585 606.38317 z M 141.73197 637.79528 L 179.52884 637.79528 C 186.83443 637.79542 192.75536 643.7178 192.7554 651.0238 L 192.7554 715.27575 C 192.75536 722.58136 186.83444 728.50424 179.52884 728.50427 L 137.95267 728.50427 C 137.11791 728.50424 136.30335 728.35344 135.51712 728.08434 C 134.73088 727.81524 133.99473 727.44407 133.29446 727.00231 C 132.59419 726.56054 131.93989 726.05495 131.32962 725.51598 C 130.71936 724.97702 130.15108 724.39815 129.61478 723.78942 C 128.54217 722.57194 127.59531 721.21957 126.75931 719.80895 C 125.9233 718.39834 125.19556 716.93319 124.56009 715.42223 C 123.92462 713.91126 123.38264 712.35517 122.93118 710.79333 C 122.47973 709.23149 122.11202 707.65574 121.8179 706.06676 C 121.22965 702.88879 120.9448 699.65869 120.94486 696.37926 L 120.94486 669.92223 C 120.9448 666.41911 121.32128 662.96141 122.11087 659.55505 C 122.50567 657.85188 122.99951 656.17243 123.59525 654.54333 C 124.19099 652.91423 124.892 651.32972 125.71634 649.79723 C 126.54068 648.26473 127.49214 646.77249 128.55814 645.39489 C 129.62415 644.01729 130.81219 642.74634 132.16946 641.62145 C 132.8481 641.05901 133.55724 640.54226 134.29642 640.07848 C 135.03559 639.6147 135.80557 639.2011 136.61478 638.85583 C 137.42399 638.51056 138.26894 638.23873 139.12259 638.0609 C 139.97623 637.88298 140.8461 637.79542 141.73197 637.79528 z M 583.93705 637.79528 L 621.73197 637.79528 C 629.03792 637.79542 634.9603 643.7178 634.96049 651.0238 L 634.96049 715.27575 C 634.9603 722.58137 629.03793 728.50424 621.73197 728.50427 L 583.93705 728.50427 C 583.05085 728.50424 582.18085 728.41036 581.32377 728.22692 C 580.46668 728.04347 579.61665 727.7704 578.8101 727.43005 C 578.00355 727.08969 577.23185 726.68062 576.48978 726.2152 C 575.74771 725.74977 575.03187 725.22711 574.35892 724.66833 C 573.01304 723.55076 571.82293 722.2784 570.74955 720.88903 C 569.67617 719.49966 568.73447 718.02014 567.91166 716.48864 C 567.08884 714.95713 566.38349 713.36387 565.78275 711.7152 C 565.182 710.06652 564.69578 708.3932 564.30619 706.70544 C 563.52699 703.3299 563.14974 699.88635 563.14994 696.37926 L 563.14994 669.92223 C 563.14974 666.41911 563.52636 662.96141 564.31595 659.55505 C 564.71075 657.85188 565.20264 656.17243 565.79838 654.54333 C 566.39413 652.91423 567.09512 651.32972 567.91947 649.79723 C 568.74381 648.26473 569.69722 646.77249 570.76322 645.39489 C 571.82922 644.01729 573.01532 642.74634 574.3726 641.62145 C 575.05124 641.05901 575.76232 640.54226 576.5015 640.07848 C 577.24068 639.6147 578.01065 639.2011 578.81986 638.85583 C 579.62907 638.51056 580.47402 638.23873 581.32767 638.0609 C 582.18132 637.88298 583.05103 637.79542 583.93705 637.79528 z M 1039.3706 690.70934 L 1126.2984 690.70934 C 1127.1242 690.70922 1127.9191 690.98895 1128.6304 691.39098 C 1129.3417 691.793 1129.9881 692.31373 1130.5621 692.88903 C 1131.1361 693.46434 1131.6491 694.10398 1132.1109 694.7777 C 1132.5726 695.45142 1132.9803 696.15333 1133.3433 696.87926 C 1134.0694 698.33111 1134.6103 699.88769 1134.9976 701.45739 C 1135.3849 703.02709 1135.6186 704.62876 1135.7046 706.26012 C 1135.8026 708.0734 1135.7146 709.86893 1135.4214 711.64489 C 1135.2749 712.53287 1135.0779 713.42094 1134.8296 714.29137 C 1134.5813 715.16182 1134.2822 716.0106 1133.9234 716.83434 C 1133.5647 717.65808 1133.145 718.45554 1132.6578 719.22497 C 1132.1705 719.9944 1131.6274 720.71925 1131.0015 721.37145 C 1130.3757 722.02365 1129.6559 722.60692 1128.8667 723.05309 C 1128.4721 723.27617 1128.0507 723.46729 1127.6148 723.59411 C 1127.1788 723.72097 1126.7309 723.77943 1126.271 723.77966 L 1039.3706 723.77966 C 1032.0648 723.77946 1026.1421 717.85707 1026.1421 710.55114 L 1026.1421 703.93786 C 1026.1421 696.63203 1032.0648 690.70914 1039.3706 690.70934 z M 2273.3882 707.01794 L 2273.3882 707.47106 L 2273.3882 707.01794 z " /><path
       id="path9"
       style="display:none;fill:#000000;stroke:none;stroke-width:3.571;stroke-linecap:round"
       inkscape:label="PersonalMediaCener"
       d="m 1517.48,890.08044 c -5.2182,-1.2e-4 -9.4484,4.22861 -9.4492,9.44726 v 34.01563 h -28.3437 c -18.3121,1.6e-4 -36.5676,14.18067 -47.5899,29.87891 -1.061,1.51097 -3.4375,0.76046 -3.4375,-1.08594 v -19.34375 c 7e-4,-5.21836 -4.2295,-9.44905 -9.4492,-9.44922 h -54.8027 c -26.8483,1.9e-4 -51.3253,15.37422 -62.9844,39.55859 -0.7505,1.55705 -3.0239,1.37252 -3.5137,-0.28515 -6.8824,-23.2895 -28.2713,-39.27329 -52.5586,-39.27344 h -132.2832 c -5.218,1.1e-4 -9.4482,4.23082 -9.4492,9.44922 v 126.61715 c 0,5.2166 4.2312,9.4469 9.4492,9.4493 h 41.5781 c 5.2162,0 9.4457,-4.2328 9.4434,-9.4493 v -77.48238 c 0,-1.04371 0.8451,-1.89054 1.8867,-1.89063 h 3.7813 c 1.0456,1.5e-4 1.8906,0.84696 1.8906,1.89063 v 77.48238 c 0,5.2166 4.2281,9.4469 9.4453,9.4493 h 41.5762 c 5.217,0 9.4472,-4.2328 9.4492,-9.4493 v -77.48238 c 0,-1.04367 0.8468,-1.89048 1.8926,-1.89063 h 3.7793 c 1.0413,1.5e-4 1.8876,0.84696 1.8926,1.89063 l 0.01,77.48438 c -0.011,5.2131 4.2191,9.4429 9.4356,9.4453 h 41.5761 c 5.2178,0 9.4499,-4.2326 9.4512,-9.4492 v -24.8692 c -10e-5,-1.9385 2.5703,-2.6208 3.5313,-0.9375 12.4456,21.7979 35.6198,35.2534 60.7207,35.2559 h 54.8027 c 5.2197,0 9.4499,-4.2326 9.4492,-9.4492 v -19.3184 c 0,-1.8463 2.3773,-2.5965 3.4375,-1.084 10.9647,15.6442 29.4188,29.8483 47.5918,29.8516 h 75.5938 c 5.2162,0 9.4455,-4.2327 9.4433,-9.4492 V 899.5277 c 0,-5.21865 -4.2271,-9.44738 -9.4433,-9.44726 z m -563.14842,1.88867 c -5.21859,-2.5e-4 -9.44927,4.22899 -9.44921,9.44727 v 168.19142 c -5e-5,5.2165 4.23063,9.4467 9.44921,9.4492 h 41.57422 c 5.2181,0 9.4494,-4.2327 9.4473,-9.4492 V 901.41638 c 0,-5.21827 -4.2291,-9.4475 -9.4473,-9.44727 z m 625.50782,0 c -5.2172,-2.4e-4 -9.4473,4.22884 -9.4473,9.44727 v 168.19142 c 0,5.2165 4.2301,9.4492 9.4473,9.4492 h 39.6875 c 5.2172,-0 9.4492,-4.2327 9.4492,-9.4492 v -11.8379 c 10e-5,-1.9071 2.5052,-2.6126 3.502,-0.9863 8.2396,13.438 24.2159,22.2734 39.9629,22.2734 h 92.5996 c 5.2181,-0 9.4483,-4.2327 9.4492,-9.4492 v -81.26173 c -9e-4,-30.26673 -24.5382,-54.80262 -54.8027,-54.80274 h -75.5957 c -5.2162,1.6e-4 -9.4434,4.23085 -9.4434,9.44922 v 34.01562 c -4e-4,4.77144 3.5573,8.79334 8.293,9.37696 1.6922,0.20853 2.2648,2.37542 0.8965,3.39258 -4.5334,3.37338 -8.4117,7.52235 -11.3575,12.33979 -0.9951,1.6285 -3.5019,0.9235 -3.5019,-0.9863 v -99.71482 h -0 c -0,-5.21827 -4.232,-9.44751 -9.4492,-9.44727 z m 702.9902,0 c -5.2161,-2.4e-4 -9.4454,4.229 -9.4433,9.44727 v 32.12695 h -13.2324 c -5.2203,1.6e-4 -9.4518,4.23086 -9.4512,9.44922 l 0,14.01562 c 10e-5,1.8722 -2.43,2.60502 -3.4648,1.04493 -10.1536,-15.30717 -27.3009,-24.50962 -45.6719,-24.50977 h -68.0312 c -5.2168,1.6e-4 -9.447,4.23086 -9.4492,9.44922 v 126.61715 c 0,5.2147 4.2325,9.4448 9.4492,9.4473 h 37.7988 c 5.2177,0 9.4479,-4.2327 9.4492,-9.4492 v -77.48244 c 0,-1.04371 0.8456,-1.88858 1.8907,-1.88867 h 15.1171 c 1.0389,1.5e-4 1.8837,0.845 1.8887,1.88867 v 77.48244 c 0,5.2166 4.2287,9.4467 9.4453,9.4492 h 37.7989 c 5.2181,0 9.4482,-4.2326 9.4492,-9.4492 v -81.26173 c 0,-1.04344 0.8458,-1.8888 1.8906,-1.88868 h 13.2285 c 1.0417,-1.2e-4 1.8887,0.84524 1.8887,1.88868 v 47.24413 c 0,24.0051 19.4583,43.4643 43.4629,43.4668 h 37.7968 c 5.2163,0 9.4456,-4.2327 9.4434,-9.4492 v -19.5488 c 13.1469,18.2085 34.2385,28.9955 56.6973,28.998 l 109.6035,0 c 5.2202,0 9.4512,-4.232 9.4512,-9.4512 v -56.6992 c 0,-1.042 0.846,-1.8887 1.8886,-1.8887 h 45.3555 c 5.2167,0 9.4489,-4.2284 9.4512,-9.4492 v -28.34378 c 0,-21.91726 -17.7699,-39.68537 -39.6875,-39.68554 l -136.0586,0.002 c -20.5623,1.4e-4 -40.08,9.04676 -53.3653,24.73633 -1.1374,1.34313 -3.3319,0.53954 -3.332,-1.2207 v -14.06641 c 0,-5.21837 -4.227,-9.44906 -9.4433,-9.44922 h -24.5684 v -32.12695 c -7e-4,-5.21827 -4.2309,-9.44751 -9.4492,-9.44727 z M 585.83353,932.50036 c -28.28746,-0.004 -56.57756,12.50939 -70.15625,37.55274 -0.9343,1.72343 -3.5508,1.05977 -3.55078,-0.90039 V 942.9945 c -10e-6,-5.21838 -4.2307,-9.44711 -9.44922,-9.44726 h -77.48047 c -16.22613,1.5e-4 -36.5532,7.5936 -45.77148,23.00976 -0.77699,1.29953 -2.69142,1.20302 -3.33399,-0.16797 -6.53337,-13.9397 -20.53854,-22.84164 -35.93359,-22.84179 h -136.0625 c -25.88064,1.5e-4 -49.64517,14.29419 -61.77149,37.1582 -0.7111,1.34098 -2.6336,1.33887 -3.3418,-0.004 -10.24831,-19.4331 -31.33007,-37.15414 -52.05273,-37.15429 l -75.589845,-0.004 c -5.2184556,3.1e-4 -9.4492172,4.23085 -9.4492186,9.44922 v 170.07815 c 1.25e-5,5.2188 4.2307788,9.447 9.4492186,9.4472 h 37.794923 c 5.21841,0 9.449197,-4.2265 9.449218,-9.4453 v -24.5683 c -10e-7,-5.2165 4.230786,-9.4453 9.449219,-9.4453 H 86.92923 c 20.89559,0 41.7696,-17.7332 52.05078,-37.1661 0.71032,-1.3416 2.63197,-1.3407 3.3418,0 12.12564,22.8663 35.89126,37.1645 61.77344,37.1661 h 109.60547 c 5.21832,0 9.44901,-4.2367 9.44922,-9.4532 v -49.1347 c -1.9e-4,-5.2172 4.231,-9.4493 9.44921,-9.4493 h 43.92969 c 1.13183,9e-4 2.2544,-0.2025 3.31446,-0.5996 3.02466,4.8823 6.77822,8.9949 11.2832,12.3067 1.47051,1.0812 0.70586,3.412 -1.11914,3.4121 h -4.4961 c -5.21857,8e-4 -9.4473,4.2327 -9.44726,9.4512 v 34.0175 c 0,5.2165 4.22873,9.4468 9.44726,9.4493 h 77.48047 c 20.31761,0 44.04667,-12.9441 50.54102,-33.8321 0.48707,-1.5671 2.60259,-1.8116 3.43359,-0.3965 28.38857,48.3399 112.21609,47.1291 139.00977,-2.2832 0.93435,-1.7234 3.55254,-1.0595 3.55274,0.9024 v 26.1601 c -2.1e-4,5.2165 4.22902,9.4468 9.44726,9.4493 h 37.79688 c 5.21825,0 9.44725,-4.2328 9.44726,-9.4512 v -77.48244 c 2.4e-4,-1.0425 0.84706,-1.88856 1.89063,-1.88867 h 15.11719 c 1.04385,1.1e-4 1.89067,0.84694 1.89062,1.89063 v 77.48238 c 6e-5,5.2165 4.23075,9.4493 9.44922,9.4493 h 37.79492 c 5.21854,0 9.44922,-4.2328 9.44922,-9.4493 v -15.2382 c 5e-5,-1.99 2.68111,-2.6287 3.57617,-0.8497 7.7142,15.3345 24.85371,25.5347 41.77735,25.5372 h 92.59765 c 5.21832,0 9.44901,-4.2328 9.44922,-9.4493 v -81.26363 c -2e-4,-30.26671 -24.53557,-54.80258 -54.80273,-54.80274 h -75.58985 c -5.21849,1.6e-4 -9.44917,4.23085 -9.44921,9.44922 v 34.01562 c 4e-5,4.77147 3.55724,8.79533 8.29296,9.37891 1.6922,0.20854 2.26496,2.37362 0.89649,3.39063 -5.52189,4.10864 -10.03554,9.36293 -13.16992,15.60739 -0.89397,1.7807 -3.57814,1.144 -3.57813,-0.8476 v -16.19143 c 10e-6,-30.26671 -24.53781,-54.80258 -54.80469,-54.80274 h -68.03125 c -5.21825,1.6e-4 -9.44748,4.23085 -9.44726,9.44922 v 26.1582 c -2e-4,1.96016 -2.61842,2.62456 -3.55274,0.90235 -13.57098,-25.02672 -41.85512,-37.54887 -70.14258,-37.55274 z m 1351.17577,1.04297 c -38.6176,1.3e-4 -69.9199,31.30573 -69.9199,69.91997 v 5.6699 c 0,38.6192 31.3025,69.9277 69.9199,69.9277 h 54.8008 c 5.2189,0 9.4491,-4.2346 9.4492,-9.4512 v -14.0683 c -2e-4,-1.7607 2.1947,-2.564 3.3321,-1.2207 13.2853,15.6896 32.8019,24.7383 53.3593,24.7383 h 54.8067 c 5.2164,0 9.4453,-4.2328 9.4453,-9.4493 V 942.99255 c 0,-5.21837 -4.229,-9.44906 -9.4453,-9.44922 h -54.8067 c -20.5574,1.4e-4 -40.074,9.04871 -53.3593,24.73828 -1.1374,1.34333 -3.3323,0.53968 -3.3321,-1.2207 v -14.06836 c -10e-5,-5.21837 -4.2303,-9.44906 -9.4492,-9.44922 z M 585.82767,985.51208 c 0.62583,0 1.2567,0.0445 1.8711,0.12891 0.6144,0.0844 1.21647,0.20971 1.81054,0.37304 0.59406,0.16332 1.17952,0.36381 1.75391,0.60352 0.57439,0.23971 1.13971,0.51908 1.67969,0.82617 1.07997,0.61419 2.07588,1.34717 2.99805,2.18555 0.92218,0.83837 1.75569,1.77127 2.49023,2.76367 0.73454,0.9924 1.37917,2.05336 1.93555,3.17188 0.55638,1.11853 1.01109,2.26818 1.375,3.44335 0.36391,1.17513 0.63708,2.37703 0.82031,3.60543 0.18325,1.2283 0.27444,2.4762 0.27344,3.711 -0.001,1.2348 -0.0928,2.4647 -0.27735,3.6914 -0.18449,1.2267 -0.46504,2.4515 -0.83398,3.6328 -0.36894,1.1812 -0.82695,2.3299 -1.38477,3.4434 -0.55782,1.1134 -1.21088,2.1791 -1.95117,3.1718 -0.74028,0.9928 -1.58049,1.9276 -2.50391,2.7598 -0.92341,0.8323 -1.92424,1.561 -3.01562,2.1738 -1.09139,0.6129 -2.23912,1.0897 -3.43945,1.4121 -0.60016,0.1612 -1.21982,0.2833 -1.83594,0.3633 -0.61613,0.08 -1.23105,0.1133 -1.84766,0.1133 -0.61661,0 -1.23447,-0.047 -1.85156,-0.1348 -0.61708,-0.088 -1.23149,-0.2197 -1.82617,-0.3867 -1.18937,-0.3341 -2.32062,-0.8157 -3.39649,-1.4316 -0.53793,-0.3079 -1.06441,-0.6519 -1.56445,-1.0196 -0.50004,-0.3678 -0.97639,-0.7595 -1.43164,-1.1757 -0.91049,-0.8324 -1.74151,-1.7655 -2.47852,-2.7657 -1.47401,-2.0004 -2.54773,-4.2037 -3.2832,-6.5781 -0.36773,-1.1871 -0.64123,-2.399 -0.82226,-3.6152 -0.181,-1.2163 -0.27155,-2.4423 -0.27149,-3.6797 5e-5,-1.2375 0.0924,-2.4851 0.27539,-3.7051 0.18295,-1.2199 0.45479,-2.4222 0.82227,-3.60546 0.36748,-1.18322 0.83132,-2.34625 1.38281,-3.45117 0.55149,-1.10491 1.19428,-2.16255 1.9375,-3.16406 0.74322,-1.0015 1.56942,-1.9217 2.48633,-2.75391 0.91691,-0.83221 1.93108,-1.57622 3.00586,-2.18554 0.53738,-0.30467 1.09258,-0.57926 1.66601,-0.81836 0.57343,-0.2391 1.1667,-0.44404 1.76367,-0.60743 1.19395,-0.32678 2.41632,-0.49609 3.66797,-0.49609 z m 899.52153,0.94336 h 22.6797 v 39.68356 h -22.6797 c -0.1621,0 -0.3132,-0.056 -0.459,-0.1211 -0.1458,-0.065 -0.2848,-0.1444 -0.418,-0.2324 -0.2663,-0.1755 -0.5093,-0.3788 -0.7383,-0.5976 -0.458,-0.4375 -0.8547,-0.9403 -1.207,-1.4707 -0.7046,-1.0606 -1.2388,-2.2172 -1.6543,-3.4122 -0.4156,-1.1949 -0.7068,-2.4115 -0.9023,-3.6445 -0.195,-1.2331 -0.2902,-2.4832 -0.2852,-3.75 v -13.22459 c -0.01,-1.26769 0.089,-2.52136 0.2852,-3.75781 0.1963,-1.23645 0.4906,-2.46197 0.9082,-3.65821 0.4176,-1.19623 0.9486,-2.33849 1.6504,-3.39453 0.351,-0.52803 0.7454,-1.02922 1.2031,-1.46679 0.2289,-0.21878 0.4758,-0.42432 0.7402,-0.60157 0.1322,-0.0886 0.2688,-0.17138 0.4141,-0.23828 0.1453,-0.0669 0.3008,-0.11343 0.4629,-0.11328 z m -1426.765674,0.002 22.675782,0.002 c 0.16216,6.9e-4 0.315125,0.0564 0.460937,0.12109 0.145813,0.0647 0.284808,0.14462 0.417969,0.23242 0.266323,0.17551 0.509258,0.37888 0.738282,0.59766 0.458047,0.43755 0.854722,0.94039 1.207031,1.4707 0.704617,1.06061 1.238737,2.21716 1.654297,3.41211 0.41556,1.19495 0.706843,2.41151 0.902343,3.64453 0.195499,1.23302 0.28908,2.48317 0.289063,3.75 v 13.22464 c 1.7e-5,1.2668 -0.09468,2.5194 -0.291016,3.7558 -0.196331,1.2365 -0.488687,2.4619 -0.90625,3.6582 -0.417564,1.1962 -0.94856,2.3386 -1.65039,3.3946 -0.350915,0.5282 -0.745406,1.0293 -1.203125,1.4668 -0.22886,0.2188 -0.477799,0.4242 -0.742188,0.6015 -0.132194,0.089 -0.26873,0.1713 -0.414062,0.2383 -0.145331,0.067 -0.300789,0.1133 -0.462891,0.1133 H 58.583526 Z m 439.642584,0 h 8.44727 c 1.22009,-1.6e-4 2.12012,1.13897 1.83789,2.32618 -0.51464,2.16342 -0.93277,4.34318 -1.25391,6.5371 -0.2345,1.60137 -2.24137,2.18614 -3.29883,0.96094 -2.06117,-2.38705 -4.35017,-4.53471 -6.86719,-6.42383 -1.45226,-1.08991 -0.68092,-3.40055 1.13477,-3.40039 z m 1442.56249,0 h 49.3418 c -1.394,5.56159 -2.0989,11.27417 -2.0996,17.00591 v 5.6699 c 7e-4,5.7367 0.7056,11.4488 2.0996,17.0097 h -49.3418 c -7.3071,0 -13.229,-5.9229 -13.2285,-13.2304 v -13.22659 c -5e-4,-7.30578 5.9214,-13.22865 13.2285,-13.22852 z m 391.1817,0 h 20.998 c -1.3967,5.56159 -2.1015,11.27419 -2.0996,17.00591 v 5.6699 c 0,5.7367 0.7029,11.4488 2.0996,17.0097 l -20.998,-0 c -1.0445,0 -1.8907,-0.8459 -1.8907,-1.8906 v -35.90433 c 0,-1.04347 0.8462,-1.88886 1.8907,-1.88868 z" /></g><g
     inkscape:label="digiBlastPersonalMediaCener"
     id="g38"
     transform="matrix(0.26458333,0,0,0.26458333,1.4449954,-120.05478)"
     style="display:inline;fill:#808080;fill-opacity:1;stroke:none"><path
       id="path12"
       style="display:inline;fill:#808080;fill-opacity:1;stroke:none;stroke-width:3.571;stroke-linecap:round"
       inkscape:label="digiBLAST"
       d="m 205.98392,470.55114 v 85.03906 h -68.03126 c -12.78885,-2.3e-4 -24.97654,2.44161 -36.55859,6.87109 -28.506507,10.90212 -53.345398,33.85064 -67.267579,62.10547 -17.816706,36.1587 -17.753559,81.00732 0,117.16602 19.509301,39.73463 60.380569,68.97639 103.826169,68.97656 h 147.4004 v -340.1582 z m 130.39453,0 v 73.70117 h 90.70898 v -73.70117 z m 440.31446,0 v 73.70117 h 90.70898 v -73.70117 z m 151.18164,0 v 340.1582 h 221.10355 c 18.5611,-1.7e-4 34.4058,-5.33952 49.2968,-13.74023 13.5033,-7.61789 26.2227,-17.7524 34.6094,-30.91797 8.2152,-12.89646 12.2739,-28.70249 12.4688,-44.78516 v -2.46679 c -0.3991,-32.99023 -16.9421,-66.58222 -47.0762,-78.16797 30.1341,-11.58575 46.677,-45.17978 47.0801,-78.16993 v -2.46679 c -0.197,-16.08275 -4.2555,-31.88675 -12.4707,-44.78321 -8.3867,-13.16557 -21.1061,-23.30008 -34.6094,-30.91797 -14.891,-8.40071 -30.7359,-13.74209 -49.2988,-13.74218 z m 360.94535,0 v 226.77148 c -6e-4,62.62117 50.7639,113.38653 113.3828,113.38672 h 221.8867 l 32.0703,-79.37109 h 134.6094 l 32.0605,79.37109 h 95.5508 l -151.4512,-340.1582 h -86.9296 l -141.7305,318.33594 v -53.76953 h -128.5059 c -18.7835,8e-5 -34.0136,-15.22905 -34.0136,-34.01563 V 470.55114 Z m 720,0 c -15.2781,9e-5 -29.626,5.80425 -42.7403,13.47851 -13.6079,7.9631 -25.8872,17.93886 -34.7402,30.90625 -11.2479,16.47527 -16.9638,37.77809 -17.0098,59.08008 v 0.51172 c 0.045,21.1312 5.6719,42.22304 17.0098,58.56641 8.9959,12.96739 21.5868,22.9451 34.7402,30.9082 12.6762,7.67425 25.8746,13.47868 42.7403,13.47852 h 134.1719 c 10.6912,1.6e-4 22.6777,11.98566 22.6777,22.67578 v 6.61523 c -4e-4,14.25331 -15.9833,30.23627 -30.2383,30.23633 h -204.0918 v 73.70117 h 234.3301 c 29.6073,-3.81579 60.1593,-18.36462 77.4805,-43.90039 11.3007,-16.66007 16.9707,-37.9969 17.0097,-59.34961 v -0.42968 c -0.039,-21.35263 -5.709,-42.68955 -17.0097,-59.34961 -17.3212,-25.53577 -47.8732,-40.08501 -77.4805,-43.9004 h -134.1719 c -10.6922,-2.3e-4 -22.6782,-11.98743 -22.6777,-22.67773 v -6.61328 c -6e-4,-14.25339 15.9823,-30.23634 30.2383,-30.23633 H 2243.15 v -73.70117 z m 264.5703,0 v 73.70117 h 111.4902 v 266.45703 h 86.9297 V 544.25231 h 111.5 v -73.70117 z m -1260.4805,73.70117 h 113.3906 c 13.1954,-10e-6 21.9151,14.78431 22.6192,28.07422 0.7826,14.55777 -8.2175,31.45312 -22.6446,31.45312 l -113.3652,0.002 z M 336.37845,555.5902 v 255.11914 h 90.70898 V 555.5902 Z m 440.31446,0 v 255.11914 h 90.70898 V 555.5902 Z m -198.42383,0.002 c -21.63238,-2.3e-4 -42.0596,6.61602 -59.5879,17.90039 -19.12629,12.31313 -34.80238,30.18254 -44.72656,51.07422 -17.12727,36.05513 -17.12312,81.11218 0,117.16602 18.76268,39.50603 58.07954,68.203 102.51953,68.97656 h 66.69727 c 2.99871,-1.7e-4 4.80157,3.32348 3.16797,5.83789 -6.70102,10.32243 -22.55467,13.0607 -35.94531,13.06055 l -119.05469,-0.002 v 68.0332 h 154.96094 c 44.87868,-1.1e-4 81.25978,-36.38121 81.25976,-81.25976 V 555.59215 Z m 1145.19142,9.16602 36.7695,90.99023 h -73.5293 z M 141.73196,624.56676 h 64.25196 v 117.16602 h -68.03126 c -19.92246,1.4e-4 -30.23656,-25.04003 -30.23632,-45.35547 v -26.45703 c -2.4e-4,-21.16909 13.18496,-45.35355 34.01562,-45.35352 z m 442.20508,0.002 H 648.189 v 117.16406 h -64.25196 c -20.86092,1.4e-4 -34.01549,-24.08278 -34.01562,-45.35352 v -26.45703 c 1.3e-4,-21.16909 13.18482,-45.35354 34.01562,-45.35351 z m 428.97266,52.91211 h 113.3906 c 13.1954,1.6e-4 21.9151,14.78431 22.6192,28.07422 0.7827,14.55933 -8.2184,31.45305 -22.6465,31.45312 h -113.3633 z" /><path
       id="path19"
       style="fill:#ffffff;fill-opacity:1;stroke:none;stroke-width:3.571;stroke-linecap:round"
       inkscape:label="PersonalMediaCenter"
       d="m 1555.2769,899.52966 -37.8008,0.002 v 43.46485 h -37.793 c -9.5136,6e-5 -19.7799,4.77098 -27.6796,11.3164 -7.5526,6.25789 -12.8781,14.20282 -16.9766,22.69922 -8.5113,17.64445 -7.7221,41.69337 0.7559,59.33797 4.0824,8.4964 10.1246,15.6835 17.7324,21.9414 7.9574,6.5454 16.8726,11.3203 26.1699,11.3203 h 75.5957 z m -600.94532,1.88672 V 1069.6097 H 995.9058 V 901.41638 Z m 625.50782,0 v 35.90625 h 39.6914 v -35.90625 z m 702.9922,0 v 41.57617 h -22.6699 v 34.01562 h 22.6699 v 58.58203 c 0,18.7859 15.2314,34.0156 34.0176,34.0156 h 37.8008 v -34.0195 h -26.459 c -4.1748,3e-4 -7.5587,-3.3838 -7.5586,-7.5586 v -51.02153 h 34.0195 v -34.01562 h -34.0195 V 901.41638 Z M 585.82767,938.26794 a 69.92126,68.031496 0 0 0 -69.92188,68.03126 69.92126,68.031496 0 0 0 139.8418,0 69.92126,68.031496 0 0 0 -69.91992,-68.03126 z m 1058.26173,4.72266 v 34.01562 h 66.1504 v 0.002 c 7.3298,0 15.1193,5.06894 15.1172,12.28321 h -52.9121 c -6.1481,1.7e-4 -12.6049,1.93477 -18.2461,5.04101 -4.9836,2.74408 -9.3306,6.40316 -12.5606,11.03916 -9.3017,13.3502 -9.3336,34.8059 0,48.1562 3.2411,4.6358 7.6107,8.2929 12.5606,11.0371 5.6032,3.1062 11.9499,5.0411 18.2461,5.0429 h 92.5996 v -81.26364 c -3e-4,-25.0483 -20.3075,-45.35349 -45.3535,-45.35351 z m -1632.750019,0.002 v 170.0743 h 37.794923 v -43.461 h 37.794922 c 9.511178,0 19.778084,-4.7729 27.677734,-11.3183 7.55263,-6.2579 12.87614,-14.2009 16.97461,-22.6973 8.51127,-17.6446 8.47797,-40.93763 0,-58.58208 -4.08244,-8.4964 -9.36676,-16.44132 -16.97461,-22.69921 -7.95742,-6.54542 -18.385384,-11.31635 -27.677734,-11.31641 z m 264.566409,0 v 126.6171 h 37.79492 v -96.38077 h 11.33789 c 4.17493,1.8e-4 7.56076,3.38404 7.56055,7.55859 l -0.002,20.78318 h 37.79687 v -28.34177 c -1.5e-4,-16.69882 -13.53709,-30.23627 -30.23633,-30.23633 z m 149.29102,0 c -4.28927,10e-4 -10.78027,0.78974 -16.23438,2.34961 -8.89064,2.54271 -15.02648,7.13744 -19.36523,12.97461 -10.4949,14.11941 -10.46827,35.50595 -0.0254,49.63468 4.31723,5.8411 10.41337,10.4428 19.35156,12.9961 5.48328,1.5663 12.03623,2.3618 16.27344,2.3633 h 34.01562 c 3.13087,0 5.66988,2.5369 5.66993,5.668 v 0.9414 c -5e-5,3.1311 -2.53906,5.6683 -5.66993,5.668 h -73.70117 v 34.0195 h 77.48047 c 4.29223,0 10.60987,-0.6353 15.98633,-2.1289 v 0 c 8.76405,-2.4347 15.02784,-7.1495 19.45508,-13.0605 10.70894,-14.2981 10.67816,-35.5877 0.0273,-49.8965 -4.40319,-5.91545 -10.62034,-10.63763 -19.4375,-13.08394 -5.40904,-1.50072 -11.79714,-2.14436 -16.03125,-2.14453 h -34.01562 c -3.13087,1.7e-4 -5.66993,-2.53886 -5.66993,-5.66992 v -0.94532 c 4e-5,-3.13098 2.53906,-5.66804 5.66993,-5.66797 h 73.70117 V 942.9946 Z m 243.7793,0 v 126.6171 h 37.79492 v -88.82218 h 30.23633 c 4.17469,2e-4 7.56052,3.38408 7.56055,7.5586 v 81.26358 h 37.79492 v -81.26358 c 1.1e-4,-21.38001 -23.9753,-45.35346 -45.35547,-45.35352 z m 139.84375,0 v 34.01562 h 66.14063 c 7.32958,-7e-5 15.11901,5.06894 15.11914,12.28321 h -52.91407 c -6.1484,1.7e-4 -12.60485,1.93477 -18.24609,5.04101 -4.98354,2.74408 -9.33053,6.40316 -12.56055,11.03916 -9.30176,13.3502 -9.33358,34.8059 0,48.1562 3.24107,4.6358 7.61062,8.2929 12.56055,11.0371 5.6032,3.1062 11.94964,5.0411 18.24609,5.0429 h 92.59766 v -81.26168 c -1.1e-4,-25.04827 -20.3048,-45.35346 -45.35352,-45.35352 z m 304.24614,0 v 126.6171 h 41.58 v -88.82218 h 26.4493 v 88.82218 h 41.58 v -88.82218 h 18.8926 c 4.1763,10e-4 7.5586,3.38472 7.5586,7.5586 v 81.26358 h 41.5801 v -81.26358 c 0,-21.38001 -23.975,-45.35346 -45.3574,-45.35352 z m 466.7734,0 v 126.6171 h 39.6914 V 942.99255 Z m 553.6973,0 v 126.6171 h 37.7988 v -88.82218 h 30.2324 c 4.1763,10e-4 7.5606,3.38472 7.5606,7.5586 v 81.26358 h 37.7988 v -81.26358 c 0,-21.38001 -23.9768,-45.35346 -45.3594,-45.35352 z m 359.0625,0 v 126.6171 h 37.791 v -96.38077 h 11.3379 c 4.1752,2.1e-4 7.5605,3.38406 7.5605,7.55859 v 20.78318 h 37.7989 v -28.34177 c 0,-16.69882 -13.5372,-30.23626 -30.2364,-30.23633 z m -2288.50591,0.002 c -33.39777,6e-5 -60.47069,27.07499 -60.4707,60.4707 v 5.6699 c 4e-5,33.4 27.07295,60.4766 60.4707,60.4766 h 54.80469 v -34.0195 h -58.58203 c -7.32979,3e-4 -15.11922,-5.0684 -15.11914,-12.2813 h 73.70117 v -34.01952 l -73.70117,0.004 c -8e-5,-7.19734 7.80382,-12.28327 15.11914,-12.2832 h 58.58203 V 942.9945 Z m 1160.31641,0 c -33.3983,8e-5 -60.4707,27.07305 -60.4707,60.4688 v 5.6699 c 0,33.4 27.0724,60.4765 60.4707,60.4765 h 54.8008 v -34.0195 h -58.5801 c -7.3298,3e-4 -15.1182,-5.0684 -15.1191,-12.2813 h 73.6992 v -34.01952 h -73.6992 c 9e-4,-7.19734 7.8037,-12.28328 15.1191,-12.28321 h 58.5801 V 942.9945 Z m 572.5996,0 c -33.399,3e-5 -60.4707,27.07301 -60.4707,60.4688 v 5.6679 c 0,33.3982 27.0717,60.4746 60.4707,60.4746 h 54.8008 v -34.0195 h -51.0215 c -12.5256,3e-4 -22.6776,-10.1515 -22.6777,-22.6758 v -13.22459 c 1e-4,-12.52425 10.1521,-22.67587 22.6777,-22.67578 h 51.0215 V 942.9945 Z m 120.9414,0 c -33.3966,3e-5 -60.4705,27.07301 -60.4707,60.4688 v 5.6699 c 2e-4,33.4 27.0741,60.4765 60.4707,60.4765 h 54.8086 v -34.0195 h -58.5879 c -7.3281,3e-4 -15.1132,-5.0703 -15.1132,-12.2832 h 73.7011 v -34.01757 h -73.7011 c 0,-7.19734 7.7995,-12.28327 15.1132,-12.2832 h 58.5879 V 942.9945 Z m 362.8379,0 c -33.3993,8e-5 -60.4765,27.07501 -60.4765,60.4707 v 5.6699 c 0,33.4 27.0772,60.4766 60.4765,60.4766 h 54.8008 v -34.0195 h -58.5801 c -7.3309,3e-4 -15.1192,-5.0684 -15.1191,-12.2813 h 73.6992 v -34.01952 h -73.6992 c -10e-5,-7.19734 7.8019,-12.28321 15.1172,-12.28321 v 0.004 h 58.5801 V 942.9945 Z M 585.82767,976.06286 a 26.456787,30.236329 0 0 1 0,60.47264 26.456787,30.236329 0 0 1 0,-60.47264 z m -536.693366,0.94531 h 32.125 c 9.961188,-7e-5 15.119117,12.52003 15.119141,22.67774 v 13.22459 c -2.4e-5,10.1411 -5.311652,22.6797 -15.119141,22.6797 h -32.125 z m 1468.345696,0 v 58.58203 h -32.1269 c -9.959,3e-4 -15.1172,-12.5183 -15.1153,-22.6777 v -13.22464 c 0,-10.13941 5.3055,-22.67594 15.1133,-22.67773 z m 166.2989,43.92973 h 41.5703 v 17.0097 h -41.5703 c -4.175,0 -7.5584,-3.384 -7.5586,-7.5605 v -1.8926 c 2e-4,-4.1728 3.3836,-7.5566 7.5586,-7.5566 z m -837.36138,0 h 43.66211 v 17.0098 h -41.57618 c -4.1748,0 -7.55867,-3.384 -7.55859,-7.5606 v -1.8906 c -3e-5,-4.1728 3.38528,-7.5581 5.47266,-7.5586 z" /></g><g
     inkscape:label="digiBlastPersonalMediaCener"
     id="g534"
     transform="matrix(0.26458333,0,0,0.26458333,1.4449954,-120.05478)"
     style="display:none;fill:url(#linearGradient2);stroke:none"><path
       id="path508"
       style="fill:url(#linearGradient3);fill-opacity:1;stroke:none;stroke-width:3.571;stroke-linecap:round"
       inkscape:label="digiBLAST"
       d="m 205.98392,470.55114 v 85.03906 h -68.03126 c -12.78885,-2.3e-4 -24.97654,2.44161 -36.55859,6.87109 -28.506507,10.90212 -53.345398,33.85064 -67.267579,62.10547 -17.816706,36.1587 -17.753559,81.00732 0,117.16602 19.509301,39.73463 60.380569,68.97639 103.826169,68.97656 h 147.4004 v -340.1582 z m 130.39453,0 v 73.70117 h 90.70898 v -73.70117 z m 440.31446,0 v 73.70117 h 90.70898 v -73.70117 z m 151.18164,0 v 340.1582 h 221.10355 c 18.5611,-1.7e-4 34.4058,-5.33952 49.2968,-13.74023 13.5033,-7.61789 26.2227,-17.7524 34.6094,-30.91797 8.2152,-12.89646 12.2739,-28.70249 12.4688,-44.78516 v -2.46679 c -0.3991,-32.99023 -16.9421,-66.58222 -47.0762,-78.16797 30.1341,-11.58575 46.677,-45.17978 47.0801,-78.16993 v -2.46679 c -0.197,-16.08275 -4.2555,-31.88675 -12.4707,-44.78321 -8.3867,-13.16557 -21.1061,-23.30008 -34.6094,-30.91797 -14.891,-8.40071 -30.7359,-13.74209 -49.2988,-13.74218 z m 360.94535,0 v 226.77148 c -6e-4,62.62117 50.7639,113.38653 113.3828,113.38672 h 221.8867 l 32.0703,-79.37109 h 134.6094 l 32.0605,79.37109 h 95.5508 l -151.4512,-340.1582 h -86.9296 l -141.7305,318.33594 v -53.76953 h -128.5059 c -18.7835,8e-5 -34.0136,-15.22905 -34.0136,-34.01563 V 470.55114 Z m 720,0 c -15.2781,9e-5 -29.626,5.80425 -42.7403,13.47851 -13.6079,7.9631 -25.8872,17.93886 -34.7402,30.90625 -11.2479,16.47527 -16.9638,37.77809 -17.0098,59.08008 v 0.51172 c 0.045,21.1312 5.6719,42.22304 17.0098,58.56641 8.9959,12.96739 21.5868,22.9451 34.7402,30.9082 12.6762,7.67425 25.8746,13.47868 42.7403,13.47852 h 134.1719 c 10.6912,1.6e-4 22.6777,11.98566 22.6777,22.67578 v 6.61523 c -4e-4,14.25331 -15.9833,30.23627 -30.2383,30.23633 h -204.0918 v 73.70117 h 234.3301 c 29.6073,-3.81579 60.1593,-18.36462 77.4805,-43.90039 11.3007,-16.66007 16.9707,-37.9969 17.0097,-59.34961 v -0.42968 c -0.039,-21.35263 -5.709,-42.68955 -17.0097,-59.34961 -17.3212,-25.53577 -47.8732,-40.08501 -77.4805,-43.9004 h -134.1719 c -10.6922,-2.3e-4 -22.6782,-11.98743 -22.6777,-22.67773 v -6.61328 c -6e-4,-14.25339 15.9823,-30.23634 30.2383,-30.23633 H 2243.15 v -73.70117 z m 264.5703,0 v 73.70117 h 111.4902 v 266.45703 h 86.9297 V 544.25231 h 111.5 v -73.70117 z m -1260.4805,73.70117 h 113.3906 c 13.1954,-10e-6 21.9151,14.78431 22.6192,28.07422 0.7826,14.55777 -8.2175,31.45312 -22.6446,31.45312 l -113.3652,0.002 z M 336.37845,555.5902 v 255.11914 h 90.70898 V 555.5902 Z m 440.31446,0 v 255.11914 h 90.70898 V 555.5902 Z m -198.42383,0.002 c -21.63238,-2.3e-4 -42.0596,6.61602 -59.5879,17.90039 -19.12629,12.31313 -34.80238,30.18254 -44.72656,51.07422 -17.12727,36.05513 -17.12312,81.11218 0,117.16602 18.76268,39.50603 58.07954,68.203 102.51953,68.97656 h 66.69727 c 2.99871,-1.7e-4 4.80157,3.32348 3.16797,5.83789 -6.70102,10.32243 -22.55467,13.0607 -35.94531,13.06055 l -119.05469,-0.002 v 68.0332 h 154.96094 c 44.87868,-1.1e-4 81.25978,-36.38121 81.25976,-81.25976 V 555.59215 Z m 1145.19142,9.16602 36.7695,90.99023 h -73.5293 z M 141.73196,624.56676 h 64.25196 v 117.16602 h -68.03126 c -19.92246,1.4e-4 -30.23656,-25.04003 -30.23632,-45.35547 v -26.45703 c -2.4e-4,-21.16909 13.18496,-45.35355 34.01562,-45.35352 z m 442.20508,0.002 H 648.189 v 117.16406 h -64.25196 c -20.86092,1.4e-4 -34.01549,-24.08278 -34.01562,-45.35352 v -26.45703 c 1.3e-4,-21.16909 13.18482,-45.35354 34.01562,-45.35351 z m 428.97266,52.91211 h 113.3906 c 13.1954,1.6e-4 21.9151,14.78431 22.6192,28.07422 0.7827,14.55933 -8.2184,31.45305 -22.6465,31.45312 h -113.3633 z" /><path
       id="path515"
       style="fill:url(#linearGradient4);fill-opacity:1;stroke:none;stroke-width:3.571;stroke-linecap:round"
       inkscape:label="PersonalMediaCenter"
       d="m 1555.2769,899.52966 -37.8008,0.002 v 43.46485 h -37.793 c -9.5136,6e-5 -19.7799,4.77098 -27.6796,11.3164 -7.5526,6.25789 -12.8781,14.20282 -16.9766,22.69922 -8.5113,17.64445 -7.7221,41.69337 0.7559,59.33797 4.0824,8.4964 10.1246,15.6835 17.7324,21.9414 7.9574,6.5454 16.8726,11.3203 26.1699,11.3203 h 75.5957 z m -600.94532,1.88672 V 1069.6097 H 995.9058 V 901.41638 Z m 625.50782,0 v 35.90625 h 39.6914 v -35.90625 z m 702.9922,0 v 41.57617 h -22.6699 v 34.01562 h 22.6699 v 58.58203 c 0,18.7859 15.2314,34.0156 34.0176,34.0156 h 37.8008 v -34.0195 h -26.459 c -4.1748,3e-4 -7.5587,-3.3838 -7.5586,-7.5586 v -51.02153 h 34.0195 v -34.01562 h -34.0195 V 901.41638 Z M 585.82767,938.26794 a 69.92126,68.031496 0 0 0 -69.92188,68.03126 69.92126,68.031496 0 0 0 139.8418,0 69.92126,68.031496 0 0 0 -69.91992,-68.03126 z m 1058.26173,4.72266 v 34.01562 h 66.1504 v 0.002 c 7.3298,0 15.1193,5.06894 15.1172,12.28321 h -52.9121 c -6.1481,1.7e-4 -12.6049,1.93477 -18.2461,5.04101 -4.9836,2.74408 -9.3306,6.40316 -12.5606,11.03916 -9.3017,13.3502 -9.3336,34.8059 0,48.1562 3.2411,4.6358 7.6107,8.2929 12.5606,11.0371 5.6032,3.1062 11.9499,5.0411 18.2461,5.0429 h 92.5996 v -81.26364 c -3e-4,-25.0483 -20.3075,-45.35349 -45.3535,-45.35351 z m -1632.750019,0.002 v 170.0743 h 37.794923 v -43.461 h 37.794922 c 9.511178,0 19.778084,-4.7729 27.677734,-11.3183 7.55263,-6.2579 12.87614,-14.2009 16.97461,-22.6973 8.51127,-17.6446 8.47797,-40.93763 0,-58.58208 -4.08244,-8.4964 -9.36676,-16.44132 -16.97461,-22.69921 -7.95742,-6.54542 -18.385384,-11.31635 -27.677734,-11.31641 z m 264.566409,0 v 126.6171 h 37.79492 v -96.38077 h 11.33789 c 4.17493,1.8e-4 7.56076,3.38404 7.56055,7.55859 l -0.002,20.78318 h 37.79687 v -28.34177 c -1.5e-4,-16.69882 -13.53709,-30.23627 -30.23633,-30.23633 z m 149.29102,0 c -4.28927,10e-4 -10.78027,0.78974 -16.23438,2.34961 -8.89064,2.54271 -15.02648,7.13744 -19.36523,12.97461 -10.4949,14.11941 -10.46827,35.50595 -0.0254,49.63468 4.31723,5.8411 10.41337,10.4428 19.35156,12.9961 5.48328,1.5663 12.03623,2.3618 16.27344,2.3633 h 34.01562 c 3.13087,0 5.66988,2.5369 5.66993,5.668 v 0.9414 c -5e-5,3.1311 -2.53906,5.6683 -5.66993,5.668 h -73.70117 v 34.0195 h 77.48047 c 4.29223,0 10.60987,-0.6353 15.98633,-2.1289 v 0 c 8.76405,-2.4347 15.02784,-7.1495 19.45508,-13.0605 10.70894,-14.2981 10.67816,-35.5877 0.0273,-49.8965 -4.40319,-5.91545 -10.62034,-10.63763 -19.4375,-13.08394 -5.40904,-1.50072 -11.79714,-2.14436 -16.03125,-2.14453 h -34.01562 c -3.13087,1.7e-4 -5.66993,-2.53886 -5.66993,-5.66992 v -0.94532 c 4e-5,-3.13098 2.53906,-5.66804 5.66993,-5.66797 h 73.70117 V 942.9946 Z m 243.7793,0 v 126.6171 h 37.79492 v -88.82218 h 30.23633 c 4.17469,2e-4 7.56052,3.38408 7.56055,7.5586 v 81.26358 h 37.79492 v -81.26358 c 1.1e-4,-21.38001 -23.9753,-45.35346 -45.35547,-45.35352 z m 139.84375,0 v 34.01562 h 66.14063 c 7.32958,-7e-5 15.11901,5.06894 15.11914,12.28321 h -52.91407 c -6.1484,1.7e-4 -12.60485,1.93477 -18.24609,5.04101 -4.98354,2.74408 -9.33053,6.40316 -12.56055,11.03916 -9.30176,13.3502 -9.33358,34.8059 0,48.1562 3.24107,4.6358 7.61062,8.2929 12.56055,11.0371 5.6032,3.1062 11.94964,5.0411 18.24609,5.0429 h 92.59766 v -81.26168 c -1.1e-4,-25.04827 -20.3048,-45.35346 -45.35352,-45.35352 z m 304.24614,0 v 126.6171 h 41.58 v -88.82218 h 26.4493 v 88.82218 h 41.58 v -88.82218 h 18.8926 c 4.1763,10e-4 7.5586,3.38472 7.5586,7.5586 v 81.26358 h 41.5801 v -81.26358 c 0,-21.38001 -23.975,-45.35346 -45.3574,-45.35352 z m 466.7734,0 v 126.6171 h 39.6914 V 942.99255 Z m 553.6973,0 v 126.6171 h 37.7988 v -88.82218 h 30.2324 c 4.1763,10e-4 7.5606,3.38472 7.5606,7.5586 v 81.26358 h 37.7988 v -81.26358 c 0,-21.38001 -23.9768,-45.35346 -45.3594,-45.35352 z m 359.0625,0 v 126.6171 h 37.791 v -96.38077 h 11.3379 c 4.1752,2.1e-4 7.5605,3.38406 7.5605,7.55859 v 20.78318 h 37.7989 v -28.34177 c 0,-16.69882 -13.5372,-30.23626 -30.2364,-30.23633 z m -2288.50591,0.002 c -33.39777,6e-5 -60.47069,27.07499 -60.4707,60.4707 v 5.6699 c 4e-5,33.4 27.07295,60.4766 60.4707,60.4766 h 54.80469 v -34.0195 h -58.58203 c -7.32979,3e-4 -15.11922,-5.0684 -15.11914,-12.2813 h 73.70117 v -34.01952 l -73.70117,0.004 c -8e-5,-7.19734 7.80382,-12.28327 15.11914,-12.2832 h 58.58203 V 942.9945 Z m 1160.31641,0 c -33.3983,8e-5 -60.4707,27.07305 -60.4707,60.4688 v 5.6699 c 0,33.4 27.0724,60.4765 60.4707,60.4765 h 54.8008 v -34.0195 h -58.5801 c -7.3298,3e-4 -15.1182,-5.0684 -15.1191,-12.2813 h 73.6992 v -34.01952 h -73.6992 c 9e-4,-7.19734 7.8037,-12.28328 15.1191,-12.28321 h 58.5801 V 942.9945 Z m 572.5996,0 c -33.399,3e-5 -60.4707,27.07301 -60.4707,60.4688 v 5.6679 c 0,33.3982 27.0717,60.4746 60.4707,60.4746 h 54.8008 v -34.0195 h -51.0215 c -12.5256,3e-4 -22.6776,-10.1515 -22.6777,-22.6758 v -13.22459 c 1e-4,-12.52425 10.1521,-22.67587 22.6777,-22.67578 h 51.0215 V 942.9945 Z m 120.9414,0 c -33.3966,3e-5 -60.4705,27.07301 -60.4707,60.4688 v 5.6699 c 2e-4,33.4 27.0741,60.4765 60.4707,60.4765 h 54.8086 v -34.0195 h -58.5879 c -7.3281,3e-4 -15.1132,-5.0703 -15.1132,-12.2832 h 73.7011 v -34.01757 h -73.7011 c 0,-7.19734 7.7995,-12.28327 15.1132,-12.2832 h 58.5879 V 942.9945 Z m 362.8379,0 c -33.3993,8e-5 -60.4765,27.07501 -60.4765,60.4707 v 5.6699 c 0,33.4 27.0772,60.4766 60.4765,60.4766 h 54.8008 v -34.0195 h -58.5801 c -7.3309,3e-4 -15.1192,-5.0684 -15.1191,-12.2813 h 73.6992 v -34.01952 h -73.6992 c -10e-5,-7.19734 7.8019,-12.28321 15.1172,-12.28321 v 0.004 h 58.5801 V 942.9945 Z M 585.82767,976.06286 a 26.456787,30.236329 0 0 1 0,60.47264 26.456787,30.236329 0 0 1 0,-60.47264 z m -536.693366,0.94531 h 32.125 c 9.961188,-7e-5 15.119117,12.52003 15.119141,22.67774 v 13.22459 c -2.4e-5,10.1411 -5.311652,22.6797 -15.119141,22.6797 h -32.125 z m 1468.345696,0 v 58.58203 h -32.1269 c -9.959,3e-4 -15.1172,-12.5183 -15.1153,-22.6777 v -13.22464 c 0,-10.13941 5.3055,-22.67594 15.1133,-22.67773 z m 166.2989,43.92973 h 41.5703 v 17.0097 h -41.5703 c -4.175,0 -7.5584,-3.384 -7.5586,-7.5605 v -1.8926 c 2e-4,-4.1728 3.3836,-7.5566 7.5586,-7.5566 z m -837.36138,0 h 43.66211 v 17.0098 h -41.57618 c -4.1748,0 -7.55867,-3.384 -7.55859,-7.5606 v -1.8906 c -3e-5,-4.1728 3.38528,-7.5581 5.47266,-7.5586 z" /></g><path
     id="path63"
     style="display:none;fill:url(#linearGradient110);fill-opacity:1;stroke:none;stroke-width:0.944827;stroke-linecap:round"
     inkscape:label="PersonalMediaCener"
     d="m 670.94401,137.44513 v 25.50107 h -9.99861 v -33.50102 l 16.99954,2e-5 c 4.41833,2e-5 8.00004,3.58174 8.00049,7.99997 v 7.49878 h -10.00125 v -5.49879 c 0,-1.10451 -0.89543,-1.99993 -2.00011,-1.99999 z m -29.99902,1.00009 c -1.9355,0 -3.99999,1.34566 -3.99997,3.24995 l 19.49982,-4e-5 v 9.00086 h -19.49982 c -2e-5,1.90841 2.06063,3.24961 4.00027,3.24953 l 15.49955,-8e-5 v 9.00113 h -14.49951 c -8.8369,0 -16.00033,-7.16394 -16.00099,-16.00102 v -1.50009 c 0,-8.83594 7.16409,-15.99939 16.00099,-15.99941 l 14.49951,-2e-5 v 9.00007 h -15.49929 m -26.50088,24.4992 c -4.97051,0 -8.99996,-4.0299 -9.00044,-9.00034 v -15.49971 h -5.9981 v -9.00007 h 5.9981 v -11.00005 h 10.00125 v 11.00005 h 9.00113 v 9.00007 h -9.00113 v 13.49957 c -2e-5,1.10458 0.89541,2.00001 1.99999,1.99993 l 7.00088,-8e-5 v 9.00113 z m -30.50135,-23.50014 -7.99899,-5e-5 v 23.50109 h -10.00125 v -33.50102 l 18.00024,2e-5 c 5.65748,2e-5 12.00063,6.34316 12.00126,11.99996 v 21.50104 h -10.00125 v -21.50104 c 0,-1.10452 -0.89543,-1.99995 -2.00064,-2 z m -23.49725,14.49991 v 9.00113 h -14.50144 c -8.83618,0 -15.99965,-7.16394 -15.9997,-16.00103 v -1.50008 c 5e-5,-8.83595 7.16352,-15.9994 15.9997,-15.99941 l 14.50144,-2e-5 v 9.00007 l -15.50151,-2e-5 c -1.93509,-2e-5 -3.99958,1.34564 -3.99894,3.24994 l 19.50045,-5e-5 v 9.00086 h -19.50042 c 0,1.90842 2.06001,3.24962 3.99891,3.24954 z m -32.00135,0 v 9.00113 h -14.49946 c -8.83682,0 -16.00028,-7.16394 -15.99967,-16.00055 v -1.49966 c 0,-8.83595 7.16285,-15.9994 15.99967,-15.99941 l 14.49946,-2e-5 v 9.00007 l -13.49939,-2e-5 c -3.31406,-2e-5 -6.00035,2.68627 -6.00038,5.99998 v 3.49773 c 3e-5,3.31372 2.68632,6.00001 6.00038,5.99993 z m -74.49974,-15.49895 c 1.93935,0 4,1.34118 3.99945,3.24995 h -13.99956 c -1.62668,5e-5 -3.33481,0.5119 -4.82737,1.33376 -1.31858,0.72604 -2.46894,1.69401 -3.32354,2.92059 -2.46108,3.53224 -2.46952,9.20914 0,12.74141 0.85754,1.22655 2.01388,2.19453 3.32354,2.92057 1.48251,0.82185 3.1615,1.33372 4.82737,1.33419 h 24.50029 l -8e-5,-21.50104 c -8e-5,-6.62736 -5.37269,-11.99995 -11.99944,-11.99995 l -20.00184,-2e-5 v 9.00007 h 17.50219 m -9.00105,13.62315 c 6e-5,-1.10405 0.89549,-1.99948 2.00012,-1.99948 h 10.99878 v 4.5003 h -10.99878 c -1.10463,0 -2.00006,-0.89546 -2.00012,-2.00049 z m -25.50062,-33.62367 h 10.50132 v 9.50013 h -10.50132 z m 10.50132,44.50107 h -10.50132 v -33.50102 h 10.50132 v 33.50102 m -17.00038,-45.00063 -10.00146,5.3e-4 v 11.50007 h -9.99938 c -2.51714,1e-5 -5.23316,1.26264 -7.32329,2.99445 -1.99829,1.65573 -3.40762,3.75751 -4.49202,6.00552 -2.25195,4.66842 -2.04298,11.03139 0.20016,15.69983 1.08013,2.248 2.6788,4.14959 4.6917,5.80533 2.10539,1.7318 4.46405,2.99513 6.92396,2.99513 h 20.00136 z m -10.00043,20.49952 v 15.49982 h -8.50024 c -2.63499,8e-5 -3.99976,-3.31213 -3.99926,-6.00014 v -3.49901 c 0,-2.68272 1.40375,-5.99968 3.99873,-6.00015 z m -26.00053,15.49998 v 9.00113 h -14.49924 c -8.83664,0 -16.00007,-7.16394 -15.99967,-16.00103 v -1.50008 c 0,-8.83594 7.16303,-15.99939 15.99967,-15.99941 l 14.49924,-2e-5 v 8.99983 l -15.49929,-2.6e-4 c -1.93553,-1e-5 -4.00002,1.34565 -4.00026,3.24994 l 19.49955,-4e-5 v 9.00086 h -19.49955 c 2.4e-4,1.90841 2.06092,3.24961 4.00026,3.24953 z m -47.00098,-14.49991 -4.99861,-5e-5 v 23.50109 h -11.00138 v -23.50109 h -6.99822 v 23.50109 h -11.00138 v -33.50102 l 34.99967,2e-5 c 5.65742,2e-5 12.00057,6.34316 12.00126,11.99996 v 21.50104 h -11.00138 v -21.50104 c 0,-1.10452 -0.89543,-1.99995 -2.00064,-2 z m -64.9982,23.50104 v -44.50107 h -11.00005 v 44.50107 z m -17.5001,-21.50104 c -3e-5,-6.62736 -5.37261,-11.99994 -12.00009,-11.99996 l -19.99991,-2e-5 v 9.00007 l 17.50002,-2e-5 c 1.93929,-1e-5 3.99995,1.34117 3.99999,3.24994 h -14.00008 c -1.62677,5e-5 -3.33488,0.5119 -4.82746,1.33376 -1.31856,0.72604 -2.46891,1.69401 -3.32352,2.92059 -2.46109,3.53224 -2.46951,9.20914 0,12.74141 0.85753,1.22655 2.01386,2.19453 3.32352,2.92057 1.48252,0.82185 3.16152,1.33372 4.82746,1.33419 h 24.5001 z m -10.49996,8.62376 v 4.5003 H 225.945 c -1.10458,0 -2.00001,-0.89543 -1.99999,-2.00049 v -0.50003 c -1e-5,-1.10405 0.89542,-1.99948 1.44771,-1.99962 z m -48.49998,12.87728 v -23.50109 l 7.99993,5e-5 c 1.10455,6e-5 1.99998,0.89549 1.99999,2 l 1e-5,21.50104 h 9.99993 l 3e-5,-21.50104 c 2e-5,-5.6568 -6.34312,-11.99994 -11.99996,-11.99996 l -18.00012,-2e-5 v 33.50102 z m -31.99993,-34.75113 c -10.2173,-9e-5 -18.50012,8.05877 -18.50016,17.99993 0.0327,9.91856 8.30578,17.94231 18.49991,17.94231 10.19412,0 18.46723,-8.02375 18.4999,-17.94231 -4e-5,-9.94097 -8.28255,-17.99974 -18.49965,-17.99993 z m 0,9.99991 c 3.862,0.006 6.98976,3.58631 6.98976,8.00002 0,4.41371 -3.12776,7.99355 -6.98976,8.00002 -3.862,-0.006 -6.98976,-3.58631 -6.98976,-8.00002 0,-4.41371 3.12776,-7.99355 6.98976,-8.00002 z m -28.27039,24.18704 c 2.31882,-0.64418 3.97579,-1.89203 5.14716,-3.45598 2.83341,-3.78304 2.8256,-9.41557 0.008,-13.20144 -1.16501,-1.56514 -2.81032,-2.81465 -5.1432,-3.46191 -1.43114,-0.39706 -3.12104,-0.56747 -4.24131,-0.56752 h -9.00004 c -0.82837,5e-5 -1.49995,-0.67153 -1.49995,-1.49995 l -1e-5,-0.25003 c 1e-5,-0.8284 0.67159,-1.49997 1.49996,-1.49996 l 19.50001,2e-5 v -9.00007 l -20.49993,2.7e-4 c -1.13487,2.6e-4 -2.85214,0.20864 -4.29521,0.62136 -2.35231,0.67275 -3.97605,1.88851 -5.12401,3.43293 -2.77677,3.73576 -2.76978,9.3945 -0.007,13.13275 1.14226,1.54546 2.75557,2.76267 5.12046,3.43823 1.45079,0.41442 3.18443,0.625 4.30553,0.6254 h 9.00003 c 0.82837,0 1.49994,0.67157 1.49996,1.5 v 0.24871 c -2e-5,0.82844 -0.67159,1.5 -1.49996,1.49992 l -19.50001,-8e-5 v 9.00113 h 20.49994 c 1.13565,0 2.80725,-0.16851 4.22978,-0.5637 z m -40.729813,-24.93685 -2.999896,-4e-5 v 25.50107 h -9.999927 v -33.50102 l 16.999807,2e-5 c 4.41834,2e-5 8.000063,3.58174 8.000103,7.99997 l 3.9e-5,7.49878 H 89.444882 l 5.8e-5,-5.49879 c 5.6e-5,-1.10451 -0.895376,-1.99994 -1.999993,-1.99999 z M 69.94509,150.69599 H 50.445016 c -2.1e-5,1.90841 2.060644,3.24961 3.999984,3.24953 l 15.50009,-8e-5 v 9.00113 H 55.444932 c -8.836488,0 -15.999931,-7.16394 -15.999942,-16.00102 l -2e-6,-1.50009 c 2e-6,-8.83595 7.163448,-15.9994 15.999941,-15.99941 l 14.500161,-2e-5 v 9.00007 l -15.50009,-2e-5 c -1.935512,-2e-5 -4.000005,1.34564 -3.999984,3.24994 l 19.500074,-7.9e-4 z M 14.445006,174.44401 H 4.4449999 v -44.99883 l 19.9999911,2e-5 c 2.458601,2e-5 5.217732,1.26261 7.323133,2.99442 2.01291,1.65573 3.411074,3.75759 4.49122,6.0056 2.243129,4.66842 2.25194,10.83157 0,15.50001 -1.084387,2.24801 -2.49292,4.34964 -4.49122,6.00538 -2.090116,1.7318 -4.806634,2.99461 -7.323133,2.99461 h -9.999985 v 11.49879 m 12.499995,-26.49972 v -3.49908 c -6e-6,-2.68756 -1.364447,-5.99999 -4.000011,-5.99998 l -8.499984,2e-5 v 15.49982 h 8.499984 c 2.594898,0 4.000005,-3.31721 4.000011,-6.00038 z"
     sodipodi:nodetypes="ccccscccsscccccccccsssscccccccccccccccccccccccccscccsccccsssscccccccccccssssccssscccccsssscccscccssccssscccccccccccccssssssccccccsccccssssccccccccccccccccccccccsccccccccscccccsssscccccsssccccccccsscccccscccscsccscsccssccccsscscssscccsccccccccscccccccccssssccccccccccssssscccssccssc" /><path
     id="path39"
     style="display:inline;fill:url(#linearGradient110);fill-opacity:1;stroke:none;stroke-width:0.944827;stroke-linecap:round"
     inkscape:label="digiBlast"
     d="M 602.94609,23.945227 V 4.4451705 h 81.99967 V 23.945227 h -29.50104 v 70.50008 h -23.00023 v -70.50008 z m -90.50073,51.000024 53.99924,-1.9e-5 c 3.77163,-1.6e-5 8.00039,-4.228779 8.0005,-7.999968 l -1.1e-4,-1.750046 c 0,-2.828428 -3.17159,-5.999999 -6.0003,-6.000041 h -35.49957 c -4.46238,4.2e-5 -7.95417,-1.535488 -11.30808,-3.565967 -3.48017,-2.106904 -6.81188,-4.746718 -9.19205,-8.177673 -2.99982,-4.324183 -4.4881,-9.905068 -4.50008,-15.496032 v -0.135228 c 0.0122,-5.636152 1.52408,-11.272298 4.50008,-15.63138 2.34236,-3.430955 5.59163,-6.070766 9.19205,-8.1776697 3.46983,-2.0304813 7.26575,-3.5660092 11.30808,-3.566033 l 61.99997,-2.38e-5 V 23.945227 l -53.99944,-6e-6 c -3.7719,-2e-6 -8.00066,4.228762 -8.0005,7.999971 l -3e-5,1.749978 c -1.3e-4,2.828475 3.17143,6.000049 6.00041,6.000109 h 35.49957 c 7.83359,1.009489 15.91699,4.858764 20.49989,11.615103 2.98997,4.407974 4.48995,10.053349 4.50035,15.702899 v 0.11385 c -0.0103,5.649571 -1.51038,11.294946 -4.50035,15.702923 -4.5829,6.756339 -12.6663,10.605613 -20.49989,11.615208 l -61.99974,4.5e-5 z M 457.44378,29.371037 447.7177,53.445209 h 19.45481 z m 26.29165,65.07427 -8.48254,-20.999979 h -35.61557 l -8.48518,20.999979 -58.70776,-4.5e-5 c -16.56792,-5e-5 -29.99939,-13.431504 -29.99923,-30.000022 l 1.3e-4,-60.0000695 h 23.00023 V 65.445169 c 0,4.970616 4.02945,9.000056 8.99925,9.000035 l 34.00083,-1.6e-5 v 14.226381 l 37.4994,-84.2263985 h 23.00023 L 509.01636,94.445307 Z M 246.94506,4.4450012 V 94.445193 h 58.50031 c 4.91096,-4.5e-5 9.10323,-1.412751 13.04314,-3.635438 3.57274,-2.015567 6.93806,-4.696989 9.15704,-8.18038 2.1736,-3.412188 3.24747,-7.594198 3.29904,-11.849404 v -0.652674 c -0.1056,-8.728665 -4.48257,-17.616546 -12.45556,-20.681942 7.97299,-3.065396 12.34993,-11.953814 12.45659,-20.682458 v -0.652674 c -0.0521,-4.255227 -1.12594,-8.4367 -3.29954,-11.848888 -2.21898,-3.48339 -5.5843,-6.164813 -9.15705,-8.1803794 C 314.54912,5.8582677 310.3568,4.445025 305.44537,4.4450012 Z m 22.49888,19.5001008 h 30.00126 c 3.49128,-2e-6 5.79837,3.911682 5.98466,7.427971 0.20707,3.851743 -2.17418,8.321974 -5.99135,8.321974 l -29.99457,5.29e-4 z m 0,35.250046 h 30.00126 c 3.49128,4.2e-5 5.79837,3.911682 5.98466,7.42797 0.20709,3.852156 -2.17445,8.321956 -5.99188,8.321974 H 269.44394 Z M 206.94502,4.4451705 h 24.00009 V 23.945227 h -24.00009 z m 24.00009,22.5001665 h -24.00009 v 67.49997 h 24.00009 z m -76.49984,10e-5 c -5.72356,-6e-5 -11.12826,1.750489 -15.76596,4.736145 -5.0605,3.257849 -9.20813,7.985797 -11.8339,13.513387 -4.53159,9.539587 -4.53049,21.460931 0,31.000176 4.96429,10.452637 15.36688,18.045377 27.12496,18.250048 h 17.64698 c 0.79341,-4.5e-5 1.27042,0.879338 0.8382,1.544608 -1.77298,2.731143 -5.9676,3.455644 -9.51054,3.455604 l -31.49988,-5.29e-4 v 18.000454 h 41.00008 c 11.87415,-3e-5 21.49999,-9.62586 21.49998,-21.499981 V 26.945437 Z m 1.49966,18.250048 h 16.99999 v 30.99966 h -16.99999 c -5.51946,3.7e-5 -8.99994,-6.371902 -8.99997,-11.999785 v -7.000089 c 3e-5,-5.600989 3.48848,-11.999794 8.99997,-11.999786 z M 114.4451,4.4451705 V 23.945227 H 90.445007 V 4.4451705 Z m 0,22.5001665 v 67.49997 H 90.445007 V 26.945337 Z M 10.474233,76.195217 c -4.6972962,-9.56699 -4.7140039,-21.43301 0,-30.999999 3.683577,-7.475757 10.255745,-13.547717 17.798091,-16.432236 3.064418,-1.171967 6.288987,-1.817764 9.672704,-1.817703 l 17.9999,5.8e-5 V 4.4451705 H 76.944907 V 94.445307 l -38.999879,-4.5e-5 C 26.450045,94.445217 15.636068,86.708337 10.474233,76.195217 Z M 29.945057,64.195225 c -6.3e-5,5.375127 2.72882,11.999992 7.999971,11.999955 l 17.9999,-3.7e-5 V 45.195237 l -16.999971,-1.1e-5 c -5.511445,-8e-6 -8.999963,6.398969 -8.9999,11.999957 z"
     sodipodi:nodetypes="ccccccccccccsccssccsscccsssccsccscccccccccccccccsccccccccccsscccccsscccscccccccccccccccccccccsssccccccccccscccccsccccccccccsssccccccsccccccc" /><path
     id="path127"
     style="display:none;fill:url(#linearGradient127);fill-opacity:1;stroke:none;stroke-width:0.944827;stroke-linecap:round"
     inkscape:label="PersonalMediaCener"
     d="m 670.94401,137.44513 v 25.50107 h -9.99861 v -33.50102 l 16.99954,2e-5 c 4.41833,2e-5 8.00004,3.58174 8.00049,7.99997 v 7.49878 h -10.00125 v -5.49879 c 0,-1.10451 -0.89543,-1.99993 -2.00011,-1.99999 z m -29.99902,1.00009 c -1.9355,0 -3.99999,1.34566 -3.99997,3.24995 l 19.49982,-4e-5 v 9.00086 h -19.49982 c -2e-5,1.90841 2.06063,3.24961 4.00027,3.24953 l 15.49955,-8e-5 v 9.00113 h -14.49951 c -8.8369,0 -16.00033,-7.16394 -16.00099,-16.00102 v -1.50009 c 0,-8.83594 7.16409,-15.99939 16.00099,-15.99941 l 14.49951,-2e-5 v 9.00007 h -15.49929 m -26.50088,24.4992 c -4.97051,0 -8.99996,-4.0299 -9.00044,-9.00034 v -15.49971 h -5.9981 v -9.00007 h 5.9981 v -11.00005 h 10.00125 v 11.00005 h 9.00113 v 9.00007 h -9.00113 v 13.49957 c -2e-5,1.10458 0.89541,2.00001 1.99999,1.99993 l 7.00088,-8e-5 v 9.00113 z m -30.50135,-23.50014 -7.99899,-5e-5 v 23.50109 h -10.00125 v -33.50102 l 18.00024,2e-5 c 5.65748,2e-5 12.00063,6.34316 12.00126,11.99996 v 21.50104 h -10.00125 v -21.50104 c 0,-1.10452 -0.89543,-1.99995 -2.00064,-2 z m -23.49725,14.49991 v 9.00113 h -14.50144 c -8.83618,0 -15.99965,-7.16394 -15.9997,-16.00103 v -1.50008 c 5e-5,-8.83595 7.16352,-15.9994 15.9997,-15.99941 l 14.50144,-2e-5 v 9.00007 l -15.50151,-2e-5 c -1.93509,-2e-5 -3.99958,1.34564 -3.99894,3.24994 l 19.50045,-5e-5 v 9.00086 h -19.50042 c 0,1.90842 2.06001,3.24962 3.99891,3.24954 z m -32.00135,0 v 9.00113 h -14.49946 c -8.83682,0 -16.00028,-7.16394 -15.99967,-16.00055 v -1.49966 c 0,-8.83595 7.16285,-15.9994 15.99967,-15.99941 l 14.49946,-2e-5 v 9.00007 l -13.49939,-2e-5 c -3.31406,-2e-5 -6.00035,2.68627 -6.00038,5.99998 v 3.49773 c 3e-5,3.31372 2.68632,6.00001 6.00038,5.99993 z m -74.49974,-15.49895 c 1.93935,0 4,1.34118 3.99945,3.24995 h -13.99956 c -1.62668,5e-5 -3.33481,0.5119 -4.82737,1.33376 -1.31858,0.72604 -2.46894,1.69401 -3.32354,2.92059 -2.46108,3.53224 -2.46952,9.20914 0,12.74141 0.85754,1.22655 2.01388,2.19453 3.32354,2.92057 1.48251,0.82185 3.1615,1.33372 4.82737,1.33419 h 24.50029 l -8e-5,-21.50104 c -8e-5,-6.62736 -5.37269,-11.99995 -11.99944,-11.99995 l -20.00184,-2e-5 v 9.00007 h 17.50219 m -9.00105,13.62315 c 6e-5,-1.10405 0.89549,-1.99948 2.00012,-1.99948 h 10.99878 v 4.5003 h -10.99878 c -1.10463,0 -2.00006,-0.89546 -2.00012,-2.00049 z m -25.50062,-33.62367 h 10.50132 v 9.50013 h -10.50132 z m 10.50132,44.50107 h -10.50132 v -33.50102 h 10.50132 v 33.50102 m -17.00038,-45.00063 -10.00146,5.3e-4 v 11.50007 h -9.99938 c -2.51714,1e-5 -5.23316,1.26264 -7.32329,2.99445 -1.99829,1.65573 -3.40762,3.75751 -4.49202,6.00552 -2.25195,4.66842 -2.04298,11.03139 0.20016,15.69983 1.08013,2.248 2.6788,4.14959 4.6917,5.80533 2.10539,1.7318 4.46405,2.99513 6.92396,2.99513 h 20.00136 z m -10.00043,20.49952 v 15.49982 h -8.50024 c -2.63499,8e-5 -3.99976,-3.31213 -3.99926,-6.00014 v -3.49901 c 0,-2.68272 1.40375,-5.99968 3.99873,-6.00015 z m -26.00053,15.49998 v 9.00113 h -14.49924 c -8.83664,0 -16.00007,-7.16394 -15.99967,-16.00103 v -1.50008 c 0,-8.83594 7.16303,-15.99939 15.99967,-15.99941 l 14.49924,-2e-5 v 8.99983 l -15.49929,-2.6e-4 c -1.93553,-1e-5 -4.00002,1.34565 -4.00026,3.24994 l 19.49955,-4e-5 v 9.00086 h -19.49955 c 2.4e-4,1.90841 2.06092,3.24961 4.00026,3.24953 z m -47.00098,-14.49991 -4.99861,-5e-5 v 23.50109 h -11.00138 v -23.50109 h -6.99822 v 23.50109 h -11.00138 v -33.50102 l 34.99967,2e-5 c 5.65742,2e-5 12.00057,6.34316 12.00126,11.99996 v 21.50104 h -11.00138 v -21.50104 c 0,-1.10452 -0.89543,-1.99995 -2.00064,-2 z m -64.9982,23.50104 v -44.50107 h -11.00005 v 44.50107 z m -17.5001,-21.50104 c -3e-5,-6.62736 -5.37261,-11.99994 -12.00009,-11.99996 l -19.99991,-2e-5 v 9.00007 l 17.50002,-2e-5 c 1.93929,-1e-5 3.99995,1.34117 3.99999,3.24994 h -14.00008 c -1.62677,5e-5 -3.33488,0.5119 -4.82746,1.33376 -1.31856,0.72604 -2.46891,1.69401 -3.32352,2.92059 -2.46109,3.53224 -2.46951,9.20914 0,12.74141 0.85753,1.22655 2.01386,2.19453 3.32352,2.92057 1.48252,0.82185 3.16152,1.33372 4.82746,1.33419 h 24.5001 z m -10.49996,8.62376 v 4.5003 H 225.945 c -1.10458,0 -2.00001,-0.89543 -1.99999,-2.00049 v -0.50003 c -1e-5,-1.10405 0.89542,-1.99948 1.44771,-1.99962 z m -48.49998,12.87728 v -23.50109 l 7.99993,5e-5 c 1.10455,6e-5 1.99998,0.89549 1.99999,2 l 1e-5,21.50104 h 9.99993 l 3e-5,-21.50104 c 2e-5,-5.6568 -6.34312,-11.99994 -11.99996,-11.99996 l -18.00012,-2e-5 v 33.50102 z m -31.99993,-34.75113 c -10.2173,-9e-5 -18.50012,8.05877 -18.50016,17.99993 0.0327,9.91856 8.30578,17.94231 18.49991,17.94231 10.19412,0 18.46723,-8.02375 18.4999,-17.94231 -4e-5,-9.94097 -8.28255,-17.99974 -18.49965,-17.99993 z m 0,9.99991 c 3.862,0.006 6.98976,3.58631 6.98976,8.00002 0,4.41371 -3.12776,7.99355 -6.98976,8.00002 -3.862,-0.006 -6.98976,-3.58631 -6.98976,-8.00002 0,-4.41371 3.12776,-7.99355 6.98976,-8.00002 z m -28.27039,24.18704 c 2.31882,-0.64418 3.97579,-1.89203 5.14716,-3.45598 2.83341,-3.78304 2.8256,-9.41557 0.008,-13.20144 -1.16501,-1.56514 -2.81032,-2.81465 -5.1432,-3.46191 -1.43114,-0.39706 -3.12104,-0.56747 -4.24131,-0.56752 h -9.00004 c -0.82837,5e-5 -1.49995,-0.67153 -1.49995,-1.49995 l -1e-5,-0.25003 c 1e-5,-0.8284 0.67159,-1.49997 1.49996,-1.49996 l 19.50001,2e-5 v -9.00007 l -20.49993,2.7e-4 c -1.13487,2.6e-4 -2.85214,0.20864 -4.29521,0.62136 -2.35231,0.67275 -3.97605,1.88851 -5.12401,3.43293 -2.77677,3.73576 -2.76978,9.3945 -0.007,13.13275 1.14226,1.54546 2.75557,2.76267 5.12046,3.43823 1.45079,0.41442 3.18443,0.625 4.30553,0.6254 h 9.00003 c 0.82837,0 1.49994,0.67157 1.49996,1.5 v 0.24871 c -2e-5,0.82844 -0.67159,1.5 -1.49996,1.49992 l -19.50001,-8e-5 v 9.00113 h 20.49994 c 1.13565,0 2.80725,-0.16851 4.22978,-0.5637 z m -40.729813,-24.93685 -2.999896,-4e-5 v 25.50107 h -9.999927 v -33.50102 l 16.999807,2e-5 c 4.41834,2e-5 8.000063,3.58174 8.000103,7.99997 l 3.9e-5,7.49878 H 89.444882 l 5.8e-5,-5.49879 c 5.6e-5,-1.10451 -0.895376,-1.99994 -1.999993,-1.99999 z M 69.94509,150.69599 H 50.445016 c -2.1e-5,1.90841 2.060644,3.24961 3.999984,3.24953 l 15.50009,-8e-5 v 9.00113 H 55.444932 c -8.836488,0 -15.999931,-7.16394 -15.999942,-16.00102 l -2e-6,-1.50009 c 2e-6,-8.83595 7.163448,-15.9994 15.999941,-15.99941 l 14.500161,-2e-5 v 9.00007 l -15.50009,-2e-5 c -1.935512,-2e-5 -4.000005,1.34564 -3.999984,3.24994 l 19.500074,-7.9e-4 z M 14.445006,174.44401 H 4.4449999 v -44.99883 l 19.9999911,2e-5 c 2.458601,2e-5 5.217732,1.26261 7.323133,2.99442 2.01291,1.65573 3.411074,3.75759 4.49122,6.0056 2.243129,4.66842 2.25194,10.83157 0,15.50001 -1.084387,2.24801 -2.49292,4.34964 -4.49122,6.00538 -2.090116,1.7318 -4.806634,2.99461 -7.323133,2.99461 h -9.999985 v 11.49879 m 12.499995,-26.49972 v -3.49908 c -6e-6,-2.68756 -1.364447,-5.99999 -4.000011,-5.99998 l -8.499984,2e-5 v 15.49982 h 8.499984 c 2.594898,0 4.000005,-3.31721 4.000011,-6.00038 z"
     sodipodi:nodetypes="ccccscccsscccccccccsssscccccccccccccccccccccccccscccsccccsssscccccccccccssssccssscccccsssscccscccssccssscccccccccccccssssssccccccsccccssssccccccccccccccccccccccsccccccccscccccsssscccccsssccccccccsscccccscccscsccscsccssccccsscscssscccsccccccccscccccccccssssccccccccccssssscccssccssc" /><path
     id="path38"
     style="display:inline;fill:url(#linearGradient127);fill-opacity:1;stroke:none;stroke-width:0.944827;stroke-linecap:round"
     inkscape:label="digiBlast"
     d="M 602.94609,23.945227 V 4.4451705 h 81.99967 V 23.945227 h -29.50104 v 70.50008 h -23.00023 v -70.50008 z m -90.50073,51.000024 53.99924,-1.9e-5 c 3.77163,-1.6e-5 8.00039,-4.228779 8.0005,-7.999968 l -1.1e-4,-1.750046 c 0,-2.828428 -3.17159,-5.999999 -6.0003,-6.000041 h -35.49957 c -4.46238,4.2e-5 -7.95417,-1.535488 -11.30808,-3.565967 -3.48017,-2.106904 -6.81188,-4.746718 -9.19205,-8.177673 -2.99982,-4.324183 -4.4881,-9.905068 -4.50008,-15.496032 v -0.135228 c 0.0122,-5.636152 1.52408,-11.272298 4.50008,-15.63138 2.34236,-3.430955 5.59163,-6.070766 9.19205,-8.1776697 3.46983,-2.0304813 7.26575,-3.5660092 11.30808,-3.566033 l 61.99997,-2.38e-5 V 23.945227 l -53.99944,-6e-6 c -3.7719,-2e-6 -8.00066,4.228762 -8.0005,7.999971 l -3e-5,1.749978 c -1.3e-4,2.828475 3.17143,6.000049 6.00041,6.000109 h 35.49957 c 7.83359,1.009489 15.91699,4.858764 20.49989,11.615103 2.98997,4.407974 4.48995,10.053349 4.50035,15.702899 v 0.11385 c -0.0103,5.649571 -1.51038,11.294946 -4.50035,15.702923 -4.5829,6.756339 -12.6663,10.605613 -20.49989,11.615208 l -61.99974,4.5e-5 z M 457.44378,29.371037 447.7177,53.445209 h 19.45481 z m 26.29165,65.07427 -8.48254,-20.999979 h -35.61557 l -8.48518,20.999979 -58.70776,-4.5e-5 c -16.56792,-5e-5 -29.99939,-13.431504 -29.99923,-30.000022 l 1.3e-4,-60.0000695 h 23.00023 V 65.445169 c 0,4.970616 4.02945,9.000056 8.99925,9.000035 l 34.00083,-1.6e-5 v 14.226381 l 37.4994,-84.2263985 h 23.00023 L 509.01636,94.445307 Z M 246.94506,4.4450012 V 94.445193 h 58.50031 c 4.91096,-4.5e-5 9.10323,-1.412751 13.04314,-3.635438 3.57274,-2.015567 6.93806,-4.696989 9.15704,-8.18038 2.1736,-3.412188 3.24747,-7.594198 3.29904,-11.849404 v -0.652674 c -0.1056,-8.728665 -4.48257,-17.616546 -12.45556,-20.681942 7.97299,-3.065396 12.34993,-11.953814 12.45659,-20.682458 v -0.652674 c -0.0521,-4.255227 -1.12594,-8.4367 -3.29954,-11.848888 -2.21898,-3.48339 -5.5843,-6.164813 -9.15705,-8.1803794 C 314.54912,5.8582677 310.3568,4.445025 305.44537,4.4450012 Z m 22.49888,19.5001008 h 30.00126 c 3.49128,-2e-6 5.79837,3.911682 5.98466,7.427971 0.20707,3.851743 -2.17418,8.321974 -5.99135,8.321974 l -29.99457,5.29e-4 z m 0,35.250046 h 30.00126 c 3.49128,4.2e-5 5.79837,3.911682 5.98466,7.42797 0.20709,3.852156 -2.17445,8.321956 -5.99188,8.321974 H 269.44394 Z M 206.94502,4.4451705 h 24.00009 V 23.945227 h -24.00009 z m 24.00009,22.5001665 h -24.00009 v 67.49997 h 24.00009 z m -76.49984,10e-5 c -5.72356,-6e-5 -11.12826,1.750489 -15.76596,4.736145 -5.0605,3.257849 -9.20813,7.985797 -11.8339,13.513387 -4.53159,9.539587 -4.53049,21.460931 0,31.000176 4.96429,10.452637 15.36688,18.045377 27.12496,18.250048 h 17.64698 c 0.79341,-4.5e-5 1.27042,0.879338 0.8382,1.544608 -1.77298,2.731143 -5.9676,3.455644 -9.51054,3.455604 l -31.49988,-5.29e-4 v 18.000454 h 41.00008 c 11.87415,-3e-5 21.49999,-9.62586 21.49998,-21.499981 V 26.945437 Z m 1.49966,18.250048 h 16.99999 v 30.99966 h -16.99999 c -5.51946,3.7e-5 -8.99994,-6.371902 -8.99997,-11.999785 v -7.000089 c 3e-5,-5.600989 3.48848,-11.999794 8.99997,-11.999786 z M 114.4451,4.4451705 V 23.945227 H 90.445007 V 4.4451705 Z m 0,22.5001665 v 67.49997 H 90.445007 V 26.945337 Z M 10.474233,76.195217 c -4.6972962,-9.56699 -4.7140039,-21.43301 0,-30.999999 3.683577,-7.475757 10.255745,-13.547717 17.798091,-16.432236 3.064418,-1.171967 6.288987,-1.817764 9.672704,-1.817703 l 17.9999,5.8e-5 V 4.4451705 H 76.944907 V 94.445307 l -38.999879,-4.5e-5 C 26.450045,94.445217 15.636068,86.708337 10.474233,76.195217 Z M 29.945057,64.195225 c -6.3e-5,5.375127 2.72882,11.999992 7.999971,11.999955 l 17.9999,-3.7e-5 V 45.195237 l -16.999971,-1.1e-5 c -5.511445,-8e-6 -8.999963,6.398969 -8.9999,11.999957 z"
     sodipodi:nodetypes="ccccccccccccsccssccsscccsssccsccscccccccccccccccsccccccccccsscccccsscccscccccccccccccccccccccsssccccccccccscccccsccccccccccsssccccccsccccccc" /></svg>
