<?xml version="1.0" encoding="UTF-8" standalone="no"?>
<!-- Created with Inkscape (http://www.inkscape.org/) -->

<svg
   width="192.66576mm"
   height="21.775415mm"
   viewBox="0 0 192.66576 21.775415"
   version="1.1"
   id="svg1"
   inkscape:version="1.4 (86a8ad7, 2024-10-11)"
   xml:space="preserve"
   sodipodi:docname="microvsn-w.svg"
   xmlns:inkscape="http://www.inkscape.org/namespaces/inkscape"
   xmlns:sodipodi="http://sodipodi.sourceforge.net/DTD/sodipodi-0.dtd"
   xmlns="http://www.w3.org/2000/svg"
   xmlns:svg="http://www.w3.org/2000/svg"><sodipodi:namedview
     id="namedview1"
     pagecolor="#ffffff"
     bordercolor="#000000"
     borderopacity="0.25"
     inkscape:showpageshadow="2"
     inkscape:pageopacity="0.0"
     inkscape:pagecheckerboard="true"
     inkscape:deskcolor="#d1d1d1"
     inkscape:document-units="mm"
     inkscape:zoom="2.3294743"
     inkscape:cx="365.31848"
     inkscape:cy="39.064608"
     inkscape:window-width="2512"
     inkscape:window-height="1003"
     inkscape:window-x="0"
     inkscape:window-y="0"
     inkscape:window-maximized="0"
     inkscape:current-layer="svg1" /><defs
     id="defs1" /><text
     xml:space="preserve"
     style="font-size:40.8024px;line-height:0;font-family:NiseSegaSonic;-inkscape-font-specification:NiseSegaSonic;text-align:start;letter-spacing:-2.39548px;word-spacing:0px;writing-mode:lr-tb;direction:ltr;text-anchor:start;display:none;opacity:1;fill:#dabd41;fill-opacity:1;stroke-width:1.15659;stroke-linecap:square;stroke-miterlimit:8;paint-order:stroke fill markers"
     x="-2.1091313"
     y="20.729433"
     id="text1"
     transform="scale(0.99141425,1.0086601)"
     inkscape:label="microvision"><tspan
       sodipodi:role="line"
       id="tspan1"
       style="font-style:normal;font-variant:normal;font-weight:normal;font-stretch:normal;font-family:'Handel Gothic';-inkscape-font-specification:'Handel Gothic';letter-spacing:-2.39548px;fill:#dabd41;fill-opacity:1;stroke-width:1.1566"
       x="0.00052123517"
       y="-0.00051137147">microvision</tspan></text><g
     id="g48"
     inkscape:label="microvisionOutline"
     style="display:inline;fill:#ffffff;fill-opacity:1;stroke:none;stroke-opacity:1"
     transform="translate(0.27134199,-6.1639232)"><path
       id="path69"
       style="-inkscape-font-specification:'Handel Gothic';fill:#ffffff;stroke:none;stroke-linecap:square;stroke-miterlimit:8;paint-order:stroke fill markers"
       d="M -0.27134199,6.4512451 V 27.650468 H 6.3065511 V 11.888639 h 4.6679319 v 15.761829 h 6.57841 V 11.888639 h 2.292883 c 1.184173,0 1.83265,0.269235 2.093929,0.601514 l 0.0093,0.01395 0.01189,0.01137 c 0.27554,0.313313 0.543119,1.213857 0.543119,2.664437 v 12.470557 h 6.576343 V 14.314331 c 0,-2.351652 -0.461897,-4.145231 -1.519804,-5.3200886 l -0.0021,-0.00207 C 26.595958,7.898248 25.597682,7.1753509 24.533346,6.8868775 23.513949,6.5831547 22.096088,6.4512451 20.211129,6.4512451 Z"
       inkscape:label="m" /><path
       id="path67"
       style="-inkscape-font-specification:'Handel Gothic';fill:#ffffff;stroke:none;stroke-linecap:square;stroke-miterlimit:8;paint-order:stroke fill markers"
       d="M 30.509725,6.4512451 V 27.650468 h 6.57841 V 6.4512451 Z"
       inkscape:label="i" /><path
       id="path65"
       style="-inkscape-font-specification:'Handel Gothic';fill:#ffffff;stroke:none;stroke-linecap:square;stroke-miterlimit:8;paint-order:stroke fill markers"
       d="m 48.300887,6.4512451 c -1.892056,0 -3.416574,0.1508746 -4.601786,0.4743897 h -0.0021 -0.0021 c -1.211964,0.3390881 -2.518128,1.1576646 -3.984253,2.4241414 -1.632941,1.4105778 -2.343527,3.9517028 -2.343527,7.5153038 0,3.127432 0.66044,5.542683 2.084111,7.172172 l 0.0036,0.0036 0.0041,0.0041 c 1.359793,1.49638 2.658057,2.494638 3.954798,2.954859 1.256956,0.4461 2.878136,0.650606 4.88704,0.650606 h 7.980391 v -5.435844 h -6.443534 c -2.128606,0 -3.594053,-0.444423 -4.464844,-1.210779 -0.840819,-0.790569 -1.308447,-2.083222 -1.308447,-4.013708 0,-1.917285 0.430306,-3.186246 1.163753,-3.909839 0.765588,-0.755997 2.066013,-1.191659 4.00234,-1.191659 h 7.050732 V 6.4512451 Z"
       inkscape:label="c" /><path
       id="path63"
       style="-inkscape-font-specification:'Handel Gothic';fill:#ffffff;stroke:none;stroke-linecap:square;stroke-miterlimit:8;paint-order:stroke fill markers"
       d="m 66.524581,6.4424601 c -0.610723,-0.00125 -1.284169,0.00879 -2.034501,0.00879 H 57.162362 V 27.650468 h 6.575826 V 11.425619 c 1.028848,0.05147 1.799038,0.241739 2.068607,0.531233 0.306183,0.328816 0.574125,1.166344 0.574125,2.527495 v 1.119311 h 6.074048 v -2.124935 c 0,-2.871087 -0.506975,-4.9158659 -1.765267,-6.0647459 C 70.035777,6.8169151 69.183667,6.5874814 68.183394,6.499821 67.683257,6.455991 67.135303,6.44371 66.524581,6.4424601 Z"
       inkscape:label="r" /><path
       id="path61"
       style="-inkscape-font-specification:'Handel Gothic';fill:#ffffff;stroke:none;stroke-linecap:square;stroke-miterlimit:8;paint-order:stroke fill markers"
       d="m 82.734444,6.1639242 c -3.295274,0 -6.008634,0.9852991 -8.011914,2.9651936 -1.978459,1.9545322 -2.96261,4.6333582 -2.96261,7.9023602 0,3.345184 0.951028,6.05985 2.876827,8.019149 l 0.0021,0.0021 0.0036,0.0041 c 1.952801,1.928334 4.63778,2.882511 7.929748,2.882511 3.39624,0 6.159108,-0.949803 8.167977,-2.876827 2.006698,-1.925022 3.009635,-4.56732 3.009635,-7.785054 0,-3.45294 -0.961911,-6.225042 -2.919718,-8.1876142 -1.955948,-1.9607076 -4.697821,-2.9259196 -8.09563,-2.9259196 z m -0.0801,5.3945028 c 1.540541,0 2.573278,0.441618 3.283003,1.310514 0.709725,0.868895 1.113628,2.251734 1.113628,4.203361 0,1.939948 -0.393161,3.316098 -1.078488,4.177523 -0.685326,0.861425 -1.674502,1.292944 -3.157946,1.292944 -1.526874,0 -2.548835,-0.436541 -3.251998,-1.298628 -0.703163,-0.862088 -1.103809,-2.233829 -1.103809,-4.171839 0,-1.954818 0.39063,-3.345318 1.070736,-4.213179 0.680105,-0.867861 1.656752,-1.300696 3.124874,-1.300696 z"
       inkscape:label="o" /><path
       id="path59"
       style="-inkscape-font-specification:'Handel Gothic';fill:#ffffff;stroke:none;stroke-linecap:square;stroke-miterlimit:8;paint-order:stroke fill markers"
       d="m 91.283276,6.4512451 8.300786,21.1992229 h 6.601668 l 8.98601,-21.1992229 h -7.00939 L 103.07791,19.19517 98.441496,6.4512451 Z"
       inkscape:label="v" /><path
       id="path57"
       style="-inkscape-font-specification:'Handel Gothic';fill:#ffffff;stroke:none;stroke-linecap:square;stroke-miterlimit:8;paint-order:stroke fill markers"
       d="M 114.79089,6.4512451 V 27.650468 h 6.57841 V 6.4512451 Z"
       inkscape:label="i" /><path
       id="path55"
       style="-inkscape-font-specification:'Handel Gothic';fill:#ffffff;stroke:none;stroke-linecap:square;stroke-miterlimit:8;paint-order:stroke fill markers"
       d="m 129.33418,6.4512451 c -1.20116,0 -1.91685,0.048923 -2.8515,0.214974 -1.06273,0.1888055 -2.13509,0.6889975 -2.86753,1.55236 -1.07642,1.2688457 -1.56635,2.9103249 -1.5937,4.6467449 -0.017,1.076341 0.22914,2.153988 0.65629,3.122807 0.38099,0.86409 0.92783,1.714693 1.69706,2.351794 0.70203,0.581447 1.54878,0.891073 2.34404,1.101225 1.05668,0.279232 1.89103,0.266134 3.18172,0.266134 h 3.71657 c 1.25352,0 2.06875,0.187972 2.27944,0.321944 l 0.0176,0.01188 0.0176,0.0098 c 0.23782,0.128093 0.38499,0.35997 0.38499,1.013375 0,0.390853 -0.0867,0.62183 -0.20515,0.767911 -0.11702,0.144285 -0.2967,0.249025 -0.63304,0.302824 l -2.47633,0.07958 h -9.89656 v 5.435844 h 11.48251 c 2.18634,0 3.51834,0.153064 5.12475,-0.634587 1.06348,-0.521442 1.85426,-1.455308 2.39468,-2.41794 0.63939,-1.138899 1.06612,-2.500473 0.96274,-3.865397 -0.12304,-1.62464 -0.64892,-3.460503 -1.97456,-4.629175 -1.53353,-1.351949 -3.49458,-1.626775 -5.69939,-1.626774 h -3.59358 c -1.35837,0 -2.25527,-0.177463 -2.53732,-0.33383 -0.25161,-0.152432 -0.40411,-0.412594 -0.40411,-1.062467 0,-0.611326 0.1374,-0.818068 0.27957,-0.90072 l 0.004,-0.0021 0.006,-0.0036 c 0.18491,-0.112876 0.95048,-0.285254 2.12494,-0.285254 h 10.30686 V 6.4512451 Z"
       inkscape:label="s" /><path
       id="path53"
       style="-inkscape-font-specification:'Handel Gothic';fill:#ffffff;stroke:none;stroke-linecap:square;stroke-miterlimit:8;paint-order:stroke fill markers"
       d="M 143.54882,6.4512451 V 27.650468 h 6.57789 V 6.4512451 Z"
       inkscape:label="i" /><path
       id="path51"
       style="-inkscape-font-specification:'Handel Gothic';fill:#ffffff;stroke:none;stroke-linecap:square;stroke-miterlimit:8;paint-order:stroke fill markers"
       d="m 161.58028,6.1639242 c -3.29527,0 -6.0086,0.9852632 -8.01192,2.9651936 -1.97849,1.9545692 -2.96312,4.6334212 -2.96312,7.9023602 0,3.345184 0.94947,6.05985 2.87527,8.019149 l 0.004,0.0021 0.002,0.0041 c 1.9528,1.928334 4.63933,2.882511 7.9313,2.882511 3.39624,0 6.15704,-0.949804 8.16591,-2.876827 2.00674,-1.924982 3.01016,-4.567319 3.01016,-7.785054 0,-3.45294 -0.96243,-6.225042 -2.92024,-8.1876142 -1.95595,-1.9607076 -4.69575,-2.9259196 -8.09356,-2.9259196 z m -0.0822,5.3945028 c 1.54054,0 2.57316,0.441602 3.28301,1.310514 0.70985,0.868912 1.11517,2.251758 1.11517,4.203361 0,1.939947 -0.39264,3.316098 -1.07797,4.177523 -0.68533,0.861425 -1.6745,1.292944 -3.15794,1.292944 -1.52688,0 -2.55078,-0.436525 -3.25407,-1.298628 -0.70329,-0.862103 -1.10381,-2.233853 -1.10381,-4.171839 0,-1.954818 0.39063,-3.345318 1.07074,-4.213179 0.6801,-0.867861 1.65675,-1.300696 3.12487,-1.300696 z"
       inkscape:label="o" /><path
       id="path49"
       style="-inkscape-font-specification:'Handel Gothic';fill:#ffffff;stroke:none;stroke-linecap:square;stroke-miterlimit:8;paint-order:stroke fill markers"
       d="M 172.91189,6.4512451 V 27.650468 h 6.57841 V 11.888639 h 4.11344 c 0.91306,0 1.45698,0.206284 1.73219,0.486276 0.27947,0.284332 0.48059,0.830632 0.48059,1.734261 v 13.541292 h 6.5779 V 14.726709 c 0,-2.855604 -0.61992,-5.0041749 -1.99575,-6.3417318 -1.37479,-1.3365395 -3.55899,-1.9337321 -6.47092,-1.9337321 z"
       inkscape:label="n" /></g><g
     id="g37"
     inkscape:label="microvisionShadow"
     style="display:none;fill:#000000;fill-opacity:1"
     transform="translate(0.700342,-5.7349232)"><path
       d="M 0.30747477,7.0300618 V 27.072766 H 5.7278158 V 11.310421 H 11.5533 v 15.762345 h 5.420341 V 11.310421 h 2.872176 c 1.267498,0 2.117192,0.273945 2.548682,0.822689 0.458456,0.521306 0.687296,1.536764 0.687296,3.045808 v 11.893848 h 5.420858 V 14.314372 c 0,-2.277285 -0.458712,-3.923542 -1.375627,-4.9387169 C 26.210113,8.3330427 25.293204,7.6883408 24.37629,7.4414062 23.459376,7.1670347 22.070932,7.0300618 20.210136,7.0300618 Z"
       style="font-size:40.8024px;line-height:0;font-family:'Handel Gothic';-inkscape-font-specification:'Handel Gothic';letter-spacing:-1.32292px;word-spacing:0px;fill:#000000;fill-opacity:1;stroke-width:1.1566;stroke-linecap:square;stroke-miterlimit:8;paint-order:stroke fill markers"
       id="path27"
       inkscape:label="m" /><path
       d="M 31.089,7.0300618 V 27.072766 h 5.420341 V 7.0300618 Z"
       style="font-size:40.8024px;line-height:0;font-family:'Handel Gothic';-inkscape-font-specification:'Handel Gothic';letter-spacing:-1.32292px;word-spacing:0px;fill:#000000;fill-opacity:1;stroke-width:1.1566;stroke-linecap:square;stroke-miterlimit:8;paint-order:stroke fill markers"
       id="path28"
       inkscape:label="i" /><path
       d="m 48.300957,7.0300618 c -1.860797,0 -3.344168,0.1508768 -4.449858,0.4526856 C 42.772377,7.7845563 41.518362,8.5528437 40.089055,9.7875163 38.659748,11.022189 37.945,13.381634 37.945,16.866154 c 0,3.045526 0.647016,5.309193 1.941483,6.7908 1.321435,1.45417 2.56211,2.387238 3.721737,2.798796 1.159626,0.411557 2.724069,0.617016 4.692737,0.617016 h 7.402649 v -4.279842 h -5.865792 c -2.21138,0 -3.829181,-0.453147 -4.853967,-1.358573 -0.997818,-0.932865 -1.497067,-2.414339 -1.497067,-4.44469 0,-2.002914 0.444857,-3.443194 1.334803,-4.321184 0.916913,-0.905426 2.386945,-1.358056 4.409549,-1.358056 h 6.472474 V 7.0300618 Z"
       style="font-size:40.8024px;line-height:0;font-family:'Handel Gothic';-inkscape-font-specification:'Handel Gothic';letter-spacing:-1.32292px;word-spacing:0px;fill:#000000;fill-opacity:1;stroke-width:1.1566;stroke-linecap:square;stroke-miterlimit:8;paint-order:stroke fill markers"
       id="path29"
       inkscape:label="c" /><path
       d="M 57.74,7.0300618 V 27.072766 h 5.420341 V 10.781254 h 0.319088 c 1.348402,0 2.265311,0.260557 2.750736,0.781864 0.485425,0.521307 0.728121,1.495053 0.728121,2.921786 v 0.541052 H 71.877 v -1.546748 c 0,-2.798591 -0.526246,-4.6781149 -1.578,-5.6384158 C 69.247244,6.8804913 67.511157,7.0300618 64.490736,7.0300618 Z"
       style="font-size:40.8024px;line-height:0;font-family:'Handel Gothic';-inkscape-font-specification:'Handel Gothic';letter-spacing:-1.32292px;word-spacing:0px;fill:#000000;fill-opacity:1;stroke-width:1.1566;stroke-linecap:square;stroke-miterlimit:8;paint-order:stroke fill markers"
       id="path30"
       sodipodi:nodetypes="ccccsssccsssc"
       inkscape:label="r" /><path
       d="m 82.734265,6.7417074 c -3.182231,0 -5.71694,0.9330682 -7.604704,2.7987955 C 73.268766,11.378793 72.338,13.875727 72.338,17.031002 c 0,3.237586 0.90357,5.775198 2.710429,7.613489 1.833828,1.810852 4.341858,2.71663 7.524089,2.71663 3.290102,0 5.879204,-0.905778 7.766967,-2.71663 1.887764,-1.810854 2.831352,-4.266076 2.831352,-7.366476 0,-3.347334 -0.916909,-5.940563 -2.750736,-7.7788532 C 88.586273,7.6608716 86.024367,6.7417074 82.734265,6.7417074 Z m -0.08061,4.2390176 c 3.31707,0 4.975407,2.0304 4.975407,6.091101 0,4.033264 -1.604461,6.050277 -4.81366,6.050277 -3.290102,0 -4.935099,-2.017013 -4.935099,-6.050277 0,-4.060701 1.591121,-6.091101 4.773352,-6.091101 z"
       style="font-size:40.8024px;line-height:0;font-family:'Handel Gothic';-inkscape-font-specification:'Handel Gothic';letter-spacing:-1.32292px;word-spacing:0px;fill:#000000;fill-opacity:1;stroke-width:1.1566;stroke-linecap:square;stroke-miterlimit:8;paint-order:stroke fill markers"
       id="path31"
       inkscape:label="o" /><path
       d="m 92.13029,7.0300618 7.847553,20.0427042 h 5.824957 l 8.49509,-20.0427042 h -5.74435 L 103.05207,20.817334 98.036362,7.0300618 Z"
       style="font-size:40.8024px;line-height:0;font-family:'Handel Gothic';-inkscape-font-specification:'Handel Gothic';letter-spacing:-1.32292px;word-spacing:0px;fill:#000000;fill-opacity:1;stroke-width:1.1566;stroke-linecap:square;stroke-miterlimit:8;paint-order:stroke fill markers"
       id="path32"
       inkscape:label="v" /><path
       d="M 115.36966,7.0300618 V 27.072766 h 5.42086 V 7.0300618 Z"
       style="font-size:40.8024px;line-height:0;font-family:'Handel Gothic';-inkscape-font-specification:'Handel Gothic';letter-spacing:-1.32292px;word-spacing:0px;fill:#000000;fill-opacity:1;stroke-width:1.1566;stroke-linecap:square;stroke-miterlimit:8;paint-order:stroke fill markers"
       id="path33"
       inkscape:label="i" /><path
       d="m 129.33435,7.0300618 c -1.1866,0 -1.84544,0.044836 -2.75074,0.2056722 -0.95107,0.1689678 -1.90763,0.6275086 -2.52739,1.3580567 -0.9735,1.1475267 -1.43051,2.6461473 -1.45625,4.2803593 -0.0155,0.981259 0.21077,1.982988 0.60669,2.880961 0.35434,0.803656 0.86094,1.579682 1.53737,2.139921 0.60109,0.497843 1.36819,0.78865 2.12277,0.988053 0.98097,0.259226 1.73944,0.246497 3.03392,0.246497 h 3.71677 c 1.29447,0 2.15749,0.137489 2.58899,0.411861 0.45846,0.246935 0.68729,0.754663 0.68729,1.522904 0,0.960301 -0.44485,1.508709 -1.3348,1.645895 l -2.54816,0.08268 H 123.683 v 4.279842 h 10.90497 c 2.21138,0 3.40303,0.143613 4.87107,-0.576192 0.91541,-0.44884 1.64496,-1.292254 2.14405,-2.181262 0.59552,-1.06076 0.98174,-2.326302 0.88987,-3.539319 -0.11573,-1.528113 -0.63018,-3.225582 -1.77973,-4.239018 -1.37987,-1.216483 -3.15856,-1.481563 -5.316,-1.481563 h -3.59535 c -1.40233,0 -2.34644,-0.136973 -2.83186,-0.411345 -0.45846,-0.274371 -0.6873,-0.796004 -0.6873,-1.564245 0,-0.713367 0.18881,-1.1799 0.56637,-1.399398 0.40452,-0.246935 1.21317,-0.370003 2.42673,-0.370003 H 141.004 V 7.0300618 Z"
       style="font-size:40.8024px;line-height:0;font-family:'Handel Gothic';-inkscape-font-specification:'Handel Gothic';letter-spacing:-1.32292px;word-spacing:0px;fill:#000000;fill-opacity:1;stroke-width:1.1566;stroke-linecap:square;stroke-miterlimit:8;paint-order:stroke fill markers"
       id="path34"
       sodipodi:nodetypes="ssssaaasscsccccsaaaasscscsccs"
       inkscape:label="s" /><path
       d="M 144.12758,7.0300618 V 27.072766 h 5.42034 V 7.0300618 Z"
       style="font-size:40.8024px;line-height:0;font-family:'Handel Gothic';-inkscape-font-specification:'Handel Gothic';letter-spacing:-1.32292px;word-spacing:0px;fill:#000000;fill-opacity:1;stroke-width:1.1566;stroke-linecap:square;stroke-miterlimit:8;paint-order:stroke fill markers"
       id="path35"
       inkscape:label="i" /><path
       d="m 161.57926,6.7417074 c -3.18223,0 -5.71745,0.9330682 -7.60522,2.7987955 -1.86079,1.8382901 -2.79104,4.3352241 -2.79104,7.4904991 0,3.237586 0.90357,5.775198 2.71043,7.613489 1.83383,1.810852 4.34186,2.71663 7.52409,2.71663 3.2901,0 5.8792,-0.905778 7.76697,-2.71663 1.88776,-1.810854 2.83135,-4.266076 2.83135,-7.366476 0,-3.347334 -0.91691,-5.940563 -2.75074,-7.7788532 -1.83383,-1.8382902 -4.39574,-2.7574544 -7.68584,-2.7574544 z m -0.0811,4.2390176 c 3.31707,0 4.97593,2.0304 4.97593,6.091101 0,4.033264 -1.60447,6.050277 -4.81366,6.050277 -3.29011,0 -4.93562,-2.017013 -4.93562,-6.050277 0,-4.060701 1.59112,-6.091101 4.77335,-6.091101 z"
       style="font-size:40.8024px;line-height:0;font-family:'Handel Gothic';-inkscape-font-specification:'Handel Gothic';letter-spacing:-1.32292px;word-spacing:0px;fill:#000000;fill-opacity:1;stroke-width:1.1566;stroke-linecap:square;stroke-miterlimit:8;paint-order:stroke fill markers"
       id="path36"
       inkscape:label="o" /><path
       d="M 173.491,7.0300618 V 27.072766 h 5.42086 V 11.310421 h 4.69222 c 0.99782,0 1.71256,0.219362 2.14405,0.658357 0.4315,0.438995 0.64699,1.152183 0.64699,2.139922 v 12.964066 h 5.42086 V 14.726233 c 0,-2.771155 -0.607,-4.7469721 -1.82056,-5.9267701 -1.21356,-1.1797982 -3.2362,-1.7694011 -6.06785,-1.7694011 z"
       style="font-size:40.8024px;line-height:0;font-family:'Handel Gothic';-inkscape-font-specification:'Handel Gothic';letter-spacing:-1.32292px;word-spacing:0px;fill:#000000;fill-opacity:1;stroke-width:1.1566;stroke-linecap:square;stroke-miterlimit:8;paint-order:stroke fill markers"
       id="path37"
       inkscape:label="n" /></g><g
     id="g27"
     inkscape:label="microvision"
     style="fill:#dabd41;fill-opacity:1"
     transform="translate(0.271342,-6.1639232)"><path
       d="M 0.30747477,7.0300618 V 27.072766 H 5.7278158 V 11.310421 H 11.5533 v 15.762345 h 5.420341 V 11.310421 h 2.872176 c 1.267498,0 2.117192,0.273945 2.548682,0.822689 0.458456,0.521306 0.687296,1.536764 0.687296,3.045808 v 11.893848 h 5.420858 V 14.314372 c 0,-2.277285 -0.458712,-3.923542 -1.375627,-4.9387169 C 26.210113,8.3330427 25.293204,7.6883408 24.37629,7.4414062 23.459376,7.1670347 22.070932,7.0300618 20.210136,7.0300618 Z"
       style="font-size:40.8024px;line-height:0;font-family:'Handel Gothic';-inkscape-font-specification:'Handel Gothic';letter-spacing:-1.32292px;word-spacing:0px;fill:#dabd41;fill-opacity:1;stroke-width:1.1566;stroke-linecap:square;stroke-miterlimit:8;paint-order:stroke fill markers"
       id="path17"
       inkscape:label="m" /><path
       d="M 31.089,7.0300618 V 27.072766 h 5.420341 V 7.0300618 Z"
       style="font-size:40.8024px;line-height:0;font-family:'Handel Gothic';-inkscape-font-specification:'Handel Gothic';letter-spacing:-1.32292px;word-spacing:0px;fill:#dabd41;fill-opacity:1;stroke-width:1.1566;stroke-linecap:square;stroke-miterlimit:8;paint-order:stroke fill markers"
       id="path18"
       inkscape:label="i" /><path
       d="m 48.300957,7.0300618 c -1.860797,0 -3.344168,0.1508768 -4.449858,0.4526856 C 42.772377,7.7845563 41.518362,8.5528437 40.089055,9.7875163 38.659748,11.022189 37.945,13.381634 37.945,16.866154 c 0,3.045526 0.647016,5.309193 1.941483,6.7908 1.321435,1.45417 2.56211,2.387238 3.721737,2.798796 1.159626,0.411557 2.724069,0.617016 4.692737,0.617016 h 7.402649 v -4.279842 h -5.865792 c -2.21138,0 -3.829181,-0.453147 -4.853967,-1.358573 -0.997818,-0.932865 -1.497067,-2.414339 -1.497067,-4.44469 0,-2.002914 0.444857,-3.443194 1.334803,-4.321184 0.916913,-0.905426 2.386945,-1.358056 4.409549,-1.358056 h 6.472474 V 7.0300618 Z"
       style="font-size:40.8024px;line-height:0;font-family:'Handel Gothic';-inkscape-font-specification:'Handel Gothic';letter-spacing:-1.32292px;word-spacing:0px;fill:#dabd41;fill-opacity:1;stroke-width:1.1566;stroke-linecap:square;stroke-miterlimit:8;paint-order:stroke fill markers"
       id="path19"
       inkscape:label="c" /><path
       d="M 57.74,7.0300618 V 27.072766 h 5.420341 V 10.781254 h 0.319088 c 1.348402,0 2.265311,0.260557 2.750736,0.781864 0.485425,0.521307 0.728121,1.495053 0.728121,2.921786 v 0.541052 H 71.877 v -1.546748 c 0,-2.798591 -0.526246,-4.6781149 -1.578,-5.6384158 C 69.247244,6.8804913 67.511157,7.0300618 64.490736,7.0300618 Z"
       style="font-size:40.8024px;line-height:0;font-family:'Handel Gothic';-inkscape-font-specification:'Handel Gothic';letter-spacing:-1.32292px;word-spacing:0px;fill:#dabd41;fill-opacity:1;stroke-width:1.1566;stroke-linecap:square;stroke-miterlimit:8;paint-order:stroke fill markers"
       id="path20"
       sodipodi:nodetypes="ccccsssccsssc"
       inkscape:label="r" /><path
       d="m 82.734265,6.7417074 c -3.182231,0 -5.71694,0.9330682 -7.604704,2.7987955 C 73.268766,11.378793 72.338,13.875727 72.338,17.031002 c 0,3.237586 0.90357,5.775198 2.710429,7.613489 1.833828,1.810852 4.341858,2.71663 7.524089,2.71663 3.290102,0 5.879204,-0.905778 7.766967,-2.71663 1.887764,-1.810854 2.831352,-4.266076 2.831352,-7.366476 0,-3.347334 -0.916909,-5.940563 -2.750736,-7.7788532 C 88.586273,7.6608716 86.024367,6.7417074 82.734265,6.7417074 Z m -0.08061,4.2390176 c 3.31707,0 4.975407,2.0304 4.975407,6.091101 0,4.033264 -1.604461,6.050277 -4.81366,6.050277 -3.290102,0 -4.935099,-2.017013 -4.935099,-6.050277 0,-4.060701 1.591121,-6.091101 4.773352,-6.091101 z"
       style="font-size:40.8024px;line-height:0;font-family:'Handel Gothic';-inkscape-font-specification:'Handel Gothic';letter-spacing:-1.32292px;word-spacing:0px;fill:#dabd41;fill-opacity:1;stroke-width:1.1566;stroke-linecap:square;stroke-miterlimit:8;paint-order:stroke fill markers"
       id="path15"
       inkscape:label="o" /><path
       d="m 92.13029,7.0300618 7.847553,20.0427042 h 5.824957 l 8.49509,-20.0427042 h -5.74435 L 103.05207,20.817334 98.036362,7.0300618 Z"
       style="font-size:40.8024px;line-height:0;font-family:'Handel Gothic';-inkscape-font-specification:'Handel Gothic';letter-spacing:-1.32292px;word-spacing:0px;fill:#dabd41;fill-opacity:1;stroke-width:1.1566;stroke-linecap:square;stroke-miterlimit:8;paint-order:stroke fill markers"
       id="path21"
       inkscape:label="v" /><path
       d="M 115.36966,7.0300618 V 27.072766 h 5.42086 V 7.0300618 Z"
       style="font-size:40.8024px;line-height:0;font-family:'Handel Gothic';-inkscape-font-specification:'Handel Gothic';letter-spacing:-1.32292px;word-spacing:0px;fill:#dabd41;fill-opacity:1;stroke-width:1.1566;stroke-linecap:square;stroke-miterlimit:8;paint-order:stroke fill markers"
       id="path22"
       inkscape:label="i" /><path
       d="m 129.33435,7.0300618 c -1.1866,0 -1.84544,0.044836 -2.75074,0.2056722 -0.95107,0.1689678 -1.90763,0.6275086 -2.52739,1.3580567 -0.9735,1.1475267 -1.43051,2.6461473 -1.45625,4.2803593 -0.0155,0.981259 0.21077,1.982988 0.60669,2.880961 0.35434,0.803656 0.86094,1.579682 1.53737,2.139921 0.60109,0.497843 1.36819,0.78865 2.12277,0.988053 0.98097,0.259226 1.73944,0.246497 3.03392,0.246497 h 3.71677 c 1.29447,0 2.15749,0.137489 2.58899,0.411861 0.45846,0.246935 0.68729,0.754663 0.68729,1.522904 0,0.960301 -0.44485,1.508709 -1.3348,1.645895 l -2.54816,0.08268 H 123.683 v 4.279842 h 10.90497 c 2.21138,0 3.40303,0.143613 4.87107,-0.576192 0.91541,-0.44884 1.64496,-1.292254 2.14405,-2.181262 0.59552,-1.06076 0.98174,-2.326302 0.88987,-3.539319 -0.11573,-1.528113 -0.63018,-3.225582 -1.77973,-4.239018 -1.37987,-1.216483 -3.15856,-1.481563 -5.316,-1.481563 h -3.59535 c -1.40233,0 -2.34644,-0.136973 -2.83186,-0.411345 -0.45846,-0.274371 -0.6873,-0.796004 -0.6873,-1.564245 0,-0.713367 0.18881,-1.1799 0.56637,-1.399398 0.40452,-0.246935 1.21317,-0.370003 2.42673,-0.370003 H 141.004 V 7.0300618 Z"
       style="font-size:40.8024px;line-height:0;font-family:'Handel Gothic';-inkscape-font-specification:'Handel Gothic';letter-spacing:-1.32292px;word-spacing:0px;fill:#dabd41;fill-opacity:1;stroke-width:1.1566;stroke-linecap:square;stroke-miterlimit:8;paint-order:stroke fill markers"
       id="path23"
       sodipodi:nodetypes="ssssaaasscsccccsaaaasscscsccs"
       inkscape:label="s" /><path
       d="M 144.12758,7.0300618 V 27.072766 h 5.42034 V 7.0300618 Z"
       style="font-size:40.8024px;line-height:0;font-family:'Handel Gothic';-inkscape-font-specification:'Handel Gothic';letter-spacing:-1.32292px;word-spacing:0px;fill:#dabd41;fill-opacity:1;stroke-width:1.1566;stroke-linecap:square;stroke-miterlimit:8;paint-order:stroke fill markers"
       id="path24"
       inkscape:label="i" /><path
       d="m 161.57926,6.7417074 c -3.18223,0 -5.71745,0.9330682 -7.60522,2.7987955 -1.86079,1.8382901 -2.79104,4.3352241 -2.79104,7.4904991 0,3.237586 0.90357,5.775198 2.71043,7.613489 1.83383,1.810852 4.34186,2.71663 7.52409,2.71663 3.2901,0 5.8792,-0.905778 7.76697,-2.71663 1.88776,-1.810854 2.83135,-4.266076 2.83135,-7.366476 0,-3.347334 -0.91691,-5.940563 -2.75074,-7.7788532 -1.83383,-1.8382902 -4.39574,-2.7574544 -7.68584,-2.7574544 z m -0.0811,4.2390176 c 3.31707,0 4.97593,2.0304 4.97593,6.091101 0,4.033264 -1.60447,6.050277 -4.81366,6.050277 -3.29011,0 -4.93562,-2.017013 -4.93562,-6.050277 0,-4.060701 1.59112,-6.091101 4.77335,-6.091101 z"
       style="font-size:40.8024px;line-height:0;font-family:'Handel Gothic';-inkscape-font-specification:'Handel Gothic';letter-spacing:-1.32292px;word-spacing:0px;fill:#dabd41;fill-opacity:1;stroke-width:1.1566;stroke-linecap:square;stroke-miterlimit:8;paint-order:stroke fill markers"
       id="path16"
       inkscape:label="o" /><path
       d="M 173.491,7.0300618 V 27.072766 h 5.42086 V 11.310421 h 4.69222 c 0.99782,0 1.71256,0.219362 2.14405,0.658357 0.4315,0.438995 0.64699,1.152183 0.64699,2.139922 v 12.964066 h 5.42086 V 14.726233 c 0,-2.771155 -0.607,-4.7469721 -1.82056,-5.9267701 -1.21356,-1.1797982 -3.2362,-1.7694011 -6.06785,-1.7694011 z"
       style="font-size:40.8024px;line-height:0;font-family:'Handel Gothic';-inkscape-font-specification:'Handel Gothic';letter-spacing:-1.32292px;word-spacing:0px;fill:#dabd41;fill-opacity:1;stroke-width:1.1566;stroke-linecap:square;stroke-miterlimit:8;paint-order:stroke fill markers"
       id="path25"
       inkscape:label="n" /></g></svg>
