<?xml version="1.0" encoding="UTF-8" standalone="no"?>
<!-- Created with Inkscape (http://www.inkscape.org/) -->

<svg
   width="4913.1724"
   height="1095.9801"
   id="svg2"
   version="1.1"
   inkscape:version="1.4 (86a8ad7, 2024-10-11)"
   sodipodi:docname="palm_v2.svg"
   xml:space="preserve"
   xmlns:inkscape="http://www.inkscape.org/namespaces/inkscape"
   xmlns:sodipodi="http://sodipodi.sourceforge.net/DTD/sodipodi-0.dtd"
   xmlns:xlink="http://www.w3.org/1999/xlink"
   xmlns="http://www.w3.org/2000/svg"
   xmlns:svg="http://www.w3.org/2000/svg"
   xmlns:rdf="http://www.w3.org/1999/02/22-rdf-syntax-ns#"
   xmlns:cc="http://creativecommons.org/ns#"
   xmlns:dc="http://purl.org/dc/elements/1.1/"><defs
     id="defs4"><linearGradient
       inkscape:collect="always"
       id="linearGradient4693"><stop
         style="stop-color:#9ea3aa;stop-opacity:1"
         offset="0"
         id="stop4695" /><stop
         style="stop-color:#ffffff;stop-opacity:1"
         offset="1"
         id="stop4697" /></linearGradient><linearGradient
       inkscape:collect="always"
       id="linearGradient4683"><stop
         style="stop-color:#ffffff;stop-opacity:1"
         offset="0"
         id="stop4685" /><stop
         style="stop-color:#b3b3b3;stop-opacity:1"
         offset="1"
         id="stop4687" /></linearGradient><linearGradient
       inkscape:collect="always"
       id="linearGradient4630"><stop
         style="stop-color:#ffffff;stop-opacity:1"
         offset="0"
         id="stop4632" /><stop
         id="stop4638"
         offset="0.4930732"
         style="stop-color:#a0a5ac;stop-opacity:1" /><stop
         style="stop-color:#a6abb1;stop-opacity:0"
         offset="1"
         id="stop4634" /></linearGradient><linearGradient
       inkscape:collect="always"
       id="linearGradient4588"><stop
         style="stop-color:#ffffff;stop-opacity:1"
         offset="0"
         id="stop4590" /><stop
         id="stop4640"
         offset="0.65663481"
         style="stop-color:#ffffff;stop-opacity:1" /><stop
         style="stop-color:#9da2a9;stop-opacity:1"
         offset="1"
         id="stop4592" /></linearGradient><linearGradient
       inkscape:collect="always"
       id="linearGradient3493"><stop
         style="stop-color:#ffffff;stop-opacity:1"
         offset="0"
         id="stop3495" /><stop
         id="stop3501"
         offset="0.68401092"
         style="stop-color:#000000;stop-opacity:1" /><stop
         style="stop-color:#000000;stop-opacity:0"
         offset="1"
         id="stop3497" /></linearGradient><linearGradient
       inkscape:collect="always"
       id="linearGradient3392"><stop
         style="stop-color:#ffffff;stop-opacity:1"
         offset="0"
         id="stop3394" /><stop
         id="stop3400"
         offset="0.63942766"
         style="stop-color:#000000;stop-opacity:1" /><stop
         style="stop-color:#000000;stop-opacity:0;"
         offset="1"
         id="stop3396" /></linearGradient><linearGradient
       inkscape:collect="always"
       id="linearGradient3287"><stop
         style="stop-color:#ffffff;stop-opacity:1"
         offset="0"
         id="stop3289" /><stop
         style="stop-color:#000000;stop-opacity:1"
         offset="1"
         id="stop3291" /></linearGradient><radialGradient
       inkscape:collect="always"
       xlink:href="#linearGradient3287"
       id="radialGradient3295"
       cx="207.15573"
       cy="-78.608353"
       fx="207.15573"
       fy="-78.608353"
       r="253.07738"
       gradientTransform="matrix(0.32814201,0.60400133,-0.6417414,0.34864658,105.83112,-190.86663)"
       gradientUnits="userSpaceOnUse" /><radialGradient
       inkscape:collect="always"
       xlink:href="#linearGradient3287-9"
       id="radialGradient3295-1"
       cx="207.15573"
       cy="-78.608353"
       fx="207.15573"
       fy="-78.608353"
       r="253.07738"
       gradientTransform="matrix(0.32814201,0.60400133,-0.6417414,0.34864658,105.83112,-190.86663)"
       gradientUnits="userSpaceOnUse" /><linearGradient
       inkscape:collect="always"
       id="linearGradient3287-9"><stop
         style="stop-color:#ffffff;stop-opacity:1"
         offset="0"
         id="stop3289-6" /><stop
         style="stop-color:#000000;stop-opacity:1"
         offset="1"
         id="stop3291-2" /></linearGradient><radialGradient
       inkscape:collect="always"
       xlink:href="#linearGradient3287-9"
       id="radialGradient3313"
       cx="207.15573"
       cy="-78.608353"
       fx="207.15573"
       fy="-78.608353"
       r="253.07738"
       gradientTransform="matrix(0.32814201,0.60400133,-0.6417414,0.34864658,105.83112,-190.86663)"
       gradientUnits="userSpaceOnUse" /><radialGradient
       inkscape:collect="always"
       xlink:href="#linearGradient3392"
       id="radialGradient3398"
       cx="1328.0352"
       cy="-46.189323"
       fx="1328.0352"
       fy="-46.189323"
       r="253.07738"
       gradientTransform="matrix(1.4129829,-0.14369322,0.11321415,1.1133452,-1676.3022,464.27111)"
       gradientUnits="userSpaceOnUse" /><radialGradient
       inkscape:collect="always"
       xlink:href="#linearGradient3287-2"
       id="radialGradient3295-2"
       cx="207.15573"
       cy="-78.608353"
       fx="207.15573"
       fy="-78.608353"
       r="253.07738"
       gradientTransform="matrix(0.32814201,0.60400133,-0.6417414,0.34864658,105.83112,-190.86663)"
       gradientUnits="userSpaceOnUse" /><linearGradient
       inkscape:collect="always"
       id="linearGradient3287-2"><stop
         style="stop-color:#ffffff;stop-opacity:1"
         offset="0"
         id="stop3289-4" /><stop
         style="stop-color:#000000;stop-opacity:1"
         offset="1"
         id="stop3291-7" /></linearGradient><radialGradient
       inkscape:collect="always"
       xlink:href="#linearGradient3287-2"
       id="radialGradient3404-0"
       gradientUnits="userSpaceOnUse"
       gradientTransform="matrix(0.32814201,0.60400133,-0.6417414,0.34864658,105.83112,-190.86663)"
       cx="207.15573"
       cy="-78.608353"
       fx="207.15573"
       fy="-78.608353"
       r="253.07738" /><linearGradient
       inkscape:collect="always"
       id="linearGradient3287-6"><stop
         style="stop-color:#ffffff;stop-opacity:1"
         offset="0"
         id="stop3289-42" /><stop
         style="stop-color:#000000;stop-opacity:1"
         offset="1"
         id="stop3291-5" /></linearGradient><radialGradient
       inkscape:collect="always"
       xlink:href="#linearGradient3287-6"
       id="radialGradient3404-1"
       gradientUnits="userSpaceOnUse"
       gradientTransform="matrix(0.32814201,0.60400133,-0.6417414,0.34864658,105.83112,-190.86663)"
       cx="207.15573"
       cy="-78.608353"
       fx="207.15573"
       fy="-78.608353"
       r="253.07738" /><radialGradient
       inkscape:collect="always"
       xlink:href="#linearGradient3493"
       id="radialGradient3499"
       cx="511.37225"
       cy="319.66162"
       fx="511.37225"
       fy="319.66162"
       r="253.07738"
       gradientTransform="matrix(0.14257544,-1.1333949,1.1105647,0.13970491,100.39575,827.65586)"
       gradientUnits="userSpaceOnUse" /><linearGradient
       inkscape:collect="always"
       id="linearGradient3493-9"><stop
         style="stop-color:#ffffff;stop-opacity:1"
         offset="0"
         id="stop3495-0" /><stop
         id="stop3501-0"
         offset="0.68401092"
         style="stop-color:#000000;stop-opacity:1" /><stop
         style="stop-color:#000000;stop-opacity:0"
         offset="1"
         id="stop3497-0" /></linearGradient><radialGradient
       inkscape:collect="always"
       xlink:href="#linearGradient3493-9"
       id="radialGradient4271-2"
       gradientUnits="userSpaceOnUse"
       gradientTransform="matrix(0.14257544,-1.1333949,1.1105647,0.13970491,100.39575,827.65586)"
       cx="511.37225"
       cy="319.66162"
       fx="511.37225"
       fy="319.66162"
       r="253.07738" /><linearGradient
       inkscape:collect="always"
       id="linearGradient3493-6"><stop
         style="stop-color:#ffffff;stop-opacity:1"
         offset="0"
         id="stop3495-06" /><stop
         id="stop3501-6"
         offset="0.68401092"
         style="stop-color:#000000;stop-opacity:1" /><stop
         style="stop-color:#000000;stop-opacity:0"
         offset="1"
         id="stop3497-2" /></linearGradient><radialGradient
       inkscape:collect="always"
       xlink:href="#linearGradient3493-6"
       id="radialGradient4271-1"
       gradientUnits="userSpaceOnUse"
       gradientTransform="matrix(0.14257544,-1.1333949,1.1105647,0.13970491,100.39575,827.65586)"
       cx="511.37225"
       cy="319.66162"
       fx="511.37225"
       fy="319.66162"
       r="253.07738" /><radialGradient
       inkscape:collect="always"
       xlink:href="#linearGradient3287"
       id="radialGradient4580"
       gradientUnits="userSpaceOnUse"
       gradientTransform="matrix(0.28732389,0.52886863,-0.56191415,0.30527787,85.17054,43.939119)"
       cx="207.15573"
       cy="-78.608353"
       fx="207.15573"
       fy="-78.608353"
       r="253.07738" /><radialGradient
       inkscape:collect="always"
       xlink:href="#linearGradient3493"
       id="radialGradient4584"
       gradientUnits="userSpaceOnUse"
       gradientTransform="matrix(0.12484025,-0.99241007,0.97241976,0.12232679,80.41129,935.76595)"
       cx="511.37225"
       cy="319.66162"
       fx="511.37225"
       fy="319.66162"
       r="253.07738" /><radialGradient
       inkscape:collect="always"
       xlink:href="#linearGradient4588"
       id="radialGradient4594"
       cx="604.22485"
       cy="514.84875"
       fx="604.22485"
       fy="514.84875"
       r="234.28572"
       gradientUnits="userSpaceOnUse"
       gradientTransform="matrix(-0.20922057,0.99348539,-1.0237907,-0.21560314,911.82222,-252.19486)" /><radialGradient
       inkscape:collect="always"
       xlink:href="#linearGradient4588-6"
       id="radialGradient4594-0"
       cx="529.53186"
       cy="596.23431"
       fx="529.53186"
       fy="596.23431"
       r="234.28572"
       gradientUnits="userSpaceOnUse"
       gradientTransform="matrix(-0.49034433,1.0936513,-1.2591172,-0.56453334,1557.4693,355.58654)" /><linearGradient
       inkscape:collect="always"
       id="linearGradient4588-6"><stop
         style="stop-color:#ffffff;stop-opacity:1"
         offset="0"
         id="stop4590-3" /><stop
         style="stop-color:#9da2a9;stop-opacity:1"
         offset="1"
         id="stop4592-8" /></linearGradient><radialGradient
       inkscape:collect="always"
       xlink:href="#linearGradient4630"
       id="radialGradient4636"
       cx="802.7265"
       cy="949.26428"
       fx="802.7265"
       fy="949.26428"
       r="234.28572"
       gradientUnits="userSpaceOnUse"
       gradientTransform="matrix(0.12183842,-1.5294823,1.4628334,0.11653072,-1016.9685,1601.0899)" /><radialGradient
       inkscape:collect="always"
       xlink:href="#linearGradient4630-3"
       id="radialGradient4636-6"
       cx="802.7265"
       cy="949.26428"
       fx="802.7265"
       fy="949.26428"
       r="234.28572"
       gradientUnits="userSpaceOnUse"
       gradientTransform="matrix(0.10317242,-1.2951612,1.2387231,0.09867788,-455.03596,1865.7191)" /><linearGradient
       inkscape:collect="always"
       id="linearGradient4630-3"><stop
         style="stop-color:#ffffff;stop-opacity:1"
         offset="0"
         id="stop4632-6" /><stop
         id="stop4638-1"
         offset="0.4930732"
         style="stop-color:#a0a5ac;stop-opacity:1" /><stop
         style="stop-color:#a6abb1;stop-opacity:0"
         offset="1"
         id="stop4634-8" /></linearGradient><radialGradient
       inkscape:collect="always"
       xlink:href="#linearGradient4683"
       id="radialGradient4689"
       cx="209.46526"
       cy="1044.8871"
       fx="209.46526"
       fy="1044.8871"
       r="232.76642"
       gradientTransform="matrix(1.6178851,1.5532383,-1.7669908,1.840527,1543.606,-1889.7602)"
       gradientUnits="userSpaceOnUse" /><radialGradient
       inkscape:collect="always"
       xlink:href="#linearGradient4693"
       id="radialGradient4699"
       cx="159.13251"
       cy="1165.8268"
       fx="159.13251"
       fy="1165.8268"
       r="173.74623"
       gradientUnits="userSpaceOnUse"
       gradientTransform="matrix(0.57483752,0.02374024,-0.04570821,1.1067653,106.8349,-841.98077)" /><marker
       id="DistanceX"
       orient="auto"
       refX="0"
       refY="0"
       style="overflow:visible"><path
         d="M 3,-3 -3,3 M 0,-5 V 5"
         style="stroke:#000000;stroke-width:0.5"
         id="path1" /></marker><pattern
       id="Hatch"
       patternUnits="userSpaceOnUse"
       width="8"
       height="8"
       x="0"
       y="0"><path
         d="M8 4 l-4,4"
         stroke="#000000"
         stroke-width="0.25"
         linecap="square"
         id="path2" /><path
         d="M6 2 l-4,4"
         stroke="#000000"
         stroke-width="0.25"
         linecap="square"
         id="path3" /><path
         d="M4 0 l-4,4"
         stroke="#000000"
         stroke-width="0.25"
         linecap="square"
         id="path4" /></pattern><symbol
       id="*Model_Space" /><symbol
       id="*Paper_Space" /><symbol
       id="*Paper_Space0" /></defs><sodipodi:namedview
     id="base"
     pagecolor="#ffffff"
     bordercolor="#666666"
     borderopacity="1.0"
     inkscape:pageopacity="0.0"
     inkscape:pageshadow="2"
     inkscape:zoom="0.38832364"
     inkscape:cx="2531.3936"
     inkscape:cy="539.49844"
     inkscape:document-units="px"
     inkscape:current-layer="g19"
     showgrid="false"
     showguides="true"
     inkscape:guide-bbox="true"
     fit-margin-top="0"
     fit-margin-left="0"
     fit-margin-right="0"
     fit-margin-bottom="0"
     inkscape:window-width="3840"
     inkscape:window-height="2066"
     inkscape:window-x="-11"
     inkscape:window-y="-11"
     inkscape:window-maximized="1"
     inkscape:showpageshadow="2"
     inkscape:pagecheckerboard="true"
     inkscape:deskcolor="#d1d1d1" /><metadata
     id="metadata7"><rdf:RDF><cc:Work
         rdf:about=""><dc:format>image/svg+xml</dc:format><dc:type
           rdf:resource="http://purl.org/dc/dcmitype/StillImage" /></cc:Work></rdf:RDF></metadata><g
     id="g1"
     inkscape:label="Logo"
     transform="matrix(1.6070355,0,0,1.6070355,110.56681,-24.611852)"><circle
       style="color:#000000;display:inline;overflow:visible;visibility:visible;fill:url(#radialGradient4594);fill-opacity:1;stroke:none;stroke-width:3.54276;marker:none;enable-background:accumulate"
       id="path4565"
       cx="309.92233"
       cy="309.92245"
       r="276.67279"
       inkscape:label="Shpere1" /><circle
       style="color:#000000;display:inline;overflow:visible;visibility:visible;fill:url(#radialGradient4636);fill-opacity:1;stroke:none;stroke-width:1.7946;marker:none;enable-background:accumulate"
       id="path4565-2"
       cx="309.92233"
       cy="309.92245"
       r="276.67279"
       inkscape:label="Shere2" /><circle
       style="color:#000000;display:inline;overflow:visible;visibility:visible;fill:url(#radialGradient4699);fill-opacity:1;stroke:none;stroke-width:1.87806;marker:none;enable-background:accumulate"
       id="path4691"
       cx="309.9223"
       cy="309.92233"
       r="217.53754"
       inkscape:label="InnnerFill" /><path
       inkscape:connector-curvature="0"
       d="m 309.96275,88.32576 c -122.39808,0 -221.63709,99.23902 -221.63709,221.61912 0,50.7649 17.1447,97.59058 45.90039,134.98825 V 226.97021 h 11.7098 c 3.36874,0 6.96657,-0.17516 9.31123,4.37489 1.28912,2.46594 1.72031,4.59049 1.72031,4.59049 5.77179,-9.45496 14.47666,-10.07932 22.31014,-10.07932 20.24397,0 28.92638,14.10386 28.92638,40.58227 v 96.94828 c 0,21.8924 -10.56442,36.89909 -28.92638,36.89909 -6.6881,0 -13.41213,-0.94774 -19.74989,-8.61503 v 80.98935 c 39.54469,36.55773 92.37574,58.85888 150.4396,58.85888 122.38461,0 221.55175,-99.20309 221.55175,-221.57423 C 531.51499,187.56029 432.34736,88.32576 309.96275,88.32576 Z m -13.758,172.52065 v 138.39293 h -13.70858 c -1.66641,0 -3.87182,0.17967 -6.5848,-3.12171 -1.59453,-1.90896 -2.44795,-5.77179 -2.44795,-5.77179 -5.73137,6.98903 -11.46725,9.44598 -19.24682,9.44598 -19.93405,0 -26.72546,-11.53462 -26.72546,-34.88233 V 333.5666 c 0,-28.83654 19.71845,-38.64188 44.94368,-48.02048 v -24.2191 c 0,-12.12303 -4.12784,-16.188 -10.07931,-16.188 -7.18669,0 -11.84454,2.35814 -11.84454,14.66083 v 12.33862 c 0,4.82406 -1.85955,7.39779 -10.07931,7.25854 h -11.95684 v -17.05937 c 0,-23.28033 11.20673,-36.34661 33.37762,-36.34661 23.45552,0 34.34781,10.81146 34.34781,33.81331 v 1.04207 h 0.004 z m 48.86491,138.39293 h -25.35998 v -194.2334 c 0,-1.49124 -1.69335,-2.50635 -3.25196,-2.50635 h -7.09685 v -20.81441 h 35.71329 v 217.55416 h -0.004 z m 119.99954,0 V 260.32537 c 0,-12.23531 -5.30917,-14.80455 -11.07198,-14.80455 -7.78856,0 -12.6171,3.89428 -12.6171,21.40732 V 399.24383 H 416.59506 V 260.32987 c 0,-12.23532 -5.30915,-14.80456 -11.08096,-14.80456 -7.77958,0 -12.58117,3.89428 -12.58117,21.40732 V 399.24832 H 367.64032 V 226.97471 h 13.9646 c 3.06333,0 4.10539,0 6.18504,1.49573 2.9106,2.18744 3.30588,8.06255 3.30588,8.06255 5.30915,-7.29898 12.60812,-10.53298 20.52694,-10.53298 9.58972,0 17.96669,2.71298 22.96592,13.83435 5.38551,-9.76938 14.97524,-13.83435 22.96593,-13.83435 22.37751,0 32.31757,14.93931 32.31757,41.49407 v 131.75424 h -24.803 v -0.009 z M 251.29252,335.90227 v 24.35834 c 0,11.70979 0.92529,20.32482 9.57175,20.32482 7.47415,0 11.57055,-4.59049 11.57055,-25.1938 V 304.9771 c -14.27902,6.9486 -21.1423,11.70529 -21.1423,30.92517 z m -79.98771,44.26542 c 6.5848,0.0719 11.88497,-2.01675 11.88497,-20.32929 v -95.45255 c 0,-18.07 -4.41083,-20.25744 -10.89231,-20.25744 -8.10298,0 -12.76983,6.29283 -12.76983,21.26358 v 99.0324 c 0,9.83676 6.33776,15.64 11.77717,15.7433 z"
       style="display:inline;fill:url(#radialGradient4580);fill-opacity:1;fill-rule:evenodd;stroke-width:0.875608"
       id="path3015"
       inkscape:label="InnerCircle" /><path
       inkscape:connector-curvature="0"
       d="m 309.96275,88.32576 c -122.39808,0 -221.63709,99.23902 -221.63709,221.61912 0,50.7649 17.1447,97.59058 45.90039,134.98825 V 226.97021 h 11.7098 c 3.36874,0 6.96657,-0.17516 9.31123,4.37489 1.28912,2.46594 1.72031,4.59049 1.72031,4.59049 5.77179,-9.45496 14.47666,-10.07932 22.31014,-10.07932 20.24397,0 28.92638,14.10386 28.92638,40.58227 v 96.94828 c 0,21.8924 -10.56442,36.89909 -28.92638,36.89909 -6.6881,0 -13.41213,-0.94774 -19.74989,-8.61503 v 80.98935 c 39.54469,36.55773 92.37574,58.85888 150.4396,58.85888 122.38461,0 221.55175,-99.20309 221.55175,-221.57423 C 531.51499,187.56029 432.34736,88.32576 309.96275,88.32576 Z m -13.758,172.52065 v 138.39293 h -13.70858 c -1.66641,0 -3.87182,0.17967 -6.5848,-3.12171 -1.59453,-1.90896 -2.44795,-5.77179 -2.44795,-5.77179 -5.73137,6.98903 -11.46725,9.44598 -19.24682,9.44598 -19.93405,0 -26.72546,-11.53462 -26.72546,-34.88233 V 333.5666 c 0,-28.83654 19.71845,-38.64188 44.94368,-48.02048 v -24.2191 c 0,-12.12303 -4.12784,-16.188 -10.07931,-16.188 -7.18669,0 -11.84454,2.35814 -11.84454,14.66083 v 12.33862 c 0,4.82406 -1.85955,7.39779 -10.07931,7.25854 h -11.95684 v -17.05937 c 0,-23.28033 11.20673,-36.34661 33.37762,-36.34661 23.45552,0 34.34781,10.81146 34.34781,33.81331 v 1.04207 h 0.004 z m 48.86491,138.39293 h -25.35998 v -194.2334 c 0,-1.49124 -1.69335,-2.50635 -3.25196,-2.50635 h -7.09685 v -20.81441 h 35.71329 v 217.55416 h -0.004 z m 119.99954,0 V 260.32537 c 0,-12.23531 -5.30917,-14.80455 -11.07198,-14.80455 -7.78856,0 -12.6171,3.89428 -12.6171,21.40732 V 399.24383 H 416.59506 V 260.32987 c 0,-12.23532 -5.30915,-14.80456 -11.08096,-14.80456 -7.77958,0 -12.58117,3.89428 -12.58117,21.40732 V 399.24832 H 367.64032 V 226.97471 h 13.9646 c 3.06333,0 4.10539,0 6.18504,1.49573 2.9106,2.18744 3.30588,8.06255 3.30588,8.06255 5.30915,-7.29898 12.60812,-10.53298 20.52694,-10.53298 9.58972,0 17.96669,2.71298 22.96592,13.83435 5.38551,-9.76938 14.97524,-13.83435 22.96593,-13.83435 22.37751,0 32.31757,14.93931 32.31757,41.49407 v 131.75424 h -24.803 v -0.009 z M 251.29252,335.90227 v 24.35834 c 0,11.70979 0.92529,20.32482 9.57175,20.32482 7.47415,0 11.57055,-4.59049 11.57055,-25.1938 V 304.9771 c -14.27902,6.9486 -21.1423,11.70529 -21.1423,30.92517 z m -79.98771,44.26542 c 6.5848,0.0719 11.88497,-2.01675 11.88497,-20.32929 v -95.45255 c 0,-18.07 -4.41083,-20.25744 -10.89231,-20.25744 -8.10298,0 -12.76983,6.29283 -12.76983,21.26358 v 99.0324 c 0,9.83676 6.33776,15.64 11.77717,15.7433 z"
       style="display:inline;fill:url(#radialGradient4584);fill-opacity:1;fill-rule:evenodd;stroke-width:0.875608"
       id="path3015-3"
       inkscape:label="Shine" /><path
       style="color:#000000;font-style:normal;font-variant:normal;font-weight:normal;font-stretch:normal;font-size:medium;line-height:normal;font-family:Sans;-inkscape-font-specification:Sans;text-indent:0;text-align:start;text-decoration:none;text-decoration-line:none;letter-spacing:normal;word-spacing:normal;text-transform:none;writing-mode:lr-tb;direction:ltr;baseline-shift:baseline;text-anchor:start;display:none;overflow:visible;visibility:visible;fill:#4d4d4d;fill-opacity:1;stroke:none;stroke-width:2.62683;marker:none;enable-background:accumulate"
       d="m 412.33645,225.32175 c -7.41783,0 -14.33881,2.97208 -19.70119,9.02971 -0.0731,-0.36013 -0.0309,-0.33999 -0.13681,-0.73875 -0.49773,-1.87441 -1.31751,-4.13882 -3.20144,-5.55468 h -0.0274 v -0.0271 c -1.12425,-0.80863 -2.13209,-1.27804 -3.2288,-1.505 -1.09672,-0.22696 -2.18968,-0.2189 -3.72134,-0.2189 h -13.98237 -1.31341 v 1.31341 172.27595 1.31341 h 1.31341 25.31055 1.31342 v -1.31345 -132.32632 c 0,-8.63647 1.23762,-13.74827 3.14672,-16.52711 1.90909,-2.77883 4.45609,-3.55715 8.12674,-3.55715 2.69098,0 4.9993,0.57203 6.73123,2.40792 1.73194,1.83589 3.03727,5.15427 3.03727,11.08196 v 138.9207 1.31341 h 1.31341 24.7633 1.31342 v -1.31341 -132.32632 c 0,-8.63577 1.25785,-13.74801 3.17408,-16.52711 1.91622,-2.77909 4.45137,-3.55715 8.12674,-3.55715 2.68622,0 5.02758,0.54462 6.7586,2.38051 1.73102,1.83598 3.0099,5.18168 3.0099,11.10937 v 138.89338 0.0271 1.31342 h 1.31342 24.79066 1.31341 v -1.31342 -131.75174 c 0,-13.44129 -2.48326,-24.10401 -8.01729,-31.49449 -5.53403,-7.39049 -14.13048,-11.32819 -25.61154,-11.32819 -7.85969,0 -17.06652,3.81827 -22.84791,12.58687 -2.47543,-4.58276 -5.60577,-7.76323 -9.24861,-9.68641 -4.17956,-2.20654 -8.89951,-2.90046 -13.8182,-2.90046 z m 0,2.62683 c 4.67097,0 8.93069,0.66923 12.58687,2.5995 3.65618,1.9302 6.76303,5.10568 9.16653,10.45249 l 1.09451,2.40793 1.25868,-2.29848 c 5.14165,-9.32689 14.26294,-13.16144 21.80813,-13.16144 10.8965,0 18.47425,3.54315 23.50461,10.26108 5.03036,6.71784 7.49739,16.82131 7.49739,29.93477 V 398.58276 H 467.08934 V 260.97548 c 0,-6.30771 -1.35707,-10.40775 -3.72134,-12.91523 -2.36426,-2.50756 -5.5974,-3.20148 -8.67399,-3.20148 -4.11317,0 -7.84322,1.13277 -10.2884,4.67898 -2.44518,3.54631 -3.63925,9.15484 -3.63925,18.03211 v 131.0129 H 418.62989 V 260.97548 c 0,-6.30771 -1.38312,-10.38034 -3.7487,-12.88791 -2.36559,-2.50757 -5.56587,-3.2288 -8.64663,-3.2288 -4.10897,0 -7.87918,1.15983 -10.31577,4.70639 -2.43658,3.54656 -3.58452,9.12822 -3.58452,18.0047 v 131.0129 H 369.65054 V 228.93364 h 12.66896 c 1.53166,0 2.49138,0.0175 3.20144,0.16417 0.70295,0.14544 1.25103,0.39543 2.18903,1.06711 1.02667,0.77167 1.84356,2.52175 2.2711,4.13182 0.42755,1.61007 0.5199,2.95518 0.5199,2.95518 l 0.24626,3.61188 2.10693,-2.92786 c 5.08089,-6.98508 11.92105,-9.98736 19.48229,-9.98736 z"
       id="path4529"
       inkscape:connector-curvature="0"
       inkscape:label="m" /><path
       style="color:#000000;font-style:normal;font-variant:normal;font-weight:normal;font-stretch:normal;font-size:medium;line-height:normal;font-family:Sans;-inkscape-font-specification:Sans;text-indent:0;text-align:start;text-decoration:none;text-decoration-line:none;letter-spacing:normal;word-spacing:normal;text-transform:none;writing-mode:lr-tb;direction:ltr;baseline-shift:baseline;text-anchor:start;display:none;overflow:visible;visibility:visible;fill:#4d4d4d;fill-opacity:1;stroke:none;stroke-width:2.62683;marker:none;enable-background:accumulate"
       d="m 308.7684,181.0214 v 1.31341 20.7957 1.31341 h 1.31341 7.08696 c 0.49415,0 1.081,0.20227 1.45022,0.46521 0.36923,0.26295 0.49253,0.49034 0.49253,0.73875 v 194.22098 1.31341 h 1.31341 25.36528 0.0274 l 1.28605,-0.0272 v -1.286 -217.53405 -1.31341 h -1.31342 -35.7084 -1.31341 z m 2.62682,2.62682 H 344.4768 V 398.55544 H 321.73835 V 205.64788 c 0,-1.24275 -0.71995,-2.25556 -1.58704,-2.87304 -0.86709,-0.61748 -1.91811,-0.95774 -2.98254,-0.95774 h -5.77355 z"
       id="path4527"
       inkscape:connector-curvature="0"
       inkscape:label="l" /><path
       style="color:#000000;font-style:normal;font-variant:normal;font-weight:normal;font-stretch:normal;font-size:medium;line-height:normal;font-family:Sans;-inkscape-font-specification:Sans;text-indent:0;text-align:start;text-decoration:none;text-decoration-line:none;letter-spacing:normal;word-spacing:normal;text-transform:none;writing-mode:lr-tb;direction:ltr;baseline-shift:baseline;text-anchor:start;display:none;overflow:visible;visibility:visible;fill:#4d4d4d;fill-opacity:1;stroke:none;stroke-width:2.62683;marker:none;enable-background:accumulate"
       d="m 262.55269,225.32175 c -11.34348,0 -20.11168,3.38826 -25.96726,9.87792 -5.85558,6.48974 -8.72872,15.92232 -8.72872,27.77324 v 17.07437 1.31341 h 1.31341 11.95753 c 4.24859,0.0718 7.08684,-0.52458 8.97499,-2.07957 1.88814,-1.55499 2.43528,-3.93157 2.43528,-6.51234 v -12.34056 c 0,-5.98566 1.1358,-9.26376 2.84573,-11.02724 1.70993,-1.76347 4.23927,-2.29847 7.68894,-2.29847 2.67673,0 4.64864,0.79383 6.18398,2.9825 1.53534,2.18876 2.5721,5.96298 2.5721,11.87553 v 23.31307 c -12.29951,4.60106 -23.36732,9.36857 -31.49454,16.63656 -8.31841,7.4389 -13.43512,17.57039 -13.43512,32.28806 v 31.35763 c 0,11.80128 1.67258,20.78038 6.12926,26.95237 4.45668,6.17199 11.66983,9.24861 21.89021,9.24861 7.32043,0 13.16294,-2.44741 18.60668,-8.26355 0.0152,0.0455 0.0116,0.0359 0.0273,0.0823 0.43745,1.27672 1.0494,2.82182 2.05221,4.02236 1.47475,1.79465 2.94649,2.74985 4.29595,3.2014 1.34946,0.45164 2.52494,0.38317 3.31089,0.38317 h 13.70875 1.31341 v -1.31341 -138.37353 -1.03979 c 0,-11.70828 -2.8062,-20.59124 -8.78345,-26.48715 -5.97724,-5.89591 -14.96802,-8.64663 -26.89759,-8.64663 z m 0,2.62683 c 11.52597,0 19.7315,2.64758 25.06429,7.90779 5.33279,5.26031 7.98993,13.30557 7.98993,24.59917 v 1.03978 1.31342 135.7467 h -12.39533 c -0.88042,0 -1.64193,0.0377 -2.49001,-0.24631 -0.84808,-0.28387 -1.85376,-0.87377 -3.092,-2.38051 -0.59176,-0.70846 -1.19917,-2.0695 -1.58704,-3.20149 -0.38786,-1.13199 -0.60198,-2.02484 -0.60198,-2.02484 l -0.57461,-2.65415 -1.6965,2.10689 c -5.55463,6.77344 -10.74797,8.97499 -18.25096,8.97499 -9.71372,0 -15.83337,-2.72183 -19.75591,-8.15411 -3.92254,-5.43227 -5.63673,-13.87349 -5.63673,-25.42005 v -31.35763 c 0,-14.11893 4.71239,-23.30047 12.55951,-30.31794 7.84711,-7.01757 18.94464,-11.79629 31.5219,-16.47247 l 0.84824,-0.30095 v -0.93033 -24.216 c 0,-6.21061 -1.02083,-10.5059 -3.03726,-13.38044 -2.01643,-2.87453 -5.07087,-4.10441 -8.34564,-4.10441 -3.73698,0 -7.1613,0.60075 -9.57697,3.09195 -2.41567,2.49128 -3.58452,6.54342 -3.58452,12.86058 v 12.34056 c 0,2.24331 -0.38102,3.58439 -1.47759,4.4875 -1.09657,0.9031 -3.30732,1.54483 -7.2785,1.47758 h -0.0273 -10.64411 v -15.76095 c 0,-11.4294 2.75413,-20.15852 8.04465,-26.02203 5.29052,-5.86342 13.19706,-9.0023 24.02451,-9.0023 z"
       id="path4471"
       inkscape:connector-curvature="0"
       inkscape:label="a" /><path
       style="color:#000000;font-style:normal;font-variant:normal;font-weight:normal;font-stretch:normal;font-size:medium;line-height:normal;font-family:Sans;-inkscape-font-specification:Sans;text-indent:0;text-align:start;text-decoration:none;text-decoration-line:none;letter-spacing:normal;word-spacing:normal;text-transform:none;writing-mode:lr-tb;direction:ltr;baseline-shift:baseline;text-anchor:start;display:none;overflow:visible;visibility:visible;fill:#4d4d4d;fill-opacity:1;stroke:none;stroke-width:2.62683;marker:none;enable-background:accumulate"
       d="m 274.45549,303.52453 -1.88803,0.90301 c -7.17107,3.48965 -12.66543,6.50017 -16.39029,11.24605 -3.72487,4.74589 -5.49992,11.11156 -5.49992,20.87775 v 24.35294 c 0,5.88943 0.21209,11.05316 1.64177,14.9948 0.71484,1.97073 1.75792,3.66214 3.31089,4.84316 1.55297,1.18102 3.558,1.80594 5.93772,1.80594 4.00599,0 7.61385,-1.48582 9.76851,-5.582 2.15466,-4.09618 3.11935,-10.54381 3.11935,-20.93256 V 305.6041 Z m -2.62682,4.29599 v 48.2131 c 0,10.21468 -1.0563,16.35138 -2.81837,19.70119 -1.76206,3.3499 -3.97446,4.18655 -7.44267,4.18655 -1.94351,0 -3.29834,-0.45838 -4.35068,-1.25869 -1.05233,-0.80031 -1.838,-2.01994 -2.43528,-3.66661 -1.19457,-3.29334 -1.47759,-8.27152 -1.47759,-14.09178 v -24.35294 c 0,-9.4536 1.67613,-15.08875 4.95266,-19.26339 2.94009,-3.74594 7.56496,-6.45638 13.57193,-9.46743 z"
       id="path4531"
       inkscape:connector-curvature="0"
       inkscape:label="a" /><path
       style="color:#000000;font-style:normal;font-variant:normal;font-weight:normal;font-stretch:normal;font-size:medium;line-height:normal;font-family:Sans;-inkscape-font-specification:Sans;text-indent:0;text-align:start;text-decoration:none;text-decoration-line:none;letter-spacing:normal;word-spacing:normal;text-transform:none;writing-mode:lr-tb;direction:ltr;baseline-shift:baseline;text-anchor:start;display:none;overflow:visible;visibility:visible;fill:#4d4d4d;fill-opacity:1;stroke:none;stroke-width:2.62683;marker:none;enable-background:accumulate"
       d="m 173.21328,243.0255 c -4.40298,0 -8.16298,1.84535 -10.56203,5.63665 -2.39905,3.79138 -3.55716,9.37654 -3.55716,17.01972 v 99.29942 c 0,10.42885 6.71022,16.98076 13.0794,17.10168 h 0.0273 c 3.44444,0.0376 7.03111,-0.58946 9.49488,-3.80338 2.46377,-3.21392 3.7487,-8.58613 3.7487,-17.89524 v -95.71494 c 0,-9.16762 -1.05575,-14.47644 -3.25617,-17.70367 -2.20042,-3.22732 -5.57724,-3.94024 -8.97499,-3.94024 z m 0,2.62683 c 3.10224,0 5.17705,0.39105 6.81332,2.79091 1.63628,2.39996 2.791,7.27228 2.791,16.22617 v 95.71494 c 0,9.05563 -1.38403,13.90177 -3.2288,16.3082 -1.84478,2.40644 -4.20145,2.79801 -7.36058,2.7636 -4.54055,-0.0858 -10.5073,-5.17432 -10.5073,-14.47486 v -99.29942 c 0,-7.37026 1.17414,-12.47943 3.14671,-15.59686 1.97257,-3.11734 4.62271,-4.43268 8.34565,-4.43268 z"
       id="path4523"
       inkscape:connector-curvature="0"
       inkscape:label="p" /><path
       sodipodi:nodetypes="ccccccssccccccccscccccsssssssccccccssssscc"
       style="color:#000000;font-style:normal;font-variant:normal;font-weight:normal;font-stretch:normal;font-size:medium;line-height:normal;font-family:Sans;-inkscape-font-specification:Sans;text-indent:0;text-align:start;text-decoration:none;text-decoration-line:none;letter-spacing:normal;word-spacing:normal;text-transform:none;writing-mode:lr-tb;direction:ltr;baseline-shift:baseline;text-anchor:start;display:none;overflow:visible;visibility:visible;fill:#4d4d4d;fill-opacity:1;stroke:none;stroke-width:2.62683;marker:none;enable-background:accumulate"
       d="m 180.19078,224.71977 c -3.96279,0 -8.23761,0.13423 -12.36797,1.55972 -3.46978,1.1974 -6.77051,3.42556 -9.5496,7.03219 -0.27515,-0.74646 -0.54031,-1.47426 -1.01242,-2.3806 -0.004,-0.009 0.004,-0.0201 0,-0.0272 h -0.0273 c -1.3028,-2.5066 -3.11397,-3.92623 -5.00739,-4.54222 -1.90306,-0.61914 -3.80614,-0.54725 -5.47255,-0.54725 h -11.73863 -1.31341 v 1.31341 207.02666 10.04244 c 0.87561,1.37532 1.75122,2.51474 2.62683,3.59787 V 434.15453 228.44128 h 10.42521 c 1.71194,0 3.31827,0 4.65167,0.43781 1.33339,0.43377 2.48265,1.22392 3.52979,3.25612 1.20507,2.30513 1.61441,4.24127 1.61441,4.24127 l 0.6567,3.28354 1.75122,-2.84573 c 2.74776,-4.50124 6.0683,-6.78658 9.71378,-8.04465 3.64548,-1.25808 7.62672,-1.42287 11.51972,-1.42287 9.84574,0 16.56436,3.28502 21.04197,9.79587 4.4776,6.51085 6.67651,16.44577 6.67651,29.5791 v 97.21994 c 0,10.76604 -2.60938,19.73096 -7.33322,25.9399 -4.72384,6.20894 -11.53596,9.74114 -20.38526,9.74114 -6.58317,0 -12.67177,-0.77561 -18.77085,-8.1541 l -2.32584,-2.81841 v 3.6667 80.10669 c 0.7009,0.69743 1.21298,1.17096 2.62683,2.26328 v -79.0318 c 5.98021,5.71001 12.43831,6.59447 18.46986,6.59447 9.56492,0 17.2879,-3.97649 22.46483,-10.78093 5.17693,-6.80444 7.88048,-16.33833 7.88048,-27.52694 v -97.21994 c 0,-13.42045 -2.19035,-23.85709 -7.14168,-31.05669 -4.95134,-7.1996 -12.74786,-10.9451 -23.20363,-10.9451 z"
       id="path3015-3-7"
       inkscape:connector-curvature="0"
       inkscape:label="p" /><path
       style="color:#000000;font-style:normal;font-variant:normal;font-weight:normal;font-stretch:normal;font-size:medium;line-height:normal;font-family:Sans;-inkscape-font-specification:Sans;text-indent:0;text-align:start;text-decoration:none;text-decoration-line:none;letter-spacing:normal;word-spacing:normal;text-transform:none;writing-mode:lr-tb;direction:ltr;baseline-shift:baseline;text-anchor:start;display:none;overflow:visible;visibility:visible;fill:url(#radialGradient4689);fill-opacity:1;fill-rule:nonzero;stroke:#6f7c91;stroke-width:1.81811;marker:none;enable-background:accumulate"
       d="m 309.90389,32.350872 c -153.28712,0 -277.553239,124.302988 -277.553239,277.590008 0,153.28698 124.266119,277.55313 277.553239,277.55313 153.28699,0 277.59011,-124.26615 277.59011,-277.55313 0,-153.28702 -124.30312,-277.590008 -277.59011,-277.590008 z m 0,1.808233 c 152.31719,0 275.78176,123.464555 275.78176,275.781775 0,152.31719 -123.46457,275.74489 -275.78176,275.74489 -152.31732,0 -275.781868,-123.4277 -275.781868,-275.74489 0,-152.31722 123.464548,-275.781775 275.781868,-275.781775 z"
       id="path4565-2-3"
       inkscape:connector-curvature="0"
       inkscape:label="Outline" /></g><g
     id="g19"
     inkscape:label="PalmPilot"
     transform="translate(531.92166,-116.12373)"><g
       inkscape:label="PalmPilotShadow"
       id="g18"
       transform="matrix(1.3839977,0,0,1.3839977,548.25948,-254.20942)"
       style="fill:#000000;stroke:none;opacity:0.65"><path
         id="path9"
         style="fill:#000000;fill-opacity:1;stroke:none;stroke-width:3.571;stroke-linecap:round"
         d="m 128.50397,934.92689 h 60.47222 c 10.43706,-1.1e-4 18.89783,-8.46087 18.89782,-18.89782 l -1e-5,-242.52707 75.59078,2e-5 c 34.79878,3e-5 67.36725,-23.98035 85.69574,-52.18569 18.3285,-28.20533 27.68987,-73.58583 27.68987,-138.29391 0,-64.70809 -7.2611,-106.93463 -27.62618,-138.33152 -20.36508,-31.39688 -51.03747,-52.2838 -85.75943,-52.28385 H 128.50397 c -10.43691,5e-5 -18.89767,8.46081 -18.89782,18.89782 v 604.7242 c 1.5e-4,10.43695 8.46092,18.89771 18.89782,18.89782 z M 276.79281,429.82072 c 3.37463,15.3655 4.9877,32.82476 4.9877,55.87988 0,23.05512 -0.82982,35.90053 -4.99089,54.83898 -4.16107,18.93845 -10.36019,40.78752 -25.24548,40.78747 L 207.874,581.327 V 389.019 l 43.67014,-1.6e-4 c 14.95193,-1.7e-4 21.87404,25.43639 25.24867,40.80188 z"
         sodipodi:nodetypes="cccccscscccccscsccccs"
         inkscape:label="P" /><path
         d="m 541.87679,481.3834 c -42.61699,0 -86.62897,19.94426 -102.32226,47.375 -15.69329,27.43073 -21.15334,58.26866 -21.85742,87.70899 -0.25842,10.6143 4.27687,15.3592 14.89453,15.35937 h 63.7539 c 10.43705,-1.7e-4 18.89648,-8.46154 18.89649,-18.89843 v -28.90821 c 0.008,-14.2672 11.57662,-25.82812 25.84375,-25.82812 14.26713,0 25.83575,11.56092 25.84375,25.82812 v 56.04102 c -0.26786,5.34045 -2.54671,7.9778 -8,8 h -54.58399 c -29.90371,2e-5 -56.33358,24.56863 -70.0996,49.71289 -13.76602,25.14426 -20.60743,55.89913 -20.60743,93.68164 0,37.78251 4.79201,64.83621 20.57618,93.70117 15.78416,28.86495 40.12545,49.76942 70.13085,49.76953 h 15.64258 c 16.44376,-1.1e-4 32.17952,-6.69666 43.58008,-18.54687 l 2.11133,-2.19336 8.74805,12.61328 c 3.53096,5.0909 9.33213,8.12684 15.52734,8.12695 h 56.34375 c 10.43697,-1.1e-4 18.89837,-8.45953 18.89844,-18.89648 V 617.4459 c -7e-5,-30.37467 -4.792,-57.428 -20.57617,-86.29296 C 628.83677,502.28799 584.49377,481.3834 541.87679,481.3834 Z m 3.60157,240.32618 h 8.33203 c 8.34951,0 13.11921,4.76774 13.11914,13.11718 v 97.17383 c 7e-5,20.28255 -6.62139,39.35352 -25.76953,39.35352 -19.14813,0 -25.87531,-10.6405 -28.09571,-18.68946 -5.05479,-18.3236 -4.19457,-38.73108 -4,-44.52148 0.22515,-6.70065 0.94211,-26.51974 4.17774,-41.08008 4.39987,-19.79939 12.62148,-45.35351 32.23633,-45.35351 z"
         style="opacity:1;fill:#000000;stroke:none;stroke-width:3.571;stroke-linecap:square;stroke-miterlimit:0"
         id="path10"
         inkscape:label="a" /><path
         id="path11"
         style="fill:#000000;fill-opacity:1;stroke:none;stroke-width:3.571;stroke-linecap:round"
         d="m 791.81101,934.92689 -60.47243,-1.1e-4 c -10.43687,0 -18.89763,-8.46076 -18.8976,-18.89771 l -10e-6,-604.7242 c -2e-5,-10.437 8.46074,-18.89777 18.89782,-18.89782 h 60.47222 c 10.43689,5e-5 18.89765,8.46081 18.89782,18.89782 v 604.7242 c -1.7e-4,10.43695 -8.46094,18.89771 -18.89782,18.89782 z"
         sodipodi:nodetypes="ccccccccc"
         inkscape:label="l" /><path
         id="path12"
         style="fill:#000000;stroke:none;stroke-width:3.571;stroke-linecap:round"
         d="m 2560.6279,1021.6456 c 0,-9.3932 -7.6147,-17.0079 -17.0079,-17.0067 l -1184.8799,9e-4 c -2.0873,-3e-4 -3.7795,-1.6924 -3.7798,-3.7798 V 696.81677 c 3e-4,-12.52445 -10.1526,-22.67735 -22.6786,-22.67758 L 1251.02,674.139 V 565.07006 c 0,-34.58269 -20.3744,-65.91833 -51.9841,-79.94666 -31.6097,-14.02833 -68.5169,-8.11501 -94.1616,15.08666 -6.929,6.26896 -17.3994,6.53274 -24.6353,0.62064 -35.6374,-29.11753 -86.27086,-31.04651 -124.02033,-4.72481 -1.9505,-8.61006 -9.6024,-14.72241 -18.43055,-14.72265 H 876.8502 c -10.43668,2.4e-4 -18.89744,8.461 -18.89732,18.89782 v 415.74801 c -1.2e-4,10.43695 8.46064,18.89771 18.89732,18.89782 h 60.47057 c 10.43464,-1.1e-4 18.8954,-8.46087 18.89517,-18.89782 V 581.54098 c 0.0152,-13.55736 11.00981,-24.53979 24.56715,-24.53979 13.55733,0 24.55191,10.98243 24.56691,24.53979 v 334.48809 c 0,10.43698 8.4629,18.89774 18.8988,18.89782 h 60.4743 c 10.4421,-1.3e-4 18.9028,-8.46088 18.9018,-18.89782 l -10e-4,-334.48809 c 0,-13.56798 10.999,-24.56696 24.5669,-24.56696 13.568,0 24.567,10.99898 24.567,24.56696 v 334.48809 c 0,10.43694 8.4586,18.89769 18.8938,18.89782 h 60.4762 c 10.4349,-1.3e-4 18.8956,-8.46088 18.8938,-18.89782 V 708.155 l 66.1453,6e-5 c 2.0826,9e-5 3.7747,1.69223 3.7747,3.77977 v 304.04327 c 0,12.5224 10.1553,22.6754 22.6785,22.6737 l 1199.999,-1e-4 c 9.3932,0 17.0079,-7.6129 17.0079,-17.0061 z"
         sodipodi:nodetypes="scccccccscccccccccccsccccccscccccccccccs"
         inkscape:label="m" /><path
         id="path13"
         style="display:inline;fill:#000000;fill-opacity:1;stroke:none;stroke-width:3.571;stroke-linecap:round"
         d="m 1470.2366,934.92689 h 60.4723 c 10.437,-1.1e-4 18.8978,-8.46087 18.8978,-18.89782 V 673.502 l 75.5907,2e-5 c 34.7988,3e-5 67.3673,-23.98035 85.6958,-52.18569 18.3285,-28.20533 27.6899,-73.58583 27.6899,-138.29391 0,-64.70809 -7.2611,-106.93463 -27.6262,-138.33152 -20.3651,-31.39688 -51.0375,-52.2838 -85.7595,-52.28385 h -154.9608 c -10.4369,5e-5 -18.8976,8.46081 -18.8978,18.89782 v 604.7242 c 2e-4,10.43695 8.4609,18.89771 18.8978,18.89782 z m 148.2889,-505.10617 c 3.3746,15.3655 4.9877,32.82476 4.9877,55.87988 0,23.05512 -0.8298,35.90053 -4.9909,54.83898 -4.1611,18.93845 -10.3602,40.78752 -25.2455,40.78747 l -43.6701,-5e-5 V 389.019 l 43.6701,-1.6e-4 c 14.9519,-1.7e-4 21.874,25.43639 25.2487,40.80188 z"
         sodipodi:nodetypes="cccccscscccccscsccccs"
         inkscape:label="P" /><path
         id="path14"
         style="fill:#000000;stroke:none;stroke-width:3.571;stroke-linecap:round"
         d="m 1865.1984,934.92689 h -60.4762 c -10.4347,-1.3e-4 -18.8954,-8.46088 -18.8938,-18.89782 V 500.28106 c 0,-10.43681 8.4591,-18.89756 18.8938,-18.89782 h 60.4762 c 10.4354,2.6e-4 18.8961,8.46101 18.8938,18.89781 v 415.74802 c 0,10.43694 -8.4584,18.89769 -18.8938,18.89782 z"
         sodipodi:nodetypes="ccccccccc"
         inkscape:label="i" /><path
         id="path15"
         style="fill:#000000;stroke:none;stroke-width:3.571;stroke-linecap:round"
         d="m 1804.7222,395.35594 h 60.4743 c 10.4334,-8e-5 18.8941,-8.46084 18.8938,-18.89782 l -3e-4,-65.15325 c 0,-10.43699 -8.4585,-18.89775 -18.8939,-18.89782 h -60.4762 c -10.4347,7e-5 -18.8954,8.46083 -18.8938,18.89782 l 3e-4,65.15325 c 4e-4,10.43698 8.4611,18.89774 18.8958,18.89782 z"
         sodipodi:nodetypes="ccccccccc"
         inkscape:label="i" /><path
         id="path16"
         style="fill:#000000;fill-opacity:1;stroke:none;stroke-width:3.571;stroke-linecap:round"
         d="m 2010.7089,934.92689 -60.4725,-1.1e-4 c -10.4368,0 -18.8976,-8.46076 -18.8976,-18.89771 v -604.7242 c 0,-10.437 8.4608,-18.89777 18.8978,-18.89782 h 60.4723 c 10.4368,5e-5 18.8976,8.46081 18.8978,18.89782 v 604.7242 c -2e-4,10.43695 -8.461,18.89771 -18.8978,18.89782 z"
         sodipodi:nodetypes="ccccccccc"
         inkscape:label="l" /><path
         id="path17"
         style="fill:#000000;stroke:none;stroke-width:3.571;stroke-linecap:round"
         d="m 2362.2,542.377 v -42.096 m -20.7838,117.16523 -7e-4,181.41766 c -6e-4,66.52931 -47.7523,136.06289 -132.3885,136.06289 -84.6362,0 -132.1766,-69.63706 -132.1768,-136.06289 V 617.44623 c 2e-4,-66.52917 47.752,-136.06275 132.3881,-136.06275 84.6362,0 132.1779,69.63706 132.1779,136.06275 z m -111.4285,-36.02638 c -0.015,-10.83026 -8.7991,-19.6018 -19.6293,-19.6018 -10.8301,0 -19.6138,8.77154 -19.6286,19.6018 l 2e-4,240.49528 c 0.015,10.83023 8.7988,19.60177 19.6289,19.60177 10.8302,0 19.6139,-8.77154 19.629,-19.60177 z"
         sodipodi:nodetypes="ccccccccccsccscc"
         inkscape:label="o" /><path
         id="path18"
         style="fill:#000000;stroke:none;stroke-width:3.571;stroke-linecap:round"
         d="m 2362.2047,542.37734 c 0,10.4369 8.4608,18.89767 18.8965,18.89765 l 28.3488,10e-6 -6e-4,320.7382 c -6e-4,29.22346 23.6895,52.91359 52.9117,52.91369 h 98.9402 c 10.4381,-8e-5 18.8989,-8.46084 18.8988,-18.89782 v -60.47222 c 0,-10.43705 -8.4567,-18.89781 -18.8948,-18.89782 h -38.4713 c -8.3495,3e-5 -15.1181,-6.76857 -15.1181,-15.11805 V 561.275 l 39.6808,-10e-6 c 10.4377,-3e-5 18.8984,-8.46079 18.8988,-18.89782 v -42.09612 c -4e-4,-10.4368 -8.4611,-18.89755 -18.8988,-18.89781 l -39.6808,-2.4e-4 v -93.77279 c 0,-13.45177 -13.6584,-22.59647 -26.0974,-17.47321 l -60.4712,24.90821 c -7.0803,2.91641 -11.7008,9.81663 -11.7002,17.47371 l 6e-4,68.86408 -28.3488,2.4e-4 c -10.4357,2.1e-4 -18.8965,8.46097 -18.8965,18.89787"
         sodipodi:nodetypes="cccccccccccccccccccccccc"
         inkscape:label="t" /></g><g
       inkscape:label="PalmPilot"
       id="g170"
       transform="matrix(1.3839977,0,0,1.3839977,542.7235,-259.74541)"
       style="fill:#f2f2f2;stroke:none"><path
         id="path21"
         style="fill:#f2f2f2;fill-opacity:1;stroke:none;stroke-width:3.571;stroke-linecap:round"
         d="m 128.50397,934.92689 h 60.47222 c 10.43706,-1.1e-4 18.89783,-8.46087 18.89782,-18.89782 l -1e-5,-242.52707 75.59078,2e-5 c 34.79878,3e-5 67.36725,-23.98035 85.69574,-52.18569 18.3285,-28.20533 27.68987,-73.58583 27.68987,-138.29391 0,-64.70809 -7.2611,-106.93463 -27.62618,-138.33152 -20.36508,-31.39688 -51.03747,-52.2838 -85.75943,-52.28385 H 128.50397 c -10.43691,5e-5 -18.89767,8.46081 -18.89782,18.89782 v 604.7242 c 1.5e-4,10.43695 8.46092,18.89771 18.89782,18.89782 z M 276.79281,429.82072 c 3.37463,15.3655 4.9877,32.82476 4.9877,55.87988 0,23.05512 -0.82982,35.90053 -4.99089,54.83898 -4.16107,18.93845 -10.36019,40.78752 -25.24548,40.78747 L 207.874,581.327 V 389.019 l 43.67014,-1.6e-4 c 14.95193,-1.7e-4 21.87404,25.43639 25.24867,40.80188 z"
         sodipodi:nodetypes="cccccscscccccscsccccs"
         inkscape:label="P" /><path
         d="m 541.87679,481.3834 c -42.61699,0 -86.62897,19.94426 -102.32226,47.375 -15.69329,27.43073 -21.15334,58.26866 -21.85742,87.70899 -0.25842,10.6143 4.27687,15.3592 14.89453,15.35937 h 63.7539 c 10.43705,-1.7e-4 18.89648,-8.46154 18.89649,-18.89843 v -28.90821 c 0.008,-14.2672 11.57662,-25.82812 25.84375,-25.82812 14.26713,0 25.83575,11.56092 25.84375,25.82812 v 56.04102 c -0.26786,5.34045 -2.54671,7.9778 -8,8 h -54.58399 c -29.90371,2e-5 -56.33358,24.56863 -70.0996,49.71289 -13.76602,25.14426 -20.60743,55.89913 -20.60743,93.68164 0,37.78251 4.79201,64.83621 20.57618,93.70117 15.78416,28.86495 40.12545,49.76942 70.13085,49.76953 h 15.64258 c 16.44376,-1.1e-4 32.17952,-6.69666 43.58008,-18.54687 l 2.11133,-2.19336 8.74805,12.61328 c 3.53096,5.0909 9.33213,8.12684 15.52734,8.12695 h 56.34375 c 10.43697,-1.1e-4 18.89837,-8.45953 18.89844,-18.89648 V 617.4459 c -7e-5,-30.37467 -4.792,-57.428 -20.57617,-86.29296 C 628.83677,502.28799 584.49377,481.3834 541.87679,481.3834 Z m 3.60157,240.32618 h 8.33203 c 8.34951,0 13.11921,4.76774 13.11914,13.11718 v 97.17383 c 7e-5,20.28255 -6.62139,39.35352 -25.76953,39.35352 -19.14813,0 -25.87531,-10.6405 -28.09571,-18.68946 -5.05479,-18.3236 -4.19457,-38.73108 -4,-44.52148 0.22515,-6.70065 0.94211,-26.51974 4.17774,-41.08008 4.39987,-19.79939 12.62148,-45.35351 32.23633,-45.35351 z"
         style="opacity:1;fill:#f2f2f2;stroke:none;stroke-width:3.571;stroke-linecap:square;stroke-miterlimit:0"
         id="path7"
         inkscape:label="a" /><path
         id="path58"
         style="fill:#f2f2f2;fill-opacity:1;stroke:none;stroke-width:3.571;stroke-linecap:round"
         d="m 791.81101,934.92689 -60.47243,-1.1e-4 c -10.43687,0 -18.89763,-8.46076 -18.8976,-18.89771 l -10e-6,-604.7242 c -2e-5,-10.437 8.46074,-18.89777 18.89782,-18.89782 h 60.47222 c 10.43689,5e-5 18.89765,8.46081 18.89782,18.89782 v 604.7242 c -1.7e-4,10.43695 -8.46094,18.89771 -18.89782,18.89782 z"
         sodipodi:nodetypes="ccccccccc"
         inkscape:label="l" /><path
         id="path93"
         style="fill:#f2f2f2;stroke:none;stroke-width:3.571;stroke-linecap:round"
         d="m 2560.6279,1021.6456 c 0,-9.3932 -7.6147,-17.0079 -17.0079,-17.0067 l -1184.8799,9e-4 c -2.0873,-3e-4 -3.7795,-1.6924 -3.7798,-3.7798 V 696.81677 c 3e-4,-12.52445 -10.1526,-22.67735 -22.6786,-22.67758 L 1251.02,674.139 V 565.07006 c 0,-34.58269 -20.3744,-65.91833 -51.9841,-79.94666 -31.6097,-14.02833 -68.5169,-8.11501 -94.1616,15.08666 -6.929,6.26896 -17.3994,6.53274 -24.6353,0.62064 -35.6374,-29.11753 -86.27086,-31.04651 -124.02033,-4.72481 -1.9505,-8.61006 -9.6024,-14.72241 -18.43055,-14.72265 H 876.8502 c -10.43668,2.4e-4 -18.89744,8.461 -18.89732,18.89782 v 415.74801 c -1.2e-4,10.43695 8.46064,18.89771 18.89732,18.89782 h 60.47057 c 10.43464,-1.1e-4 18.8954,-8.46087 18.89517,-18.89782 V 581.54098 c 0.0152,-13.55736 11.00981,-24.53979 24.56715,-24.53979 13.55733,0 24.55191,10.98243 24.56691,24.53979 v 334.48809 c 0,10.43698 8.4629,18.89774 18.8988,18.89782 h 60.4743 c 10.4421,-1.3e-4 18.9028,-8.46088 18.9018,-18.89782 l -10e-4,-334.48809 c 0,-13.56798 10.999,-24.56696 24.5669,-24.56696 13.568,0 24.567,10.99898 24.567,24.56696 v 334.48809 c 0,10.43694 8.4586,18.89769 18.8938,18.89782 h 60.4762 c 10.4349,-1.3e-4 18.8956,-8.46088 18.8938,-18.89782 V 708.155 l 66.1453,6e-5 c 2.0826,9e-5 3.7747,1.69223 3.7747,3.77977 v 304.04327 c 0,12.5224 10.1553,22.6754 22.6785,22.6737 l 1199.999,-1e-4 c 9.3932,0 17.0079,-7.6129 17.0079,-17.0061 z"
         sodipodi:nodetypes="scccccccscccccccccccsccccccscccccccccccs"
         inkscape:label="m" /><path
         id="path6"
         style="display:inline;fill:#f2f2f2;fill-opacity:1;stroke:none;stroke-width:3.571;stroke-linecap:round"
         d="m 1470.2366,934.92689 h 60.4723 c 10.437,-1.1e-4 18.8978,-8.46087 18.8978,-18.89782 V 673.502 l 75.5907,2e-5 c 34.7988,3e-5 67.3673,-23.98035 85.6958,-52.18569 18.3285,-28.20533 27.6899,-73.58583 27.6899,-138.29391 0,-64.70809 -7.2611,-106.93463 -27.6262,-138.33152 -20.3651,-31.39688 -51.0375,-52.2838 -85.7595,-52.28385 h -154.9608 c -10.4369,5e-5 -18.8976,8.46081 -18.8978,18.89782 v 604.7242 c 2e-4,10.43695 8.4609,18.89771 18.8978,18.89782 z m 148.2889,-505.10617 c 3.3746,15.3655 4.9877,32.82476 4.9877,55.87988 0,23.05512 -0.8298,35.90053 -4.9909,54.83898 -4.1611,18.93845 -10.3602,40.78752 -25.2455,40.78747 l -43.6701,-5e-5 V 389.019 l 43.6701,-1.6e-4 c 14.9519,-1.7e-4 21.874,25.43639 25.2487,40.80188 z"
         sodipodi:nodetypes="cccccscscccccscsccccs"
         inkscape:label="P" /><path
         id="path118"
         style="fill:#f2f2f2;stroke:none;stroke-width:3.571;stroke-linecap:round"
         d="m 1865.1984,934.92689 h -60.4762 c -10.4347,-1.3e-4 -18.8954,-8.46088 -18.8938,-18.89782 V 500.28106 c 0,-10.43681 8.4591,-18.89756 18.8938,-18.89782 h 60.4762 c 10.4354,2.6e-4 18.8961,8.46101 18.8938,18.89781 v 415.74802 c 0,10.43694 -8.4584,18.89769 -18.8938,18.89782 z"
         sodipodi:nodetypes="ccccccccc"
         inkscape:label="i" /><path
         id="path126"
         style="fill:#f2f2f2;stroke:none;stroke-width:3.571;stroke-linecap:round"
         d="m 1804.7222,395.35594 h 60.4743 c 10.4334,-8e-5 18.8941,-8.46084 18.8938,-18.89782 l -3e-4,-65.15325 c 0,-10.43699 -8.4585,-18.89775 -18.8939,-18.89782 h -60.4762 c -10.4347,7e-5 -18.8954,8.46083 -18.8938,18.89782 l 3e-4,65.15325 c 4e-4,10.43698 8.4611,18.89774 18.8958,18.89782 z"
         sodipodi:nodetypes="ccccccccc"
         inkscape:label="i" /><path
         id="path8"
         style="fill:#f2f2f2;fill-opacity:1;stroke:none;stroke-width:3.571;stroke-linecap:round"
         d="m 2010.7089,934.92689 -60.4725,-1.1e-4 c -10.4368,0 -18.8976,-8.46076 -18.8976,-18.89771 v -604.7242 c 0,-10.437 8.4608,-18.89777 18.8978,-18.89782 h 60.4723 c 10.4368,5e-5 18.8976,8.46081 18.8978,18.89782 v 604.7242 c -2e-4,10.43695 -8.461,18.89771 -18.8978,18.89782 z"
         sodipodi:nodetypes="ccccccccc"
         inkscape:label="l" /><path
         id="path154"
         style="fill:#f2f2f2;stroke:none;stroke-width:3.571;stroke-linecap:round"
         d="m 2362.2,542.377 v -42.096 m -20.7838,117.16523 -7e-4,181.41766 c -6e-4,66.52931 -47.7523,136.06289 -132.3885,136.06289 -84.6362,0 -132.1766,-69.63706 -132.1768,-136.06289 V 617.44623 c 2e-4,-66.52917 47.752,-136.06275 132.3881,-136.06275 84.6362,0 132.1779,69.63706 132.1779,136.06275 z m -111.4285,-36.02638 c -0.015,-10.83026 -8.7991,-19.6018 -19.6293,-19.6018 -10.8301,0 -19.6138,8.77154 -19.6286,19.6018 l 2e-4,240.49528 c 0.015,10.83023 8.7988,19.60177 19.6289,19.60177 10.8302,0 19.6139,-8.77154 19.629,-19.60177 z"
         sodipodi:nodetypes="ccccccccccsccscc"
         inkscape:label="o" /><path
         id="path170"
         style="fill:#f2f2f2;stroke:none;stroke-width:3.571;stroke-linecap:round"
         d="m 2362.2047,542.37734 c 0,10.4369 8.4608,18.89767 18.8965,18.89765 l 28.3488,10e-6 -6e-4,320.7382 c -6e-4,29.22346 23.6895,52.91359 52.9117,52.91369 h 98.9402 c 10.4381,-8e-5 18.8989,-8.46084 18.8988,-18.89782 v -60.47222 c 0,-10.43705 -8.4567,-18.89781 -18.8948,-18.89782 h -38.4713 c -8.3495,3e-5 -15.1181,-6.76857 -15.1181,-15.11805 V 561.275 l 39.6808,-10e-6 c 10.4377,-3e-5 18.8984,-8.46079 18.8988,-18.89782 v -42.09612 c -4e-4,-10.4368 -8.4611,-18.89755 -18.8988,-18.89781 l -39.6808,-2.4e-4 v -93.77279 c 0,-13.45177 -13.6584,-22.59647 -26.0974,-17.47321 l -60.4712,24.90821 c -7.0803,2.91641 -11.7008,9.81663 -11.7002,17.47371 l 6e-4,68.86408 -28.3488,2.4e-4 c -10.4357,2.1e-4 -18.8965,8.46097 -18.8965,18.89787"
         sodipodi:nodetypes="cccccccccccccccccccccccc"
         inkscape:label="t" /></g></g></svg>
