<?xml version="1.0" encoding="UTF-8" standalone="no"?>
<!-- Created with Inkscape (http://www.inkscape.org/) -->

<svg
   width="662.0202mm"
   height="114.74555mm"
   viewBox="0 0 662.0202 114.74556"
   version="1.1"
   id="svg1"
   inkscape:version="1.4 (86a8ad7, 2024-10-11)"
   xml:space="preserve"
   sodipodi:docname="pixn_v2.svg"
   xmlns:inkscape="http://www.inkscape.org/namespaces/inkscape"
   xmlns:sodipodi="http://sodipodi.sourceforge.net/DTD/sodipodi-0.dtd"
   xmlns:xlink="http://www.w3.org/1999/xlink"
   xmlns="http://www.w3.org/2000/svg"
   xmlns:svg="http://www.w3.org/2000/svg"><sodipodi:namedview
     id="namedview1"
     pagecolor="#ffffff"
     bordercolor="#000000"
     borderopacity="0.25"
     inkscape:showpageshadow="2"
     inkscape:pageopacity="0.0"
     inkscape:pagecheckerboard="true"
     inkscape:deskcolor="#d1d1d1"
     inkscape:document-units="mm"
     inkscape:zoom="0.98636214"
     inkscape:cx="1251.0618"
     inkscape:cy="216.45194"
     inkscape:window-width="3840"
     inkscape:window-height="2066"
     inkscape:window-x="-11"
     inkscape:window-y="-11"
     inkscape:window-maximized="1"
     inkscape:current-layer="svg1" /><defs
     id="defs1"><linearGradient
       id="linearGradient9"
       inkscape:collect="always"><stop
         style="stop-color:#01ffff;stop-opacity:1;"
         offset="0"
         id="stop10" /><stop
         style="stop-color:#01ffff;stop-opacity:1;"
         offset="0.2406202"
         id="stop17" /><stop
         style="stop-color:#0061fc;stop-opacity:1;"
         offset="0.99989998"
         id="stop12" /><stop
         style="stop-color:#0062fc;stop-opacity:1;"
         offset="1"
         id="stop11" /></linearGradient><linearGradient
       inkscape:collect="always"
       xlink:href="#linearGradient9"
       id="linearGradient11"
       x1="215.72667"
       y1="134.43163"
       x2="215.72667"
       y2="101.04239"
       gradientUnits="userSpaceOnUse"
       spreadMethod="repeat"
       gradientTransform="matrix(1.0131695,0,0,1.0131695,105.38495,-80.760907)" /><linearGradient
       inkscape:collect="always"
       xlink:href="#linearGradient9"
       id="linearGradient21"
       gradientUnits="userSpaceOnUse"
       x1="215.72667"
       y1="134.43163"
       x2="215.72667"
       y2="101.04239"
       spreadMethod="repeat"
       gradientTransform="matrix(1.0131695,0,0,1.0131695,112.76727,-31.269511)" /><filter
       style="color-interpolation-filters:sRGB"
       inkscape:label="Blur"
       id="filter215"
       x="-0.0036098773"
       y="-0.026103798"
       width="1.0072198"
       height="1.0522076"><feGaussianBlur
         stdDeviation="1 1"
         result="blur"
         id="feGaussianBlur215" /></filter><linearGradient
       inkscape:collect="always"
       xlink:href="#linearGradient9"
       id="linearGradient229"
       gradientUnits="userSpaceOnUse"
       gradientTransform="matrix(1.0265124,0,0,1,109.31152,-76.918808)"
       x1="215.72667"
       y1="134.43163"
       x2="215.72667"
       y2="101.04239"
       spreadMethod="repeat" /><linearGradient
       inkscape:collect="always"
       xlink:href="#linearGradient9"
       id="linearGradient230"
       gradientUnits="userSpaceOnUse"
       gradientTransform="matrix(1.0131695,0,0,1.0131695,105.38495,-80.760907)"
       x1="215.72667"
       y1="134.43163"
       x2="215.72667"
       y2="101.04239"
       spreadMethod="repeat" /><linearGradient
       inkscape:collect="always"
       xlink:href="#linearGradient9"
       id="linearGradient234"
       gradientUnits="userSpaceOnUse"
       gradientTransform="matrix(1.0265124,0,0,1,116.79106,-28.070716)"
       x1="215.72667"
       y1="134.43163"
       x2="215.72667"
       y2="101.04239"
       spreadMethod="repeat" /><filter
       style="color-interpolation-filters:sRGB"
       inkscape:label="Blur"
       id="filter1"
       x="-0.0043948082"
       y="-0.026452729"
       width="1.0087896"
       height="1.0529055"><feGaussianBlur
         stdDeviation="1.2 1.2"
         result="blur"
         id="feGaussianBlur1" /></filter></defs><g
     id="g53"
     style="display:none;fill:#000000"
     transform="translate(3.8332415,2.9822724)"
     inkscape:label="TextShadow"><text
       xml:space="preserve"
       style="font-size:54.1576px;line-height:0;font-family:'Microgramma D Extended';-inkscape-font-specification:'Microgramma D Extended';text-align:start;letter-spacing:0px;word-spacing:0px;writing-mode:lr-tb;direction:ltr;text-anchor:start;fill:#000000;fill-opacity:1;stroke:#000000;stroke-width:4.31896;stroke-linecap:square;stroke-linejoin:round;stroke-miterlimit:8;stroke-dasharray:none;stroke-opacity:1;paint-order:fill markers stroke"
       x="324.71481"
       y="39.72081"
       id="text38"
       transform="scale(1.0049175,0.99510656)"
       inkscape:label="Team"><tspan
         sodipodi:role="line"
         style="font-style:italic;font-variant:normal;font-weight:normal;font-stretch:normal;font-family:Zebulon;-inkscape-font-specification:'Zebulon Italic';text-align:center;letter-spacing:0px;text-anchor:middle;fill:#000000;fill-opacity:1;stroke:#000000;stroke-width:4.31896;stroke-linejoin:round;stroke-dasharray:none;stroke-opacity:1"
         x="324.71481"
         y="39.72081"
         id="tspan38">TE<tspan
   style="font-style:normal;font-variant:normal;font-weight:normal;font-stretch:normal;font-family:Zebulon;-inkscape-font-specification:Zebulon;fill:#000000;fill-opacity:1;stroke:#000000;stroke-width:4.31896;stroke-linejoin:round;stroke-dasharray:none;stroke-opacity:1"
   id="tspan37">A</tspan>M</tspan></text><text
       xml:space="preserve"
       style="font-size:54.1576px;line-height:0;font-family:'Microgramma D Extended';-inkscape-font-specification:'Microgramma D Extended';text-align:start;letter-spacing:0px;word-spacing:0px;writing-mode:lr-tb;direction:ltr;text-anchor:start;fill:#000000;fill-opacity:1;stroke:#000000;stroke-width:4.31896;stroke-linecap:square;stroke-linejoin:round;stroke-miterlimit:8;stroke-dasharray:none;stroke-opacity:1;paint-order:fill markers stroke"
       x="332.17206"
       y="89.714462"
       id="text41"
       transform="scale(1.0049175,0.99510656)"
       inkscape:label="PixelNostalgia"><tspan
         sodipodi:role="line"
         style="font-style:italic;font-variant:normal;font-weight:normal;font-stretch:normal;font-family:Zebulon;-inkscape-font-specification:'Zebulon Italic';text-align:center;letter-spacing:0px;text-anchor:middle;fill:#000000;fill-opacity:1;stroke:#000000;stroke-width:4.31896;stroke-linejoin:round;stroke-dasharray:none;stroke-opacity:1"
         x="332.17206"
         y="89.714462"
         id="tspan41">PIXEL NOST<tspan
   style="font-style:normal;font-variant:normal;font-weight:normal;font-stretch:normal;font-family:Zebulon;-inkscape-font-specification:Zebulon;fill:#000000;fill-opacity:1;stroke:#000000;stroke-width:4.31896;stroke-linejoin:round;stroke-dasharray:none;stroke-opacity:1"
   id="tspan39">A</tspan>LGI<tspan
   style="font-style:normal;font-variant:normal;font-weight:normal;font-stretch:normal;font-family:Zebulon;-inkscape-font-specification:Zebulon;fill:#000000;fill-opacity:1;stroke:#000000;stroke-width:4.31896;stroke-linejoin:round;stroke-dasharray:none;stroke-opacity:1"
   id="tspan40">A</tspan></tspan></text><text
       xml:space="preserve"
       style="font-size:53.6136px;line-height:0;font-family:'Microgramma D Extended';-inkscape-font-specification:'Microgramma D Extended';text-align:start;letter-spacing:0px;word-spacing:0px;writing-mode:lr-tb;direction:ltr;text-anchor:start;fill:#000000;fill-opacity:0.972549;stroke:#000000;stroke-width:1.07227;stroke-linecap:square;stroke-miterlimit:8;stroke-opacity:1;paint-order:fill markers stroke"
       x="321.29865"
       y="39.400574"
       id="text43"
       transform="scale(1.0131695,0.98700169)"
       inkscape:label="Team"><tspan
         sodipodi:role="line"
         style="font-style:italic;font-variant:normal;font-weight:normal;font-stretch:normal;font-family:Zebulon;-inkscape-font-specification:'Zebulon Italic';text-align:center;letter-spacing:0px;text-anchor:middle;fill:#000000;fill-opacity:0.972549;stroke:#000000;stroke-width:1.07227;stroke-opacity:1"
         x="321.29865"
         y="39.400574"
         id="tspan43">TE<tspan
   style="font-style:normal;font-variant:normal;font-weight:normal;font-stretch:normal;font-family:Zebulon;-inkscape-font-specification:Zebulon;fill:#000000;fill-opacity:0.972549;stroke:#000000;stroke-width:1.07227;stroke-opacity:1"
   id="tspan42">A</tspan>M</tspan></text><text
       xml:space="preserve"
       style="font-size:53.6136px;line-height:0;font-family:'Microgramma D Extended';-inkscape-font-specification:'Microgramma D Extended';text-align:start;letter-spacing:0px;word-spacing:0px;writing-mode:lr-tb;direction:ltr;text-anchor:start;fill:#000000;fill-opacity:0.972549;stroke:#000000;stroke-width:1.07227;stroke-linecap:square;stroke-miterlimit:8;stroke-opacity:1;paint-order:fill markers stroke"
       x="328.68097"
       y="88.892014"
       id="text46"
       transform="scale(1.0131695,0.98700169)"
       inkscape:label="PixelNostalgia"><tspan
         sodipodi:role="line"
         style="font-style:italic;font-variant:normal;font-weight:normal;font-stretch:normal;font-family:Zebulon;-inkscape-font-specification:'Zebulon Italic';text-align:center;letter-spacing:0px;text-anchor:middle;fill:#000000;fill-opacity:0.972549;stroke:#000000;stroke-width:1.07227;stroke-opacity:1"
         x="328.681"
         y="88.892014"
         id="tspan46">PIXEL NOST<tspan
   style="font-style:normal;font-variant:normal;font-weight:normal;font-stretch:normal;font-family:Zebulon;-inkscape-font-specification:Zebulon;fill:#000000;fill-opacity:0.972549;stroke:#000000;stroke-width:1.07227;stroke-opacity:1"
   id="tspan44">A</tspan>LGI<tspan
   style="font-style:normal;font-variant:normal;font-weight:normal;font-stretch:normal;font-family:Zebulon;-inkscape-font-specification:Zebulon;fill:#000000;fill-opacity:0.972549;stroke:#000000;stroke-width:1.07227;stroke-opacity:1"
   id="tspan45">A</tspan></tspan></text><text
       xml:space="preserve"
       style="font-size:53.6136px;line-height:0;font-family:'Microgramma D Extended';-inkscape-font-specification:'Microgramma D Extended';text-align:start;letter-spacing:0px;word-spacing:0px;writing-mode:lr-tb;direction:ltr;text-anchor:start;fill:#000000;stroke:#000000;stroke-width:1.07227;stroke-linecap:square;stroke-miterlimit:8;paint-order:fill markers stroke"
       x="321.82092"
       y="40.012539"
       id="text48"
       transform="scale(1.0131695,0.98700169)"
       inkscape:label="Team"><tspan
         sodipodi:role="line"
         style="font-style:italic;font-variant:normal;font-weight:normal;font-stretch:normal;font-family:Zebulon;-inkscape-font-specification:'Zebulon Italic';text-align:center;letter-spacing:0px;text-anchor:middle;fill:#000000;fill-opacity:1;stroke:#000000;stroke-width:1.07227"
         x="321.82092"
         y="40.012539"
         id="tspan48">TE<tspan
   style="font-style:normal;font-variant:normal;font-weight:normal;font-stretch:normal;font-family:Zebulon;-inkscape-font-specification:Zebulon;fill:#000000;fill-opacity:1;stroke:#000000;stroke-width:1.07227"
   id="tspan47">A</tspan>M</tspan></text><text
       xml:space="preserve"
       style="font-size:53.6136px;line-height:0;font-family:'Microgramma D Extended';-inkscape-font-specification:'Microgramma D Extended';text-align:start;letter-spacing:0px;word-spacing:0px;writing-mode:lr-tb;direction:ltr;text-anchor:start;fill:#000000;fill-opacity:1;stroke:#000000;stroke-width:1.07227;stroke-linecap:square;stroke-miterlimit:8;paint-order:fill markers stroke"
       x="329.20325"
       y="89.503983"
       id="text51"
       transform="scale(1.0131695,0.98700169)"
       inkscape:label="PixelNostalgia"><tspan
         sodipodi:role="line"
         style="font-style:italic;font-variant:normal;font-weight:normal;font-stretch:normal;font-family:Zebulon;-inkscape-font-specification:'Zebulon Italic';text-align:center;letter-spacing:0px;text-anchor:middle;fill:#000000;fill-opacity:1;stroke:#000000;stroke-width:1.07227"
         x="329.20328"
         y="89.503983"
         id="tspan51">PIXEL NOST<tspan
   style="font-style:normal;font-variant:normal;font-weight:normal;font-stretch:normal;font-family:Zebulon;-inkscape-font-specification:Zebulon;fill:#000000;stroke:#000000;stroke-width:1.07227"
   id="tspan49">A</tspan>LGI<tspan
   style="font-style:normal;font-variant:normal;font-weight:normal;font-stretch:normal;font-family:Zebulon;-inkscape-font-specification:Zebulon;fill:#000000;stroke:#000000;stroke-width:1.07227"
   id="tspan50">A</tspan></tspan></text></g><g
     id="g36"
     transform="matrix(1.0019201,0,0,1.0184424,2.1699498,2.1496782)"
     style="display:none;fill:#01eafe;fill-opacity:1;stroke:#01eafe;stroke-width:4.27557;stroke-linejoin:round;stroke-dasharray:none;stroke-opacity:1"
     inkscape:label="TextOutline"><text
       xml:space="preserve"
       style="font-size:53.6136px;line-height:0;font-family:'Microgramma D Extended';-inkscape-font-specification:'Microgramma D Extended';text-align:start;letter-spacing:0px;word-spacing:0px;writing-mode:lr-tb;direction:ltr;text-anchor:start;fill:#01eafe;fill-opacity:1;stroke:#01eafe;stroke-width:4.27557;stroke-linecap:square;stroke-linejoin:round;stroke-miterlimit:8;stroke-dasharray:none;stroke-opacity:1;paint-order:fill markers stroke"
       x="319.32556"
       y="37.173492"
       id="text33"
       transform="scale(1.0131695,0.98700169)"
       inkscape:label="Team"><tspan
         sodipodi:role="line"
         style="font-style:italic;font-variant:normal;font-weight:normal;font-stretch:normal;font-family:Zebulon;-inkscape-font-specification:'Zebulon Italic';text-align:center;letter-spacing:0px;text-anchor:middle;fill:#01eafe;fill-opacity:1;stroke:#01eafe;stroke-width:4.27557;stroke-linejoin:round;stroke-dasharray:none;stroke-opacity:1"
         x="319.32556"
         y="37.173492"
         id="tspan33">TE<tspan
   style="font-style:normal;font-variant:normal;font-weight:normal;font-stretch:normal;font-family:Zebulon;-inkscape-font-specification:Zebulon;fill:#01eafe;fill-opacity:1;stroke:#01eafe;stroke-width:4.27557;stroke-linejoin:round;stroke-dasharray:none;stroke-opacity:1"
   id="tspan32">A</tspan>M</tspan></text><text
       xml:space="preserve"
       style="font-size:53.6136px;line-height:0;font-family:'Microgramma D Extended';-inkscape-font-specification:'Microgramma D Extended';text-align:start;letter-spacing:0px;word-spacing:0px;writing-mode:lr-tb;direction:ltr;text-anchor:start;fill:#01eafe;fill-opacity:1;stroke:#01eafe;stroke-width:4.27557;stroke-linecap:square;stroke-linejoin:round;stroke-miterlimit:8;stroke-dasharray:none;stroke-opacity:1;paint-order:fill markers stroke"
       x="326.70789"
       y="86.664932"
       id="text36"
       transform="scale(1.0131695,0.98700169)"
       inkscape:label="PixelNostalgia"><tspan
         sodipodi:role="line"
         style="font-style:italic;font-variant:normal;font-weight:normal;font-stretch:normal;font-family:Zebulon;-inkscape-font-specification:'Zebulon Italic';text-align:center;letter-spacing:0px;text-anchor:middle;fill:#01eafe;fill-opacity:1;stroke:#01eafe;stroke-width:4.27557;stroke-linejoin:round;stroke-dasharray:none;stroke-opacity:1"
         x="326.70792"
         y="86.664932"
         id="tspan36">PIXEL NOST<tspan
   style="font-style:normal;font-variant:normal;font-weight:normal;font-stretch:normal;font-family:Zebulon;-inkscape-font-specification:Zebulon;fill:#01eafe;fill-opacity:1;stroke:#01eafe;stroke-width:4.27557;stroke-linejoin:round;stroke-dasharray:none;stroke-opacity:1"
   id="tspan34">A</tspan>LGI<tspan
   style="font-style:normal;font-variant:normal;font-weight:normal;font-stretch:normal;font-family:Zebulon;-inkscape-font-specification:Zebulon;fill:#01eafe;fill-opacity:1;stroke:#01eafe;stroke-width:4.27557;stroke-linejoin:round;stroke-dasharray:none;stroke-opacity:1"
   id="tspan35">A</tspan></tspan></text></g><g
     id="g32"
     style="display:none;fill:#008cfc;fill-opacity:0.972549;stroke:#008efd;stroke-opacity:1"
     transform="translate(2.0095391,2.1883338)"
     inkscape:label="TextInline"><text
       xml:space="preserve"
       style="font-size:53.6136px;line-height:0;font-family:'Microgramma D Extended';-inkscape-font-specification:'Microgramma D Extended';text-align:start;letter-spacing:0px;word-spacing:0px;writing-mode:lr-tb;direction:ltr;text-anchor:start;fill:#008cfc;fill-opacity:0.972549;stroke:#008efd;stroke-width:1.07227;stroke-linecap:square;stroke-miterlimit:8;stroke-opacity:1;paint-order:fill markers stroke"
       x="319.32556"
       y="37.173492"
       id="text28"
       transform="scale(1.0131695,0.98700169)"
       inkscape:label="Team"><tspan
         sodipodi:role="line"
         style="font-style:italic;font-variant:normal;font-weight:normal;font-stretch:normal;font-family:Zebulon;-inkscape-font-specification:'Zebulon Italic';text-align:center;letter-spacing:0px;text-anchor:middle;fill:#008cfc;fill-opacity:0.972549;stroke:#008efd;stroke-width:1.07227;stroke-opacity:1"
         x="319.32556"
         y="37.173492"
         id="tspan28">TE<tspan
   style="font-style:normal;font-variant:normal;font-weight:normal;font-stretch:normal;font-family:Zebulon;-inkscape-font-specification:Zebulon;fill:#008cfc;fill-opacity:0.972549;stroke:#008efd;stroke-width:1.07227;stroke-opacity:1"
   id="tspan27">A</tspan>M</tspan></text><text
       xml:space="preserve"
       style="font-size:53.6136px;line-height:0;font-family:'Microgramma D Extended';-inkscape-font-specification:'Microgramma D Extended';text-align:start;letter-spacing:0px;word-spacing:0px;writing-mode:lr-tb;direction:ltr;text-anchor:start;fill:#008cfc;fill-opacity:0.972549;stroke:#008efd;stroke-width:1.07227;stroke-linecap:square;stroke-miterlimit:8;stroke-opacity:1;paint-order:fill markers stroke"
       x="326.70789"
       y="86.664932"
       id="text31"
       transform="scale(1.0131695,0.98700169)"
       inkscape:label="PixelNostalgia"><tspan
         sodipodi:role="line"
         style="font-style:italic;font-variant:normal;font-weight:normal;font-stretch:normal;font-family:Zebulon;-inkscape-font-specification:'Zebulon Italic';text-align:center;letter-spacing:0px;text-anchor:middle;fill:#008cfc;fill-opacity:0.972549;stroke:#008efd;stroke-width:1.07227;stroke-opacity:1"
         x="326.70792"
         y="86.664932"
         id="tspan31">PIXEL NOST<tspan
   style="font-style:normal;font-variant:normal;font-weight:normal;font-stretch:normal;font-family:Zebulon;-inkscape-font-specification:Zebulon;fill:#008cfc;fill-opacity:0.972549;stroke:#008efd;stroke-width:1.07227;stroke-opacity:1"
   id="tspan29">A</tspan>LGI<tspan
   style="font-style:normal;font-variant:normal;font-weight:normal;font-stretch:normal;font-family:Zebulon;-inkscape-font-specification:Zebulon;fill:#008cfc;fill-opacity:0.972549;stroke:#008efd;stroke-width:1.07227;stroke-opacity:1"
   id="tspan30">A</tspan></tspan></text></g><g
     id="g31"
     transform="translate(2.5387057,2.7923444)"
     style="display:none"
     inkscape:label="TextLogo"><text
       xml:space="preserve"
       style="font-size:53.6136px;line-height:0;font-family:'Microgramma D Extended';-inkscape-font-specification:'Microgramma D Extended';text-align:start;letter-spacing:0px;word-spacing:0px;writing-mode:lr-tb;direction:ltr;text-anchor:start;fill:url(#linearGradient11);stroke:none;stroke-width:1.07227;stroke-linecap:square;stroke-miterlimit:8;paint-order:fill markers stroke"
       x="319.32556"
       y="37.173492"
       id="text1-8"
       transform="scale(1.0131695,0.98700169)"
       inkscape:label="Team"><tspan
         sodipodi:role="line"
         style="font-style:italic;font-variant:normal;font-weight:normal;font-stretch:normal;font-family:Zebulon;-inkscape-font-specification:'Zebulon Italic';text-align:center;letter-spacing:0px;text-anchor:middle;fill:url(#linearGradient11);fill-opacity:1;stroke:none;stroke-width:1.07227"
         x="319.32556"
         y="37.173492"
         id="tspan3-8">TE<tspan
   style="font-style:normal;font-variant:normal;font-weight:normal;font-stretch:normal;font-family:Zebulon;-inkscape-font-specification:Zebulon;fill:url(#linearGradient11);fill-opacity:1;stroke:none;stroke-width:1.07227"
   id="tspan6">A</tspan>M</tspan></text><text
       xml:space="preserve"
       style="font-size:53.6136px;line-height:0;font-family:'Microgramma D Extended';-inkscape-font-specification:'Microgramma D Extended';text-align:start;letter-spacing:0px;word-spacing:0px;writing-mode:lr-tb;direction:ltr;text-anchor:start;display:inline;fill:url(#linearGradient21);fill-opacity:1;stroke:none;stroke-width:1.07227;stroke-linecap:square;stroke-miterlimit:8;paint-order:fill markers stroke"
       x="326.70789"
       y="86.664932"
       id="text1-8-7"
       transform="scale(1.0131695,0.98700169)"
       inkscape:label="PixelNostalgia"><tspan
         sodipodi:role="line"
         style="font-style:italic;font-variant:normal;font-weight:normal;font-stretch:normal;font-family:Zebulon;-inkscape-font-specification:'Zebulon Italic';text-align:center;letter-spacing:0px;text-anchor:middle;fill:url(#linearGradient21);fill-opacity:1;stroke:none;stroke-width:1.07227"
         x="326.70792"
         y="86.664932"
         id="tspan3-8-6">PIXEL NOST<tspan
   style="font-style:normal;font-variant:normal;font-weight:normal;font-stretch:normal;font-family:Zebulon;-inkscape-font-specification:Zebulon;fill:url(#linearGradient21);stroke:none;stroke-width:1.07227"
   id="tspan22">A</tspan>LGI<tspan
   style="font-style:normal;font-variant:normal;font-weight:normal;font-stretch:normal;font-family:Zebulon;-inkscape-font-specification:Zebulon;fill:url(#linearGradient21);stroke:none;stroke-width:1.07227"
   id="tspan21">A</tspan></tspan></text></g><path
     id="path130"
     style="font-size:54.1576px;font-family:'Microgramma D Extended';-inkscape-font-specification:'Zebulon Italic';letter-spacing:0px;word-spacing:0px;display:none;fill:#000000;stroke:none;stroke-width:4.31896;stroke-linecap:butt;stroke-linejoin:miter;stroke-miterlimit:8;paint-order:fill markers stroke"
     d="m 237.26834,2.9920832 c -0.98239,2.614e-4 -1.84211,0.6539467 -2.096,1.5937011 l -2.41794,8.9482907 c -0.36756,1.364065 0.67029,2.702576 2.096,2.703194 h 15.77423 l -7.08122,26.242326 c -0.36756,1.364065 0.67029,2.702576 2.096,2.703194 h 11.95689 c 0.98335,8.96e-4 1.84444,-0.653029 2.09858,-1.593701 l 7.38146,-27.351819 h 15.6099 c -0.24652,0.672114 -0.52373,1.317942 -0.71675,2.032951 l -2.84376,10.526489 c -6.7e-4,0.0026 -10e-4,0.0052 -0.002,0.0078 -0.47963,1.804786 -0.73588,3.489166 -0.73588,5.072558 0,3.578417 1.52385,6.744043 4.34341,8.645467 2.81957,1.901425 6.63273,2.660303 11.4055,2.660303 h 26.78752 0.45113 14.43013 c 0.63369,3.56e-4 1.23588,-0.273557 1.64848,-0.749825 l 6.17895,-7.142716 h 14.23737 v 5.744869 c 8.1e-4,1.186599 0.97263,2.148008 2.17093,2.147672 h 11.95896 c 0.22007,-0.0097 0.43736,-0.05261 0.6444,-0.127124 0.17724,0.06599 0.36243,0.108727 0.55087,0.127124 h 11.95896 c 0.9818,-1.1e-5 1.84132,-0.6527 2.096,-1.591634 l 4.55579,-16.829464 0.71831,10.660848 v 0.139527 c 0,2.196415 0.62071,4.243101 2.09806,5.651851 1.47736,1.40875 3.5499,1.968872 5.81153,1.968872 h 2.65772 c 4.60776,0 8.49617,-2.543229 10.74766,-6.842993 l -0.0646,0.116272 6.48694,-10.704773 -3.98632,14.7283 c -0.36756,1.364065 0.67029,2.702576 2.096,2.703194 h 11.95896 c 0.98239,-2.66e-4 1.8421,-0.65395 2.09599,-1.593701 l 6.53604,-24.208858 0.002,-0.0021 c 0.55023,-2.047906 0.84387,-3.934669 0.84387,-5.684925 0,-3.308096 -1.199,-6.2507769 -3.58996,-8.1049309 -2.39095,-1.8541539 -5.64989,-2.596224 -9.60923,-2.5962239 -6.58685,-10e-8 -12.09571,4.3978094 -16.1029,12.0333738 l -2.50372,4.292244 -0.13746,-3.274735 v -0.427379 c 0,-3.772751 -0.72318,-6.8906954 -2.54403,-9.1834188 -1.82085,-2.2927236 -4.7107,-3.4401001 -7.94318,-3.4401 -5.00872,0 -9.34833,1.2597244 -12.72636,3.8793497 -3.37804,2.6196255 -5.69735,6.5115311 -7.01662,11.3987871 l -3.46594,12.837976 V 16.194894 c 0,-4.046479 -1.07171,-7.4735441 -3.46852,-9.8190381 -2.39682,-2.3454941 -5.87368,-3.3837728 -9.99578,-3.3837727 -5.07785,0 -9.47212,1.5970864 -12.69535,4.7888549 -0.0443,0.043473 -0.0867,0.088818 -0.12712,0.135909 L 325.92443,33.799505 c -0.14512,-1.058139 -1.0528,-1.850272 -2.13114,-1.859835 h -27.23865 c -0.92051,0 -1.30729,-0.204934 -1.36425,-0.250631 -0.057,-0.0457 -0.10594,0.01071 -0.10594,-0.520898 0,-0.102379 0.0555,-0.317649 0.0708,-0.45682 h 30.12581 c 0.98258,-3.3e-5 1.84257,-0.653765 2.09651,-1.593701 l 2.41794,-8.946224 c 0.36964,-1.364958 -0.66888,-2.705614 -2.096,-2.705778 H 299.2103 c 0.11205,-0.123339 0.17765,-0.425807 0.29662,-0.520899 0.5559,-0.444326 1.26511,-0.70745 2.44326,-0.70745 h 27.26449 c 0.9848,-2.3e-5 1.84615,-0.656642 2.09806,-1.599385 l 2.39055,-8.946224 c 0.36466,-1.3628141 -0.67226,-2.6983287 -2.096,-2.6995768 h -27.23916 c -5.8372,-1e-7 -10.76178,1.2062279 -14.60066,3.7935668 -0.71534,0.4821252 -1.34567,1.0587068 -1.97611,1.6329753 l 0.73588,-2.7212809 c 0.36928,-1.3649859 -0.66947,-2.7053445 -2.09652,-2.7052612 z M 357.87028,20.054607 v 3.989938 h -3.12642 z M 16.251341,52.741501 c -0.980758,-4.28e-4 -1.839932,0.650519 -2.095996,1.588017 l -2.443778,8.946224 c -0.373641,1.366125 0.665149,2.710684 2.094445,2.710945 h 33.882686 c 0.341605,0 0.309323,0.02294 0.494544,0.05478 l -0.168982,0.646989 c -0.05556,0.200082 -0.01656,0.156149 -0.21394,0.262516 -0.197377,0.106368 -0.725673,0.264067 -1.601453,0.264067 H 12.318248 c -0.982585,3.1e-5 -1.84257,0.653762 -2.096513,1.593698 L 3.8960232,92.229013 c -0.3675616,1.364064 0.6702887,2.702573 2.095996,2.703194 H 17.950979 c 0.982586,-3.1e-5 1.842571,-0.653764 2.096513,-1.593701 l 3.475756,-12.877767 h 20.257679 c 5.357571,0 9.836198,-0.959403 13.342338,-3.078882 0.57766,-0.349199 1.078481,-0.778536 1.595768,-1.191141 l -4.331519,16.038297 c -0.367562,1.364064 0.670289,2.702573 2.095996,2.703194 h 9.85883 2.10013 12.914458 c 0.4675,3.25e-4 0.92261,-0.148841 1.297595,-0.425297 L 97.215908,83.745293 120.47236,111.06507 c 0.41246,0.50675 1.03462,0.8011 1.69189,0.80047 h 15.01304 c 1.82209,0.001 2.83447,-2.08725 1.69395,-3.49436 L 110.6306,73.698361 128.01919,60.959087 c -1.46341,2.033525 -2.5948,4.384788 -3.31711,7.060551 l -2.8422,10.524422 c -6.7e-4,0.0033 -0.001,0.0065 -0.002,0.0098 -0.47964,1.804786 -0.73587,3.489683 -0.73587,5.073075 0,3.578418 1.52384,6.743526 4.34341,8.644951 2.81956,1.901424 6.63272,2.660819 11.4055,2.660819 h 27.23865 c 0.98258,-3.3e-5 1.84257,-0.653765 2.09651,-1.593701 l 1.26401,-4.67465 c 0.73246,1.435573 1.79237,2.677218 3.1719,3.607532 2.81955,1.901424 6.63219,2.660819 11.40498,2.660819 h 27.23917 c 0.98239,-2.66e-4 1.8421,-0.65395 2.09599,-1.593701 l 2.41795,-8.946224 c 0.36798,-1.364244 -0.67001,-2.703183 -2.096,-2.703711 h -27.23865 c -0.92051,0 -1.30731,-0.207002 -1.36426,-0.252698 -0.057,-0.0457 -0.10593,0.01071 -0.10593,-0.520898 0,-0.282708 0.0537,-0.716772 0.19223,-1.259355 l 0.002,-0.0062 6.53397,-24.204724 c 0.36803,-1.364446 -0.67031,-2.703515 -2.09651,-2.703711 h -11.95845 c -0.13974,0.08314 -0.26958,0.181597 -0.38705,0.293522 -0.28707,-0.168231 -0.60944,-0.268672 -0.94207,-0.293522 h -27.23658 c -4.8528,0 -9.03237,0.888869 -12.5243,2.656685 0.32278,-1.305889 -0.63088,-2.581327 -1.98644,-2.656685 h -15.01459 c -0.46774,2.73e-4 -0.92287,0.150171 -1.29759,0.427364 L 101.72054,63.928932 93.278681,53.544036 c -0.411596,-0.506962 -1.032922,-0.802044 -1.68982,-0.802535 h -12.914974 -2.10013 -9.85883 c -0.982393,2.63e-4 -1.842103,0.653948 -2.095996,1.593701 l -0.949813,3.518132 C 62.959006,56.716542 62.024907,55.718358 60.824848,54.99201 58.145195,53.370126 54.588436,52.741501 50.106639,52.741501 Z m 263.722399,0 c -4.97428,0 -9.23921,1.11731 -12.5677,3.500561 -3.32848,2.383251 -5.60053,5.980237 -6.80476,10.463961 l -6.90655,25.520923 c -0.36922,1.364776 0.66916,2.704999 2.09599,2.705261 h 11.9569 c 0.98199,2.18e-4 1.84178,-0.652518 2.09651,-1.591634 l 6.2513,-23.085412 7.14013,17.74672 c 1.68665,4.350731 5.60932,6.930326 10.4221,6.930326 4.97427,0 9.23909,-1.115701 12.57133,-3.497977 1.64066,-1.17294 3.02054,-2.646732 4.1491,-4.369243 0.66619,2.112632 1.90067,3.951312 3.76256,5.206918 2.81957,1.901425 6.6348,2.660302 11.40757,2.660302 h 15.94322 c 5.77934,0 10.55236,-0.942433 14.27509,-3.043225 0.75014,-0.423317 1.41861,-0.931755 2.07223,-1.452108 l -0.48059,1.797823 c -0.36322,1.362914 0.67459,2.697241 2.09806,2.69751 h 33.8553 c 5.35756,0 9.83415,-0.958004 13.33665,-3.078365 3.50008,-2.118897 5.90076,-5.438239 7.01301,-9.560657 l 0.004,-0.0078 0.36535,-1.290361 c 0.003,-0.0096 0.005,-0.01928 0.008,-0.02894 0.35794,-1.33904 0.55191,-2.626107 0.55191,-3.865914 0,-3.164801 -1.55626,-6.014343 -4.23592,-7.636227 -2.67965,-1.621884 -6.23487,-2.248958 -10.71666,-2.248958 h -18.60248 c -0.32576,0 -0.28898,-0.02205 -0.47129,-0.05219 l 0.1788,-0.674378 c 0.0518,-0.195343 0.003,-0.136782 0.19224,-0.239261 0.18887,-0.102479 0.71223,-0.262517 1.58801,-0.262517 h 33.88269 c 0.19243,-0.104638 0.36771,-0.237581 0.51986,-0.394291 0.23874,0.186032 0.51426,0.320359 0.80874,0.394291 h 15.77475 l -7.08174,26.242326 c -0.36756,1.364065 0.67029,2.702576 2.096,2.703194 h 11.95896 c 0.98258,-3.3e-5 1.84257,-0.653765 2.09651,-1.593701 l 7.38146,-27.351819 h 16.93643 c 0.98259,-2.8e-5 1.84258,-0.653762 2.09652,-1.593701 l 2.41794,-8.946224 c 0.36922,-1.36478 -0.66916,-2.705006 -2.096,-2.705261 h -49.16289 c -0.13956,0.08317 -0.26922,0.181628 -0.38654,0.293522 -0.28707,-0.16823 -0.60943,-0.268671 -0.94206,-0.293522 h -33.88269 c -5.35757,0 -9.83208,0.958004 -13.33458,3.078365 -1.95637,1.184358 -3.53075,2.776604 -4.76767,4.641577 -0.67958,-2.048086 -1.89169,-3.831287 -3.70934,-5.057056 -2.81957,-1.901425 -6.63272,-2.662886 -11.4055,-2.662886 h -15.94528 c -5.8372,0 -10.76178,1.206745 -14.60066,3.794084 -0.71523,0.482053 -1.34419,1.058289 -1.97456,1.632458 l 0.73433,-2.722831 c 0.36803,-1.36445 -0.67031,-2.703522 -2.09652,-2.703711 h -11.95689 c -0.39982,0.149786 -0.74606,0.413153 -0.99529,0.75706 h -0.15761 l -0.0413,0.151412 c -0.35772,0.145288 -0.66975,0.382566 -0.90382,0.687296 l -6.22391,23.085413 -7.16597,-17.750338 c -1.68667,-4.350731 -5.60933,-6.930843 -10.42211,-6.930843 z m 208.91283,0 c -5.07785,0 -9.4716,1.595018 -12.69483,4.786788 -0.0445,0.04413 -0.0871,0.09017 -0.12764,0.137976 l -15.36289,18.107939 -13.78934,15.990238 h 0.34469 c -0.76645,1.408457 0.23444,3.122737 1.8495,3.167765 h 14.88126 c 0.63387,5.04e-4 1.23628,-0.273423 1.64899,-0.749825 l 6.17844,-7.144783 h 14.23789 v 5.747453 c 10e-4,1.186196 0.97252,2.147207 2.17041,2.147155 h 11.95896 c 1.19729,-7.95e-4 2.16776,-0.961558 2.16886,-2.147155 v -7.578866 c 0.38504,2.918328 1.83417,5.45024 4.22971,7.065719 2.81957,1.901424 6.63274,2.660819 11.40551,2.660819 h 27.23865 c 0.98239,-2.66e-4 1.8421,-0.65395 2.09599,-1.593701 l 1.26401,-4.676201 c 0.7325,1.436591 1.7916,2.678255 3.1719,3.609083 2.81957,1.901424 6.63273,2.660819 11.4055,2.660819 h 29.89637 c 0.19246,-0.104796 0.36775,-0.237915 0.51986,-0.394808 0.2387,0.186216 0.51422,0.320721 0.80874,0.394808 h 11.95896 l 0.002,-5.17e-4 h 14.42651 c 0.63387,5.07e-4 1.23629,-0.27342 1.649,-0.749825 l 6.1805,-7.144783 h 14.23737 v 5.747453 c 10e-4,1.185597 0.97157,2.14636 2.16886,2.147155 h 11.95896 c 1.19809,3.36e-4 2.16983,-0.960758 2.17093,-2.147155 V 65.942246 c 0,-4.046478 -1.07119,-7.471478 -3.46801,-9.816972 -2.39681,-2.345494 -5.87419,-3.383773 -9.99629,-3.383773 -4.90354,0 -9.16618,1.492094 -12.35583,4.468461 -0.19474,0.170129 -0.38542,0.345798 -0.57206,0.527616 l -0.0181,0.0155 -21.37027,24.780917 7.31273,-27.088786 c 0.36798,-1.36424 -0.67,-2.703177 -2.09599,-2.703711 h -11.9569 c -0.14028,0.08304 -0.27064,0.181505 -0.3886,0.293522 -0.28661,-0.168006 -0.60842,-0.268439 -0.94051,-0.293522 h -29.89585 c -5.83721,0 -10.7623,1.206746 -14.60118,3.794084 -3.83888,2.58734 -6.46141,6.535212 -7.79746,11.48457 l -2.84427,10.524422 c -6.7e-4,0.0033 -10e-4,0.0065 -0.002,0.0098 -0.29789,1.120912 -0.33969,2.117386 -0.45734,3.150195 -0.0163,-0.0054 -0.0327,-0.01053 -0.0491,-0.0155 h -27.23865 c -0.92051,0 -1.3073,-0.207002 -1.36426,-0.252698 -0.057,-0.0457 -0.10594,0.01071 -0.10594,-0.520898 0,-0.287528 0.0546,-0.724772 0.19844,-1.280542 l 6.5319,-24.189738 c 0.3682,-1.365061 -0.67122,-2.704524 -2.09806,-2.703711 h -11.95689 c -0.59393,0.03374 -1.14784,0.307424 -1.53221,0.75706 h -0.0336 l -0.0232,0.08371 c -0.22122,0.212452 -0.39421,0.46912 -0.50747,0.752926 l -6.53758,24.208858 c -6.7e-4,0.0033 -10e-4,0.0065 -0.002,0.0098 -0.3033,1.141272 -0.5058,2.229454 -0.62218,3.279386 V 65.942246 c 0,-4.046478 -1.07119,-7.471478 -3.46801,-9.816972 -2.39682,-2.345494 -5.87418,-3.383773 -9.99629,-3.383773 z m -409.745528,8.740035 9.71982,11.966711 -16.182991,11.968262 z m 65.543798,4.505151 h 25.74107 l -0.33176,1.228349 h -28.15126 c 0.11208,-0.123391 0.1771,-0.425774 0.29611,-0.520898 0.55589,-0.444326 1.26769,-0.707451 2.44584,-0.707451 z m 188.67479,0 h 15.94528 c 0.92051,0 1.30731,0.205452 1.36426,0.251148 0.057,0.0457 0.10594,-0.01071 0.10594,0.520898 0,0.287527 -0.0546,0.726838 -0.19844,1.282609 l -2.836,10.502718 -0.002,0.0021 c -0.34061,1.264774 -0.82955,1.991186 -1.38545,2.435511 -0.0328,0.02625 -0.0828,0.03653 -0.11678,0.0615 -0.27519,0.182654 -0.57148,0.338228 -0.89349,0.46147 -0.39056,0.117884 -0.8532,0.184485 -1.4335,0.184485 h -15.94322 c -0.9205,0 -1.30729,-0.207002 -1.36425,-0.252698 -0.057,-0.0457 -0.10594,0.01071 -0.10594,-0.520898 0,-0.287519 0.0525,-0.725293 0.19637,-1.281059 l 2.83807,-10.504785 v -5.17e-4 -5.17e-4 -5.16e-4 -5.17e-4 c 0.3406,-1.264776 0.83007,-1.989118 1.38596,-2.433443 0.5559,-0.444326 1.26512,-0.707451 2.44326,-0.707451 z m 237.61599,0 h 28.39878 l -0.33176,1.228349 H 575.4663 c -0.4953,0.0071 -0.97324,0.181815 -1.35444,0.49506 h -0.33176 l -0.22789,0.82889 c -0.0674,0.08525 -0.12822,0.175425 -0.1819,0.269751 l -2.41794,8.946224 c -0.36964,1.364954 0.66888,2.705607 2.09599,2.705778 h 9.13278 l -0.3297,1.228349 h -16.27136 c -0.9205,0 -1.30678,-0.207003 -1.36374,-0.252698 -0.057,-0.0457 -0.10593,0.01071 -0.10593,-0.520898 0,-0.287528 0.0541,-0.725289 0.19792,-1.281059 l 2.836,-10.504785 0.002,-0.0021 c 0.34059,-1.264776 0.83007,-1.989118 1.38596,-2.433443 0.5559,-0.444326 1.3776,-1.209833 2.44326,-0.707451 z m 71.86538,3.813721 v 3.993555 h -3.12642 z m -156.78836,0.0016 v 3.992005 h -3.12694 z m -121.00244,5.5547 c 0.71115,1.137257 1.6475,2.136007 2.84996,2.861324 2.6793,1.616158 6.23509,2.242757 10.71614,2.242757 h 18.60093 c 0.33298,0 0.29802,0.02322 0.48266,0.05426 l -0.18035,0.637688 c -0.003,0.011 -0.005,0.02203 -0.008,0.03307 -0.0161,0.06078 -0.0533,0.05058 -0.0605,0.07493 -0.0787,0.05833 -0.13434,0.129591 -0.22738,0.181385 -0.21487,0.102099 -0.66979,0.247013 -1.49396,0.247013 h -32.39286 z m -227.16029,5.104081 h 28.86749 c -0.0753,0.421088 -0.13391,0.836079 -0.18035,1.243852 -0.0163,-0.0054 -0.0327,-0.01053 -0.0491,-0.0155 H 139.2893 c -0.92051,0 -1.30731,-0.207002 -1.36426,-0.252698 -0.057,-0.0457 -0.10594,0.01071 -0.10594,-0.520898 0,-0.102105 0.0556,-0.31605 0.0708,-0.454753 z"
     inkscape:label="ShadowHardLine"
     sodipodi:nodetypes="ccccccccccccccssscccccccccccccccsssscccccccccssscccssssccsssccccsssccccccsscsccssccccccccccccsccsscccccccsscccccccccccccccccssscccssccccssscccccccsccccccccccccsscsscccccccsscsssscccssccccsssscscsccccccccccccccccsscssssccccccccccssssccccccccccccccsscccsscccccccccccccssscccccccccsscccccssscccccccccccssssccccscccsscssscccsccssssccccccsccccccccccccccssscccssccccccccccssscccccsccccccssssc" /><path
     id="path1"
     style="font-size:54.1576px;font-family:'Microgramma D Extended';-inkscape-font-specification:'Zebulon Italic';letter-spacing:0px;word-spacing:0px;display:inline;fill:#000000;stroke:none;stroke-width:4.31896;stroke-linecap:butt;stroke-linejoin:miter;stroke-miterlimit:8;paint-order:fill markers stroke;filter:url(#filter1)"
     d="m 237.26834,2.9920832 c -0.98239,2.614e-4 -1.84211,0.6539467 -2.096,1.5937011 l -2.41794,8.9482907 c -0.36756,1.364065 0.67029,2.702576 2.096,2.703194 h 15.77423 l -7.08122,26.242326 c -0.36756,1.364065 0.67029,2.702576 2.096,2.703194 h 11.95689 c 0.98335,8.96e-4 1.84444,-0.653029 2.09858,-1.593701 l 7.38146,-27.351819 h 15.6099 c -0.24652,0.672114 -0.52373,1.317942 -0.71675,2.032951 l -2.84376,10.526489 c -6.7e-4,0.0026 -10e-4,0.0052 -0.002,0.0078 -0.47963,1.804786 -0.73588,3.489166 -0.73588,5.072558 0,3.578417 1.52385,6.744043 4.34341,8.645467 2.81957,1.901425 6.63273,2.660303 11.4055,2.660303 h 26.78752 0.45113 14.43013 c 0.63369,3.56e-4 1.23588,-0.273557 1.64848,-0.749825 l 6.17895,-7.142716 h 14.23737 v 5.744869 c 8.1e-4,1.186599 0.97263,2.148008 2.17093,2.147672 h 11.95896 c 0.22007,-0.0097 0.43736,-0.05261 0.6444,-0.127124 0.17724,0.06599 0.36243,0.108727 0.55087,0.127124 h 11.95896 c 0.9818,-1.1e-5 1.84132,-0.6527 2.096,-1.591634 l 4.55579,-16.829464 0.71831,10.660848 v 0.139527 c 0,2.196415 0.62071,4.243101 2.09806,5.651851 1.47736,1.40875 3.5499,1.968872 5.81153,1.968872 h 2.65772 c 4.60776,0 8.49617,-2.543229 10.74766,-6.842993 l -0.0646,0.116272 6.48694,-10.704773 -3.98632,14.7283 c -0.36756,1.364065 0.67029,2.702576 2.096,2.703194 h 11.95896 c 0.98239,-2.66e-4 1.8421,-0.65395 2.09599,-1.593701 l 6.53604,-24.208858 0.002,-0.0021 c 0.55023,-2.047906 0.84387,-3.934669 0.84387,-5.684925 0,-3.308096 -1.199,-6.2507769 -3.58996,-8.1049309 -2.39095,-1.8541539 -5.64989,-2.596224 -9.60923,-2.5962239 -6.58685,-10e-8 -12.09571,4.3978094 -16.1029,12.0333738 l -2.50372,4.292244 -0.13746,-3.274735 v -0.427379 c 0,-3.772751 -0.72318,-6.8906954 -2.54403,-9.1834188 -1.82085,-2.2927236 -4.7107,-3.4401001 -7.94318,-3.4401 -5.00872,0 -9.34833,1.2597244 -12.72636,3.8793497 -3.37804,2.6196255 -5.69735,6.5115311 -7.01662,11.3987871 l -3.46594,12.837976 V 16.194894 c 0,-4.046479 -1.07171,-7.4735441 -3.46852,-9.8190381 -2.39682,-2.3454941 -5.87368,-3.3837728 -9.99578,-3.3837727 -5.07785,0 -9.47212,1.5970864 -12.69535,4.7888549 -0.0443,0.043473 -0.0867,0.088818 -0.12712,0.135909 L 325.92443,33.799505 c -0.14512,-1.058139 -1.0528,-1.850272 -2.13114,-1.859835 h -27.23865 c -0.92051,0 -1.30729,-0.204934 -1.36425,-0.250631 -0.057,-0.0457 -0.10594,0.01071 -0.10594,-0.520898 0,-0.102379 0.0555,-0.317649 0.0708,-0.45682 h 30.12581 c 0.98258,-3.3e-5 1.84257,-0.653765 2.09651,-1.593701 l 2.41794,-8.946224 c 0.36964,-1.364958 -0.66888,-2.705614 -2.096,-2.705778 H 299.2103 c 0.11205,-0.123339 0.17765,-0.425807 0.29662,-0.520899 0.5559,-0.444326 1.26511,-0.70745 2.44326,-0.70745 h 27.26449 c 0.9848,-2.3e-5 1.84615,-0.656642 2.09806,-1.599385 l 2.39055,-8.946224 c 0.36466,-1.3628141 -0.67226,-2.6983287 -2.096,-2.6995768 h -27.23916 c -5.8372,-1e-7 -10.76178,1.2062279 -14.60066,3.7935668 -0.71534,0.4821252 -1.34567,1.0587068 -1.97611,1.6329753 l 0.73588,-2.7212809 c 0.36928,-1.3649859 -0.66947,-2.7053445 -2.09652,-2.7052612 z M 357.87028,20.054607 v 3.989938 h -3.12642 z M 16.251341,52.741501 c -0.980758,-4.28e-4 -1.839932,0.650519 -2.095996,1.588017 l -2.443778,8.946224 c -0.373641,1.366125 0.665149,2.710684 2.094445,2.710945 h 33.882686 c 0.341605,0 0.309323,0.02294 0.494544,0.05478 l -0.168982,0.646989 c -0.05556,0.200082 -0.01656,0.156149 -0.21394,0.262516 -0.197377,0.106368 -0.725673,0.264067 -1.601453,0.264067 H 12.318248 c -0.982585,3.1e-5 -1.84257,0.653762 -2.096513,1.593698 L 3.8960232,92.229013 c -0.3675616,1.364064 0.6702887,2.702573 2.095996,2.703194 H 17.950979 c 0.982586,-3.1e-5 1.842571,-0.653764 2.096513,-1.593701 l 3.475756,-12.877767 h 20.257679 c 5.357571,0 9.836198,-0.959403 13.342338,-3.078882 0.57766,-0.349199 1.078481,-0.778536 1.595768,-1.191141 l -4.331519,16.038297 c -0.367562,1.364064 0.670289,2.702573 2.095996,2.703194 h 9.85883 2.10013 12.914458 c 0.4675,3.25e-4 0.92261,-0.148841 1.297595,-0.425297 L 97.215908,83.745293 120.47236,111.06507 c 0.41246,0.50675 1.03462,0.8011 1.69189,0.80047 h 15.01304 c 1.82209,0.001 2.83447,-2.08725 1.69395,-3.49436 L 110.6306,73.698361 128.01919,60.959087 c -1.46341,2.033525 -2.5948,4.384788 -3.31711,7.060551 l -2.8422,10.524422 c -6.7e-4,0.0033 -0.001,0.0065 -0.002,0.0098 -0.47964,1.804786 -0.73587,3.489683 -0.73587,5.073075 0,3.578418 1.52384,6.743526 4.34341,8.644951 2.81956,1.901424 6.63272,2.660819 11.4055,2.660819 h 27.23865 c 0.98258,-3.3e-5 1.84257,-0.653765 2.09651,-1.593701 l 1.26401,-4.67465 c 0.73246,1.435573 1.79237,2.677218 3.1719,3.607532 2.81955,1.901424 6.63219,2.660819 11.40498,2.660819 h 27.23917 c 0.98239,-2.66e-4 1.8421,-0.65395 2.09599,-1.593701 l 2.41795,-8.946224 c 0.36798,-1.364244 -0.67001,-2.703183 -2.096,-2.703711 h -27.23865 c -0.92051,0 -1.30731,-0.207002 -1.36426,-0.252698 -0.057,-0.0457 -0.10593,0.01071 -0.10593,-0.520898 0,-0.282708 0.0537,-0.716772 0.19223,-1.259355 l 0.002,-0.0062 6.53397,-24.204724 c 0.36803,-1.364446 -0.67031,-2.703515 -2.09651,-2.703711 h -11.95845 c -0.13974,0.08314 -0.26958,0.181597 -0.38705,0.293522 -0.28707,-0.168231 -0.60944,-0.268672 -0.94207,-0.293522 h -27.23658 c -4.8528,0 -9.03237,0.888869 -12.5243,2.656685 0.32278,-1.305889 -0.63088,-2.581327 -1.98644,-2.656685 h -15.01459 c -0.46774,2.73e-4 -0.92287,0.150171 -1.29759,0.427364 L 101.72054,63.928932 93.278681,53.544036 c -0.411596,-0.506962 -1.032922,-0.802044 -1.68982,-0.802535 h -12.914974 -2.10013 -9.85883 c -0.982393,2.63e-4 -1.842103,0.653948 -2.095996,1.593701 l -0.949813,3.518132 C 62.959006,56.716542 62.024907,55.718358 60.824848,54.99201 58.145195,53.370126 54.588436,52.741501 50.106639,52.741501 Z m 263.722399,0 c -4.97428,0 -9.23921,1.11731 -12.5677,3.500561 -3.32848,2.383251 -5.60053,5.980237 -6.80476,10.463961 l -6.90655,25.520923 c -0.36922,1.364776 0.66916,2.704999 2.09599,2.705261 h 11.9569 c 0.98199,2.18e-4 1.84178,-0.652518 2.09651,-1.591634 l 6.2513,-23.085412 7.14013,17.74672 c 1.68665,4.350731 5.60932,6.930326 10.4221,6.930326 4.97427,0 9.23909,-1.115701 12.57133,-3.497977 1.64066,-1.17294 3.02054,-2.646732 4.1491,-4.369243 0.66619,2.112632 1.90067,3.951312 3.76256,5.206918 2.81957,1.901425 6.6348,2.660302 11.40757,2.660302 h 15.94322 c 5.77934,0 10.55236,-0.942433 14.27509,-3.043225 0.75014,-0.423317 1.41861,-0.931755 2.07223,-1.452108 l -0.48059,1.797823 c -0.36322,1.362914 0.67459,2.697241 2.09806,2.69751 h 33.8553 c 5.35756,0 9.83415,-0.958004 13.33665,-3.078365 3.50008,-2.118897 5.90076,-5.438239 7.01301,-9.560657 l 0.004,-0.0078 0.36535,-1.290361 c 0.003,-0.0096 0.005,-0.01928 0.008,-0.02894 0.35794,-1.33904 0.55191,-2.626107 0.55191,-3.865914 0,-3.164801 -1.55626,-6.014343 -4.23592,-7.636227 -2.67965,-1.621884 -6.23487,-2.248958 -10.71666,-2.248958 h -18.60248 c -0.32576,0 -0.28898,-0.02205 -0.47129,-0.05219 l 0.1788,-0.674378 c 0.0518,-0.195343 0.003,-0.136782 0.19224,-0.239261 0.18887,-0.102479 0.71223,-0.262517 1.58801,-0.262517 h 33.88269 c 0.19243,-0.104638 0.36771,-0.237581 0.51986,-0.394291 0.23874,0.186032 0.51426,0.320359 0.80874,0.394291 h 15.77475 l -7.08174,26.242326 c -0.36756,1.364065 0.67029,2.702576 2.096,2.703194 h 11.95896 c 0.98258,-3.3e-5 1.84257,-0.653765 2.09651,-1.593701 l 7.38146,-27.351819 h 16.93643 c 0.98259,-2.8e-5 1.84258,-0.653762 2.09652,-1.593701 l 2.41794,-8.946224 c 0.36922,-1.36478 -0.66916,-2.705006 -2.096,-2.705261 h -49.16289 c -0.13956,0.08317 -0.26922,0.181628 -0.38654,0.293522 -0.28707,-0.16823 -0.60943,-0.268671 -0.94206,-0.293522 h -33.88269 c -5.35757,0 -9.83208,0.958004 -13.33458,3.078365 -1.95637,1.184358 -3.53075,2.776604 -4.76767,4.641577 -0.67958,-2.048086 -1.89169,-3.831287 -3.70934,-5.057056 -2.81957,-1.901425 -6.63272,-2.662886 -11.4055,-2.662886 h -15.94528 c -5.8372,0 -10.76178,1.206745 -14.60066,3.794084 -0.71523,0.482053 -1.34419,1.058289 -1.97456,1.632458 l 0.73433,-2.722831 c 0.36803,-1.36445 -0.67031,-2.703522 -2.09652,-2.703711 h -11.95689 c -0.39982,0.149786 -0.74606,0.413153 -0.99529,0.75706 h -0.15761 l -0.0413,0.151412 c -0.35772,0.145288 -0.66975,0.382566 -0.90382,0.687296 l -6.22391,23.085413 -7.16597,-17.750338 c -1.68667,-4.350731 -5.60933,-6.930843 -10.42211,-6.930843 z m 208.91283,0 c -5.07785,0 -9.4716,1.595018 -12.69483,4.786788 -0.0445,0.04413 -0.0871,0.09017 -0.12764,0.137976 l -15.36289,18.107939 -13.78934,15.990238 h 0.34469 c -0.76645,1.408457 0.23444,3.122737 1.8495,3.167765 h 14.88126 c 0.63387,5.04e-4 1.23628,-0.273423 1.64899,-0.749825 l 6.17844,-7.144783 h 14.23789 v 5.747453 c 10e-4,1.186196 0.97252,2.147207 2.17041,2.147155 h 11.95896 c 1.19729,-7.95e-4 2.16776,-0.961558 2.16886,-2.147155 v -7.578866 c 0.38504,2.918328 1.83417,5.45024 4.22971,7.065719 2.81957,1.901424 6.63274,2.660819 11.40551,2.660819 h 27.23865 c 0.98239,-2.66e-4 1.8421,-0.65395 2.09599,-1.593701 l 1.26401,-4.676201 c 0.7325,1.436591 1.7916,2.678255 3.1719,3.609083 2.81957,1.901424 6.63273,2.660819 11.4055,2.660819 h 29.89637 c 0.19246,-0.104796 0.36775,-0.237915 0.51986,-0.394808 0.2387,0.186216 0.51422,0.320721 0.80874,0.394808 h 11.95896 l 0.002,-5.17e-4 h 14.42651 c 0.63387,5.07e-4 1.23629,-0.27342 1.649,-0.749825 l 6.1805,-7.144783 h 14.23737 v 5.747453 c 10e-4,1.185597 0.97157,2.14636 2.16886,2.147155 h 11.95896 c 1.19809,3.36e-4 2.16983,-0.960758 2.17093,-2.147155 V 65.942246 c 0,-4.046478 -1.07119,-7.471478 -3.46801,-9.816972 -2.39681,-2.345494 -5.87419,-3.383773 -9.99629,-3.383773 -4.90354,0 -9.16618,1.492094 -12.35583,4.468461 -0.19474,0.170129 -0.38542,0.345798 -0.57206,0.527616 l -0.0181,0.0155 -21.37027,24.780917 7.31273,-27.088786 c 0.36798,-1.36424 -0.67,-2.703177 -2.09599,-2.703711 h -11.9569 c -0.14028,0.08304 -0.27064,0.181505 -0.3886,0.293522 -0.28661,-0.168006 -0.60842,-0.268439 -0.94051,-0.293522 h -29.89585 c -5.83721,0 -10.7623,1.206746 -14.60118,3.794084 -3.83888,2.58734 -6.46141,6.535212 -7.79746,11.48457 l -2.84427,10.524422 c -6.7e-4,0.0033 -10e-4,0.0065 -0.002,0.0098 -0.29789,1.120912 -0.33969,2.117386 -0.45734,3.150195 -0.0163,-0.0054 -0.0327,-0.01053 -0.0491,-0.0155 h -27.23865 c -0.92051,0 -1.3073,-0.207002 -1.36426,-0.252698 -0.057,-0.0457 -0.10594,0.01071 -0.10594,-0.520898 0,-0.287528 0.0546,-0.724772 0.19844,-1.280542 l 6.5319,-24.189738 c 0.3682,-1.365061 -0.67122,-2.704524 -2.09806,-2.703711 h -11.95689 c -0.59393,0.03374 -1.14784,0.307424 -1.53221,0.75706 h -0.0336 l -0.0232,0.08371 c -0.22122,0.212452 -0.39421,0.46912 -0.50747,0.752926 l -6.53758,24.208858 c -6.7e-4,0.0033 -10e-4,0.0065 -0.002,0.0098 -0.3033,1.141272 -0.5058,2.229454 -0.62218,3.279386 V 65.942246 c 0,-4.046478 -1.07119,-7.471478 -3.46801,-9.816972 -2.39682,-2.345494 -5.87418,-3.383773 -9.99629,-3.383773 z m -409.745528,8.740035 9.71982,11.966711 -16.182991,11.968262 z m 65.543798,4.505151 h 25.74107 l -0.33176,1.228349 h -28.15126 c 0.11208,-0.123391 0.1771,-0.425774 0.29611,-0.520898 0.55589,-0.444326 1.26769,-0.707451 2.44584,-0.707451 z m 188.67479,0 h 15.94528 c 0.92051,0 1.30731,0.205452 1.36426,0.251148 0.057,0.0457 0.10594,-0.01071 0.10594,0.520898 0,0.287527 -0.0546,0.726838 -0.19844,1.282609 l -2.836,10.502718 -0.002,0.0021 c -0.34061,1.264774 -0.82955,1.991186 -1.38545,2.435511 -0.0328,0.02625 -0.0828,0.03653 -0.11678,0.0615 -0.27519,0.182654 -0.57148,0.338228 -0.89349,0.46147 -0.39056,0.117884 -0.8532,0.184485 -1.4335,0.184485 h -15.94322 c -0.9205,0 -1.30729,-0.207002 -1.36425,-0.252698 -0.057,-0.0457 -0.10594,0.01071 -0.10594,-0.520898 0,-0.287519 0.0525,-0.725293 0.19637,-1.281059 l 2.83807,-10.504785 v -5.17e-4 -5.17e-4 -5.16e-4 -5.17e-4 c 0.3406,-1.264776 0.83007,-1.989118 1.38596,-2.433443 0.5559,-0.444326 1.26512,-0.707451 2.44326,-0.707451 z m 237.61599,0 h 28.39878 l -0.33176,1.228349 H 575.4663 c -0.4953,0.0071 -0.97324,0.181815 -1.35444,0.49506 h -0.33176 l -0.22789,0.82889 c -0.0674,0.08525 -0.12822,0.175425 -0.1819,0.269751 l -2.41794,8.946224 c -0.36964,1.364954 0.66888,2.705607 2.09599,2.705778 h 9.13278 l -0.3297,1.228349 h -16.27136 c -0.9205,0 -1.30678,-0.207003 -1.36374,-0.252698 -0.057,-0.0457 -0.10593,0.01071 -0.10593,-0.520898 0,-0.287528 0.0541,-0.725289 0.19792,-1.281059 l 2.836,-10.504785 0.002,-0.0021 c 0.34059,-1.264776 0.83007,-1.989118 1.38596,-2.433443 0.5559,-0.444326 1.3776,-1.209833 2.44326,-0.707451 z m 71.86538,3.813721 v 3.993555 h -3.12642 z m -156.78836,0.0016 v 3.992005 h -3.12694 z m -121.00244,5.5547 c 0.71115,1.137257 1.6475,2.136007 2.84996,2.861324 2.6793,1.616158 6.23509,2.242757 10.71614,2.242757 h 18.60093 c 0.33298,0 0.29802,0.02322 0.48266,0.05426 l -0.18035,0.637688 c -0.003,0.011 -0.005,0.02203 -0.008,0.03307 -0.0161,0.06078 -0.0533,0.05058 -0.0605,0.07493 -0.0787,0.05833 -0.13434,0.129591 -0.22738,0.181385 -0.21487,0.102099 -0.66979,0.247013 -1.49396,0.247013 h -32.39286 z m -227.16029,5.104081 h 28.86749 c -0.0753,0.421088 -0.13391,0.836079 -0.18035,1.243852 -0.0163,-0.0054 -0.0327,-0.01053 -0.0491,-0.0155 H 139.2893 c -0.92051,0 -1.30731,-0.207002 -1.36426,-0.252698 -0.057,-0.0457 -0.10594,0.01071 -0.10594,-0.520898 0,-0.102105 0.0556,-0.31605 0.0708,-0.454753 z"
     inkscape:label="ShadowBrur"
     sodipodi:nodetypes="ccccccccccccccssscccccccccccccccsssscccccccccssscccssssccsssccccsssccccccsscsccssccccccccccccsccsscccccccsscccccccccccccccccssscccssccccssscccccccsccccccccccccsscsscccccccsscsssscccssccccsssscscsccccccccccccccccsscssssccccccccccssssccccccccccccccsscccsscccccccccccccssscccccccccsscccccssscccccccccccssssccccscccsscssscccsccssssccccccsccccccccccccccssscccssccccccccccssscccccsccccccssssc" /><path
     id="path154"
     style="font-size:53.6136px;font-family:'Microgramma D Extended';-inkscape-font-specification:'Zebulon Italic';letter-spacing:0px;word-spacing:0px;display:inline;fill:#01eafe;fill-opacity:1;stroke:none;stroke-width:4.31896;stroke-linecap:butt;stroke-linejoin:miter;stroke-miterlimit:8;stroke-dasharray:none;stroke-opacity:1;paint-order:fill markers stroke"
     d="M 233.44583,1.7737696e-5 C 232.46252,-5.8283953e-4 231.60166,0.653543 231.34777,1.5942357 l -2.41639,8.9467403 c -0.36917,1.364574 0.66886,2.704669 2.09548,2.705261 h 15.77577 l -7.0838,26.241293 c -0.36773,1.36468 0.6712,2.703586 2.09755,2.703194 h 11.95741 c 0.98252,6.18e-4 1.84291,-0.652464 2.09754,-1.592151 l 7.38147,-27.352336 h 15.61145 c -0.24641,0.671879 -0.52485,1.317175 -0.71779,2.031918 l -2.84324,10.525456 c -6.7e-4,0.0033 -0.001,0.0065 -0.002,0.0098 -0.47962,1.804785 -0.73742,3.489685 -0.73742,5.073075 0,3.578419 1.52435,6.740941 4.34391,8.642367 2.81956,1.901426 6.63324,2.66237 11.40603,2.66237 h 27.23968 l 0.003,-5.17e-4 h 14.42702 c 0.63351,2.09e-4 1.23549,-0.273691 1.64797,-0.749825 l 6.17946,-7.144267 h 14.23737 v 5.74642 c 8.1e-4,1.186797 0.97294,2.148288 2.17144,2.147672 h 11.9569 c 0.22092,-0.0093 0.4391,-0.05201 0.64699,-0.126607 0.1766,0.06564 0.36109,0.1082 0.5488,0.126607 h 11.95948 c 0.98176,-3.06e-4 1.84104,-0.653195 2.09548,-1.59215 l 4.55631,-16.828947 0.71778,10.660331 v 0.139526 c 0,2.196417 0.62225,4.243618 2.09962,5.652368 1.47736,1.408749 3.54938,1.968872 5.81101,1.968872 h 2.65669 c 4.57085,0 8.43396,-2.50385 10.69341,-6.741191 l 6.47815,-10.69082 -3.98735,14.728817 c -0.36756,1.364066 0.67029,2.702578 2.096,2.703194 h 11.95947 c 0.98176,-3.06e-4 1.84104,-0.653195 2.09548,-1.59215 l 6.53655,-24.209375 v -5.18e-4 -5.16e-4 -5.17e-4 -5.17e-4 -5.16e-4 -5.18e-4 -5.16e-4 c 0.55022,-2.047906 0.84491,-3.933637 0.84491,-5.683891 0,-3.3080973 -1.19797,-6.2523267 -3.58893,-8.1064816 C 430.00548,0.7410356 426.74601,0 422.78668,0 416.20132,0 410.69384,4.394811 406.68689,12.027173 l -2.50527,4.299478 -0.1385,-3.274735 v -0.42788 c 0,-3.7727552 -0.72317,-6.8917282 -2.54402,-9.1844526 C 399.67824,1.146859 396.78735,0 393.55487,0 c -5.00872,0 -9.34677,1.259722 -12.7248,3.8793497 -3.37804,2.6196277 -5.69736,6.5115273 -7.01663,11.3987873 l -3.46542,12.834875 v -14.91171 c 0,-4.0464823 -1.07325,-7.4709599 -3.47007,-9.8164549 -2.3968,-2.3455182 -5.8721,-3.384829362304 -9.99421,-3.384829362304 -5.07786,0 -9.47366,1.596568862304 -12.6969,4.788338162304 -0.0444,0.043978 -0.0868,0.089841 -0.12712,0.1374593 L 322.10347,30.806405 c -0.14523,-1.058903 -1.05408,-1.851286 -2.13321,-1.859834 h -27.2376 c -0.92052,0 -1.30679,-0.20545 -1.36375,-0.251147 -0.0569,-0.0457 -0.10748,0.01121 -0.10748,-0.520382 0,-0.102184 0.0561,-0.316432 0.0713,-0.45527 h 30.12634 c 0.98254,-3.28e-4 1.8423,-0.654261 2.09599,-1.594217 l 2.41846,-8.946741 c 0.36959,-1.364757 -0.66858,-2.705284 -2.09549,-2.705778 h -28.49079 c 0.11184,-0.123024 0.17686,-0.424968 0.29559,-0.519865 0.5559,-0.444327 1.26667,-0.706934 2.44482,-0.706934 h 27.265 c 0.98476,-3.18e-4 1.84588,-0.657139 2.09754,-1.599902 l 2.39107,-8.9467405 C 330.24608,1.3361779 329.20811,2.7695175e-4 327.78374,1.7737696e-5 h -27.23967 c -5.83722,0 -10.76128,1.207776662304 -14.60015,3.795117262304 -0.71551,0.4822363 -1.34604,1.0570032 -1.97662,1.6314249 L 284.70317,2.705279 C 285.0724,1.3404988 284.03401,2.7123968e-4 282.60717,1.7737696e-5 Z M 354.04777,17.063059 v 3.98942 h -3.12436 z M 12.428319,49.749435 c -0.980907,-3.66e-4 -1.84013,0.650831 -2.095996,1.588534 l -2.4442954,8.94674 c -0.3725042,1.366001 0.6666009,2.709535 2.0954793,2.709396 H 43.865159 c 0.341988,0 0.310335,0.0229 0.495578,0.05478 l -0.170533,0.648023 c -0.05557,0.200081 -0.01656,0.154599 -0.21394,0.260966 -0.197378,0.106369 -0.724638,0.2651 -1.600419,0.2651 H 8.4947089 C 7.5121671,64.223299 6.652408,64.877232 6.3987128,65.817189 L 0.07455094,89.237465 c -0.36750782,1.363859 0.66998568,2.702238 2.09547936,2.703193 H 14.129507 c 0.98235,-5.57e-4 1.841835,-0.654443 2.095479,-1.594218 l 3.475757,-12.879317 h 20.258195 c 5.357576,0 9.835165,-0.956817 13.341305,-3.076298 0.577138,-0.348883 1.077342,-0.779482 1.594218,-1.191658 l -4.329969,16.038298 c -0.367508,1.363859 0.669986,2.702238 2.09548,2.703193 h 9.859862 2.099614 12.914975 c 0.467912,3.97e-4 0.923425,-0.148963 1.298628,-0.425813 l 14.558284,-10.7611 22.729875,27.848425 c 0.41213,0.50666 1.03385,0.80118 1.69085,0.80099 h 15.01304 c 1.8216,3e-4 2.83314,-2.08762 1.69292,-3.49436 l -28.24117,-34.67282 17.9188,-13.267925 c -1.463,2.033281 -2.59441,4.384764 -3.31659,7.060035 l -2.84324,10.524939 c -6.7e-4,0.0026 -0.001,0.0051 -0.002,0.0077 -0.47962,1.804787 -0.73536,3.490202 -0.73536,5.073592 0,3.578419 1.52436,6.742491 4.34393,8.643917 2.81956,1.901427 6.63323,2.662369 11.40601,2.662369 h 27.23761 c 0.98252,6.22e-4 1.84292,-0.652459 2.09755,-1.59215 l 1.26297,-4.676717 c 0.73248,1.436178 1.79243,2.675879 3.17242,3.606498 2.81957,1.901427 6.63324,2.662369 11.40602,2.662369 h 27.23762 c 0.98176,-3.06e-4 1.84104,-0.653195 2.09548,-1.59215 l 2.41897,-8.948808 c 0.36751,-1.363856 -0.66998,-2.702233 -2.09547,-2.703194 h -27.23969 c -0.9205,0 -1.3073,-0.205969 -1.36426,-0.251664 -0.0569,-0.0457 -0.1049,0.01173 -0.1049,-0.519865 0,-0.287532 0.0525,-0.726321 0.19637,-1.282093 l 6.53293,-24.189738 c 0.3682,-1.365081 -0.67126,-2.704552 -2.09812,-2.7037 h -11.95689 c -0.1398,0.08346 -0.26964,0.182269 -0.38706,0.294556 -0.28683,-0.168519 -0.60901,-0.269313 -0.94155,-0.294556 h -27.23967 c -4.85172,0 -9.02869,0.889682 -12.52017,2.656686 0.3229,-1.306661 -0.6321,-2.582552 -1.98851,-2.656686 h -15.01459 c -0.46797,-2.47e-4 -0.92349,0.149296 -1.29863,0.426331 L 97.89597,60.93635 89.456175,50.550421 C 89.043929,50.04362 88.421983,49.749084 87.764805,49.749435 H 74.849832 72.750218 62.892421 c -0.983119,-3.69e-4 -1.843703,0.653709 -2.097545,1.594219 l -0.949814,3.518648 C 59.134951,53.725531 58.201883,52.725774 57.001826,51.999427 54.322172,50.377542 50.765418,49.749435 46.283617,49.749435 Z m 263.721371,0 c -4.97428,0 -9.23716,1.11731 -12.56565,3.500562 -3.32847,2.383253 -5.60051,5.980749 -6.80475,10.464477 l -6.90758,25.520923 c -0.36923,1.364776 0.66916,2.705001 2.09599,2.705261 h 11.95896 c 0.98195,-7.3e-5 1.84151,-0.653011 2.096,-1.59215 l 6.24922,-23.086447 7.14117,17.748272 c 3.5e-4,8.69e-4 0.002,0.0011 0.002,0.002 1.68722,4.349158 5.60924,6.928259 10.42106,6.928259 4.97428,0 9.23755,-1.116216 12.56978,-3.498495 1.64117,-1.173292 3.02086,-2.647094 4.14962,-4.370275 0.66605,2.113221 1.90078,3.95104 3.76308,5.206917 2.81956,1.901427 6.63376,2.661853 11.40654,2.661853 h 15.94424 c 5.77935,0 10.55236,-0.943983 14.2751,-3.044775 0.75064,-0.423597 1.41772,-0.932381 2.07171,-1.453142 l -0.47956,1.798341 c -0.36482,1.363428 0.67317,2.699336 2.09755,2.699576 h 33.85581 c 5.35759,0 9.83261,-0.958001 13.33511,-3.078365 3.50251,-2.120362 5.90542,-5.442542 7.01663,-9.568925 l 0.36483,-1.289844 c 0.003,-0.0098 0.005,-0.01962 0.008,-0.02945 0.35795,-1.339042 0.55139,-2.626105 0.55139,-3.865914 0,-3.164802 -1.55317,-6.013308 -4.23281,-7.635192 -2.67967,-1.621886 -6.23641,-2.249992 -10.71822,-2.249992 h -18.60352 c -0.32519,0 -0.28746,-0.02106 -0.46973,-0.05116 l 0.17828,-0.681095 v 0.0062 c 0.0518,-0.195345 0.003,-0.137297 0.19224,-0.239778 0.18888,-0.10248 0.71275,-0.263033 1.58854,-0.263033 h 33.88113 c 0.19228,-0.104839 0.36738,-0.237957 0.51934,-0.394808 0.23885,0.18628 0.51456,0.320788 0.80926,0.394808 h 15.77578 l -7.08174,26.243359 c -0.36751,1.36386 0.66999,2.70224 2.09548,2.703194 h 11.95948 c 0.98235,-5.56e-4 1.84184,-0.654443 2.09548,-1.594218 l 7.38334,-27.352323 h 16.9354 c 0.98194,-7.7e-5 1.84151,-0.653015 2.09599,-1.592151 l 2.41846,-8.94674 c 0.36939,-1.365395 -0.67007,-2.706018 -2.09755,-2.705262 h -49.16134 c -0.13977,0.0833 -0.2696,0.181934 -0.38705,0.294039 -0.28687,-0.168337 -0.60906,-0.268953 -0.94155,-0.294039 h -33.8832 c -5.35758,0 -9.83313,0.958001 -13.33562,3.078366 -1.95559,1.183877 -3.52734,2.775024 -4.76405,4.638993 -0.67973,-2.047368 -1.89476,-3.83007 -3.71192,-5.055506 -2.81956,-1.901425 -6.63323,-2.661853 -11.40602,-2.661853 h -15.94477 c -5.83721,0 -10.76126,1.20571 -14.60014,3.793051 -0.71517,0.482011 -1.34422,1.059379 -1.97455,1.633492 l 0.7338,-2.723349 c 0.36752,-1.364041 -0.67031,-2.702507 -2.09598,-2.703145 H 302.0587 c -0.98235,5.56e-4 -1.84184,0.654443 -2.09548,1.594218 l -6.22546,23.083863 -7.16546,-17.747754 c -1.68665,-4.350735 -5.60982,-6.930327 -10.42261,-6.930327 z m 208.91541,0 c -5.01629,0.788274 -9.4721,1.59502 -12.69535,4.786788 -0.0442,0.04399 -0.0864,0.08985 -0.12661,0.13746 l -28.6215,33.734892 c -1.18695,1.398105 -0.18314,3.53219 1.66139,3.532083 h 14.88178 c 0.63333,5.9e-5 1.23509,-0.273827 1.64745,-0.749824 l 6.17998,-7.144267 h 14.23738 v 5.746419 c 8.1e-4,1.186596 0.97263,2.148003 2.17092,2.147672 h 11.95741 c 1.19829,3.31e-4 2.17011,-0.961076 2.17092,-2.147672 v -7.573698 c 0.38633,2.91571 1.83528,5.444606 4.22921,7.059001 2.81956,1.901427 6.63323,2.662369 11.40602,2.662369 h 27.23761 c 0.98252,6.18e-4 1.84291,-0.652463 2.09754,-1.59215 l 1.26298,-4.676717 c 0.7325,1.436178 1.79244,2.675879 3.17241,3.606498 2.81957,1.901427 6.63325,2.662369 11.40603,2.662369 h 29.89429 c 0.19229,-0.104837 0.3674,-0.237954 0.51936,-0.394807 0.23885,0.186279 0.51455,0.320786 0.80925,0.394807 h 11.95896 14.43012 c 0.63333,5.9e-5 1.23509,-0.273827 1.64745,-0.749824 l 6.17998,-7.144267 h 14.23738 v 5.746419 c 8.1e-4,1.1866 0.97263,2.148009 2.17093,2.147672 h 11.95948 c 1.19749,-8e-4 2.16804,-0.961876 2.16885,-2.147672 V 62.950697 c 0,-4.046481 -1.07066,-7.473027 -3.46748,-9.818522 -2.39682,-2.345495 -5.87472,-3.38274 -9.99681,-3.38274 -5.07786,0 -9.4716,1.595018 -12.69484,4.786788 -0.0442,0.04399 -0.0864,0.08985 -0.1266,0.13746 l -21.67982,25.552962 7.4998,-27.773499 c 0.36815,-1.364859 -0.67092,-2.704194 -2.09755,-2.703711 h -11.9574 c -0.13951,0.08284 -0.26917,0.180957 -0.38654,0.29249 -0.28716,-0.167868 -0.60952,-0.267954 -0.94206,-0.29249 h -29.89637 c -5.83722,0 -10.76333,1.20571 -14.60221,3.79305 -3.83887,2.587341 -6.46142,6.536243 -7.79746,11.485605 l -2.84323,10.524939 c -6.7e-4,0.0026 -0.001,0.0051 -0.002,0.0077 -0.2979,1.120964 -0.33813,2.118375 -0.45578,3.151229 -0.0165,-0.0054 -0.033,-0.01053 -0.0496,-0.0155 h -27.23968 c -0.92053,0 -1.3068,-0.205968 -1.36375,-0.251664 -0.0569,-0.0457 -0.10542,0.01173 -0.10542,-0.519865 0,-0.283096 0.0512,-0.719367 0.19224,-1.262456 l 0.002,-0.0077 6.53501,-24.201624 c 0.36815,-1.364867 -0.67093,-2.704209 -2.09757,-2.703713 h -11.95741 c -0.98254,3.28e-4 -1.8423,0.654262 -2.09599,1.594219 l -6.53862,24.209375 c -6.7e-4,0.0026 -0.001,0.0051 -0.002,0.0077 -0.3022,1.137157 -0.5041,2.221951 -0.62064,3.268534 V 62.950686 c 0,-4.046481 -1.07066,-7.473027 -3.46748,-9.818522 -2.39682,-2.345495 -5.92415,-4.022647 -9.99629,-3.38274 z M 75.317503,58.489987 85.036806,70.456698 68.854332,82.424443 Z m 65.542757,4.504118 h 25.74263 l -0.33126,1.228866 h -28.15177 c 0.11206,-0.123367 0.17868,-0.425273 0.29766,-0.520382 0.55591,-0.444327 1.26461,-0.708484 2.44274,-0.708484 z m 188.67635,0 h 15.94631 c 0.92051,0 1.3073,0.205451 1.36426,0.251147 0.0569,0.0457 0.1049,-0.0092 0.1049,0.522449 0,0.284022 -0.0543,0.719908 -0.1943,1.266073 l -2.84117,10.519255 v 0.002 c -0.3406,1.264776 -0.83006,1.988083 -1.38596,2.43241 -0.5559,0.444327 -1.26408,0.709001 -2.44223,0.709001 h -15.94477 c -0.92051,0 -1.30886,-0.205452 -1.3658,-0.251148 -0.0569,-0.0457 -0.10543,0.01121 -0.10543,-0.520381 0,-0.287523 0.0545,-0.726324 0.19844,-1.282093 l 2.83704,-10.505819 v -5.16e-4 -5.18e-4 -5.16e-4 -5.16e-4 c 0.3406,-1.264777 0.83007,-1.988084 1.38597,-2.432411 0.55589,-0.444326 1.26459,-0.708483 2.44274,-0.708483 z m 237.61598,0 h 28.40137 l -0.33332,1.228866 h -23.57736 c -0.98195,7.3e-5 -1.84151,0.653011 -2.096,1.592151 l -2.41845,8.948807 c -0.36773,1.364676 0.67119,2.70358 2.09754,2.703194 h 9.13381 l -0.33124,1.229383 h -16.27137 c -0.9205,0 -1.30729,-0.205968 -1.36425,-0.251664 -0.0569,-0.0457 -0.10491,0.01173 -0.10491,-0.519865 0,-0.287532 0.0525,-0.72632 0.19638,-1.282093 l 2.8391,-10.505819 v -5.16e-4 -5.17e-4 -5.17e-4 -5.16e-4 c 0.3406,-1.264776 0.83007,-1.988083 1.38596,-2.43241 0.55591,-0.444326 1.26461,-0.708484 2.44274,-0.708484 z m -84.92297,3.816305 v 3.991487 h -3.12644 z m 156.78784,0 v 3.991487 h -3.12695 z m -277.79028,5.552632 c 0.71123,1.13805 1.6479,2.138716 2.85098,2.864425 2.67931,1.616159 6.23304,2.239656 10.71409,2.239656 h 18.60351 c 0.33253,0 0.29702,0.02429 0.48162,0.05529 l -0.18034,0.638204 c -0.003,0.011 -0.005,0.02203 -0.008,0.03307 -0.0518,0.195345 -0.005,0.137298 -0.1943,0.239779 -0.18887,0.10248 -0.71224,0.263033 -1.58801,0.263033 h -32.39441 z m -227.16185,5.104081 h 28.86956 c -0.0753,0.421338 -0.13388,0.836879 -0.18035,1.244886 -0.0165,-0.0054 -0.033,-0.01053 -0.0496,-0.0155 h -27.23968 c -0.92052,0 -1.3073,-0.205967 -1.36426,-0.251664 -0.0569,-0.0457 -0.1049,0.01173 -0.1049,-0.519865 0,-0.102571 0.0538,-0.318355 0.0692,-0.457854 z"
     inkscape:label="Outline"
     sodipodi:nodetypes="ccccccccccccccssscccccccccccccccssssccccccccccccccssscccssssccsssscccsssccccccssccccssccccccccccccsccsscccccccsscccccccccccccccccssscccssccccscsccccccsccccccccccccssccsccccccccsscsssscccsscccssssccccsccccccccccccccccsscsssscscccccccscccccccccccccsscccssccccccccccccsssccccccccsscccccssssccccccccssssccccsccccscssscccsssssccccccsccsccccccccsssccccccsscccccccccsssccccsccccccscssc" /><path
     id="path178"
     style="font-size:53.6136px;font-family:'Microgramma D Extended';-inkscape-font-specification:'Zebulon Italic';letter-spacing:0px;word-spacing:0px;display:inline;fill:#008cfc;fill-opacity:0.972549;stroke:none;stroke-width:1.07227;stroke-linecap:butt;stroke-miterlimit:8;stroke-opacity:1;paint-order:fill markers stroke"
     d="m 232.4247,1.6583144 -2.70526,9.8448766 h 18.56734 l -7.79849,28.420488 h 13.06019 l 7.79694,-28.420488 h 18.56734 l 2.70526,-9.8448766 z m 67.38762,0 c -5.601,0 -10.16894,1.137657 -13.66015,3.4525025 -3.49121,2.3148456 -5.87259,5.8029381 -7.12773,10.3771441 l -2.83755,10.33632 c -0.45124,1.670449 -0.68317,3.196966 -0.68317,4.580599 0,3.126739 1.22953,5.589439 3.62769,7.180441 2.39815,1.591003 5.89019,2.338358 10.46965,2.338358 h 27.60296 14.23583 l 6.81715,-7.751465 h 16.57883 v 7.751465 h 13.02298 13.00076 l 7.00526,-25.45581 c 0.0526,-0.192083 0.11949,-0.285853 0.16433,-0.325562 0.009,-0.0077 0.0274,-0.0059 0.0356,-0.01188 0.0388,0.08909 0.0896,0.214072 0.13281,0.44545 0.10354,0.554725 0.16382,1.460219 0.16382,2.675806 v 1.077454 l 1.06091,15.502929 v 0.189136 c 0,1.883038 0.51369,3.394662 1.59887,4.412651 1.08516,1.017989 2.67728,1.489831 4.67413,1.489831 h 2.65152 c 4.06784,0 7.24152,-2.01939 9.28884,-5.865792 l 9.53999,-15.487426 0.008,-0.01395 c 0.84338,-1.574723 1.53949,-2.751866 2.07377,-3.51193 0.26714,-0.380033 0.49692,-0.655824 0.66095,-0.813904 0.0749,-0.07212 0.0251,-0.04693 0.0574,-0.06511 -0.002,0.0087 -6.2e-4,0.01204 -0.004,0.02119 l -0.002,0.0036 -7.0807,25.733313 h 13.0607 l 6.63319,-24.162349 v -0.0016 c 0.5219,-1.910995 0.78754,-3.633489 0.78754,-5.174361 0,-2.9117599 -0.98762,-5.2091629 -2.96054,-6.7143187 -1.97293,-1.5051559 -4.85023,-2.2127849 -8.59017,-2.2127849 -5.89369,0 -10.82087,3.7750865 -14.67301,11.0360196 l -5.28546,8.917801 -0.37207,-8.686291 v -0.453202 c 0,-3.4972333 -0.69816,-6.1916581 -2.19057,-8.0403367 -1.49241,-1.8486786 -3.7725,-2.7739909 -6.65489,-2.7739909 -4.73124,0 -8.65437,1.1488266 -11.69903,3.4716228 -3.04466,2.3227962 -5.1864,5.7991098 -6.43733,10.3580238 l -6.64869,24.226945 V 13.039532 c 0,-3.7065986 -0.97267,-6.5820723 -2.98018,-8.5147259 -2.00751,-1.9326536 -4.98871,-2.8664917 -8.83564,-2.8664917 -4.74193,0 -8.62493,1.4139782 -11.52487,4.2390178 l -0.0155,0.015503 -26.34826,30.5526568 1.75493,-6.384623 h -27.8939 c -1.13788,0 -1.91635,-0.228516 -2.38435,-0.597896 -0.46798,-0.369382 -0.70642,-0.8933 -0.70642,-1.740462 0,-0.456399 0.0797,-1.009028 0.24701,-1.646412 l 0.10491,-0.381888 h 31.82803 l 2.70325,-9.844877 h -31.82803 l 0.03,-0.109555 c 0.4032,-1.472946 1.05344,-2.521528 1.93115,-3.21169 0.8777,-0.690164 2.00515,-1.044898 3.45922,-1.044898 h 27.63036 l 2.67374,-9.8448766 z m 55.02351,10.5910846 v 10.080005 h -8.05377 l 6.93395,-8.709546 0.002,-0.0021 c 0.47676,-0.614708 0.80804,-1.007694 1.11776,-1.368392 z M 11.832489,50.507013 9.0977728,60.350339 H 43.624864 c 0.896076,0 1.527127,0.133694 1.866036,0.315743 0.338909,0.182048 0.429431,0.332372 0.429431,0.680579 0,0.09623 -0.01826,0.235871 -0.06356,0.412378 l -0.342098,1.280025 c -0.159633,0.56549 -0.467298,0.94198 -1.003556,1.226282 -0.536257,0.284304 -1.32527,0.453202 -2.372465,0.453202 H 7.904564 L 1.3013495,88.772894 H 14.361534 l 3.90002,-14.211536 h 21.46484 c 5.149756,0 9.314339,-0.912496 12.470557,-2.789494 3.15622,-1.876998 5.271836,-4.727151 6.300907,-8.45323 l 0.0021,-0.0036 0.344165,-1.291394 v -0.0021 c 0.327693,-1.206553 0.494544,-2.335708 0.494544,-3.38894 0,-2.676439 -1.18511,-4.800003 -3.448885,-6.147945 -2.263775,-1.347941 -5.543178,-1.977657 -9.851079,-1.977657 z m 50.365402,0 -10.501685,38.265881 h 8.913151 4.147551 12.652457 L 93.341209,77.190655 117.72576,106.76456 h 16.37885 L 103.59949,69.73633 129.99943,50.507013 H 113.20097 L 97.269135,62.088735 87.70176,50.507013 H 75.258592 71.320848 Z m 80.650369,0 c -5.601,0 -10.16894,1.136107 -13.66015,3.450952 -3.49121,2.314846 -5.87259,5.802421 -7.12773,10.376627 l -2.83962,10.336837 v 0.0021 c -0.45125,1.67045 -0.68111,3.194382 -0.6811,4.578015 0,3.126739 1.22747,5.589954 3.62562,7.180957 2.39815,1.591002 5.89225,2.340426 10.47171,2.340426 h 27.60297 l 2.70526,-9.843327 h -27.89597 c -1.13788,0 -1.91429,-0.230066 -2.38228,-0.599447 -0.46799,-0.369381 -0.70642,-0.891748 -0.70642,-1.738911 0,-0.457968 0.0785,-1.011924 0.24701,-1.652096 l 0.10284,-0.377755 h 31.82803 l 2.70526,-9.84281 h -31.82803 l 0.03,-0.110071 c 0.4032,-1.472945 1.05345,-2.521527 1.93115,-3.21169 0.87771,-0.690163 2.00308,-1.046448 3.45715,-1.046448 h 27.63243 l 2.67373,-9.843326 z m 28.09544,0 -6.63319,24.164416 v 0.0021 c -0.45124,1.67045 -0.68058,3.194382 -0.68058,4.578015 0,3.126739 1.22696,5.589954 3.62511,7.180957 2.39816,1.591002 5.89278,2.340426 10.47222,2.340426 h 27.60297 l 2.70319,-9.843327 h -27.8939 c -1.13787,0 -1.91481,-0.230067 -2.3828,-0.599447 -0.46798,-0.369381 -0.70848,-0.891747 -0.70848,-1.738911 0,-0.456323 0.0803,-1.008646 0.24753,-1.645895 l 6.70811,-24.438301 z m 104.52075,0 c -4.72261,0 -8.6041,1.032972 -11.58999,3.136242 -2.9859,2.103271 -5.04489,5.265103 -6.1743,9.40201 l -7.08019,25.727629 h 13.06019 l 7.00525,-25.455811 c 0.0496,-0.181476 0.11277,-0.26244 0.16847,-0.306441 0.0557,-0.044 0.12407,-0.07545 0.2868,-0.07545 0.39956,0 0.78926,0.220119 1.23249,0.819071 l 7.86412,19.233451 c 1.49612,3.790551 4.57169,5.785177 8.88731,5.785177 4.72263,0 8.60552,-1.033729 11.59567,-3.13676 2.99016,-2.10303 5.05761,-5.26266 6.19601,-9.399426 l 7.05073,-25.729695 h -13.05863 l -6.97736,25.45581 c -0.0497,0.181476 -0.1143,0.26244 -0.17001,0.306441 -0.0557,0.044 -0.12459,0.077 -0.28732,0.077 -0.37571,0 -0.77318,-0.226459 -1.23455,-0.82889 l -7.88996,-19.225183 c -1.49625,-3.789949 -4.56945,-5.785176 -8.88473,-5.785175 z m 55.69841,0 c -5.601,0 -10.16842,1.136107 -13.65963,3.450952 -3.49121,2.314846 -5.87311,5.802421 -7.12825,10.376627 l -2.83755,10.336837 -0.002,0.0021 c -0.45124,1.67045 -0.68058,3.194382 -0.68058,4.578015 0,3.126739 1.22902,5.589954 3.62717,7.180957 2.39816,1.591002 5.89071,2.340426 10.47016,2.340426 h 15.91376 c 5.58652,0 10.07194,-0.909346 13.44466,-2.781742 3.37272,-1.872397 5.60437,-4.727305 6.62698,-8.46305 l 3.55586,-12.919625 v -0.0021 c 0.45124,-1.670449 0.68058,-3.194383 0.68058,-4.578015 0,-3.12674 -1.22694,-5.589954 -3.6251,-7.180957 -2.39815,-1.591004 -5.89277,-2.340425 -10.47223,-2.340425 z m 49.06781,0 c -5.14976,0 -9.31082,0.914345 -12.46281,2.79156 -3.152,1.877215 -5.26279,4.726959 -6.28282,8.453231 v 0.0016 l -0.34675,1.293977 c -0.34474,1.221956 -0.52038,2.3593 -0.52038,3.413745 0,2.668317 1.18572,4.787071 3.4494,6.130376 2.2637,1.343305 5.54285,1.969905 9.85056,1.969905 h 18.56734 c 0.89608,0 1.52764,0.134212 1.86656,0.31626 0.3389,0.182048 0.42891,0.330306 0.42891,0.678512 0,0.09626 -0.0177,0.237927 -0.063,0.414445 l -0.37001,1.282092 v 0.0036 c -0.15206,0.564324 -0.45259,0.938802 -0.9834,1.222148 -0.53082,0.283346 -1.3175,0.451135 -2.36471,0.451135 h -34.23413 l -2.67529,9.843327 h 34.49712 c 5.14976,0 9.31081,-0.914346 12.46281,-2.791561 3.15028,-1.876192 5.26011,-4.724259 6.28075,-8.447546 v -0.0021 l 0.37207,-1.293462 0.002,-0.0036 c 0.32806,-1.207311 0.49454,-2.337186 0.49454,-3.391007 0,-2.676438 -1.1851,-4.801553 -3.44888,-6.149496 -2.26377,-1.347942 -5.54317,-1.97559 -9.85108,-1.97559 h -18.56734 c -0.88762,0 -1.51367,-0.132113 -1.84847,-0.310575 -0.3348,-0.178462 -0.4191,-0.321035 -0.4191,-0.659391 0,-0.119362 0.0187,-0.266084 0.0631,-0.43925 l 0.34416,-1.287777 c 0.15231,-0.562674 0.45198,-0.935678 0.98186,-1.21853 0.53082,-0.283346 1.31751,-0.452686 2.36471,-0.452686 h 34.23409 l 2.70267,-9.843326 z m 34.72656,0 -2.7032,9.843326 h 18.5658 l -7.79694,28.422555 h 13.05863 l 7.79849,-28.422555 h 18.56579 l 2.70475,-9.843326 z m 69.00354,0 c -4.74192,0 -8.62493,1.412428 -11.52488,4.237467 l -0.0155,0.01705 -29.33051,34.011361 h 16.26774 l 6.81715,-7.751465 h 16.57884 v 7.751465 h 13.02297 V 61.88823 c 0,-3.706598 -0.97266,-6.582072 -2.98018,-8.514726 -2.0075,-1.932654 -4.98869,-2.866491 -8.83563,-2.866491 z m 22.26014,0 -6.63319,24.164416 v 0.0021 c -0.45125,1.67045 -0.68058,3.194382 -0.68058,4.578015 0,3.126739 1.22695,5.589954 3.6251,7.180957 2.39815,1.591002 5.89278,2.340426 10.47223,2.340426 h 27.60297 l 2.70474,-9.843327 h -27.89545 c -1.13788,0 -1.91481,-0.230067 -2.3828,-0.599447 -0.46799,-0.369381 -0.70642,-0.891747 -0.70642,-1.738911 0,-0.456323 0.0782,-1.008645 0.24547,-1.645895 l 6.70811,-24.438301 z m 62.08406,0 c -5.60101,-6e-6 -10.16842,1.136107 -13.65963,3.450952 -3.49122,2.314846 -5.87466,5.802421 -7.12979,10.376627 l -2.83807,10.336837 v 0.0021 c -0.45123,1.67045 -0.68058,3.194382 -0.68058,4.578015 0,3.126739 1.22747,5.589954 3.62562,7.180957 2.39816,1.591002 5.89226,2.340426 10.47171,2.340426 h 30.25448 l 6.60373,-24.054346 h -24.99485 l -2.70526,9.84281 h 11.93673 l -1.19527,4.368209 h -17.48731 c -1.13787,0 -1.91429,-0.230067 -2.38228,-0.599447 -0.46799,-0.369381 -0.70848,-0.891747 -0.70848,-1.738911 0,-0.456323 0.0798,-1.008646 0.24701,-1.645895 l 0.002,-0.0062 2.836,-10.330636 c 0.40321,-1.472945 1.05551,-2.521527 1.93321,-3.21169 0.8777,-0.690163 2.00309,-1.046448 3.45716,-1.046448 h 30.28394 l 2.67374,-9.843326 z m 30.74748,0 -10.50168,38.265881 h 13.06018 14.23427 l 6.81664,-7.751465 h 16.57884 v 7.751465 h 13.02297 V 61.88823 c 0,-3.706598 -0.97266,-6.582072 -2.98018,-8.514726 -2.00751,-1.932654 -4.98871,-2.866491 -8.83563,-2.866491 -4.74193,0 -8.61501,1.420533 -11.52281,4.237467 l -0.0176,0.01705 -26.34723,30.551624 9.55239,-34.806144 z M 74.27519,54.086639 87.036685,69.543577 65.79147,85.002065 Z m 254.47335,6.2637 h 15.91634 c 1.13788,0 1.9143,0.230066 2.38228,0.599447 0.46799,0.369381 0.70642,0.8933 0.70642,1.740462 0,0.45797 -0.079,1.009856 -0.24753,1.650029 l -2.83755,10.331152 c -0.4032,1.472945 -1.05345,2.523078 -1.93115,3.213241 -0.87771,0.690163 -2.00309,1.044897 -3.45716,1.044897 h -15.91375 c -1.13788,0 -1.91687,-0.230065 -2.38487,-0.599447 -0.46799,-0.36938 -0.70642,-0.891749 -0.70642,-1.738911 0,-0.456398 0.0802,-1.009028 0.24753,-1.646412 l 2.83756,-10.33632 c 0.4032,-1.472945 1.05395,-2.521527 1.93166,-3.21169 0.87769,-0.690163 2.00257,-1.046448 3.45664,-1.046448 z m 154.00507,0.747758 v 10.080005 h -8.05378 l 6.93395,-8.709546 0.002,-0.0021 c 0.47628,-0.614088 0.68782,-1.571076 1.11776,-1.368392 z m 156.48709,0 v 10.080005 h -8.05378 l 6.93395,-8.709546 0.002,-0.0021 c 0.47628,-0.614088 0.70129,-1.597456 1.11777,-1.368392 z"
     inkscape:label="Inline"
     sodipodi:nodetypes="cccccccccssccsssccccccccccssccsssscccsscccccccssscccssssccsssccccssscccccsssccscccccscccsssccssccccssccccsscccccccccccccccccccscccsssccsssccccccssccccccsssccssscccssccccssccssccccssccssscccssssscccsssssscccsssssscccssccssccccssssssccssccscccccccccsccccccccssscccsssccssscccsscccsssccccccssscccssccsccccccccssssccccccccssssccsssssccsscccccsccccccsc" /><path
     id="path227"
     style="font-style:italic;font-size:53.6136px;line-height:0;font-family:Zebulon;-inkscape-font-specification:'Zebulon Italic';text-align:center;letter-spacing:0px;word-spacing:0px;text-anchor:middle;display:inline;fill:url(#linearGradient229);stroke-width:1.07227;stroke-linecap:square;stroke-miterlimit:8;paint-order:fill markers stroke"
     d="m 393.17351,2.7923435 q 8.30178,0 8.30178,10.2836195 v 0.465088 l 0.4509,10.516163 6.23296,-10.516163 q 5.70251,-10.7487075 14.18996,-10.7487075 11.00715,0 11.00715,8.3974275 0,2.222088 -0.76916,5.038457 l -6.52473,23.771181 h -11.93548 l 6.89605,-25.063093 q 0.0531,-0.180868 0.0531,-0.335897 0,-0.439251 -0.50394,-0.439251 -0.7957,0 -3.34194,4.754236 l -9.54837,15.502945 q -2.97061,5.58106 -8.80573,5.58106 h -2.65233 q -5.72902,0 -5.72902,-5.374355 v -0.206705 l -1.06094,-15.502945 v -1.059367 q 0,-3.694869 -0.68961,-3.694869 -0.66309,0 -0.87527,0.775148 l -6.89605,25.063093 h -11.93547 l 6.52472,-23.771181 Q 379.24879,2.7923435 393.17351,2.7923435 Z M 355.9083,11.577345 q -0.29175,0 -2.09534,2.325441 l -7.61217,9.560149 h 9.70751 z m 0.66309,-8.7850015 q 11.27239,0 11.27239,10.8520605 V 39.999409 H 355.9083 v -7.751472 h -17.37274 l -6.81648,7.751472 H 316.86605 L 345.43161,6.8747854 q 4.19068,-4.0824419 11.13978,-4.0824419 z m -95.11246,8.7850015 -7.79785,28.422064 h -11.93547 l 7.79784,-28.422064 h -18.56629 l 2.41362,-8.7850015 h 49.06805 l -2.41361,8.7850015 z m 27.929,14.211032 -0.21218,0.775147 q -0.26524,1.007691 -0.26524,1.782839 0,2.868044 3.63369,2.868044 h 27.18636 l -2.41362,8.785002 h -27.18636 q -13.55339,0 -13.55339,-8.991708 0,-1.989545 0.66308,-4.444177 l 2.83799,-10.335296 Q 283.765,2.7923435 300.34204,2.7923435 h 27.18636 l -2.3871,8.7850015 h -27.21287 q -4.64157,0 -5.91469,4.650883 l -0.21219,0.775147 h 31.82793 l -2.41362,8.785002 z"
     inkscape:label="Team" /><path
     id="path224"
     style="font-size:53.6136px;line-height:0;font-family:Zebulon;-inkscape-font-specification:Zebulon;text-align:center;letter-spacing:0px;word-spacing:0px;text-anchor:middle;display:inline;fill:url(#linearGradient234);stroke-width:1.07227;stroke-linecap:square;stroke-miterlimit:8;paint-order:fill markers stroke"
     d="m 640.31423,60.425479 c -0.1945,0 -0.89295,0.775147 -2.09534,2.325442 l -7.61217,9.560149 h 9.70751 z m 0.66308,-8.785001 c 7.51493,0 11.27239,3.617354 11.27239,10.852061 v 26.355005 h -11.93547 v -7.751472 h -17.37275 l -6.81647,7.751472 h -14.85303 l 28.56556,-33.124625 c 2.79378,-2.721627 6.50704,-4.082441 11.13977,-4.082441 z M 512.57813,75.411659 c -0.17682,0.671794 -0.26523,1.266074 -0.26523,1.782839 0,1.912029 1.21123,2.868044 3.63368,2.868044 h 27.18636 l -2.41362,8.785002 h -27.18635 c -9.03559,0 -13.55339,-2.997236 -13.55339,-8.991708 0,-1.326363 0.22102,-2.807756 0.66307,-4.444177 l 6.52472,-23.771181 h 11.93549 z m 46.04444,13.435885 c -9.0356,0 -13.5534,-2.997236 -13.5534,-8.991708 0,-1.326363 0.22103,-2.807756 0.66308,-4.444177 l 2.83799,-10.335297 c 2.45782,-8.957256 9.21242,-13.435884 20.26379,-13.435884 h 29.83868 l -2.3871,8.785001 H 566.4204 c -3.09438,0 -5.06594,1.550294 -5.91469,4.650883 l -2.83799,10.335297 c -0.17681,0.671794 -0.26522,1.266074 -0.26522,1.782839 0,1.912029 1.21123,2.868044 3.63368,2.868044 h 17.90321 l 1.48531,-5.42603 h -11.93547 l 2.41361,-8.785002 h 23.87095 l -6.31254,22.996034 z m 41.37625,-37.207066 h 11.93547 l -10.21146,37.207066 h -11.93547 z m -116.1719,8.785001 c -0.19451,0 -0.89296,0.775147 -2.09535,2.325442 l -7.61217,9.560149 h 9.70752 z M 484.49,51.640478 c 7.51493,0 11.27239,3.617354 11.27239,10.852061 v 26.355005 h -11.93547 v -7.751472 h -17.37275 l -6.81648,7.751472 h -14.85304 l 28.56557,-33.124625 c 2.79379,-2.721627 6.50705,-4.082441 11.13978,-4.082441 z M 42.66842,65.85151 c 2.210273,0 3.509913,-0.68902 3.898922,-2.067059 l 0.344802,-1.291912 c 0.05305,-0.206706 0.07957,-0.387574 0.07957,-0.542603 0,-1.016305 -0.945997,-1.524457 -2.83799,-1.524457 H 10.336549 l 2.440141,-8.785001 h 33.790652 c 8.505129,0 12.757694,2.532148 12.757694,7.596443 0,0.999079 -0.159139,2.084285 -0.477418,3.255618 l -0.344803,1.291912 C 56.504728,71.019158 50.422057,74.636512 40.254802,74.636512 H 18.373101 L 14.47418,88.847544 H 2.5387062 L 8.8512455,65.85151 Z M 63.144388,51.640478 H 75.079862 L 64.868401,88.847544 H 52.932928 Z M 88.341498,70.244011 72.984521,51.640478 h 14.98565 l 9.734042,11.782237 16.205717,-11.782237 h 14.98565 l -25.54191,18.603533 29.61795,36.066039 H 117.98597 L 93.964431,77.065306 77.75871,88.847544 H 62.773061 Z m 44.081672,4.392501 -0.21218,0.775147 c -0.17682,0.671794 -0.26523,1.266074 -0.26523,1.782839 0,1.912029 1.21123,2.868044 3.63369,2.868044 h 27.18635 l -2.41362,8.785002 h -27.18636 c -9.03559,0 -13.55339,-2.997236 -13.55339,-8.991708 0,-1.326363 0.22103,-2.807756 0.66308,-4.444177 l 2.83799,-10.335297 c 2.45783,-8.957256 9.21242,-13.435884 20.26379,-13.435884 h 27.18635 l -2.3871,8.785001 h -27.21287 c -3.09438,0 -5.06594,1.550294 -5.91469,4.650883 l -0.21219,0.775148 h 31.82793 l -2.41362,8.785002 z m 44.87739,0.775147 c -0.17682,0.671794 -0.26523,1.266074 -0.26523,1.782839 0,1.912029 1.21123,2.868044 3.63369,2.868044 h 27.18635 l -2.41361,8.785002 H 178.2554 c -9.03559,0 -13.55339,-2.997236 -13.55339,-8.991708 0,-1.326363 0.22103,-2.807756 0.66308,-4.444177 l 6.52473,-23.771181 h 11.93547 z m 94.36982,-12.402356 c -0.51279,0 -0.83991,0.258383 -0.98137,0.775148 l -6.89604,25.063093 h -11.93548 l 6.89605,-25.063093 c 2.21027,-8.095982 7.95698,-12.143973 17.24013,-12.143973 4.15531,0 6.9491,1.81729 8.38136,5.451869 l 7.93045,19.327003 c 0.53047,0.706245 1.09631,1.059368 1.6975,1.059368 0.51277,0 0.83989,-0.258382 0.98135,-0.775147 l 6.86954,-25.063093 h 11.93547 l -6.86954,25.063093 c -2.22795,8.095982 -7.9835,12.143973 -17.26664,12.143973 -4.15531,0 -6.9491,-1.81729 -8.38136,-5.451869 l -7.90393,-19.327004 c -0.51279,-0.706245 -1.07862,-1.059368 -1.69749,-1.059368 z m 39.75837,2.067059 c 2.45783,-8.957256 9.21242,-13.435884 20.26379,-13.435884 h 15.91396 c 9.03559,0 13.55339,2.997236 13.55339,8.991708 0,1.326363 -0.22102,2.807755 -0.66307,4.444176 l -3.55412,12.919121 c -1.98041,7.234707 -8.49629,10.852061 -19.54766,10.852061 h -15.91396 c -9.0356,0 -13.5534,-2.997236 -13.5534,-8.991708 0,-1.326363 0.22103,-2.807756 0.66308,-4.444177 z m 37.13259,0 c 0.17682,-0.671794 0.26523,-1.266073 0.26523,-1.782838 0,-1.91203 -1.21123,-2.868045 -3.63368,-2.868045 h -15.91396 c -3.09439,0 -5.06595,1.550294 -5.9147,4.650883 l -2.83799,10.335297 c -0.17682,0.671794 -0.26523,1.266074 -0.26523,1.782839 0,1.912029 1.21123,2.868044 3.63369,2.868044 h 15.91396 c 3.09439,0 5.06595,-1.550294 5.91469,-4.650883 z m 25.88674,9.56015 c -8.50513,0 -12.7577,-2.523535 -12.7577,-7.570605 0,-0.999079 0.16798,-2.092897 0.50394,-3.281456 l 0.3448,-1.291912 c 1.98041,-7.234707 8.05424,-10.852061 18.22149,-10.852061 h 33.81718 l -2.41362,8.785001 H 378.347 c -2.21028,0 -3.50108,0.68902 -3.87241,2.06706 l -0.3448,1.291912 c -0.053,0.206706 -0.0795,0.396186 -0.0795,0.568441 0,0.999079 0.93715,1.498618 2.81146,1.498618 h 18.56629 c 8.50513,0 12.7577,2.532148 12.7577,7.596443 0,0.999079 -0.15914,2.084285 -0.47743,3.255618 l -0.37131,1.291912 c -1.98041,7.234707 -8.05424,10.852061 -18.2215,10.852061 h -33.79065 l 2.3871,-8.785002 h 33.81717 c 2.21027,0 3.50107,-0.68902 3.8724,-2.067059 l 0.37132,-1.291912 c 0.053,-0.206706 0.0795,-0.387574 0.0795,-0.542603 0,-1.016304 -0.946,-1.524456 -2.83799,-1.524456 z m 69.544,-14.211033 -7.79784,28.422065 h -11.93548 l 7.79785,-28.422065 h -18.56629 l 2.41361,-8.785001 H 464.972 l -2.41363,8.785001 z"
     inkscape:label="PixelNostalgia"
     sodipodi:nodetypes="cccccsscccccccscssccssccccssccsccsccssccccccsccccccccccsscccccccssccssccssccsccccsccccccccccccccccccccssccssccsccsscccccssccssccccsccccsccsccccsccscsssccssscccsssccsssccssccsccsccssssccsccsccsssccccccccc" /></svg>
