<?xml version="1.0" encoding="UTF-8" standalone="no"?>
<!-- Created with Inkscape (http://www.inkscape.org/) -->

<svg
   width="978.06354mm"
   height="217.5717mm"
   viewBox="0 0 978.06354 217.5717"
   version="1.1"
   id="svg1"
   inkscape:version="1.4 (86a8ad7, 2024-10-11)"
   sodipodi:docname="switch.svg"
   xmlns:inkscape="http://www.inkscape.org/namespaces/inkscape"
   xmlns:sodipodi="http://sodipodi.sourceforge.net/DTD/sodipodi-0.dtd"
   xmlns="http://www.w3.org/2000/svg"
   xmlns:svg="http://www.w3.org/2000/svg">
  <sodipodi:namedview
     id="namedview1"
     pagecolor="#ffffff"
     bordercolor="#000000"
     borderopacity="0.25"
     inkscape:showpageshadow="2"
     inkscape:pageopacity="0.0"
     inkscape:pagecheckerboard="true"
     inkscape:deskcolor="#d1d1d1"
     inkscape:document-units="mm"
     inkscape:zoom="0.41179679"
     inkscape:cx="1735.0791"
     inkscape:cy="428.60946"
     inkscape:window-width="3840"
     inkscape:window-height="2066"
     inkscape:window-x="-11"
     inkscape:window-y="-11"
     inkscape:window-maximized="1"
     inkscape:current-layer="svg1" />
  <defs
     id="defs1">
    <mask
       maskUnits="userSpaceOnUse"
       x="0"
       y="0.2"
       width="807.3"
       height="807.2"
       id="b_3_">
      <g
         class="st3"
         id="g1">
        <path
           id="a_3_"
           class="st4"
           d="M 807.2,807.4 H 0 V 0.2 h 807.2 z" />
      </g>
    </mask>
    <filter
       id="Adobe_OpacityMaskFilter"
       filterUnits="userSpaceOnUse"
       x="0"
       y="0.2"
       width="807.29999"
       height="807.20001">
      <feColorMatrix
         type="matrix"
         values="1 0 0 0 0  0 1 0 0 0  0 0 1 0 0  0 0 0 1 0"
         id="feColorMatrix1" />
    </filter>
  </defs>
  <g
     id="g4"
     inkscape:label="SwitchShadow"
     style="display:none;fill:#000000"
     transform="translate(2,2)">
    <path
       d="m 35.25813,66.055623 c 0,11.08604 8.99583,20.08187 20.08187,20.08187 11.08604,0 20.08188,-8.99583 20.08188,-20.08187 0,-11.08605 -8.99584,-20.08188 -20.08188,-20.08188 h -0.0265 c -11.05958,0 -20.05542,8.99583 -20.05542,20.08188 z M 87.80438,198.34728 H 56.76875 C 46.79396,198.37374 37.2425,194.43145 30.20458,187.36707 23.14021,180.35561 19.17146,170.7777 19.19792,160.80291 V 56.742283 c 0,-10.02771 3.91583,-19.446873 10.98021,-26.537703 C 37.21604,23.1402 46.7675,19.17145 56.74229,19.19791 H 87.75146 V 198.34728 Z M 103.44125,2 H 56.76875 C 26.52688,2 2,26.50041 2,56.742283 V 160.80291 c 0,30.24187 24.52688,54.76875 54.76875,54.76875 h 46.6725 c 0.87313,0 1.56104,-0.68792 1.56104,-1.56105 V 213.98416 3.56104 C 105.00229,2.68791 104.31438,2 103.44125,2 Z m 65.19333,95.858533 c 11.93271,0.23813 21.40479,10.107087 21.16667,22.039787 -0.23813,11.58875 -9.57792,20.92854 -21.16667,21.16667 -11.9327,-0.23813 -21.40479,-10.10708 -21.16666,-22.03979 0.26458,-11.58875 9.57791,-20.928537 21.16666,-21.166667 z M 127.94167,215.57166 h 32.86125 c 30.24187,0 54.76875,-24.52688 54.76875,-54.76875 V 56.742283 C 215.57167,26.50041 191.04479,2 160.80292,2 h -33.02 c -0.76729,0 -1.37584,0.60854 -1.40229,1.34937 v 0.0265 210.60833 c 0,0.87312 0.71437,1.5875 1.56104,1.5875 z"
       style="clip-rule:evenodd;display:inline;fill:#000000;fill-rule:evenodd;stroke-width:0.264583"
       id="path3"
       inkscape:label="Logo" />
    <path
       class="st2"
       d="m 844.03645,53.669683 h -12.99104 v -34.55458 h 12.99104 c 9.525,0.0265 17.25083,7.75229 17.25083,17.27729 0,9.525 -7.69937,17.25084 -17.25083,17.27729 z M 843.42791,6.6003133 H 818.7952 V 66.184483 h 24.63271 c 16.90687,0 30.63875,-13.36146 30.63875,-29.79209 0.0264,-16.43062 -13.73188,-29.7920797 -30.63875,-29.7920797 z M 797.81374,117.96343 c 12.7,0 24.52687,6.77334 30.85042,17.43605 l 18.30916,-15.875 c -11.1125,-16.61584 -29.79208,-26.564167 -49.79458,-26.537707 -33.09937,0 -60.0075,26.908117 -60.0075,59.981037 0,33.07291 26.90813,59.98104 60.0075,59.98104 20.10833,0 38.60271,-9.89542 49.79458,-26.53771 l -18.30916,-15.90146 c -6.32355,10.68917 -18.15042,17.43604 -30.85042,17.43604 -19.65854,0 -35.63937,-15.68979 -35.63937,-35.00437 0,-19.28812 15.98083,-34.97792 35.63937,-34.97792 z m -173.355,2.54 h 35.90396 v 88.52959 h 24.18292 v -88.52959 h 35.1102 V 96.638023 h -95.19708 z m 323.92937,20.4523 H 895.92124 V 96.638023 H 872.66436 V 209.03302 h 23.25688 V 164.2126 h 52.46687 v 44.82042 h 23.25688 V 96.638023 h -23.25688 z m -4.07458,-86.016047 c -10.21292,-0.0265 -18.49437,-8.30791 -18.49437,-18.54729 0,-10.21291 8.30791,-18.54729 18.49437,-18.54729 10.23937,0.0265 18.49437,8.30792 18.52083,18.54729 0,10.23938 -8.28146,18.52084 -18.52083,18.54729 z m 0,-50.3237397 c -17.48896,0 -31.72354,14.2610397 -31.72354,31.7764497 0,17.54188 14.23458,31.80292 31.72354,31.80292 17.51542,0 31.75,-14.26104 31.75,-31.80292 0,-17.51541 -14.23458,-31.7764497 -31.75,-31.7764497 z M 665.62791,55.151353 h -34.21063 v -13.97 h 31.64417 v -10.76854 h -31.64417 v -12.85875 h 34.21063 V 6.6003133 l -46.32854,0.0265 V 66.184523 l 46.32854,-0.0265 z m 102.79062,11.03313 V 6.6003133 H 756.32707 V 45.732183 L 727.0377,6.6003133 H 714.99916 V 66.184483 h 12.065 v -39.81979 l 29.58041,39.81979 z m -397.24541,0 h 13.25563 V 6.6003133 h -13.25563 z m -51.69958,74.586037 c -16.21896,-2.67229 -26.69646,-5.68854 -26.69646,-13.22917 0,-8.75771 11.66812,-12.09146 27.33146,-12.09146 14.57854,0 29.18354,5.55625 34.39583,7.72584 l 7.99042,-19.42042 c -5.66209,-2.24896 -23.60084,-8.651877 -43.52396,-8.651877 -24.28875,0 -50.11208,11.853337 -50.11208,33.787297 0,17.78 12.54125,26.90812 44.79395,32.43791 22.72771,3.91584 35.21605,6.05896 34.87209,15.84854 -0.21167,5.37104 -4.36563,14.39334 -29.97729,14.39334 -20.61104,0 -35.11021,-7.46125 -40.16375,-10.50396 l -10.63625,19.20875 c 5.68854,2.98979 24.68562,11.90625 49.15958,11.90625 35.77167,0 54.66292,-12.3825 54.66292,-35.82459 0.0265,-13.62604 -4.55084,-27.78124 -52.09646,-35.58645 z M 497.93499,178.20906 474.14895,96.638023 H 454.19937 L 430.4927,177.8651 408.87624,96.638023 h -24.44749 l 31.80291,112.394997 h 27.01396 l 20.92854,-74.03042 20.82271,74.03042 h 27.11979 L 544.07833,96.638023 h -24.4475 z m -56.48854,-151.844367 29.60688,39.81979 h 11.77396 V 6.6003133 H 470.73583 V 45.732183 L 441.41999,6.6003133 H 429.38145 V 66.184483 h 12.065 z M 572.01833,209.03302 h 25.00312 V 96.638023 H 572.01833 Z M 575.69603,6.6003133 H 525.21354 V 19.247393 h 19.04999 v 46.93709 h 12.8323 v -46.93709 h 18.6002 z m -290.77708,19.7643797 29.60688,39.81979 h 11.7475 V 6.6003133 H 314.18187 V 45.732183 L 284.8925,6.6003133 H 272.88041 V 66.184483 h 12.065 z"
       id="path4"
       inkscape:label="Nintendo Switch"
       sodipodi:nodetypes="ccccscsccscsscccssccssscccccccccccccccccccccccscccsssssccccccccccccccccccccccccccccccssccssccsccsccccccccccccccccccccccccccccccccccccccccccccccccccccc"
       style="clip-rule:evenodd;fill:#000000;fill-rule:evenodd;stroke-width:0.264583" />
  </g>
  <g
     id="g5"
     inkscape:label="SwitchOutline"
     style="display:none;fill:#ffffff"
     transform="translate(2,2)">
    <path
       id="path9"
       style="clip-rule:evenodd;fill-rule:evenodd"
       d="M 54.769661,-2 C 23.447593,-2 -2,23.419035 -2,54.742273 V 158.80259 c 0,31.32324 25.446426,56.76966 56.769661,56.76966 h 60.058869 14.12937 29.84417 c 31.32324,0 56.76966,-25.44642 56.76966,-56.76966 V 54.742273 C 215.57223,23.419035 190.12466,-2 158.80259,-2 H 128.9579 114.67091 Z"
       inkscape:label="Logo" />
    <path
       id="path10"
       style="clip-rule:evenodd;fill:#e60012;fill-rule:evenodd"
       d="m 942.31445,0.61534424 c -18.5762,0 -33.72455,15.17827176 -33.72455,33.77726676 0,18.62383 15.14835,33.802588 33.72455,33.802588 18.60102,0 33.74988,-15.178758 33.74988,-33.802588 0,-18.598995 -15.14886,-33.77726675 -33.74988,-33.77726676 z M 268.88062,2.5997192 V 66.183435 h 16.06672 l -0.0233,-35.77146 26.59734,35.77146 H 326.2735 V 2.5997192 H 310.18146 V 37.720573 L 283.89469,2.5997192 Z m 98.29323,0 V 66.183435 h 17.25579 V 2.5997192 Z m 58.20678,0 V 66.183435 h 16.06672 V 30.408358 l 26.60148,35.775077 h 14.77946 V 2.5997192 H 466.73625 V 37.728324 L 440.42002,2.5997192 Z m 95.83239,0 V 19.247799 h 19.05052 v 46.935636 h 16.83205 V 19.247799 h 18.5999 V 2.5997192 Z m 144.41393,0 -50.3282,0.028939 V 66.185502 l 50.3282,-0.02945 V 51.150244 H 631.41818 V 41.18186 H 663.0607 V 26.412219 h -31.64252 v -8.85734 h 34.20877 z m 45.37294,0 V 66.183435 h 16.06465 V 30.409908 l 26.57409,35.773527 h 14.77946 V 2.5997192 H 752.32605 V 37.720573 L 726.03928,2.5997192 Z m 103.79521,0 V 66.183435 h 26.63249 c 17.95925,0 32.63661,-14.244066 32.63883,-31.787207 v -0.0016 C 874.0935,16.846803 859.38752,2.5997192 841.42759,2.5997192 Z M 942.30877,17.845817 c 9.16379,0.02372 16.5014,7.385247 16.52509,16.552478 -0.003,9.154919 -7.35809,16.512149 -16.51527,16.541109 -9.13457,-0.0237 -16.50029,-7.385792 -16.50029,-16.546793 0,-9.126288 7.39765,-16.543555 16.49047,-16.546794 z M 831.04476,19.11499 h 10.98641 c 8.44655,0.0235 15.25591,6.834102 15.25591,15.277621 0,8.44524 -6.77705,15.250453 -15.25023,15.277103 h -10.99209 z m -35.86913,69.871188 c -34.1815,0.0021 -62.00397,27.826372 -62.00397,61.982782 0,34.15771 27.82479,61.98019 62.0081,61.98019 20.76447,0 39.89682,-10.23728 51.45319,-27.42158 l 0.98599,-1.46709 -21.45502,-18.63452 -1.2206,2.06602 c -5.95492,10.06604 -17.1373,16.45326 -29.12897,16.45326 -18.59438,0 -33.64032,-14.79229 -33.64032,-33.00367 0,-18.18341 15.04594,-32.97887 33.64032,-32.97887 11.98889,0 23.17396,6.41612 29.12897,16.4574 l 1.22267,2.05827 21.4514,-18.59938 -0.98082,-1.4671 C 835.15411,99.242879 815.84556,88.960148 795.17976,88.986178 Z m -478.20492,2.117183 c -12.46972,0 -25.29945,3.007176 -35.19527,8.955009 -9.89582,5.94784 -16.91628,15.0806 -16.91628,26.83247 0,9.36023 3.52031,16.91662 11.12697,22.43119 7.60665,5.51456 19.06363,9.19003 35.32808,11.9786 l -0.002,-0.002 c 11.36409,1.95796 20.13494,3.5003 25.71833,5.62136 2.79169,1.06053 4.74134,2.25532 5.90041,3.54087 1.15778,1.28412 1.66333,2.62389 1.5937,4.64054 -0.0879,2.21467 -0.83039,5.05365 -4.59558,7.63675 -3.76708,2.58439 -10.81157,4.83226 -23.38256,4.83226 -20.12836,0 -34.28786,-7.30096 -39.13094,-10.21695 l -1.77715,-1.07022 -12.63127,22.8105 1.80867,0.95136 c 5.86217,3.08105 25.13024,12.13673 50.08997,12.13673 18.1166,0 32.15243,-3.09776 41.84396,-9.44955 9.69046,-6.35108 14.81915,-16.1145 14.82028,-28.37088 v -0.002 c 0.0134,-7.03782 -1.33222,-14.84825 -8.89093,-21.48241 -7.55917,-6.63456 -20.9289,-12.14792 -44.88098,-16.08015 h -0.002 c -8.05759,-1.32765 -14.63694,-2.76198 -18.95337,-4.6483 -2.1584,-0.94325 -3.72427,-1.99147 -4.68343,-3.06648 -0.95917,-1.07501 -1.38286,-2.11887 -1.38286,-3.54087 0,-1.74532 0.52211,-3.05546 1.57819,-4.27364 1.05608,-1.21818 2.71712,-2.31237 4.94906,-3.19515 4.46387,-1.76557 11.11476,-2.6231 18.80453,-2.6231 14.07038,0 28.51987,5.44638 33.62689,7.57215 l 1.85363,0.77153 9.52552,-23.14846 -1.88309,-0.747757 c -5.79853,-2.303096 -23.90975,-8.793262 -44.26138,-8.793262 z m 62.81426,1.535307 32.9339,116.394442 h 30.039 l 19.41225,-68.65834 19.31251,68.65834 h 30.14442 L 544.72632,92.638668 H 516.09396 L 495.84558,168.7596 473.64849,92.638668 H 450.69898 L 428.58199,168.42009 408.41423,92.638668 Z m 188.23243,0 V 209.03311 h 29.00392 V 92.638668 Z m 52.44176,0 v 27.865482 h 35.90427 v 88.52896 h 28.18174 v -88.52896 h 35.11104 V 92.638668 Z m 248.20501,0 V 209.03311 h 27.25777 v -44.82 h 48.46681 v 44.82 h 27.2557 V 92.638668 h -27.2557 V 136.95483 H 895.92194 V 92.638668 Z"
       inkscape:label="Nintendo Switch" />
  </g>
  <g
     id="g6"
     inkscape:label="Switch"
     style="display:inline"
     transform="translate(2,2)">
    <path
       d="M 101.44125,0 H 54.76875 C 24.52688,0 0,24.50041 0,54.742283 V 158.80291 c 0,30.24187 24.52688,54.76875 54.76875,54.76875 h 46.6725 c 0.87313,0 1.56104,-0.68792 1.56104,-1.56105 V 211.98416 1.56104 C 103.00229,0.68791 102.31438,0 101.44125,0 Z m 24.50042,213.57166 h 32.86125 c 30.24187,0 54.76875,-24.52688 54.76875,-54.76875 V 54.742283 C 213.57167,24.50041 189.04479,0 158.80292,0 h -33.02 c -0.76729,0 -1.37584,0.60854 -1.40229,1.34937 v 0.0265 210.60833 c 0,0.87312 0.71437,1.5875 1.56104,1.5875 z"
       style="clip-rule:evenodd;display:none;fill:#ffffff;fill-rule:evenodd;stroke-width:0.264583"
       id="path11"
       inkscape:label="Logo"
       sodipodi:nodetypes="ssssssscsscsssssccssc" />
    <path
       d="m 33.25813,64.055623 c 0,11.08604 8.99583,20.08187 20.08187,20.08187 11.08604,0 20.08188,-8.99583 20.08188,-20.08187 0,-11.08605 -8.99584,-20.08188 -20.08188,-20.08188 h -0.0265 c -11.05958,0 -20.05542,8.99583 -20.05542,20.08188 z M 85.80438,196.34728 H 54.76875 C 44.79396,196.37374 35.2425,192.43145 28.20458,185.36707 21.14021,178.35561 17.17146,168.7777 17.19792,158.80291 V 54.742283 c 0,-10.02771 3.91583,-19.446873 10.98021,-26.537703 C 35.21604,21.1402 44.7675,17.17145 54.74229,17.19791 H 85.75146 V 196.34728 Z M 101.44125,0 H 54.76875 C 24.52688,0 0,24.50041 0,54.742283 V 158.80291 c 0,30.24187 24.52688,54.76875 54.76875,54.76875 h 46.6725 c 0.87313,0 1.56104,-0.68792 1.56104,-1.56105 V 211.98416 1.56104 C 103.00229,0.68791 102.31438,0 101.44125,0 Z m 65.19333,95.858533 c 11.93271,0.23813 21.40479,10.107087 21.16667,22.039787 -0.23813,11.58875 -9.57792,20.92854 -21.16667,21.16667 -11.9327,-0.23813 -21.40479,-10.10708 -21.16666,-22.03979 0.26458,-11.58875 9.57791,-20.928537 21.16666,-21.166667 z M 125.94167,213.57166 h 32.86125 c 30.24187,0 54.76875,-24.52688 54.76875,-54.76875 V 54.742283 C 213.57167,24.50041 189.04479,0 158.80292,0 h -33.02 c -0.76729,0 -1.37584,0.60854 -1.40229,1.34937 v 0.0265 210.60833 c 0,0.87312 0.71437,1.5875 1.56104,1.5875 z"
       style="clip-rule:evenodd;display:inline;fill:#e60012;fill-rule:evenodd;stroke-width:0.264583"
       id="path5"
       inkscape:label="Logo" />
    <path
       class="st2"
       d="m 842.03645,51.669683 h -12.99104 v -34.55458 h 12.99104 c 9.525,0.0265 17.25083,7.75229 17.25083,17.27729 0,9.525 -7.69937,17.25084 -17.25083,17.27729 z M 841.42791,4.6003133 H 816.7952 V 64.184483 h 24.63271 c 16.90687,0 30.63875,-13.36146 30.63875,-29.79209 0.0264,-16.43062 -13.73188,-29.7920797 -30.63875,-29.7920797 z M 795.81374,115.96343 c 12.7,0 24.52687,6.77334 30.85042,17.43605 l 18.30916,-15.875 c -11.1125,-16.61584 -29.79208,-26.564167 -49.79458,-26.537707 -33.09937,0 -60.0075,26.908117 -60.0075,59.981037 0,33.07291 26.90813,59.98104 60.0075,59.98104 20.10833,0 38.60271,-9.89542 49.79458,-26.53771 l -18.30916,-15.90146 c -6.32355,10.68917 -18.15042,17.43604 -30.85042,17.43604 -19.65854,0 -35.63937,-15.68979 -35.63937,-35.00437 0,-19.28812 15.98083,-34.97792 35.63937,-34.97792 z m -173.355,2.54 h 35.90396 v 88.52959 h 24.18292 v -88.52959 h 35.1102 V 94.638023 h -95.19708 z m 323.92937,20.4523 H 893.92124 V 94.638023 H 870.66436 V 207.03302 h 23.25688 V 162.2126 h 52.46687 v 44.82042 h 23.25688 V 94.638023 h -23.25688 z m -4.07458,-86.016047 c -10.21292,-0.0265 -18.49437,-8.30791 -18.49437,-18.54729 0,-10.21291 8.30791,-18.54729 18.49437,-18.54729 10.23937,0.0265 18.49437,8.30792 18.52083,18.54729 0,10.23938 -8.28146,18.52084 -18.52083,18.54729 z m 0,-50.3237397 c -17.48896,0 -31.72354,14.2610397 -31.72354,31.7764497 0,17.54188 14.23458,31.80292 31.72354,31.80292 17.51542,0 31.75,-14.26104 31.75,-31.80292 0,-17.51541 -14.23458,-31.7764497 -31.75,-31.7764497 z M 663.62791,53.151353 h -34.21063 v -13.97 h 31.64417 v -10.76854 h -31.64417 v -12.85875 h 34.21063 V 4.6003133 l -46.32854,0.0265 V 64.184523 l 46.32854,-0.0265 z m 102.79062,11.03313 V 4.6003133 H 754.32707 V 43.732183 L 725.0377,4.6003133 H 712.99916 V 64.184483 h 12.065 v -39.81979 l 29.58041,39.81979 z m -397.24541,0 h 13.25563 V 4.6003133 h -13.25563 z m -51.69958,74.586037 c -16.21896,-2.67229 -26.69646,-5.68854 -26.69646,-13.22917 0,-8.75771 11.66812,-12.09146 27.33146,-12.09146 14.57854,0 29.18354,5.55625 34.39583,7.72584 l 7.99042,-19.42042 c -5.66209,-2.248957 -23.60084,-8.651877 -43.52396,-8.651877 -24.28875,0 -50.11208,11.853337 -50.11208,33.787297 0,17.78 12.54125,26.90812 44.79395,32.43791 22.72771,3.91584 35.21605,6.05896 34.87209,15.84854 -0.21167,5.37104 -4.36563,14.39334 -29.97729,14.39334 -20.61104,0 -35.11021,-7.46125 -40.16375,-10.50396 l -10.63625,19.20875 c 5.68854,2.98979 24.68562,11.90625 49.15958,11.90625 35.77167,0 54.66292,-12.3825 54.66292,-35.82459 0.0265,-13.62604 -4.55084,-27.78124 -52.09646,-35.58645 z M 495.93499,176.20906 472.14895,94.638023 H 452.19937 L 428.4927,175.8651 406.87624,94.638023 h -24.44749 l 31.80291,112.394997 h 27.01396 l 20.92854,-74.03042 20.82271,74.03042 h 27.11979 L 542.07833,94.638023 h -24.4475 z m -56.48854,-151.844367 29.60688,39.81979 h 11.77396 V 4.6003133 H 468.73583 V 43.732183 L 439.41999,4.6003133 H 427.38145 V 64.184483 h 12.065 z M 570.01833,207.03302 h 25.00312 V 94.638023 H 570.01833 Z M 573.69603,4.6003133 H 523.21354 V 17.247393 h 19.04999 v 46.93709 h 12.8323 v -46.93709 h 18.6002 z m -290.77708,19.7643797 29.60688,39.81979 h 11.7475 V 4.6003133 H 312.18187 V 43.732183 L 282.8925,4.6003133 H 270.88041 V 64.184483 h 12.065 z"
       id="path6"
       inkscape:label="Nintendo Switch"
       sodipodi:nodetypes="ccccscsccscsscccssccssscccccccccccccccccccccccscccsssssccccccccccccccccccccccccccccccssccssccsccsccccccccccccccccccccccccccccccccccccccccccccccccccccc"
       style="clip-rule:evenodd;fill:#e60012;fill-rule:evenodd;stroke-width:0.264583;fill-opacity:1" />
  </g>
</svg>
